M48
; DRILL file KiCad 10.0.3 date 2026-09-20T11:28:45
; FORMAT={-:-/ absolute / metric / decimal}
; #@! TF.CreationDate,2026-09-20T11:28:45-06:00
; #@! TF.GenerationSoftware,Kicad,Pcbnew,10.0.3
; #@! TF.FileFunction,Plated,1,4,PTH
FMAT,2
METRIC
; #@! TA.AperFunction,Plated,PTH,ViaDrill
T1C0.254
; #@! TA.AperFunction,Plated,PTH,ComponentDrill
T2C0.254
; #@! TA.AperFunction,Plated,PTH,ComponentDrill
T3C0.600
; #@! TA.AperFunction,Plated,PTH,ViaDrill
T4C0.800
; #@! TA.AperFunction,Plated,PTH,ComponentDrill
T5C1.000
; #@! TA.AperFunction,Plated,PTH,ComponentDrill
T6C1.020
%
G90
G05
T1
X60.88Y-90.1
X60.89Y-91.13
X65.89Y-70.24
X66.37Y-93.03
X66.48Y-72.52
X67.28Y-87.99
X67.53Y-72.53
X68.11Y-72.19
X68.18Y-90.53
X68.55Y-94.53
X68.66Y-90.03
X69.05Y-81.48
X69.61Y-98.47
X69.62Y-76.48
X69.62Y-79.66
X69.64Y-95.72
X70.32Y-87.91
X70.89Y-76.64
X71.01Y-87.76
X72.0Y-68.48
X72.16Y-76.59
X73.1Y-70.92
X73.33Y-96.7
X73.49Y-82.75
X73.96Y-96.72
X74.02Y-82.22
X74.6Y-96.71
X74.75Y-81.57
X75.33Y-87.78
X75.45Y-72.77
X75.65Y-80.77
X75.66Y-97.87
X75.66Y-100.33
X76.33Y-70.24
X76.33Y-97.52
X76.49Y-88.59
X77.56Y-85.57
X77.7Y-90.43
X77.72Y-91.45
X77.72Y-93.54
X77.72Y-94.53
X77.75Y-92.5
X78.14Y-89.52
X78.16Y-94.03
X78.19Y-93.02
X78.22Y-91.85
X78.23Y-90.77
X79.19Y-82.12
X79.3Y-86.36
X80.49Y-69.79
X80.94Y-87.38
X82.0Y-82.37
X82.56Y-88.23
X82.7Y-85.58
X83.33Y-92.46
X84.39Y-82.37
X84.4Y-91.85
X85.6Y-72.77
X85.64Y-80.77
X85.89Y-90.17
X86.36Y-70.2
X86.92Y-90.77
X87.85Y-88.18
X89.54Y-82.37
X90.48Y-69.73
X91.98Y-82.35
X92.27Y-96.69
X92.86Y-96.04
X92.95Y-94.72
X94.37Y-82.35
X94.69Y-93.41
X95.62Y-72.77
X95.69Y-80.77
X96.18Y-70.27
X97.4Y-96.91
X97.48Y-99.11
X98.07Y-82.38
X98.48Y-99.11
X99.47Y-96.76
X99.49Y-99.53
X100.112Y-95.908
X100.47Y-82.37
X100.48Y-69.72
X101.11Y-94.41
X101.96Y-97.02
X102.23Y-75.8
X102.23Y-77.59
X102.24Y-76.73
X102.25Y-74.91
X103.29Y-82.49
X103.68Y-96.21
X103.69Y-94.91
X103.73Y-93.87
X104.41Y-79.98
X104.41Y-81.77
X104.42Y-80.91
X104.42Y-84.56
X104.43Y-79.09
X104.43Y-83.7
X105.72Y-72.77
X105.79Y-80.77
X106.31Y-70.26
X109.3Y-69.38
X110.16Y-69.39
X110.48Y-67.45
X111.09Y-69.38
X111.91Y-78.77
X111.98Y-69.4
X113.07Y-65.77
X113.08Y-77.32
X113.24Y-72.23
X113.25Y-73.76
X113.25Y-74.88
X113.34Y-76.67
X113.54Y-75.99
X113.71Y-82.46
X113.71Y-83.46
X113.82Y-72.97
X113.85Y-78.01
X113.93Y-65.78
X114.38Y-75.17
X114.42Y-72.23
X114.42Y-73.77
X114.86Y-65.77
X114.98Y-72.98
X115.55Y-72.23
X115.75Y-65.79
X115.84Y-80.49
X115.84Y-81.19
X115.84Y-81.85
X115.84Y-82.47
X115.91Y-73.08
X115.91Y-73.78
X115.91Y-74.44
X115.91Y-75.06
X116.05Y-77.77
X116.11Y-83.64
X116.13Y-84.55
X116.29Y-102.37
X116.66Y-77.77
X117.17Y-72.22
X117.25Y-102.37
X117.27Y-80.417
X117.27Y-73.93
X117.27Y-74.48
X117.27Y-75.06
X117.27Y-77.77
X117.27Y-81.05
X117.28Y-81.65
X117.79Y-81.31
X117.88Y-74.25
X117.9Y-77.77
X118.27Y-81.65
X118.4Y-73.92
X118.5Y-77.77
X118.72Y-81.29
X118.8Y-102.35
X118.93Y-74.25
X119.32Y-75.57
X119.62Y-80.13
X119.76Y-102.35
X120.33Y-75.8
X120.36Y-87.32
X120.42Y-89.28
X120.555Y-79.175
X120.775Y-77.145
X120.82Y-95.86
X121.08Y-88.27
X121.13Y-70.14
X121.13Y-71.1
X121.18Y-76.3
X121.33Y-77.78
X121.38Y-74.08
X121.43Y-81.48
X121.46Y-102.25
X121.5Y-101.14
X121.71Y-74.59
X121.73Y-87.29
X121.79Y-89.25
X121.84Y-95.86
X121.98Y-80.89
X122.17Y-78.6
X122.34Y-74.71
X122.57Y-83.75
X122.57Y-84.71
X122.57Y-88.35
X122.65Y-80.58
X122.81Y-75.17
X122.93Y-95.86
X123.28Y-87.29
X123.34Y-89.25
X123.5Y-75.23
X124.07Y-80.3
X124.2Y-77.77
X124.2Y-88.31
X124.24Y-75.24
X124.85Y-80.3
X124.94Y-75.24
X124.94Y-77.76
X125.0Y-87.29
X125.06Y-89.25
X125.63Y-80.3
X125.65Y-77.76
X125.67Y-75.24
X125.87Y-88.33
X126.02Y-98.26
X126.59Y-87.29
X126.65Y-89.25
X126.75Y-102.25
X127.51Y-88.35
X128.31Y-87.29
X128.37Y-89.25
X129.19Y-88.3
X129.96Y-87.29
X130.02Y-89.25
X130.88Y-88.29
T2
X71.68Y-90.88
X71.68Y-93.68
X73.08Y-92.28
X74.48Y-90.88
X74.48Y-93.68
X97.575Y-93.52
X97.575Y-94.81
X98.865Y-93.52
X98.865Y-94.81
T4
X114.73Y-84.77
X117.23Y-67.27
X122.23Y-67.27
X124.73Y-69.77
X124.73Y-84.77
X127.23Y-67.27
X127.23Y-72.27
X127.23Y-77.27
X127.23Y-82.27
X129.73Y-69.77
X129.73Y-74.77
X129.73Y-79.77
X129.73Y-84.77
X132.23Y-72.27
X132.23Y-77.27
X132.23Y-82.27
T6
X64.642Y-83.5
X64.642Y-86.04
X124.737Y-73.96
X124.737Y-76.5
X124.737Y-79.04
X124.737Y-81.58
T3
G00X93.91Y-98.18
M15
G01X93.91Y-99.28
M16
G05
G00X93.91Y-102.51
M15
G01X93.91Y-103.31
M16
G05
G00X102.55Y-98.18
M15
G01X102.55Y-99.28
M16
G05
G00X102.55Y-102.51
M15
G01X102.55Y-103.31
M16
G05
T5
G00X109.07Y-91.073
M15
G01X111.57Y-91.073
M16
G05
G00X109.32Y-97.073
M15
G01X111.32Y-97.073
M16
G05
G00X115.02Y-95.073
M15
G01X115.02Y-93.073
M16
G05
M30
