%TF.GenerationSoftware,KiCad,Pcbnew,10.0.3*%
%TF.CreationDate,2026-09-20T11:28:41-06:00*%
%TF.ProjectId,filter_actuator_rev1,66696c74-6572-45f6-9163-747561746f72,1.0*%
%TF.SameCoordinates,Original*%
%TF.FileFunction,Copper,L4,Bot*%
%TF.FilePolarity,Positive*%
%FSLAX46Y46*%
G04 Gerber Fmt 4.6, Leading zero omitted, Abs format (unit mm)*
G04 Created by KiCad (PCBNEW 10.0.3) date 2026-09-20 11:28:41*
%MOMM*%
%LPD*%
G01*
G04 APERTURE LIST*
G04 Aperture macros list*
%AMRoundRect*
0 Rectangle with rounded corners*
0 $1 Rounding radius*
0 $2 $3 $4 $5 $6 $7 $8 $9 X,Y pos of 4 corners*
0 Add a 4 corners polygon primitive as box body*
4,1,4,$2,$3,$4,$5,$6,$7,$8,$9,$2,$3,0*
0 Add four circle primitives for the rounded corners*
1,1,$1+$1,$2,$3*
1,1,$1+$1,$4,$5*
1,1,$1+$1,$6,$7*
1,1,$1+$1,$8,$9*
0 Add four rect primitives between the rounded corners*
20,1,$1+$1,$2,$3,$4,$5,0*
20,1,$1+$1,$4,$5,$6,$7,0*
20,1,$1+$1,$6,$7,$8,$9,0*
20,1,$1+$1,$8,$9,$2,$3,0*%
G04 Aperture macros list end*
%TA.AperFunction,ComponentPad*%
%ADD10O,1.000000X1.800000*%
%TD*%
%TA.AperFunction,ComponentPad*%
%ADD11O,1.000000X2.100000*%
%TD*%
%TA.AperFunction,ComponentPad*%
%ADD12R,1.530000X1.530000*%
%TD*%
%TA.AperFunction,ComponentPad*%
%ADD13C,1.530000*%
%TD*%
%TA.AperFunction,ComponentPad*%
%ADD14C,0.457200*%
%TD*%
%TA.AperFunction,ComponentPad*%
%ADD15RoundRect,0.700000X1.250000X-0.000010X1.250000X0.000010X-1.250000X0.000010X-1.250000X-0.000010X0*%
%TD*%
%TA.AperFunction,ComponentPad*%
%ADD16RoundRect,0.700000X1.000000X-0.000010X1.000000X0.000010X-1.000000X0.000010X-1.000000X-0.000010X0*%
%TD*%
%TA.AperFunction,ComponentPad*%
%ADD17RoundRect,0.700000X0.000010X1.000000X-0.000010X1.000000X-0.000010X-1.000000X0.000010X-1.000000X0*%
%TD*%
%TA.AperFunction,SMDPad,CuDef*%
%ADD18RoundRect,0.135000X0.135000X0.185000X-0.135000X0.185000X-0.135000X-0.185000X0.135000X-0.185000X0*%
%TD*%
%TA.AperFunction,SMDPad,CuDef*%
%ADD19R,1.400000X1.600000*%
%TD*%
%TA.AperFunction,SMDPad,CuDef*%
%ADD20RoundRect,0.140000X0.140000X0.170000X-0.140000X0.170000X-0.140000X-0.170000X0.140000X-0.170000X0*%
%TD*%
%TA.AperFunction,SMDPad,CuDef*%
%ADD21RoundRect,0.120000X-0.280000X-0.280000X0.280000X-0.280000X0.280000X0.280000X-0.280000X0.280000X0*%
%TD*%
%TA.AperFunction,SMDPad,CuDef*%
%ADD22C,1.000000*%
%TD*%
%TA.AperFunction,SMDPad,CuDef*%
%ADD23RoundRect,0.140000X-0.170000X0.140000X-0.170000X-0.140000X0.170000X-0.140000X0.170000X0.140000X0*%
%TD*%
%TA.AperFunction,SMDPad,CuDef*%
%ADD24RoundRect,0.140000X-0.140000X-0.170000X0.140000X-0.170000X0.140000X0.170000X-0.140000X0.170000X0*%
%TD*%
%TA.AperFunction,SMDPad,CuDef*%
%ADD25RoundRect,0.105000X0.395000X0.245000X-0.395000X0.245000X-0.395000X-0.245000X0.395000X-0.245000X0*%
%TD*%
%TA.AperFunction,SMDPad,CuDef*%
%ADD26RoundRect,0.135000X-0.135000X-0.185000X0.135000X-0.185000X0.135000X0.185000X-0.135000X0.185000X0*%
%TD*%
%TA.AperFunction,SMDPad,CuDef*%
%ADD27RoundRect,0.135000X0.185000X-0.135000X0.185000X0.135000X-0.185000X0.135000X-0.185000X-0.135000X0*%
%TD*%
%TA.AperFunction,SMDPad,CuDef*%
%ADD28RoundRect,0.140000X0.170000X-0.140000X0.170000X0.140000X-0.170000X0.140000X-0.170000X-0.140000X0*%
%TD*%
%TA.AperFunction,SMDPad,CuDef*%
%ADD29C,0.787000*%
%TD*%
%TA.AperFunction,SMDPad,CuDef*%
%ADD30RoundRect,0.135000X-0.185000X0.135000X-0.185000X-0.135000X0.185000X-0.135000X0.185000X0.135000X0*%
%TD*%
%TA.AperFunction,ViaPad*%
%ADD31C,0.457200*%
%TD*%
%TA.AperFunction,ViaPad*%
%ADD32C,1.200000*%
%TD*%
%TA.AperFunction,Conductor*%
%ADD33C,0.127000*%
%TD*%
%TA.AperFunction,Conductor*%
%ADD34C,0.228600*%
%TD*%
G04 APERTURE END LIST*
D10*
%TO.P,J3,SH1,GND_SH1*%
%TO.N,GND*%
X93910000Y-102910000D03*
%TO.P,J3,SH2,GND_SH2*%
X102550000Y-102910000D03*
D11*
%TO.P,J3,SH3,GND_SH3*%
X93910000Y-98730000D03*
%TO.P,J3,SH4,GND_SH4*%
X102550000Y-98730000D03*
%TD*%
D12*
%TO.P,J5,1*%
%TO.N,/AOUT2*%
X124737500Y-73960000D03*
D13*
%TO.P,J5,2*%
%TO.N,/AOUT1*%
X124737500Y-76500000D03*
%TO.P,J5,3*%
%TO.N,/BOUT1*%
X124737500Y-79040000D03*
%TO.P,J5,4*%
%TO.N,/BOUT2*%
X124737500Y-81580000D03*
%TD*%
D12*
%TO.P,J4,1*%
%TO.N,GND*%
X64642500Y-86040000D03*
D13*
%TO.P,J4,2*%
%TO.N,/LMT_SW*%
X64642500Y-83500000D03*
%TD*%
D14*
%TO.P,U2,EP,VSS_EP*%
%TO.N,GND*%
X71680000Y-93680000D03*
X74480000Y-93680000D03*
X73080000Y-92280000D03*
X71680000Y-90880000D03*
X74480000Y-90880000D03*
%TD*%
%TO.P,U3,EP,GND_EP*%
%TO.N,GND*%
X97574840Y-94810000D03*
X98865160Y-94810000D03*
X97574840Y-93519680D03*
X98865160Y-93519680D03*
%TD*%
D15*
%TO.P,J1,1,V+_1*%
%TO.N,+12V*%
X110320000Y-91073100D03*
D16*
%TO.P,J1,2,GND_2*%
%TO.N,GND*%
X110320000Y-97073100D03*
D17*
%TO.P,J1,3,GND_3*%
X115020000Y-94073100D03*
%TD*%
D18*
%TO.P,R27,1*%
%TO.N,+3.3V*%
X112970000Y-83460000D03*
%TO.P,R27,2*%
%TO.N,/BUT_POS1*%
X111950000Y-83460000D03*
%TD*%
D19*
%TO.P,B4,1,1_1*%
%TO.N,GND*%
X97480000Y-72770000D03*
%TO.P,B4,2,2_2*%
X97480000Y-80770000D03*
%TO.P,B4,3*%
%TO.N,N/C*%
X101980000Y-72770000D03*
%TO.P,B4,4,4_4*%
%TO.N,/BUT_POS2*%
X101980000Y-80770000D03*
%TD*%
D20*
%TO.P,C8,1*%
%TO.N,+3.3V*%
X68990000Y-87990000D03*
%TO.P,C8,2*%
%TO.N,GND*%
X68030000Y-87990000D03*
%TD*%
D21*
%TO.P,D3,A,A_A*%
%TO.N,Net-(D3-PadA)*%
X88980000Y-68470000D03*
%TO.P,D3,K,K_K*%
%TO.N,/POS3*%
X90480000Y-68470000D03*
%TD*%
%TO.P,D2,A,A_A*%
%TO.N,Net-(D2-PadA)*%
X78980000Y-68470000D03*
%TO.P,D2,K,K_K*%
%TO.N,/POS4*%
X80480000Y-68470000D03*
%TD*%
D19*
%TO.P,B5,1,1_1*%
%TO.N,GND*%
X107480000Y-72770000D03*
%TO.P,B5,2,2_2*%
X107480000Y-80770000D03*
%TO.P,B5,3*%
%TO.N,N/C*%
X111980000Y-72770000D03*
%TO.P,B5,4,4_4*%
%TO.N,/BUT_POS1*%
X111980000Y-80770000D03*
%TD*%
D22*
%TO.P,F3,1*%
%TO.N,N/C*%
X124730000Y-102320000D03*
%TD*%
%TO.P,F4,1*%
%TO.N,N/C*%
X62230000Y-68820000D03*
%TD*%
D19*
%TO.P,B3,1,1_1*%
%TO.N,GND*%
X87480000Y-72770000D03*
%TO.P,B3,2,2_2*%
X87480000Y-80770000D03*
%TO.P,B3,3*%
%TO.N,N/C*%
X91980000Y-72770000D03*
%TO.P,B3,4,4_4*%
%TO.N,/BUT_POS3*%
X91980000Y-80770000D03*
%TD*%
D23*
%TO.P,C15,1*%
%TO.N,+3.3V*%
X99480000Y-97690000D03*
%TO.P,C15,2*%
%TO.N,GND*%
X99480000Y-98650000D03*
%TD*%
D24*
%TO.P,C27,1*%
%TO.N,/BUT_POS4*%
X82670000Y-82370000D03*
%TO.P,C27,2*%
%TO.N,GND*%
X83630000Y-82370000D03*
%TD*%
D25*
%TO.P,B1,*%
%TO.N,*%
X73109142Y-74315000D03*
%TO.P,B1,1,1_1*%
%TO.N,GND*%
X73109142Y-72165000D03*
%TO.P,B1,2,2_2*%
X69109142Y-72165000D03*
%TO.P,B1,4,4_4*%
%TO.N,/nRST*%
X69109142Y-74315000D03*
%TD*%
D24*
%TO.P,C30,1*%
%TO.N,/BUT_POS1*%
X111980000Y-82460000D03*
%TO.P,C30,2*%
%TO.N,GND*%
X112940000Y-82460000D03*
%TD*%
D21*
%TO.P,D5,A,A_A*%
%TO.N,Net-(D5-PadA)*%
X108980000Y-68470000D03*
%TO.P,D5,K,K_K*%
%TO.N,/POS1*%
X110480000Y-68470000D03*
%TD*%
%TO.P,D1,A,A_A*%
%TO.N,Net-(D1-PadA)*%
X68470000Y-68480000D03*
%TO.P,D1,K,K_K*%
%TO.N,GND*%
X69970000Y-68480000D03*
%TD*%
D19*
%TO.P,B2,1,1_1*%
%TO.N,GND*%
X77480000Y-72770000D03*
%TO.P,B2,2,2_2*%
X77480000Y-80770000D03*
%TO.P,B2,3*%
%TO.N,N/C*%
X81980000Y-72770000D03*
%TO.P,B2,4,4_4*%
%TO.N,/BUT_POS4*%
X81980000Y-80770000D03*
%TD*%
D24*
%TO.P,C14,1*%
%TO.N,+3.3V*%
X100210000Y-96700000D03*
%TO.P,C14,2*%
%TO.N,GND*%
X101170000Y-96700000D03*
%TD*%
D26*
%TO.P,R25,1*%
%TO.N,+3.3V*%
X90280000Y-82350000D03*
%TO.P,R25,2*%
%TO.N,/BUT_POS3*%
X91300000Y-82350000D03*
%TD*%
D27*
%TO.P,R9,1*%
%TO.N,+3.3V*%
X106300000Y-69500000D03*
%TO.P,R9,2*%
%TO.N,Net-(D5-PadA)*%
X106300000Y-68480000D03*
%TD*%
D20*
%TO.P,C29,1*%
%TO.N,/BUT_POS2*%
X99830000Y-82380000D03*
%TO.P,C29,2*%
%TO.N,GND*%
X98870000Y-82380000D03*
%TD*%
D21*
%TO.P,D4,A,A_A*%
%TO.N,Net-(D4-PadA)*%
X98980000Y-68470000D03*
%TO.P,D4,K,K_K*%
%TO.N,/POS2*%
X100480000Y-68470000D03*
%TD*%
D27*
%TO.P,R8,1*%
%TO.N,+3.3V*%
X96180000Y-69480000D03*
%TO.P,R8,2*%
%TO.N,Net-(D4-PadA)*%
X96180000Y-68460000D03*
%TD*%
%TO.P,R6,1*%
%TO.N,+3.3V*%
X76330000Y-69510000D03*
%TO.P,R6,2*%
%TO.N,Net-(D2-PadA)*%
X76330000Y-68490000D03*
%TD*%
D18*
%TO.P,R26,1*%
%TO.N,+3.3V*%
X102140000Y-82370000D03*
%TO.P,R26,2*%
%TO.N,/BUT_POS2*%
X101120000Y-82370000D03*
%TD*%
D20*
%TO.P,C7,1*%
%TO.N,+3.3V*%
X77280000Y-89510000D03*
%TO.P,C7,2*%
%TO.N,GND*%
X76320000Y-89510000D03*
%TD*%
D23*
%TO.P,C10,1*%
%TO.N,+3.3V*%
X69610000Y-96810000D03*
%TO.P,C10,2*%
%TO.N,GND*%
X69610000Y-97770000D03*
%TD*%
D27*
%TO.P,R5,1*%
%TO.N,+3.3V*%
X65890000Y-69440000D03*
%TO.P,R5,2*%
%TO.N,Net-(D1-PadA)*%
X65890000Y-68420000D03*
%TD*%
D24*
%TO.P,C28,1*%
%TO.N,/BUT_POS3*%
X92670000Y-82350000D03*
%TO.P,C28,2*%
%TO.N,GND*%
X93630000Y-82350000D03*
%TD*%
D27*
%TO.P,R7,1*%
%TO.N,+3.3V*%
X86360000Y-69470000D03*
%TO.P,R7,2*%
%TO.N,Net-(D3-PadA)*%
X86360000Y-68450000D03*
%TD*%
D26*
%TO.P,R24,1*%
%TO.N,+3.3V*%
X80280000Y-82370000D03*
%TO.P,R24,2*%
%TO.N,/BUT_POS4*%
X81300000Y-82370000D03*
%TD*%
D28*
%TO.P,C1,1*%
%TO.N,/nRST*%
X67530000Y-74300000D03*
%TO.P,C1,2*%
%TO.N,GND*%
X67530000Y-73340000D03*
%TD*%
D29*
%TO.P,J2,1,VTref_1*%
%TO.N,+3.3V*%
X69620000Y-77440000D03*
%TO.P,J2,2,SWDIO_2*%
%TO.N,Net-(J2-SWDIO)*%
X69620000Y-78710000D03*
%TO.P,J2,3,nRESET_3*%
%TO.N,/nRST*%
X70890000Y-77440000D03*
%TO.P,J2,4,SWCLK_4*%
%TO.N,Net-(J2-SWCLK)*%
X70890000Y-78710000D03*
%TO.P,J2,5,GND_5*%
%TO.N,GND*%
X72160000Y-77440000D03*
%TO.P,J2,6,SWO_6*%
%TO.N,unconnected-(J2-SWO-Pad6)*%
X72160000Y-78710000D03*
%TD*%
D30*
%TO.P,R1,1*%
%TO.N,+3.3V*%
X66480000Y-73310000D03*
%TO.P,R1,2*%
%TO.N,/nRST*%
X66480000Y-74330000D03*
%TD*%
D24*
%TO.P,C9,1*%
%TO.N,+3.3V*%
X75360000Y-96710000D03*
%TO.P,C9,2*%
%TO.N,GND*%
X76320000Y-96710000D03*
%TD*%
D31*
%TO.N,+3.3V*%
X87850000Y-88180000D03*
X124200000Y-88310000D03*
X65890000Y-70240000D03*
X74600000Y-96710000D03*
X76330000Y-70240000D03*
X126590000Y-87290000D03*
X123280000Y-87290000D03*
X113710000Y-83460000D03*
X120360000Y-87320000D03*
X89540000Y-82370000D03*
X126650000Y-89250000D03*
X77560000Y-85570000D03*
X129960000Y-87290000D03*
X130880000Y-88290000D03*
X66480000Y-72520000D03*
X129190000Y-88300000D03*
X125870000Y-88330000D03*
X70320000Y-87910000D03*
X78140000Y-89520000D03*
X125060000Y-89250000D03*
X123340000Y-89250000D03*
X60890000Y-91130000D03*
X69620000Y-76480000D03*
X82700000Y-85580000D03*
X79190000Y-82120000D03*
X121730000Y-87290000D03*
X69640000Y-95720000D03*
X96180000Y-70270000D03*
X103730000Y-93870000D03*
X103690000Y-94910000D03*
X126750000Y-102250000D03*
X86360000Y-70200000D03*
X121080000Y-88270000D03*
X128310000Y-87290000D03*
X99470000Y-96760000D03*
X128370000Y-89250000D03*
X122570000Y-88350000D03*
X127510000Y-88350000D03*
X130020000Y-89250000D03*
X125000000Y-87290000D03*
X100112300Y-95907700D03*
X75660000Y-100330000D03*
X103290000Y-82490000D03*
X121330000Y-77780000D03*
X106310000Y-70260000D03*
X120420000Y-89280000D03*
X121790000Y-89250000D03*
%TO.N,/MP6602_SLEEP*%
X114380000Y-75170000D03*
X79300000Y-86360000D03*
X75330000Y-87780000D03*
%TO.N,/CP_nRST*%
X92270000Y-96690000D03*
X101110000Y-94410000D03*
%TO.N,GND*%
X113930000Y-65780000D03*
D32*
X132230000Y-72270000D03*
D31*
X60880000Y-90100000D03*
X99490000Y-99530000D03*
X118800000Y-102350000D03*
X121130000Y-70140000D03*
X104410000Y-79980000D03*
X118500000Y-77770000D03*
X105720000Y-72770000D03*
X105790000Y-80770000D03*
X119320000Y-75570000D03*
X111980000Y-69400000D03*
X71010000Y-87760000D03*
X72160000Y-76590000D03*
D32*
X129730000Y-84770000D03*
D31*
X125650000Y-77760000D03*
X121460000Y-102250000D03*
D32*
X127230000Y-72270000D03*
D31*
X109300000Y-69380000D03*
X120820000Y-95860000D03*
X95690000Y-80770000D03*
X124940000Y-77760000D03*
X102230000Y-75800000D03*
X94370000Y-82350000D03*
X121840000Y-95860000D03*
X102230000Y-77590000D03*
X102240000Y-76730000D03*
X103680000Y-96210000D03*
X111090000Y-69380000D03*
X115840000Y-80490000D03*
X82560000Y-88230000D03*
X67280000Y-87990000D03*
X68110000Y-72190000D03*
X115910000Y-74440000D03*
D32*
X124730000Y-84770000D03*
D31*
X125630000Y-80300000D03*
X115750000Y-65790000D03*
X85640000Y-80770000D03*
D32*
X129730000Y-79770000D03*
D31*
X122570000Y-84710000D03*
X98070000Y-82380000D03*
X115910000Y-75060000D03*
X69610000Y-98470000D03*
X121710000Y-74590000D03*
X104420000Y-84560000D03*
X122340000Y-74710000D03*
X115840000Y-82470000D03*
X110160000Y-69390000D03*
X126020000Y-98260000D03*
D32*
X132230000Y-77270000D03*
D31*
X125670000Y-75240000D03*
X75450000Y-72770000D03*
X117250000Y-102370000D03*
X117900000Y-77770000D03*
X115840000Y-81190000D03*
X117270000Y-77770000D03*
D32*
X129730000Y-74770000D03*
D31*
X102250000Y-74910000D03*
X66370000Y-93030000D03*
X75660000Y-97870000D03*
X101960000Y-97020000D03*
X124940000Y-75240000D03*
X84390000Y-82370000D03*
X114860000Y-65770000D03*
D32*
X117230000Y-67270000D03*
D31*
X92860000Y-96040000D03*
X95620000Y-72770000D03*
X67530000Y-72530000D03*
X115840000Y-81850000D03*
X124240000Y-75240000D03*
X68550000Y-94530000D03*
D32*
X114730000Y-84770000D03*
X129730000Y-69770000D03*
D31*
X122650000Y-80580000D03*
X75650000Y-80770000D03*
X116660000Y-77770000D03*
X122930000Y-95860000D03*
X121430000Y-81480000D03*
D32*
X124730000Y-69770000D03*
D31*
X113850000Y-78010000D03*
X116050000Y-77770000D03*
X119760000Y-102350000D03*
X104430000Y-79090000D03*
X72000000Y-68480000D03*
X111910000Y-78770000D03*
X124200000Y-77770000D03*
X116290000Y-102370000D03*
X124070000Y-80300000D03*
D32*
X132230000Y-82270000D03*
D31*
X104420000Y-80910000D03*
X73100000Y-70920000D03*
X121980000Y-80890000D03*
X124850000Y-80300000D03*
X121130000Y-71100000D03*
X104430000Y-83700000D03*
X121380000Y-74080000D03*
D32*
X127230000Y-82270000D03*
X122230000Y-67270000D03*
D31*
X115910000Y-73080000D03*
X122810000Y-75170000D03*
X121500000Y-101140000D03*
D32*
X127230000Y-77270000D03*
D31*
X76330000Y-97520000D03*
X113070000Y-65770000D03*
X123500000Y-75230000D03*
X113710000Y-82460000D03*
X122570000Y-83750000D03*
X97400000Y-96910000D03*
X73960000Y-96720000D03*
X104410000Y-81770000D03*
X85600000Y-72770000D03*
D32*
X127230000Y-67270000D03*
D31*
X115910000Y-73780000D03*
%TO.N,/STEP*%
X77750000Y-92500000D03*
X83330000Y-92460000D03*
X120555000Y-79175000D03*
%TO.N,/USB_D-*%
X97480000Y-99110000D03*
X98480000Y-99110000D03*
%TO.N,+12V*%
X117270000Y-81050000D03*
X117270000Y-73930000D03*
X118720000Y-81290000D03*
X113820000Y-72970000D03*
X115550000Y-72230000D03*
X118930000Y-74250000D03*
X118400000Y-73920000D03*
X116130000Y-84550000D03*
X114980000Y-72980000D03*
X113250000Y-74880000D03*
X117170000Y-72220000D03*
X114420000Y-72230000D03*
X117270000Y-75060000D03*
X117880000Y-74250000D03*
X117280000Y-81650000D03*
X118270000Y-81650000D03*
X114420000Y-73770000D03*
X113250000Y-73760000D03*
X117270000Y-74480000D03*
X116110000Y-83640000D03*
X117790000Y-81310000D03*
X113240000Y-72230000D03*
X117269801Y-80417048D03*
%TO.N,/MP6602_nFAULT*%
X113340000Y-76670000D03*
X77700000Y-90430000D03*
X85890000Y-90170000D03*
%TO.N,/MP6602_nRST*%
X113540000Y-75990000D03*
X80940000Y-87380000D03*
X76490000Y-88590000D03*
%TO.N,/MP6602_ENBL*%
X78230000Y-90770000D03*
X113080000Y-77320000D03*
X86920000Y-90770000D03*
%TO.N,/DIR*%
X119620000Y-80130000D03*
X78220000Y-91850000D03*
X84400000Y-91850000D03*
%TO.N,/MISO*%
X122170000Y-78600000D03*
X77720000Y-93540000D03*
%TO.N,/MOSI*%
X78190000Y-93020000D03*
X120775000Y-77145000D03*
%TO.N,/CS*%
X77720000Y-94530000D03*
X121180000Y-76300000D03*
%TO.N,/SCLK*%
X78160000Y-94030000D03*
X120330000Y-75800000D03*
%TO.N,/nRST*%
X70890000Y-76640000D03*
X73330000Y-96700000D03*
X74750000Y-81570000D03*
%TO.N,/CP_RXD*%
X92950000Y-94720000D03*
X94690000Y-93410000D03*
%TO.N,/BUT_POS1*%
X77720000Y-91450000D03*
%TO.N,/POS1*%
X110480000Y-67450000D03*
%TO.N,/BUT_POS2*%
X100470000Y-82370000D03*
%TO.N,/POS2*%
X100480000Y-69720000D03*
%TO.N,/BUT_POS3*%
X91980000Y-82350000D03*
%TO.N,/POS3*%
X90480000Y-69730000D03*
%TO.N,Net-(J2-SWDIO)*%
X69620000Y-79660000D03*
%TO.N,Net-(J2-SWCLK)*%
X69050000Y-81480000D03*
%TO.N,/BUT_POS4*%
X73490000Y-82750000D03*
X82000000Y-82370000D03*
X68660000Y-90030000D03*
%TO.N,/POS4*%
X74020000Y-82220000D03*
X80490000Y-69790000D03*
X68180000Y-90530000D03*
%TD*%
%TO.N,+3.3V*%
D33*
X80270000Y-82380000D02*
X80280000Y-82370000D01*
X79190000Y-82120000D02*
X79450000Y-82380000D01*
X79450000Y-82380000D02*
X80270000Y-82380000D01*
X103170000Y-82370000D02*
X103290000Y-82490000D01*
X102140000Y-82370000D02*
X103170000Y-82370000D01*
X99480000Y-97690000D02*
X99480000Y-96770000D01*
X106310000Y-70260000D02*
X106310000Y-69510000D01*
X65890000Y-69440000D02*
X65890000Y-70240000D01*
X69640000Y-95720000D02*
X69640000Y-96780000D01*
X68990000Y-87990000D02*
X70240000Y-87990000D01*
X90260000Y-82370000D02*
X90280000Y-82350000D01*
X100210000Y-96700000D02*
X100210000Y-96005400D01*
X74600000Y-96710000D02*
X75360000Y-96710000D01*
X89540000Y-82370000D02*
X90260000Y-82370000D01*
X76330000Y-69510000D02*
X76330000Y-70240000D01*
X78130000Y-89510000D02*
X78140000Y-89520000D01*
X66480000Y-73310000D02*
X66480000Y-72520000D01*
X70240000Y-87990000D02*
X70320000Y-87910000D01*
X99480000Y-96770000D02*
X99470000Y-96760000D01*
X70320000Y-87910000D02*
X70320000Y-88010000D01*
X69640000Y-96780000D02*
X69610000Y-96810000D01*
X69620000Y-77440000D02*
X69620000Y-76480000D01*
X86360000Y-69470000D02*
X86360000Y-70200000D01*
X77280000Y-89510000D02*
X78130000Y-89510000D01*
X106310000Y-69510000D02*
X106300000Y-69500000D01*
X112970000Y-83460000D02*
X113710000Y-83460000D01*
X100210000Y-96005400D02*
X100112300Y-95907700D01*
X96180000Y-69480000D02*
X96180000Y-70270000D01*
%TO.N,/MP6602_SLEEP*%
X92050000Y-85150000D02*
X90840000Y-86360000D01*
X76750000Y-86360000D02*
X75330000Y-87780000D01*
X114225500Y-75324500D02*
X112305500Y-75324500D01*
X114380000Y-75170000D02*
X114225500Y-75324500D01*
X112305500Y-75324500D02*
X109300000Y-78330000D01*
X79300000Y-86360000D02*
X76750000Y-86360000D01*
X109300000Y-82320000D02*
X106470000Y-85150000D01*
X109300000Y-78330000D02*
X109300000Y-82320000D01*
X90840000Y-86360000D02*
X79300000Y-86360000D01*
X106470000Y-85150000D02*
X92050000Y-85150000D01*
%TO.N,/CP_nRST*%
X101110000Y-94410000D02*
X100110000Y-95410000D01*
X96840000Y-95410000D02*
X95570000Y-96680000D01*
X95570000Y-96680000D02*
X92280000Y-96680000D01*
X92280000Y-96680000D02*
X92270000Y-96690000D01*
X100110000Y-95410000D02*
X96840000Y-95410000D01*
%TO.N,GND*%
X69970000Y-68480000D02*
X72000000Y-68480000D01*
X93630000Y-82350000D02*
X94370000Y-82350000D01*
X99480000Y-98650000D02*
X99480000Y-99520000D01*
X101640000Y-96700000D02*
X101960000Y-97020000D01*
X67530000Y-73340000D02*
X67530000Y-72530000D01*
X76320000Y-96710000D02*
X76320000Y-97510000D01*
X73109142Y-70929142D02*
X73100000Y-70920000D01*
X68030000Y-87990000D02*
X67280000Y-87990000D01*
X107480000Y-72770000D02*
X105720000Y-72770000D01*
X107480000Y-80770000D02*
X105790000Y-80770000D01*
X83630000Y-82370000D02*
X84390000Y-82370000D01*
X73109142Y-72165000D02*
X73109142Y-70929142D01*
X75850000Y-89510000D02*
X76320000Y-89510000D01*
X77480000Y-72770000D02*
X75450000Y-72770000D01*
X112940000Y-82460000D02*
X113710000Y-82460000D01*
X87480000Y-80770000D02*
X85640000Y-80770000D01*
X97480000Y-72770000D02*
X95620000Y-72770000D01*
X77480000Y-80770000D02*
X75650000Y-80770000D01*
X76320000Y-97510000D02*
X76330000Y-97520000D01*
X74480000Y-90880000D02*
X75850000Y-89510000D01*
X69109142Y-72165000D02*
X68135000Y-72165000D01*
X85600000Y-72770000D02*
X87480000Y-72770000D01*
X68135000Y-72165000D02*
X68110000Y-72190000D01*
X72160000Y-77440000D02*
X72160000Y-76590000D01*
X98070000Y-82380000D02*
X98870000Y-82380000D01*
X97480000Y-80770000D02*
X95690000Y-80770000D01*
X69610000Y-98470000D02*
X69610000Y-97770000D01*
X101170000Y-96700000D02*
X101640000Y-96700000D01*
X99480000Y-99520000D02*
X99490000Y-99530000D01*
%TO.N,/STEP*%
X119630000Y-80890000D02*
X120555000Y-79965000D01*
X120555000Y-79965000D02*
X120555000Y-79175000D01*
X83340000Y-92450000D02*
X90440000Y-92450000D01*
X119630000Y-83120000D02*
X119630000Y-80890000D01*
X83300000Y-92450000D02*
X77800000Y-92450000D01*
X90440000Y-92450000D02*
X94794000Y-88096000D01*
X114654000Y-88096000D02*
X119630000Y-83120000D01*
X77800000Y-92450000D02*
X77750000Y-92500000D01*
X94794000Y-88096000D02*
X114654000Y-88096000D01*
X83310000Y-92460000D02*
X83300000Y-92450000D01*
X77750000Y-92500000D02*
X77720000Y-92530000D01*
X83330000Y-92460000D02*
X83340000Y-92450000D01*
X83330000Y-92460000D02*
X83310000Y-92460000D01*
%TO.N,/USB_D-*%
D34*
X98480000Y-99110000D02*
X97480000Y-99110000D01*
%TO.N,/MP6602_nFAULT*%
D33*
X112460000Y-76670000D02*
X110290000Y-78840000D01*
X110290000Y-78840000D02*
X110290000Y-83360000D01*
X107490000Y-86160000D02*
X93110000Y-86160000D01*
X77960000Y-90170000D02*
X85890000Y-90170000D01*
X77700000Y-90430000D02*
X77960000Y-90170000D01*
X93110000Y-86160000D02*
X89100000Y-90170000D01*
X89100000Y-90170000D02*
X85890000Y-90170000D01*
X113340000Y-76670000D02*
X112460000Y-76670000D01*
X110290000Y-83360000D02*
X107490000Y-86160000D01*
%TO.N,/MP6602_nRST*%
X80900000Y-87340000D02*
X80940000Y-87380000D01*
X92660000Y-85580000D02*
X106930000Y-85580000D01*
X76490000Y-88590000D02*
X76490000Y-88200000D01*
X109810000Y-82700000D02*
X109810000Y-78560000D01*
X90900000Y-87340000D02*
X92660000Y-85580000D01*
X76490000Y-88200000D02*
X77350000Y-87340000D01*
X77350000Y-87340000D02*
X80900000Y-87340000D01*
X109810000Y-78560000D02*
X112380000Y-75990000D01*
X106930000Y-85580000D02*
X109810000Y-82700000D01*
X80940000Y-87380000D02*
X80980000Y-87340000D01*
X80980000Y-87340000D02*
X90900000Y-87340000D01*
X112380000Y-75990000D02*
X113540000Y-75990000D01*
%TO.N,/MP6602_ENBL*%
X107770000Y-86690000D02*
X93610000Y-86690000D01*
X110760000Y-79090000D02*
X110760000Y-83700000D01*
X93610000Y-86690000D02*
X89530000Y-90770000D01*
X89530000Y-90770000D02*
X86920000Y-90770000D01*
X112530000Y-77320000D02*
X110760000Y-79090000D01*
X110760000Y-83700000D02*
X107770000Y-86690000D01*
X86920000Y-90770000D02*
X78230000Y-90770000D01*
X113080000Y-77320000D02*
X112530000Y-77320000D01*
%TO.N,/DIR*%
X90210000Y-91850000D02*
X84400000Y-91850000D01*
X84400000Y-91850000D02*
X78220000Y-91850000D01*
X119220000Y-80530000D02*
X119220000Y-82840790D01*
X94420000Y-87640000D02*
X90210000Y-91850000D01*
X119220000Y-82840790D02*
X114420790Y-87640000D01*
X114420790Y-87640000D02*
X94420000Y-87640000D01*
X119620000Y-80130000D02*
X119220000Y-80530000D01*
%TO.N,/MISO*%
X120460000Y-83740000D02*
X115240000Y-88960000D01*
X120460000Y-81050000D02*
X120460000Y-83740000D01*
X95830000Y-88960000D02*
X91250000Y-93540000D01*
X122170000Y-78600000D02*
X122170000Y-79340000D01*
X115240000Y-88960000D02*
X95830000Y-88960000D01*
X122170000Y-79340000D02*
X120460000Y-81050000D01*
X77720000Y-93540000D02*
X77710000Y-93530000D01*
X91250000Y-93540000D02*
X77720000Y-93540000D01*
%TO.N,/MOSI*%
X119990000Y-80980000D02*
X119990000Y-83530000D01*
X95300000Y-88560000D02*
X90840000Y-93020000D01*
X120775000Y-77145000D02*
X120775000Y-78495000D01*
X121220000Y-78940000D02*
X121220000Y-79750000D01*
X120775000Y-77145000D02*
X120676382Y-77145000D01*
X114960000Y-88560000D02*
X95300000Y-88560000D01*
X121220000Y-79750000D02*
X119990000Y-80980000D01*
X120775000Y-78495000D02*
X121220000Y-78940000D01*
X119990000Y-83530000D02*
X114960000Y-88560000D01*
X90840000Y-93020000D02*
X78190000Y-93020000D01*
%TO.N,/CS*%
X96930000Y-89840000D02*
X92240000Y-94530000D01*
X92240000Y-94530000D02*
X77720000Y-94530000D01*
X115670000Y-89840000D02*
X96930000Y-89840000D01*
X123140000Y-82370000D02*
X115670000Y-89840000D01*
X121180000Y-76300000D02*
X122050000Y-76300000D01*
X123140000Y-77390000D02*
X123140000Y-82370000D01*
X122050000Y-76300000D02*
X123140000Y-77390000D01*
%TO.N,/SCLK*%
X120951882Y-76700500D02*
X120995882Y-76744500D01*
X120930000Y-83870000D02*
X115410000Y-89390000D01*
X120995882Y-76744500D02*
X121024500Y-76744500D01*
X121024500Y-76744500D02*
X121240000Y-76960000D01*
X122720000Y-79382172D02*
X120930000Y-81172172D01*
X120330000Y-75800000D02*
X120330000Y-76250000D01*
X96380000Y-89390000D02*
X91740000Y-94030000D01*
X122720000Y-77570000D02*
X122720000Y-79382172D01*
X121240000Y-76960000D02*
X122110000Y-76960000D01*
X120930000Y-81172172D02*
X120930000Y-83870000D01*
X120780500Y-76700500D02*
X120951882Y-76700500D01*
X122110000Y-76960000D02*
X122720000Y-77570000D01*
X115410000Y-89390000D02*
X96380000Y-89390000D01*
X91740000Y-94030000D02*
X78160000Y-94030000D01*
X120330000Y-76250000D02*
X120780500Y-76700500D01*
%TO.N,/nRST*%
X73790000Y-96240000D02*
X73330000Y-96700000D01*
X67500000Y-74330000D02*
X67530000Y-74300000D01*
X70890000Y-76095858D02*
X69109142Y-74315000D01*
X74750000Y-89220000D02*
X73790000Y-90180000D01*
X70890000Y-76640000D02*
X70890000Y-76095858D01*
X74750000Y-81570000D02*
X74750000Y-89220000D01*
X70890000Y-77440000D02*
X70890000Y-76640000D01*
X73790000Y-90180000D02*
X73790000Y-96240000D01*
X66480000Y-74330000D02*
X67500000Y-74330000D01*
X67530000Y-74300000D02*
X69094142Y-74300000D01*
X69094142Y-74300000D02*
X69109142Y-74315000D01*
%TO.N,/CP_RXD*%
X92950000Y-94720000D02*
X94260000Y-93410000D01*
X94260000Y-93410000D02*
X94690000Y-93410000D01*
%TO.N,/BUT_POS1*%
X93990000Y-87160000D02*
X108250000Y-87160000D01*
X111950000Y-83460000D02*
X111950000Y-82490000D01*
X77720000Y-91450000D02*
X77910000Y-91260000D01*
X77910000Y-91260000D02*
X89890000Y-91260000D01*
X89890000Y-91260000D02*
X93990000Y-87160000D01*
X108250000Y-87160000D02*
X111950000Y-83460000D01*
X111980000Y-82460000D02*
X111980000Y-80770000D01*
X111950000Y-82490000D02*
X111980000Y-82460000D01*
%TO.N,/POS1*%
X110480000Y-67450000D02*
X110480000Y-68470000D01*
%TO.N,/BUT_POS2*%
X101060000Y-82370000D02*
X100470000Y-82370000D01*
X101060000Y-81690000D02*
X101060000Y-82370000D01*
X100470000Y-82370000D02*
X99890000Y-82370000D01*
X99890000Y-82370000D02*
X99880000Y-82380000D01*
X101980000Y-80770000D02*
X101060000Y-81690000D01*
X99880000Y-82380000D02*
X99880000Y-82540000D01*
%TO.N,/POS2*%
X100480000Y-68470000D02*
X100480000Y-69720000D01*
%TO.N,/BUT_POS3*%
X91980000Y-82350000D02*
X92670000Y-82350000D01*
X91980000Y-82350000D02*
X91980000Y-80770000D01*
X91300000Y-82350000D02*
X91980000Y-82350000D01*
%TO.N,/POS3*%
X90480000Y-69730000D02*
X90470000Y-69740000D01*
X90480000Y-68470000D02*
X90480000Y-69730000D01*
%TO.N,Net-(J2-SWDIO)*%
X69620000Y-78710000D02*
X69620000Y-79660000D01*
%TO.N,Net-(J2-SWCLK)*%
X69050000Y-81480000D02*
X69040000Y-81480000D01*
X70890000Y-79620000D02*
X70900000Y-79630000D01*
X70900000Y-79630000D02*
X69050000Y-81480000D01*
X70890000Y-78710000D02*
X70890000Y-79620000D01*
%TO.N,/BUT_POS4*%
X82000000Y-82370000D02*
X81980000Y-82350000D01*
X82000000Y-82370000D02*
X82670000Y-82370000D01*
X71300000Y-90030000D02*
X68660000Y-90030000D01*
X73490000Y-87840000D02*
X71300000Y-90030000D01*
X73490000Y-82750000D02*
X73490000Y-87840000D01*
X81300000Y-82370000D02*
X81980000Y-82370000D01*
X81980000Y-82350000D02*
X81980000Y-80770000D01*
X81980000Y-82370000D02*
X82000000Y-82370000D01*
%TO.N,/POS4*%
X80480000Y-69780000D02*
X80490000Y-69790000D01*
X74020000Y-82220000D02*
X74020000Y-87890000D01*
X74020000Y-87890000D02*
X71380000Y-90530000D01*
X71380000Y-90530000D02*
X68180000Y-90530000D01*
X80480000Y-68470000D02*
X80480000Y-69780000D01*
%TO.N,Net-(D3-PadA)*%
X86380000Y-68470000D02*
X86360000Y-68450000D01*
X88980000Y-68470000D02*
X86380000Y-68470000D01*
%TO.N,Net-(D2-PadA)*%
X76350000Y-68470000D02*
X76330000Y-68490000D01*
X78980000Y-68470000D02*
X76350000Y-68470000D01*
%TO.N,Net-(D5-PadA)*%
X108980000Y-68470000D02*
X106310000Y-68470000D01*
X106310000Y-68470000D02*
X106300000Y-68480000D01*
%TO.N,Net-(D1-PadA)*%
X68470000Y-68480000D02*
X65950000Y-68480000D01*
X65950000Y-68480000D02*
X65890000Y-68420000D01*
%TO.N,Net-(D4-PadA)*%
X96190000Y-68470000D02*
X96180000Y-68460000D01*
X98980000Y-68470000D02*
X96190000Y-68470000D01*
%TD*%
%TA.AperFunction,Conductor*%
%TO.N,GND*%
G36*
X134144053Y-65275423D02*
G01*
X134144107Y-65275441D01*
X134156944Y-65279612D01*
X134207232Y-65316141D01*
X134210276Y-65320332D01*
X134229500Y-65379457D01*
X134229500Y-86121400D01*
X134224574Y-86152495D01*
X134220385Y-86165384D01*
X134183847Y-86215673D01*
X134179644Y-86218727D01*
X134120632Y-86237943D01*
X119891284Y-86255500D01*
X119860189Y-86250614D01*
X119849632Y-86247198D01*
X119799288Y-86210714D01*
X119780003Y-86151606D01*
X119794794Y-86098975D01*
X119797859Y-86093966D01*
X119812525Y-86075351D01*
X123366521Y-82521357D01*
X123407200Y-82423149D01*
X123407200Y-82316851D01*
X123407200Y-81484591D01*
X123768800Y-81484591D01*
X123768800Y-81675408D01*
X123776521Y-81714223D01*
X123806027Y-81862563D01*
X123877678Y-82035544D01*
X123878479Y-82037689D01*
X123879047Y-82038849D01*
X123908079Y-82082299D01*
X123908080Y-82082299D01*
X123985062Y-82197510D01*
X124119990Y-82332438D01*
X124255748Y-82423149D01*
X124278649Y-82438451D01*
X124278656Y-82438454D01*
X124366793Y-82474961D01*
X124366795Y-82474962D01*
X124451647Y-82510109D01*
X124454398Y-82511364D01*
X124454935Y-82511470D01*
X124454938Y-82511472D01*
X124454939Y-82511472D01*
X124454941Y-82511473D01*
X124642091Y-82548700D01*
X124642092Y-82548700D01*
X124832908Y-82548700D01*
X124832909Y-82548700D01*
X125020059Y-82511473D01*
X125196351Y-82438451D01*
X125355010Y-82332438D01*
X125489938Y-82197510D01*
X125595951Y-82038851D01*
X125668973Y-81862559D01*
X125706200Y-81675409D01*
X125706200Y-81484591D01*
X125668973Y-81297441D01*
X125664135Y-81285762D01*
X125596432Y-81122311D01*
X125595951Y-81121149D01*
X125489938Y-80962490D01*
X125355010Y-80827562D01*
X125230267Y-80744211D01*
X125216864Y-80735255D01*
X125216859Y-80735252D01*
X125214421Y-80733623D01*
X125196350Y-80721548D01*
X125196347Y-80721547D01*
X125186637Y-80717525D01*
X125186632Y-80717522D01*
X125020063Y-80648527D01*
X124895292Y-80623709D01*
X124879687Y-80620605D01*
X124832909Y-80611300D01*
X124832908Y-80611300D01*
X124642090Y-80611300D01*
X124595302Y-80620605D01*
X124595303Y-80620606D01*
X124454936Y-80648527D01*
X124281954Y-80720178D01*
X124279811Y-80720978D01*
X124278653Y-80721545D01*
X124119989Y-80827562D01*
X123985062Y-80962489D01*
X123879045Y-81121153D01*
X123878478Y-81122311D01*
X123877678Y-81124454D01*
X123806027Y-81297435D01*
X123785842Y-81398914D01*
X123768800Y-81484591D01*
X123407200Y-81484591D01*
X123407200Y-78944591D01*
X123768800Y-78944591D01*
X123768800Y-79135407D01*
X123806027Y-79322563D01*
X123875423Y-79490100D01*
X123875426Y-79490106D01*
X123879047Y-79498847D01*
X123879048Y-79498850D01*
X123879049Y-79498851D01*
X123985062Y-79657510D01*
X124119990Y-79792438D01*
X124278649Y-79898451D01*
X124312694Y-79912553D01*
X124366793Y-79934961D01*
X124366795Y-79934962D01*
X124451647Y-79970109D01*
X124454398Y-79971364D01*
X124454935Y-79971470D01*
X124454938Y-79971472D01*
X124454939Y-79971472D01*
X124454941Y-79971473D01*
X124642091Y-80008700D01*
X124642092Y-80008700D01*
X124832908Y-80008700D01*
X124832909Y-80008700D01*
X125020059Y-79971473D01*
X125196351Y-79898451D01*
X125355010Y-79792438D01*
X125489938Y-79657510D01*
X125595951Y-79498851D01*
X125668973Y-79322559D01*
X125706200Y-79135409D01*
X125706200Y-78944591D01*
X125668973Y-78757441D01*
X125667856Y-78754745D01*
X125667009Y-78752701D01*
X125635623Y-78676928D01*
X125597313Y-78584439D01*
X125596516Y-78582302D01*
X125595951Y-78581149D01*
X125570517Y-78543084D01*
X125489938Y-78422490D01*
X125355010Y-78287562D01*
X125242373Y-78212300D01*
X125196350Y-78181548D01*
X125196347Y-78181547D01*
X125185461Y-78177037D01*
X125185458Y-78177036D01*
X125020063Y-78108527D01*
X124895292Y-78083709D01*
X124879687Y-78080605D01*
X124832909Y-78071300D01*
X124832908Y-78071300D01*
X124642090Y-78071300D01*
X124595302Y-78080605D01*
X124595303Y-78080606D01*
X124454936Y-78108527D01*
X124281954Y-78180178D01*
X124279811Y-78180978D01*
X124278653Y-78181545D01*
X124119989Y-78287562D01*
X123985062Y-78422489D01*
X123879045Y-78581153D01*
X123878478Y-78582311D01*
X123877678Y-78584454D01*
X123806027Y-78757435D01*
X123768800Y-78944591D01*
X123407200Y-78944591D01*
X123407200Y-77336851D01*
X123373986Y-77256665D01*
X123366522Y-77238645D01*
X123366520Y-77238642D01*
X122532469Y-76404591D01*
X123768800Y-76404591D01*
X123768800Y-76407723D01*
X123768800Y-76595409D01*
X123773065Y-76616851D01*
X123806027Y-76782563D01*
X123874984Y-76949040D01*
X123874986Y-76949044D01*
X123879047Y-76958847D01*
X123879048Y-76958850D01*
X123891934Y-76978135D01*
X123893518Y-76980506D01*
X123893523Y-76980514D01*
X123952717Y-77069104D01*
X123985062Y-77117510D01*
X124119990Y-77252438D01*
X124251131Y-77340064D01*
X124278649Y-77358451D01*
X124278656Y-77358454D01*
X124366793Y-77394961D01*
X124366795Y-77394962D01*
X124451647Y-77430109D01*
X124454398Y-77431364D01*
X124454935Y-77431470D01*
X124454938Y-77431472D01*
X124454939Y-77431472D01*
X124454941Y-77431473D01*
X124642091Y-77468700D01*
X124642092Y-77468700D01*
X124832908Y-77468700D01*
X124832909Y-77468700D01*
X125020059Y-77431473D01*
X125196351Y-77358451D01*
X125355010Y-77252438D01*
X125489938Y-77117510D01*
X125595951Y-76958851D01*
X125668973Y-76782559D01*
X125706200Y-76595409D01*
X125706200Y-76404591D01*
X125668973Y-76217441D01*
X125660444Y-76196851D01*
X125658059Y-76191094D01*
X125609342Y-76073480D01*
X125609341Y-76073477D01*
X125596432Y-76042311D01*
X125595951Y-76041149D01*
X125489938Y-75882490D01*
X125355010Y-75747562D01*
X125196351Y-75641549D01*
X125196352Y-75641549D01*
X125196350Y-75641548D01*
X125196347Y-75641547D01*
X125185207Y-75636932D01*
X125185206Y-75636932D01*
X125020063Y-75568527D01*
X124895292Y-75543709D01*
X124879687Y-75540605D01*
X124832909Y-75531300D01*
X124832908Y-75531300D01*
X124642090Y-75531300D01*
X124595302Y-75540605D01*
X124595303Y-75540606D01*
X124454936Y-75568527D01*
X124281954Y-75640178D01*
X124279811Y-75640978D01*
X124278653Y-75641545D01*
X124119989Y-75747562D01*
X123985062Y-75882489D01*
X123879045Y-76041153D01*
X123878478Y-76042311D01*
X123877678Y-76044454D01*
X123806027Y-76217435D01*
X123771494Y-76391049D01*
X123771138Y-76392839D01*
X123768800Y-76404591D01*
X122532469Y-76404591D01*
X122201357Y-76073479D01*
X122201354Y-76073477D01*
X122201353Y-76073476D01*
X122103151Y-76032800D01*
X122103150Y-76032800D01*
X122103149Y-76032800D01*
X121704202Y-76032800D01*
X121667350Y-76025807D01*
X121367300Y-75907679D01*
X121367300Y-75907680D01*
X121360332Y-75904937D01*
X121346864Y-75897162D01*
X121346861Y-75897161D01*
X121327190Y-75891890D01*
X121321881Y-75889800D01*
X121321880Y-75889799D01*
X121321879Y-75889799D01*
X121315369Y-75887236D01*
X121274878Y-75877414D01*
X121259934Y-75873790D01*
X121259932Y-75873789D01*
X121258045Y-75873332D01*
X121255753Y-75872747D01*
X121244160Y-75869641D01*
X121236916Y-75867700D01*
X121236915Y-75867700D01*
X121236913Y-75867700D01*
X121123087Y-75867700D01*
X121123084Y-75867700D01*
X121013131Y-75897163D01*
X120926396Y-75947240D01*
X120897010Y-75958520D01*
X120885685Y-75960927D01*
X120823852Y-75954427D01*
X120777659Y-75912842D01*
X120776326Y-75910532D01*
X120762919Y-75864167D01*
X120762894Y-75863507D01*
X120762893Y-75863507D01*
X120762377Y-75850337D01*
X120762300Y-75846397D01*
X120762300Y-75743087D01*
X120762189Y-75742406D01*
X120761520Y-75740179D01*
X120756864Y-75722800D01*
X120732839Y-75633139D01*
X120712583Y-75598055D01*
X120675927Y-75534564D01*
X120675926Y-75534562D01*
X120595438Y-75454074D01*
X120595437Y-75454073D01*
X120595430Y-75454069D01*
X120496868Y-75397164D01*
X120496866Y-75397163D01*
X120496864Y-75397162D01*
X120496861Y-75397161D01*
X120496855Y-75397159D01*
X120496844Y-75397156D01*
X120467405Y-75389268D01*
X120386917Y-75367700D01*
X120386915Y-75367700D01*
X120386913Y-75367700D01*
X120273087Y-75367700D01*
X120273084Y-75367700D01*
X120163135Y-75397162D01*
X120163134Y-75397162D01*
X120163132Y-75397163D01*
X120064563Y-75454072D01*
X119984072Y-75534563D01*
X119927163Y-75633132D01*
X119927162Y-75633134D01*
X119927162Y-75633135D01*
X119917923Y-75667614D01*
X119897700Y-75743083D01*
X119897700Y-75856917D01*
X119912352Y-75911596D01*
X119912685Y-75912840D01*
X119913403Y-75915517D01*
X119916833Y-75934253D01*
X119921740Y-75946633D01*
X119923247Y-75952256D01*
X119927161Y-75966861D01*
X119927163Y-75966866D01*
X119931772Y-75974851D01*
X119938166Y-75988071D01*
X120059162Y-76293295D01*
X120062800Y-76302471D01*
X120062800Y-76303150D01*
X120069073Y-76318295D01*
X120069353Y-76319001D01*
X120069363Y-76319026D01*
X120072517Y-76326984D01*
X120073661Y-76329806D01*
X120086751Y-76361407D01*
X120087141Y-76362232D01*
X120089139Y-76366739D01*
X120103476Y-76401353D01*
X120103477Y-76401354D01*
X120103479Y-76401357D01*
X120126361Y-76424239D01*
X120126478Y-76424390D01*
X120126595Y-76424473D01*
X120422976Y-76720854D01*
X120441478Y-76746321D01*
X120447632Y-76758400D01*
X120457357Y-76819799D01*
X120456548Y-76824909D01*
X120430496Y-76876048D01*
X120431423Y-76876852D01*
X120429079Y-76879554D01*
X120429070Y-76879566D01*
X120372163Y-76978132D01*
X120342700Y-77088083D01*
X120342700Y-77201920D01*
X120347385Y-77219401D01*
X120349750Y-77228227D01*
X120350467Y-77237096D01*
X120351278Y-77241586D01*
X120362462Y-77280941D01*
X120366887Y-77292181D01*
X120368364Y-77297692D01*
X120368364Y-77297693D01*
X120370825Y-77306879D01*
X120372159Y-77311858D01*
X120372160Y-77311860D01*
X120372161Y-77311862D01*
X120372162Y-77311864D01*
X120376198Y-77318856D01*
X120382681Y-77332299D01*
X120500807Y-77632349D01*
X120507800Y-77669201D01*
X120507800Y-78548151D01*
X120529368Y-78600223D01*
X120536715Y-78630821D01*
X120537779Y-78644333D01*
X120523267Y-78704790D01*
X120523253Y-78704813D01*
X120522299Y-78706369D01*
X120483388Y-78742810D01*
X120481163Y-78743980D01*
X120478517Y-78745373D01*
X120457706Y-78753519D01*
X120388135Y-78772162D01*
X120388134Y-78772162D01*
X120388132Y-78772163D01*
X120289563Y-78829072D01*
X120209072Y-78909563D01*
X120152163Y-79008132D01*
X120122700Y-79118083D01*
X120122700Y-79231920D01*
X120126680Y-79246770D01*
X120126681Y-79246772D01*
X120127382Y-79249387D01*
X120130024Y-79264664D01*
X120130148Y-79264648D01*
X120130466Y-79267091D01*
X120131280Y-79271597D01*
X120142459Y-79310933D01*
X120142461Y-79310939D01*
X120142462Y-79310941D01*
X120146887Y-79322182D01*
X120146989Y-79322561D01*
X120152162Y-79341864D01*
X120157199Y-79350588D01*
X120159935Y-79355328D01*
X120162675Y-79362288D01*
X120162678Y-79362293D01*
X120280807Y-79662349D01*
X120287800Y-79699201D01*
X120287800Y-79796714D01*
X120285936Y-79808480D01*
X120286225Y-79808503D01*
X120285882Y-79812858D01*
X120284424Y-79818026D01*
X120282876Y-79827802D01*
X120281612Y-79831692D01*
X120280657Y-79831381D01*
X120276693Y-79845438D01*
X120277380Y-79845723D01*
X120275865Y-79849379D01*
X120275203Y-79851418D01*
X120274642Y-79852332D01*
X120274354Y-79853029D01*
X120274243Y-79852983D01*
X120250664Y-79891456D01*
X120183961Y-79958158D01*
X120158498Y-79976659D01*
X120147358Y-79982335D01*
X120085949Y-79992060D01*
X120032437Y-79965670D01*
X120025013Y-79958625D01*
X120007145Y-79935957D01*
X120005023Y-79932282D01*
X119965926Y-79864562D01*
X119885438Y-79784074D01*
X119860926Y-79769922D01*
X119860925Y-79769921D01*
X119786864Y-79727162D01*
X119786861Y-79727161D01*
X119786855Y-79727159D01*
X119786844Y-79727156D01*
X119757405Y-79719268D01*
X119676917Y-79697700D01*
X119676915Y-79697700D01*
X119676913Y-79697700D01*
X119563087Y-79697700D01*
X119563084Y-79697700D01*
X119453135Y-79727162D01*
X119453134Y-79727162D01*
X119453132Y-79727163D01*
X119354563Y-79784072D01*
X119274074Y-79864561D01*
X119274073Y-79864563D01*
X119274072Y-79864564D01*
X119246364Y-79912554D01*
X119246364Y-79912555D01*
X119244272Y-79916176D01*
X119233095Y-79932282D01*
X119227350Y-79945483D01*
X119224506Y-79950410D01*
X119224502Y-79950419D01*
X119217163Y-79963132D01*
X119217159Y-79963141D01*
X119215072Y-79970931D01*
X119210151Y-79985019D01*
X119081508Y-80280723D01*
X119060394Y-80311725D01*
X118993483Y-80378636D01*
X118993480Y-80378640D01*
X118993476Y-80378645D01*
X118952800Y-80476847D01*
X118952800Y-80757791D01*
X118947876Y-80788878D01*
X118944013Y-80800767D01*
X118907468Y-80851067D01*
X118850972Y-80870245D01*
X118840744Y-80870513D01*
X118812070Y-80867120D01*
X118776916Y-80857700D01*
X118776913Y-80857700D01*
X118663087Y-80857700D01*
X118663084Y-80857700D01*
X118553135Y-80887162D01*
X118553134Y-80887162D01*
X118553132Y-80887163D01*
X118454563Y-80944072D01*
X118374071Y-81024564D01*
X118344313Y-81076107D01*
X118324504Y-81100568D01*
X118315902Y-81108313D01*
X118259103Y-81133600D01*
X118198287Y-81120672D01*
X118198282Y-81120669D01*
X118193996Y-81118194D01*
X118157180Y-81081375D01*
X118137430Y-81047166D01*
X118136331Y-81045123D01*
X118135928Y-81044564D01*
X118055438Y-80964074D01*
X118055430Y-80964069D01*
X117956868Y-80907164D01*
X117956866Y-80907163D01*
X117956864Y-80907162D01*
X117956861Y-80907161D01*
X117956855Y-80907159D01*
X117956844Y-80907156D01*
X117912335Y-80895230D01*
X117904483Y-80893126D01*
X117846915Y-80877700D01*
X117846913Y-80877700D01*
X117738646Y-80877700D01*
X117733613Y-80877192D01*
X117729738Y-80875485D01*
X117712625Y-80872775D01*
X117707771Y-80871197D01*
X117705506Y-80870716D01*
X117704498Y-80870134D01*
X117702762Y-80869570D01*
X117702881Y-80869200D01*
X117651677Y-80839638D01*
X117647734Y-80835258D01*
X117635375Y-80818249D01*
X117623363Y-80797444D01*
X117612086Y-80768063D01*
X117608077Y-80749200D01*
X117610803Y-80697198D01*
X117612131Y-80693111D01*
X117614542Y-80687695D01*
X117614577Y-80687366D01*
X117614798Y-80687120D01*
X117620685Y-80673899D01*
X117672638Y-80583912D01*
X117672637Y-80583912D01*
X117672640Y-80583909D01*
X117702101Y-80473961D01*
X117702101Y-80360135D01*
X117672640Y-80250187D01*
X117615727Y-80151610D01*
X117535239Y-80071122D01*
X117535238Y-80071121D01*
X117535231Y-80071117D01*
X117436669Y-80014212D01*
X117436667Y-80014211D01*
X117436665Y-80014210D01*
X117436662Y-80014209D01*
X117436656Y-80014207D01*
X117436645Y-80014204D01*
X117374872Y-79997652D01*
X117326716Y-79984748D01*
X117212885Y-79984748D01*
X117102936Y-80014210D01*
X117102935Y-80014210D01*
X117102933Y-80014211D01*
X117004364Y-80071120D01*
X116923873Y-80151611D01*
X116866964Y-80250180D01*
X116866963Y-80250182D01*
X116866963Y-80250183D01*
X116837501Y-80360132D01*
X116837501Y-80473963D01*
X116866962Y-80583909D01*
X116866964Y-80583914D01*
X116916432Y-80669595D01*
X116927711Y-80698976D01*
X116931722Y-80717843D01*
X116928995Y-80769854D01*
X116927738Y-80773724D01*
X116927667Y-80773943D01*
X116925259Y-80779350D01*
X116925225Y-80779676D01*
X116925005Y-80779919D01*
X116919116Y-80793146D01*
X116875324Y-80869000D01*
X116875323Y-80869002D01*
X116874056Y-80871197D01*
X116867160Y-80883140D01*
X116866082Y-80887162D01*
X116860724Y-80907160D01*
X116845474Y-80964074D01*
X116837700Y-80993084D01*
X116837700Y-81106915D01*
X116846031Y-81138007D01*
X116867163Y-81216866D01*
X116912019Y-81294559D01*
X116923298Y-81323941D01*
X116927309Y-81342809D01*
X116924579Y-81394829D01*
X116923251Y-81398914D01*
X116920846Y-81404313D01*
X116920812Y-81404642D01*
X116920591Y-81404887D01*
X116914703Y-81418110D01*
X116877163Y-81483133D01*
X116847700Y-81593083D01*
X116847700Y-81706917D01*
X116857830Y-81744719D01*
X116865000Y-81771478D01*
X116874324Y-81806275D01*
X116877069Y-81816516D01*
X116877162Y-81816864D01*
X116934069Y-81915431D01*
X116934074Y-81915438D01*
X117014563Y-81995927D01*
X117015124Y-81996331D01*
X117017177Y-81997436D01*
X117055480Y-82019550D01*
X117113135Y-82052837D01*
X117113139Y-82052839D01*
X117223087Y-82082300D01*
X117336913Y-82082300D01*
X117446861Y-82052839D01*
X117545438Y-81995926D01*
X117625926Y-81915438D01*
X117676484Y-81827868D01*
X117687091Y-81812858D01*
X117687753Y-81812083D01*
X117699612Y-81798192D01*
X117752619Y-81765698D01*
X117814602Y-81770567D01*
X117857499Y-81804374D01*
X117866323Y-81816516D01*
X117872065Y-81825357D01*
X117924069Y-81915430D01*
X117924074Y-81915438D01*
X118004563Y-81995927D01*
X118005124Y-81996331D01*
X118007177Y-81997436D01*
X118045480Y-82019550D01*
X118103135Y-82052837D01*
X118103139Y-82052839D01*
X118213087Y-82082300D01*
X118326913Y-82082300D01*
X118436861Y-82052839D01*
X118535438Y-81995926D01*
X118615926Y-81915438D01*
X118672839Y-81816861D01*
X118674072Y-81812255D01*
X118686873Y-81783500D01*
X118696663Y-81768426D01*
X118737613Y-81732472D01*
X118738288Y-81732149D01*
X118742700Y-81731148D01*
X118744981Y-81729302D01*
X118752597Y-81728903D01*
X118770597Y-81724819D01*
X118770379Y-81723160D01*
X118776910Y-81722300D01*
X118776913Y-81722300D01*
X118776915Y-81722299D01*
X118776918Y-81722299D01*
X118812762Y-81712694D01*
X118848945Y-81709778D01*
X118859406Y-81710838D01*
X118916296Y-81735918D01*
X118945712Y-81782348D01*
X118948656Y-81792285D01*
X118952800Y-81820862D01*
X118952800Y-82672508D01*
X118947876Y-82703593D01*
X118940207Y-82727198D01*
X118915666Y-82767244D01*
X115462576Y-86220333D01*
X115437111Y-86238834D01*
X115414970Y-86250115D01*
X115369424Y-86261079D01*
X114053526Y-86262703D01*
X114022434Y-86257818D01*
X114009536Y-86253645D01*
X113959193Y-86217164D01*
X113956139Y-86212972D01*
X113936863Y-86153864D01*
X113936863Y-86153811D01*
X113936862Y-86152495D01*
X113936188Y-84952837D01*
X113935597Y-83902095D01*
X113940502Y-83871019D01*
X113947519Y-83849383D01*
X113972074Y-83809289D01*
X113975436Y-83805927D01*
X113975438Y-83805926D01*
X114055926Y-83725438D01*
X114112839Y-83626861D01*
X114124569Y-83583084D01*
X115677700Y-83583084D01*
X115677700Y-83696915D01*
X115685343Y-83725437D01*
X115687936Y-83735117D01*
X115687937Y-83735119D01*
X115706898Y-83805883D01*
X115707160Y-83806860D01*
X115707163Y-83806867D01*
X115752948Y-83886168D01*
X115752949Y-83886169D01*
X115764074Y-83905438D01*
X115844562Y-83985926D01*
X115878786Y-84005685D01*
X115903248Y-84025494D01*
X115910993Y-84034096D01*
X115936280Y-84090895D01*
X115923354Y-84151707D01*
X115920879Y-84155994D01*
X115884059Y-84192816D01*
X115871546Y-84200041D01*
X115869218Y-84201385D01*
X115864564Y-84204072D01*
X115864560Y-84204075D01*
X115784072Y-84284563D01*
X115727163Y-84383132D01*
X115727162Y-84383134D01*
X115727162Y-84383135D01*
X115697700Y-84493084D01*
X115697700Y-84606915D01*
X115727161Y-84716861D01*
X115727163Y-84716866D01*
X115784069Y-84815430D01*
X115784074Y-84815438D01*
X115864563Y-84895927D01*
X115865124Y-84896331D01*
X115867177Y-84897436D01*
X115905480Y-84919550D01*
X115963135Y-84952837D01*
X115963139Y-84952839D01*
X116073087Y-84982300D01*
X116186913Y-84982300D01*
X116296861Y-84952839D01*
X116395438Y-84895926D01*
X116475926Y-84815438D01*
X116532839Y-84716861D01*
X116562300Y-84606913D01*
X116562300Y-84493087D01*
X116532839Y-84383139D01*
X116475926Y-84284562D01*
X116395438Y-84204074D01*
X116367413Y-84187894D01*
X116361206Y-84184310D01*
X116361201Y-84184305D01*
X116336749Y-84164502D01*
X116329003Y-84155898D01*
X116322523Y-84141342D01*
X116319608Y-84138104D01*
X116319152Y-84133770D01*
X116303718Y-84099098D01*
X116316645Y-84038291D01*
X116319120Y-84034004D01*
X116355946Y-83997178D01*
X116375438Y-83985926D01*
X116455926Y-83905438D01*
X116512839Y-83806861D01*
X116542300Y-83696913D01*
X116542300Y-83583087D01*
X116512839Y-83473139D01*
X116455926Y-83374562D01*
X116375438Y-83294074D01*
X116373812Y-83293135D01*
X116276864Y-83237162D01*
X116276861Y-83237161D01*
X116276855Y-83237159D01*
X116276844Y-83237156D01*
X116247405Y-83229268D01*
X116166917Y-83207700D01*
X116166915Y-83207700D01*
X116166913Y-83207700D01*
X116053087Y-83207700D01*
X116053084Y-83207700D01*
X115943135Y-83237162D01*
X115943134Y-83237162D01*
X115943132Y-83237163D01*
X115844563Y-83294072D01*
X115764072Y-83374563D01*
X115707163Y-83473132D01*
X115707162Y-83473134D01*
X115707162Y-83473135D01*
X115677700Y-83583084D01*
X114124569Y-83583084D01*
X114142300Y-83516913D01*
X114142300Y-83403087D01*
X114112839Y-83293139D01*
X114080517Y-83237156D01*
X114055927Y-83194564D01*
X114055926Y-83194562D01*
X114055922Y-83194558D01*
X113980508Y-83119143D01*
X113968735Y-83104988D01*
X113952797Y-83081797D01*
X113935105Y-83024875D01*
X113934938Y-82727198D01*
X113931278Y-76217162D01*
X113934699Y-76191101D01*
X113942042Y-76163671D01*
X113942041Y-76163670D01*
X113949402Y-76136175D01*
X113949198Y-76134772D01*
X113951180Y-76125731D01*
X113965181Y-76073480D01*
X113972300Y-76046913D01*
X113972300Y-75933087D01*
X113951090Y-75853931D01*
X113950815Y-75852877D01*
X113941565Y-75816526D01*
X113941921Y-75816379D01*
X113934291Y-75787943D01*
X113934130Y-75787307D01*
X113934183Y-75786483D01*
X113931023Y-75762560D01*
X113930992Y-75708280D01*
X113935899Y-75677196D01*
X113939008Y-75667612D01*
X113975528Y-75617296D01*
X114034649Y-75598055D01*
X114037402Y-75598091D01*
X114368965Y-75607077D01*
X114369511Y-75607081D01*
X114377132Y-75607139D01*
X114377142Y-75607138D01*
X114377160Y-75607139D01*
X114378063Y-75607128D01*
X114386132Y-75605259D01*
X114387722Y-75604892D01*
X114410410Y-75602300D01*
X114436913Y-75602300D01*
X114546861Y-75572839D01*
X114645438Y-75515926D01*
X114725926Y-75435438D01*
X114782839Y-75336861D01*
X114812300Y-75226913D01*
X114812300Y-75113087D01*
X114782839Y-75003139D01*
X114782807Y-75003084D01*
X114727433Y-74907173D01*
X114726329Y-74905121D01*
X114725927Y-74904563D01*
X114645438Y-74824074D01*
X114645430Y-74824069D01*
X114546868Y-74767164D01*
X114546866Y-74767163D01*
X114546864Y-74767162D01*
X114546861Y-74767161D01*
X114546855Y-74767159D01*
X114546844Y-74767156D01*
X114517405Y-74759268D01*
X114436917Y-74737700D01*
X114436915Y-74737700D01*
X114436913Y-74737700D01*
X114323087Y-74737700D01*
X114323084Y-74737700D01*
X114213135Y-74767162D01*
X114213134Y-74767162D01*
X114213132Y-74767163D01*
X114114568Y-74824069D01*
X114114560Y-74824074D01*
X114113462Y-74825173D01*
X114111336Y-74826717D01*
X114110722Y-74827221D01*
X114110692Y-74827185D01*
X114087992Y-74843677D01*
X114078083Y-74848725D01*
X114016674Y-74858446D01*
X113961278Y-74830216D01*
X113934604Y-74782595D01*
X113933239Y-74776914D01*
X113930456Y-74753475D01*
X113930116Y-74150322D01*
X113935020Y-74119247D01*
X113938450Y-74108672D01*
X113954506Y-74086547D01*
X113968781Y-74063236D01*
X113972561Y-74061668D01*
X113974965Y-74058357D01*
X114000958Y-74049895D01*
X114026214Y-74039424D01*
X114030193Y-74040377D01*
X114034085Y-74039111D01*
X114086675Y-74053918D01*
X114091669Y-74056976D01*
X114110270Y-74071634D01*
X114154563Y-74115927D01*
X114155124Y-74116331D01*
X114157177Y-74117436D01*
X114195480Y-74139550D01*
X114253135Y-74172837D01*
X114253139Y-74172839D01*
X114363087Y-74202300D01*
X114476913Y-74202300D01*
X114586861Y-74172839D01*
X114685438Y-74115926D01*
X114765926Y-74035438D01*
X114822839Y-73936861D01*
X114839928Y-73873084D01*
X116837700Y-73873084D01*
X116837700Y-73986915D01*
X116864397Y-74086547D01*
X116867163Y-74096866D01*
X116892586Y-74140900D01*
X116903866Y-74170283D01*
X116907876Y-74189148D01*
X116905148Y-74241161D01*
X116903819Y-74245250D01*
X116901411Y-74250657D01*
X116901377Y-74250982D01*
X116901158Y-74251224D01*
X116895268Y-74264453D01*
X116867162Y-74313134D01*
X116837700Y-74423083D01*
X116837700Y-74536915D01*
X116867163Y-74646867D01*
X116901246Y-74705900D01*
X116912526Y-74735283D01*
X116916536Y-74754148D01*
X116913808Y-74806161D01*
X116912479Y-74810250D01*
X116910071Y-74815657D01*
X116910037Y-74815982D01*
X116909818Y-74816224D01*
X116903928Y-74829453D01*
X116879445Y-74871860D01*
X116867162Y-74893135D01*
X116837700Y-75003084D01*
X116837700Y-75116915D01*
X116867161Y-75226861D01*
X116867163Y-75226866D01*
X116892841Y-75271342D01*
X116892847Y-75271351D01*
X116924074Y-75325438D01*
X116966336Y-75367700D01*
X117004563Y-75405927D01*
X117005124Y-75406331D01*
X117007177Y-75407436D01*
X117045480Y-75429550D01*
X117103135Y-75462837D01*
X117103139Y-75462839D01*
X117213087Y-75492300D01*
X117326913Y-75492300D01*
X117436861Y-75462839D01*
X117535438Y-75405926D01*
X117615926Y-75325438D01*
X117672839Y-75226861D01*
X117702300Y-75116913D01*
X117702300Y-75003087D01*
X117672839Y-74893139D01*
X117672838Y-74893138D01*
X117672838Y-74893136D01*
X117638751Y-74834097D01*
X117628327Y-74808397D01*
X117627864Y-74806562D01*
X117626411Y-74799725D01*
X117625785Y-74798320D01*
X117624376Y-74792730D01*
X117626245Y-74764919D01*
X117626245Y-74737045D01*
X117628335Y-74733826D01*
X117628546Y-74730696D01*
X117636764Y-74720847D01*
X117654615Y-74693363D01*
X117658574Y-74689798D01*
X117665099Y-74686894D01*
X117668383Y-74682960D01*
X117681199Y-74679727D01*
X117715369Y-74664518D01*
X117721238Y-74663901D01*
X117726536Y-74663345D01*
X117763083Y-74666222D01*
X117823083Y-74682299D01*
X117823087Y-74682300D01*
X117936913Y-74682300D01*
X118046861Y-74652839D01*
X118145438Y-74595926D01*
X118225926Y-74515438D01*
X118280479Y-74420948D01*
X118290826Y-74406242D01*
X118290934Y-74406113D01*
X118301605Y-74393621D01*
X118302162Y-74392853D01*
X118303987Y-74390699D01*
X118328991Y-74375228D01*
X118353427Y-74358892D01*
X118353457Y-74358883D01*
X118363411Y-74356076D01*
X118390715Y-74352300D01*
X118417267Y-74352300D01*
X118448351Y-74357223D01*
X118463305Y-74362081D01*
X118511222Y-74395476D01*
X118520151Y-74406802D01*
X118528268Y-74418780D01*
X118561975Y-74477161D01*
X118584074Y-74515438D01*
X118664562Y-74595926D01*
X118664563Y-74595927D01*
X118665124Y-74596331D01*
X118667177Y-74597436D01*
X118705480Y-74619550D01*
X118763135Y-74652837D01*
X118763139Y-74652839D01*
X118873087Y-74682300D01*
X118986913Y-74682300D01*
X119096861Y-74652839D01*
X119195438Y-74595926D01*
X119275926Y-74515438D01*
X119332839Y-74416861D01*
X119362300Y-74306913D01*
X119362300Y-74193087D01*
X119332839Y-74083139D01*
X119305298Y-74035437D01*
X119277430Y-73987167D01*
X119276329Y-73985121D01*
X119275927Y-73984563D01*
X119195438Y-73904074D01*
X119195439Y-73904074D01*
X119141767Y-73873087D01*
X119096864Y-73847162D01*
X119096861Y-73847161D01*
X119096855Y-73847159D01*
X119096844Y-73847156D01*
X119073452Y-73840888D01*
X119073449Y-73840887D01*
X119067405Y-73839268D01*
X118986915Y-73817700D01*
X118986913Y-73817700D01*
X118905810Y-73817700D01*
X118898949Y-73816751D01*
X118895169Y-73814917D01*
X118881643Y-73812775D01*
X118866687Y-73807915D01*
X118818775Y-73774522D01*
X118810299Y-73763770D01*
X118805892Y-73757048D01*
X118805582Y-73757256D01*
X118804660Y-73755874D01*
X118801224Y-73750342D01*
X118800473Y-73749042D01*
X118751700Y-73664563D01*
X118745929Y-73654567D01*
X118745927Y-73654564D01*
X118745926Y-73654562D01*
X118665438Y-73574074D01*
X118665437Y-73574073D01*
X118665430Y-73574069D01*
X118566868Y-73517164D01*
X118566866Y-73517163D01*
X118566864Y-73517162D01*
X118566861Y-73517161D01*
X118566855Y-73517159D01*
X118566844Y-73517156D01*
X118519842Y-73504562D01*
X118456915Y-73487700D01*
X118343084Y-73487700D01*
X118233135Y-73517162D01*
X118233134Y-73517162D01*
X118233132Y-73517163D01*
X118134563Y-73574072D01*
X118054075Y-73654560D01*
X118054070Y-73654566D01*
X117999525Y-73749042D01*
X117990273Y-73762433D01*
X117989567Y-73763295D01*
X117981000Y-73773327D01*
X117979963Y-73775037D01*
X117976330Y-73779480D01*
X117952662Y-73794685D01*
X117929813Y-73811378D01*
X117925816Y-73812689D01*
X117924252Y-73812938D01*
X117924022Y-73813087D01*
X117923509Y-73813057D01*
X117894463Y-73817700D01*
X117823084Y-73817700D01*
X117803469Y-73822956D01*
X117757686Y-73824426D01*
X117756052Y-73824098D01*
X117753825Y-73823576D01*
X117753303Y-73823548D01*
X117749724Y-73822832D01*
X117725042Y-73808969D01*
X117704927Y-73799112D01*
X117703991Y-73800268D01*
X117700222Y-73797215D01*
X117699621Y-73796512D01*
X117699466Y-73796436D01*
X117697306Y-73794343D01*
X117697551Y-73794089D01*
X117696629Y-73793010D01*
X117695515Y-73792385D01*
X117694841Y-73790918D01*
X117676457Y-73769406D01*
X117676169Y-73768908D01*
X117674687Y-73765907D01*
X117674678Y-73765893D01*
X117671195Y-73760292D01*
X117615926Y-73664562D01*
X117535438Y-73584074D01*
X117535437Y-73584073D01*
X117535430Y-73584069D01*
X117436868Y-73527164D01*
X117436866Y-73527163D01*
X117436864Y-73527162D01*
X117436861Y-73527161D01*
X117436855Y-73527159D01*
X117436836Y-73527153D01*
X117399542Y-73517161D01*
X117399541Y-73517161D01*
X117326915Y-73497700D01*
X117213084Y-73497700D01*
X117103135Y-73527162D01*
X117103134Y-73527162D01*
X117103132Y-73527163D01*
X117004563Y-73584072D01*
X116924072Y-73664563D01*
X116867163Y-73763132D01*
X116867162Y-73763134D01*
X116867162Y-73763135D01*
X116858708Y-73794685D01*
X116844647Y-73847160D01*
X116837700Y-73873084D01*
X114839928Y-73873084D01*
X114846872Y-73847170D01*
X114846874Y-73847161D01*
X114848672Y-73840454D01*
X114848677Y-73840437D01*
X114850379Y-73834086D01*
X114850381Y-73834075D01*
X114852296Y-73826928D01*
X114852299Y-73826918D01*
X114852300Y-73826912D01*
X114852300Y-73713087D01*
X114852299Y-73713084D01*
X114839298Y-73664564D01*
X114822839Y-73603139D01*
X114806058Y-73574074D01*
X114801254Y-73565754D01*
X114798114Y-73556681D01*
X114798091Y-73555512D01*
X114792269Y-73540344D01*
X114789958Y-73529471D01*
X114796458Y-73467637D01*
X114838061Y-73421433D01*
X114890987Y-73407991D01*
X114896851Y-73408145D01*
X114920251Y-73411540D01*
X114923081Y-73412299D01*
X114923087Y-73412300D01*
X115036913Y-73412300D01*
X115146861Y-73382839D01*
X115245438Y-73325926D01*
X115325926Y-73245438D01*
X115366630Y-73174936D01*
X123768800Y-73174936D01*
X123768800Y-74745068D01*
X123771148Y-74756878D01*
X123771149Y-74756878D01*
X123780617Y-74804479D01*
X123782964Y-74808868D01*
X123786124Y-74812719D01*
X123825640Y-74871860D01*
X123893020Y-74916881D01*
X123952436Y-74928700D01*
X123952437Y-74928700D01*
X125522563Y-74928700D01*
X125522564Y-74928700D01*
X125581980Y-74916881D01*
X125649360Y-74871860D01*
X125694381Y-74804480D01*
X125706200Y-74745064D01*
X125706200Y-73174936D01*
X125694381Y-73115520D01*
X125649360Y-73048140D01*
X125590219Y-73008624D01*
X125586368Y-73005464D01*
X125581979Y-73003117D01*
X125534378Y-72993649D01*
X125534378Y-72993648D01*
X125522568Y-72991300D01*
X125522564Y-72991300D01*
X123952436Y-72991300D01*
X123952435Y-72991300D01*
X123942582Y-72993258D01*
X123942583Y-72993259D01*
X123893020Y-73003117D01*
X123825640Y-73048139D01*
X123780617Y-73115520D01*
X123774384Y-73146862D01*
X123768800Y-73174936D01*
X115366630Y-73174936D01*
X115382839Y-73146861D01*
X115412300Y-73036913D01*
X115412300Y-72923087D01*
X115382839Y-72813139D01*
X115382837Y-72813137D01*
X115381131Y-72806767D01*
X115381169Y-72806756D01*
X115378625Y-72798566D01*
X115378223Y-72796676D01*
X115375449Y-72783625D01*
X115381946Y-72721793D01*
X115423548Y-72675587D01*
X115476480Y-72662142D01*
X115486419Y-72662403D01*
X115486419Y-72662401D01*
X115514474Y-72663136D01*
X115515743Y-72662611D01*
X115523650Y-72662300D01*
X115606913Y-72662300D01*
X115716861Y-72632839D01*
X115815438Y-72575926D01*
X115895926Y-72495438D01*
X115952839Y-72396861D01*
X115982300Y-72286913D01*
X115982300Y-72173087D01*
X115982300Y-72173085D01*
X115979620Y-72163084D01*
X116737700Y-72163084D01*
X116737700Y-72276915D01*
X116767161Y-72386862D01*
X116767163Y-72386866D01*
X116803371Y-72449580D01*
X116809811Y-72460734D01*
X116824074Y-72485438D01*
X116904562Y-72565926D01*
X116924022Y-72577161D01*
X117003135Y-72622837D01*
X117003139Y-72622839D01*
X117113087Y-72652300D01*
X117226913Y-72652300D01*
X117336861Y-72622839D01*
X117435438Y-72565926D01*
X117515926Y-72485438D01*
X117572839Y-72386861D01*
X117602300Y-72276913D01*
X117602300Y-72163087D01*
X117572839Y-72053139D01*
X117515926Y-71954562D01*
X117435438Y-71874074D01*
X117435437Y-71874073D01*
X117435430Y-71874069D01*
X117336868Y-71817164D01*
X117336866Y-71817163D01*
X117336864Y-71817162D01*
X117336861Y-71817161D01*
X117336855Y-71817159D01*
X117336844Y-71817156D01*
X117307405Y-71809268D01*
X117226917Y-71787700D01*
X117226915Y-71787700D01*
X117226913Y-71787700D01*
X117113087Y-71787700D01*
X117113084Y-71787700D01*
X117003135Y-71817162D01*
X117003134Y-71817162D01*
X117003132Y-71817163D01*
X116904563Y-71874072D01*
X116824072Y-71954563D01*
X116767163Y-72053132D01*
X116767162Y-72053134D01*
X116767162Y-72053135D01*
X116737700Y-72163084D01*
X115979620Y-72163084D01*
X115971515Y-72132839D01*
X115952839Y-72063139D01*
X115895926Y-71964562D01*
X115815438Y-71884074D01*
X115815437Y-71884073D01*
X115815430Y-71884069D01*
X115716868Y-71827164D01*
X115716866Y-71827163D01*
X115716864Y-71827162D01*
X115716861Y-71827161D01*
X115716855Y-71827159D01*
X115716836Y-71827153D01*
X115679542Y-71817161D01*
X115679541Y-71817161D01*
X115606915Y-71797700D01*
X115493084Y-71797700D01*
X115383135Y-71827162D01*
X115383134Y-71827162D01*
X115383132Y-71827163D01*
X115284563Y-71884072D01*
X115204072Y-71964563D01*
X115147163Y-72063132D01*
X115117700Y-72173083D01*
X115117700Y-72286919D01*
X115133487Y-72345836D01*
X115133488Y-72345836D01*
X115133488Y-72345837D01*
X115144482Y-72386864D01*
X115147161Y-72396861D01*
X115148869Y-72403230D01*
X115148829Y-72403240D01*
X115151374Y-72411436D01*
X115154646Y-72426832D01*
X115148145Y-72488666D01*
X115130564Y-72508191D01*
X115106541Y-72534869D01*
X115106539Y-72534869D01*
X115105087Y-72535708D01*
X115044271Y-72548634D01*
X115041662Y-72548325D01*
X115036913Y-72547700D01*
X114923087Y-72547700D01*
X114922008Y-72547700D01*
X114889761Y-72542392D01*
X114889573Y-72542328D01*
X114885175Y-72540829D01*
X114885102Y-72540815D01*
X114881679Y-72539657D01*
X114859480Y-72523112D01*
X114836166Y-72508191D01*
X114834809Y-72504726D01*
X114831826Y-72502503D01*
X114823590Y-72476066D01*
X114816117Y-72456978D01*
X114814172Y-72457235D01*
X114813789Y-72454325D01*
X114814075Y-72451762D01*
X114813501Y-72450295D01*
X114813475Y-72449837D01*
X114813461Y-72449580D01*
X114814324Y-72449532D01*
X114814588Y-72447173D01*
X114813333Y-72443143D01*
X114815881Y-72435613D01*
X114819150Y-72406369D01*
X114820397Y-72402992D01*
X114820396Y-72402991D01*
X114820518Y-72402663D01*
X114821958Y-72398986D01*
X114822834Y-72396869D01*
X114822839Y-72396861D01*
X114822841Y-72396851D01*
X114823411Y-72395476D01*
X114824912Y-72390754D01*
X114829330Y-72378780D01*
X114828914Y-72374630D01*
X114830046Y-72369963D01*
X114852299Y-72286915D01*
X114852300Y-72286912D01*
X114852300Y-72173087D01*
X114852299Y-72173084D01*
X114849620Y-72163087D01*
X114822839Y-72063139D01*
X114765926Y-71964562D01*
X114685438Y-71884074D01*
X114685437Y-71884073D01*
X114685430Y-71884069D01*
X114586868Y-71827164D01*
X114586866Y-71827163D01*
X114586864Y-71827162D01*
X114586861Y-71827161D01*
X114586855Y-71827159D01*
X114586836Y-71827153D01*
X114549542Y-71817161D01*
X114549541Y-71817161D01*
X114476915Y-71797700D01*
X114363084Y-71797700D01*
X114253135Y-71827162D01*
X114253134Y-71827162D01*
X114253132Y-71827163D01*
X114154563Y-71884072D01*
X114111834Y-71926801D01*
X114086372Y-71945300D01*
X114076463Y-71950349D01*
X114015055Y-71960076D01*
X113959657Y-71931850D01*
X113932978Y-71884228D01*
X113931614Y-71878554D01*
X113928827Y-71855097D01*
X113928789Y-71787700D01*
X113926543Y-67790253D01*
X129600500Y-67790253D01*
X129600500Y-68049745D01*
X129634369Y-68307005D01*
X129634370Y-68307011D01*
X129634375Y-68307038D01*
X129701521Y-68557629D01*
X129701524Y-68557636D01*
X129701529Y-68557654D01*
X129701530Y-68557657D01*
X129701532Y-68557662D01*
X129701534Y-68557668D01*
X129800829Y-68797387D01*
X129875735Y-68927126D01*
X129930576Y-69022113D01*
X129930581Y-69022120D01*
X129930589Y-69022131D01*
X129930600Y-69022146D01*
X130088530Y-69227965D01*
X130272033Y-69411468D01*
X130477852Y-69569398D01*
X130477863Y-69569405D01*
X130477879Y-69569418D01*
X130477886Y-69569423D01*
X130702611Y-69699169D01*
X130942342Y-69798469D01*
X130942345Y-69798470D01*
X130942360Y-69798474D01*
X130942369Y-69798477D01*
X131124677Y-69847326D01*
X131192977Y-69865627D01*
X131192980Y-69865627D01*
X131192990Y-69865630D01*
X131423445Y-69895970D01*
X131450255Y-69899500D01*
X131450256Y-69899500D01*
X131450257Y-69899500D01*
X131709743Y-69899500D01*
X131709744Y-69899500D01*
X131734023Y-69896303D01*
X131967010Y-69865630D01*
X131967020Y-69865627D01*
X131967022Y-69865627D01*
X131967045Y-69865620D01*
X131967351Y-69865555D01*
X131968418Y-69865253D01*
X132002430Y-69856139D01*
X132078709Y-69835700D01*
X132217655Y-69798470D01*
X132457389Y-69699169D01*
X132682111Y-69569425D01*
X132887975Y-69411460D01*
X133071460Y-69227975D01*
X133229425Y-69022111D01*
X133359169Y-68797389D01*
X133458470Y-68557655D01*
X133495700Y-68418709D01*
X133525627Y-68307022D01*
X133525627Y-68307020D01*
X133525630Y-68307010D01*
X133559500Y-68049743D01*
X133559500Y-67790257D01*
X133559499Y-67790253D01*
X133553106Y-67741695D01*
X133525630Y-67532990D01*
X133458470Y-67282345D01*
X133359169Y-67042611D01*
X133229425Y-66817889D01*
X133229423Y-66817886D01*
X133229418Y-66817879D01*
X133229400Y-66817855D01*
X133071468Y-66612033D01*
X132887965Y-66428530D01*
X132682146Y-66270600D01*
X132682131Y-66270589D01*
X132682120Y-66270581D01*
X132682113Y-66270576D01*
X132587126Y-66215735D01*
X132457387Y-66140829D01*
X132217668Y-66041534D01*
X132217662Y-66041532D01*
X132217657Y-66041530D01*
X132217654Y-66041529D01*
X132217639Y-66041525D01*
X132217636Y-66041524D01*
X132217629Y-66041521D01*
X131967022Y-65974372D01*
X131967008Y-65974369D01*
X131966697Y-65974306D01*
X131965384Y-65974155D01*
X131795499Y-65951790D01*
X131795498Y-65951790D01*
X131709745Y-65940500D01*
X131709744Y-65940500D01*
X131709743Y-65940500D01*
X131450257Y-65940500D01*
X131450256Y-65940500D01*
X131450255Y-65940500D01*
X131321623Y-65957435D01*
X131195046Y-65974099D01*
X131193584Y-65974261D01*
X131192993Y-65974368D01*
X131192961Y-65974375D01*
X130942369Y-66041521D01*
X130942363Y-66041524D01*
X130942357Y-66041525D01*
X130942345Y-66041529D01*
X130942342Y-66041530D01*
X130942338Y-66041531D01*
X130942330Y-66041534D01*
X130702611Y-66140829D01*
X130477889Y-66270574D01*
X130477852Y-66270600D01*
X130272033Y-66428530D01*
X130088530Y-66612033D01*
X129930600Y-66817852D01*
X129930574Y-66817889D01*
X129800829Y-67042611D01*
X129701534Y-67282330D01*
X129701524Y-67282363D01*
X129701521Y-67282369D01*
X129634375Y-67532960D01*
X129634370Y-67532987D01*
X129634369Y-67532993D01*
X129600500Y-67790253D01*
X113926543Y-67790253D01*
X113926541Y-67787019D01*
X113925616Y-66140830D01*
X113925560Y-66041521D01*
X113925192Y-65387086D01*
X113930101Y-65355994D01*
X113934284Y-65343099D01*
X113934351Y-65343007D01*
X113970796Y-65292788D01*
X113970797Y-65292786D01*
X113974975Y-65289748D01*
X114034094Y-65270500D01*
X134112967Y-65270500D01*
X134144053Y-65275423D01*
G37*
%TD.AperFunction*%
%TA.AperFunction,Conductor*%
G36*
X122841975Y-79785212D02*
G01*
X122868652Y-79832846D01*
X122870018Y-79838534D01*
X122872800Y-79862025D01*
X122872800Y-82201718D01*
X122867876Y-82232803D01*
X122860207Y-82256408D01*
X122835666Y-82296454D01*
X121380202Y-83751918D01*
X121354732Y-83770421D01*
X121344829Y-83775466D01*
X121283420Y-83785188D01*
X121228024Y-83756958D01*
X121201343Y-83709309D01*
X121199977Y-83703619D01*
X121197200Y-83680145D01*
X121197200Y-81340452D01*
X121202122Y-81309371D01*
X121209793Y-81285760D01*
X121234331Y-81245718D01*
X122689800Y-79790249D01*
X122715267Y-79771749D01*
X122725170Y-79766704D01*
X122786579Y-79756982D01*
X122841975Y-79785212D01*
G37*
%TD.AperFunction*%
%TD*%
%TA.AperFunction,Conductor*%
%TO.N,+3.3V*%
G36*
X79412786Y-82079136D02*
G01*
X79417272Y-82085265D01*
X79494900Y-82335098D01*
X79494900Y-82335097D01*
X79494901Y-82335099D01*
X79518501Y-82324182D01*
X79527448Y-82323820D01*
X79534031Y-82329890D01*
X79535112Y-82334802D01*
X79535112Y-82431800D01*
X79531685Y-82440073D01*
X79523412Y-82443500D01*
X79452326Y-82443500D01*
X79447849Y-82442609D01*
X79421078Y-82431520D01*
X79405102Y-82424902D01*
X79405096Y-82424899D01*
X79155265Y-82347272D01*
X79148382Y-82341545D01*
X79147220Y-82334041D01*
X79184752Y-82124208D01*
X79189582Y-82116668D01*
X79194208Y-82114752D01*
X79404041Y-82077220D01*
X79412786Y-82079136D01*
G37*
%TD.AperFunction*%
%TD*%
%TA.AperFunction,Conductor*%
%TO.N,+3.3V*%
G36*
X103289258Y-82264926D02*
G01*
X103292999Y-82270293D01*
X103323117Y-82359598D01*
X103322513Y-82368533D01*
X103316468Y-82374163D01*
X103065141Y-82477182D01*
X103058044Y-82477750D01*
X102877466Y-82435609D01*
X102870188Y-82430392D01*
X102868425Y-82424215D01*
X102868425Y-82317015D01*
X102871852Y-82308742D01*
X102878878Y-82305381D01*
X103280668Y-82262398D01*
X103289258Y-82264926D01*
G37*
%TD.AperFunction*%
%TD*%
%TA.AperFunction,Conductor*%
%TO.N,+3.3V*%
G36*
X106373805Y-69810619D02*
G01*
X106376419Y-69814606D01*
X106529196Y-70202673D01*
X106529038Y-70211626D01*
X106522595Y-70217846D01*
X106520855Y-70218379D01*
X106312546Y-70264824D01*
X106307454Y-70264824D01*
X106099144Y-70218379D01*
X106091815Y-70213233D01*
X106090270Y-70204413D01*
X106090803Y-70202673D01*
X106243581Y-69814606D01*
X106249801Y-69808163D01*
X106254468Y-69807192D01*
X106365532Y-69807192D01*
X106373805Y-69810619D01*
G37*
%TD.AperFunction*%
%TD*%
%TA.AperFunction,Conductor*%
%TO.N,+3.3V*%
G36*
X65953805Y-69790619D02*
G01*
X65956419Y-69794606D01*
X66109196Y-70182673D01*
X66109038Y-70191626D01*
X66102595Y-70197846D01*
X66100855Y-70198379D01*
X65892546Y-70244824D01*
X65887454Y-70244824D01*
X65679144Y-70198379D01*
X65671815Y-70193233D01*
X65670270Y-70184413D01*
X65670803Y-70182673D01*
X65823581Y-69794606D01*
X65829801Y-69788163D01*
X65834468Y-69787192D01*
X65945532Y-69787192D01*
X65953805Y-69790619D01*
G37*
%TD.AperFunction*%
%TD*%
%TA.AperFunction,Conductor*%
%TO.N,+3.3V*%
G36*
X69850856Y-95761621D02*
G01*
X69858184Y-95766766D01*
X69859729Y-95775586D01*
X69859196Y-95777326D01*
X69706419Y-96165394D01*
X69700199Y-96171837D01*
X69695532Y-96172808D01*
X69584468Y-96172808D01*
X69576195Y-96169381D01*
X69573581Y-96165394D01*
X69420803Y-95777326D01*
X69420961Y-95768373D01*
X69427404Y-95762153D01*
X69429131Y-95761623D01*
X69637457Y-95715175D01*
X69642543Y-95715175D01*
X69850856Y-95761621D01*
G37*
%TD.AperFunction*%
%TD*%
%TA.AperFunction,Conductor*%
%TO.N,+3.3V*%
G36*
X70105435Y-87843721D02*
G01*
X70106892Y-87844493D01*
X70333644Y-87985999D01*
X70338849Y-87993285D01*
X70339045Y-87997489D01*
X70321657Y-88126316D01*
X70317154Y-88134056D01*
X70308497Y-88136346D01*
X70307831Y-88136236D01*
X69891325Y-88055339D01*
X69883857Y-88050398D01*
X69881856Y-88043854D01*
X69881856Y-87934520D01*
X69885283Y-87926247D01*
X69889333Y-87923608D01*
X70096484Y-87843508D01*
X70105435Y-87843721D01*
G37*
%TD.AperFunction*%
%TD*%
%TA.AperFunction,Conductor*%
%TO.N,+3.3V*%
G36*
X74657326Y-96490803D02*
G01*
X75045394Y-96643581D01*
X75051837Y-96649801D01*
X75052808Y-96654468D01*
X75052808Y-96765531D01*
X75049381Y-96773804D01*
X75045394Y-96776418D01*
X74657326Y-96929196D01*
X74648373Y-96929038D01*
X74642153Y-96922595D01*
X74641622Y-96920864D01*
X74595175Y-96712543D01*
X74595175Y-96707456D01*
X74641621Y-96499141D01*
X74646766Y-96491815D01*
X74655586Y-96490270D01*
X74657326Y-96490803D01*
G37*
%TD.AperFunction*%
%TD*%
%TA.AperFunction,Conductor*%
%TO.N,+3.3V*%
G36*
X89597326Y-82150803D02*
G01*
X89985394Y-82303581D01*
X89991837Y-82309801D01*
X89992808Y-82314468D01*
X89992808Y-82425531D01*
X89989381Y-82433804D01*
X89985394Y-82436418D01*
X89597326Y-82589196D01*
X89588373Y-82589038D01*
X89582153Y-82582595D01*
X89581622Y-82580864D01*
X89535175Y-82372543D01*
X89535175Y-82367456D01*
X89581621Y-82159141D01*
X89586766Y-82151815D01*
X89595586Y-82150270D01*
X89597326Y-82150803D01*
G37*
%TD.AperFunction*%
%TD*%
%TA.AperFunction,Conductor*%
%TO.N,+3.3V*%
G36*
X76393805Y-69790619D02*
G01*
X76396419Y-69794606D01*
X76549196Y-70182673D01*
X76549038Y-70191626D01*
X76542595Y-70197846D01*
X76540855Y-70198379D01*
X76332546Y-70244824D01*
X76327454Y-70244824D01*
X76119144Y-70198379D01*
X76111815Y-70193233D01*
X76110270Y-70184413D01*
X76110803Y-70182673D01*
X76263581Y-69794606D01*
X76269801Y-69788163D01*
X76274468Y-69787192D01*
X76385532Y-69787192D01*
X76393805Y-69790619D01*
G37*
%TD.AperFunction*%
%TD*%
%TA.AperFunction,Conductor*%
%TO.N,+3.3V*%
G36*
X66690856Y-72561621D02*
G01*
X66698184Y-72566766D01*
X66699729Y-72575586D01*
X66699196Y-72577326D01*
X66546419Y-72965394D01*
X66540199Y-72971837D01*
X66535532Y-72972808D01*
X66424468Y-72972808D01*
X66416195Y-72969381D01*
X66413581Y-72965394D01*
X66260803Y-72577326D01*
X66260961Y-72568373D01*
X66267404Y-72562153D01*
X66269131Y-72561623D01*
X66477457Y-72515175D01*
X66482543Y-72515175D01*
X66690856Y-72561621D01*
G37*
%TD.AperFunction*%
%TD*%
%TA.AperFunction,Conductor*%
%TO.N,+3.3V*%
G36*
X69830856Y-76521621D02*
G01*
X69838184Y-76526766D01*
X69839729Y-76535586D01*
X69839196Y-76537326D01*
X69686419Y-76925394D01*
X69680199Y-76931837D01*
X69675532Y-76932808D01*
X69564468Y-76932808D01*
X69556195Y-76929381D01*
X69553581Y-76925394D01*
X69400803Y-76537326D01*
X69400961Y-76528373D01*
X69407404Y-76522153D01*
X69409131Y-76521623D01*
X69617457Y-76475175D01*
X69622543Y-76475175D01*
X69830856Y-76521621D01*
G37*
%TD.AperFunction*%
%TD*%
%TA.AperFunction,Conductor*%
%TO.N,+3.3V*%
G36*
X86423805Y-69750619D02*
G01*
X86426419Y-69754606D01*
X86579196Y-70142673D01*
X86579038Y-70151626D01*
X86572595Y-70157846D01*
X86570855Y-70158379D01*
X86362546Y-70204824D01*
X86357454Y-70204824D01*
X86149144Y-70158379D01*
X86141815Y-70153233D01*
X86140270Y-70144413D01*
X86140803Y-70142673D01*
X86293581Y-69754606D01*
X86299801Y-69748163D01*
X86304468Y-69747192D01*
X86415532Y-69747192D01*
X86423805Y-69750619D01*
G37*
%TD.AperFunction*%
%TD*%
%TA.AperFunction,Conductor*%
%TO.N,+3.3V*%
G36*
X78091916Y-89300732D02*
G01*
X78097996Y-89307306D01*
X78098414Y-89308699D01*
X78144246Y-89505089D01*
X78142789Y-89513924D01*
X78142609Y-89514205D01*
X78018342Y-89701995D01*
X78010919Y-89707003D01*
X78004062Y-89706328D01*
X77694369Y-89576508D01*
X77688064Y-89570150D01*
X77687192Y-89565718D01*
X77687192Y-89454652D01*
X77690619Y-89446379D01*
X77694838Y-89443676D01*
X78082969Y-89300382D01*
X78091916Y-89300732D01*
G37*
%TD.AperFunction*%
%TD*%
%TA.AperFunction,Conductor*%
%TO.N,+3.3V*%
G36*
X113661626Y-83240961D02*
G01*
X113667846Y-83247404D01*
X113668379Y-83249144D01*
X113714824Y-83457454D01*
X113714824Y-83462546D01*
X113668379Y-83670855D01*
X113663233Y-83678184D01*
X113654413Y-83679729D01*
X113652673Y-83679196D01*
X113264606Y-83526418D01*
X113258163Y-83520198D01*
X113257192Y-83515531D01*
X113257192Y-83404468D01*
X113260619Y-83396195D01*
X113264606Y-83393581D01*
X113652673Y-83240803D01*
X113661626Y-83240961D01*
G37*
%TD.AperFunction*%
%TD*%
%TA.AperFunction,Conductor*%
%TO.N,+3.3V*%
G36*
X96243805Y-69820619D02*
G01*
X96246419Y-69824606D01*
X96399196Y-70212673D01*
X96399038Y-70221626D01*
X96392595Y-70227846D01*
X96390855Y-70228379D01*
X96182546Y-70274824D01*
X96177454Y-70274824D01*
X95969144Y-70228379D01*
X95961815Y-70223233D01*
X95960270Y-70214413D01*
X95960803Y-70212673D01*
X96113581Y-69824606D01*
X96119801Y-69818163D01*
X96124468Y-69817192D01*
X96235532Y-69817192D01*
X96243805Y-69820619D01*
G37*
%TD.AperFunction*%
%TD*%
%TA.AperFunction,Conductor*%
%TO.N,/MP6602_SLEEP*%
G36*
X114167812Y-75250876D02*
G01*
X114428432Y-75319597D01*
X114435557Y-75325020D01*
X114436761Y-75333893D01*
X114434125Y-75338758D01*
X114383612Y-75394606D01*
X114375521Y-75398443D01*
X114374618Y-75398454D01*
X114000206Y-75388308D01*
X113992029Y-75384658D01*
X113988823Y-75376612D01*
X113988823Y-75272020D01*
X113992250Y-75263747D01*
X113999821Y-75260341D01*
X114164140Y-75250511D01*
X114167812Y-75250876D01*
G37*
%TD.AperFunction*%
%TD*%
%TA.AperFunction,Conductor*%
%TO.N,/STEP*%
G36*
X120558798Y-79170454D02*
G01*
X120763583Y-79216114D01*
X120767760Y-79217959D01*
X120769213Y-79218979D01*
X120769215Y-79218980D01*
X120769215Y-79218981D01*
X120769217Y-79218982D01*
X120771030Y-79221836D01*
X120774018Y-79226538D01*
X120774206Y-79227611D01*
X120773569Y-79233916D01*
X120622271Y-79618228D01*
X120619804Y-79622066D01*
X120617714Y-79624232D01*
X120609503Y-79627806D01*
X120609294Y-79627808D01*
X120501795Y-79627808D01*
X120497317Y-79626917D01*
X120494536Y-79625765D01*
X120488205Y-79619433D01*
X120488127Y-79619242D01*
X120336655Y-79234490D01*
X120335844Y-79230000D01*
X120335875Y-79228221D01*
X120339444Y-79220010D01*
X120340231Y-79219250D01*
X120345809Y-79216248D01*
X120551201Y-79170454D01*
X120553747Y-79170175D01*
X120556253Y-79170175D01*
X120558798Y-79170454D01*
G37*
%TD.AperFunction*%
%TD*%
%TA.AperFunction,Conductor*%
%TO.N,/MP6602_nFAULT*%
G36*
X113291626Y-76450961D02*
G01*
X113297846Y-76457404D01*
X113298379Y-76459144D01*
X113344824Y-76667454D01*
X113344824Y-76672546D01*
X113298379Y-76880855D01*
X113293233Y-76888184D01*
X113284413Y-76889729D01*
X113282673Y-76889196D01*
X112894606Y-76736418D01*
X112888163Y-76730198D01*
X112887192Y-76725531D01*
X112887192Y-76614468D01*
X112890619Y-76606195D01*
X112894606Y-76603581D01*
X113282673Y-76450803D01*
X113291626Y-76450961D01*
G37*
%TD.AperFunction*%
%TD*%
%TA.AperFunction,Conductor*%
%TO.N,/MP6602_nRST*%
G36*
X113486779Y-75770875D02*
G01*
X113490348Y-75772427D01*
X113494989Y-75774445D01*
X113494990Y-75774446D01*
X113495747Y-75775230D01*
X113498750Y-75780811D01*
X113544544Y-75986198D01*
X113544824Y-75988744D01*
X113544824Y-75991255D01*
X113544544Y-75993801D01*
X113498885Y-76198584D01*
X113497038Y-76202764D01*
X113496015Y-76204220D01*
X113488459Y-76209019D01*
X113488455Y-76209019D01*
X113488455Y-76209020D01*
X113488454Y-76209019D01*
X113487385Y-76209207D01*
X113481082Y-76208569D01*
X113096771Y-76057270D01*
X113092929Y-76054799D01*
X113090764Y-76052708D01*
X113087194Y-76044495D01*
X113087192Y-76044292D01*
X113087192Y-75936795D01*
X113088081Y-75932321D01*
X113089234Y-75929537D01*
X113095563Y-75923206D01*
X113095693Y-75923152D01*
X113480509Y-75771654D01*
X113484997Y-75770844D01*
X113486779Y-75770875D01*
G37*
%TD.AperFunction*%
%TD*%
%TA.AperFunction,Conductor*%
%TO.N,/MP6602_ENBL*%
G36*
X113026779Y-77100875D02*
G01*
X113030348Y-77102427D01*
X113034989Y-77104445D01*
X113034990Y-77104446D01*
X113035747Y-77105230D01*
X113038750Y-77110811D01*
X113084544Y-77316198D01*
X113084824Y-77318744D01*
X113084824Y-77321255D01*
X113084544Y-77323801D01*
X113038885Y-77528584D01*
X113037038Y-77532764D01*
X113036015Y-77534220D01*
X113028459Y-77539019D01*
X113028455Y-77539019D01*
X113028455Y-77539020D01*
X113028454Y-77539019D01*
X113027385Y-77539207D01*
X113021082Y-77538569D01*
X112636771Y-77387270D01*
X112632929Y-77384799D01*
X112630764Y-77382708D01*
X112627194Y-77374495D01*
X112627192Y-77374292D01*
X112627192Y-77266795D01*
X112628081Y-77262321D01*
X112629234Y-77259537D01*
X112635563Y-77253206D01*
X112635693Y-77253152D01*
X113020509Y-77101654D01*
X113024997Y-77100844D01*
X113026779Y-77100875D01*
G37*
%TD.AperFunction*%
%TD*%
%TA.AperFunction,Conductor*%
%TO.N,/DIR*%
G36*
X119439864Y-80009478D02*
G01*
X119441467Y-80010330D01*
X119621613Y-80124789D01*
X119625210Y-80128386D01*
X119736242Y-80303137D01*
X119739667Y-80308528D01*
X119741212Y-80317348D01*
X119736066Y-80324677D01*
X119734459Y-80325531D01*
X119352023Y-80491905D01*
X119343070Y-80492063D01*
X119339083Y-80489449D01*
X119260550Y-80410916D01*
X119257123Y-80402643D01*
X119258094Y-80397976D01*
X119424470Y-80015537D01*
X119430911Y-80009320D01*
X119439864Y-80009478D01*
G37*
%TD.AperFunction*%
%TD*%
%TA.AperFunction,Conductor*%
%TO.N,/MISO*%
G36*
X122380856Y-78641621D02*
G01*
X122388184Y-78646766D01*
X122389729Y-78655586D01*
X122389196Y-78657326D01*
X122236419Y-79045394D01*
X122230199Y-79051837D01*
X122225532Y-79052808D01*
X122114468Y-79052808D01*
X122106195Y-79049381D01*
X122103581Y-79045394D01*
X121950803Y-78657326D01*
X121950961Y-78648373D01*
X121957404Y-78642153D01*
X121959131Y-78641623D01*
X122167457Y-78595175D01*
X122172543Y-78595175D01*
X122380856Y-78641621D01*
G37*
%TD.AperFunction*%
%TD*%
%TA.AperFunction,Conductor*%
%TO.N,/MOSI*%
G36*
X120778798Y-77140454D02*
G01*
X120983583Y-77186114D01*
X120987760Y-77187959D01*
X120989213Y-77188979D01*
X120989215Y-77188980D01*
X120989215Y-77188981D01*
X120989217Y-77188982D01*
X120991030Y-77191836D01*
X120994018Y-77196538D01*
X120994206Y-77197611D01*
X120993569Y-77203916D01*
X120842271Y-77588228D01*
X120839804Y-77592066D01*
X120837714Y-77594232D01*
X120829503Y-77597806D01*
X120829294Y-77597808D01*
X120721795Y-77597808D01*
X120717317Y-77596917D01*
X120714536Y-77595765D01*
X120708205Y-77589433D01*
X120708127Y-77589242D01*
X120556655Y-77204490D01*
X120555844Y-77200000D01*
X120555875Y-77198221D01*
X120559444Y-77190010D01*
X120560231Y-77189250D01*
X120565809Y-77186248D01*
X120771201Y-77140454D01*
X120773747Y-77140175D01*
X120776253Y-77140175D01*
X120778798Y-77140454D01*
G37*
%TD.AperFunction*%
%TD*%
%TA.AperFunction,Conductor*%
%TO.N,/CS*%
G36*
X121238916Y-76081429D02*
G01*
X121249965Y-76085779D01*
X121623229Y-76232728D01*
X121627068Y-76235197D01*
X121629234Y-76237288D01*
X121632806Y-76245500D01*
X121632808Y-76245706D01*
X121632808Y-76353203D01*
X121631917Y-76357681D01*
X121630765Y-76360462D01*
X121624433Y-76366793D01*
X121624242Y-76366871D01*
X121239490Y-76518343D01*
X121235000Y-76519154D01*
X121233221Y-76519123D01*
X121225009Y-76515553D01*
X121225008Y-76515552D01*
X121224251Y-76514768D01*
X121221248Y-76509187D01*
X121175455Y-76303798D01*
X121175175Y-76301252D01*
X121175175Y-76298746D01*
X121175455Y-76296200D01*
X121189056Y-76235197D01*
X121221114Y-76091411D01*
X121222960Y-76087234D01*
X121223982Y-76085779D01*
X121231539Y-76080979D01*
X121232613Y-76080791D01*
X121238916Y-76081429D01*
G37*
%TD.AperFunction*%
%TD*%
%TA.AperFunction,Conductor*%
%TO.N,/SCLK*%
G36*
X120540824Y-75841613D02*
G01*
X120548152Y-75846759D01*
X120549697Y-75855579D01*
X120549154Y-75857345D01*
X120404138Y-76223163D01*
X120397903Y-76229591D01*
X120388949Y-76229728D01*
X120382521Y-76223493D01*
X120382452Y-76223328D01*
X120376064Y-76207906D01*
X120376063Y-76207906D01*
X120298643Y-76285327D01*
X120290370Y-76288754D01*
X120282097Y-76285327D01*
X120279561Y-76281532D01*
X120266560Y-76250146D01*
X120266492Y-76249980D01*
X120258464Y-76229728D01*
X120110845Y-75857344D01*
X120110982Y-75848391D01*
X120117410Y-75842156D01*
X120119165Y-75841616D01*
X120327457Y-75795175D01*
X120332543Y-75795175D01*
X120540824Y-75841613D01*
G37*
%TD.AperFunction*%
%TD*%
M02*
