%TF.GenerationSoftware,KiCad,Pcbnew,10.0.3*%
%TF.CreationDate,2026-09-20T11:28:41-06:00*%
%TF.ProjectId,filter_actuator_rev1,66696c74-6572-45f6-9163-747561746f72,1.0*%
%TF.SameCoordinates,Original*%
%TF.FileFunction,Legend,Bot*%
%TF.FilePolarity,Positive*%
%FSLAX46Y46*%
G04 Gerber Fmt 4.6, Leading zero omitted, Abs format (unit mm)*
G04 Created by KiCad (PCBNEW 10.0.3) date 2026-09-20 11:28:41*
%MOMM*%
%LPD*%
G01*
G04 APERTURE LIST*
%ADD10C,0.200000*%
%ADD11C,0.250000*%
%ADD12C,0.152400*%
%ADD13C,0.120000*%
%ADD14C,0.100000*%
%ADD15C,0.276716*%
G04 APERTURE END LIST*
D10*
X72492780Y-70250326D02*
X73492780Y-70250326D01*
X73492780Y-70250326D02*
X73492780Y-69869374D01*
X73492780Y-69869374D02*
X73445161Y-69774136D01*
X73445161Y-69774136D02*
X73397542Y-69726517D01*
X73397542Y-69726517D02*
X73302304Y-69678898D01*
X73302304Y-69678898D02*
X73159447Y-69678898D01*
X73159447Y-69678898D02*
X73064209Y-69726517D01*
X73064209Y-69726517D02*
X73016590Y-69774136D01*
X73016590Y-69774136D02*
X72968971Y-69869374D01*
X72968971Y-69869374D02*
X72968971Y-70250326D01*
X73492780Y-69059850D02*
X73492780Y-68869374D01*
X73492780Y-68869374D02*
X73445161Y-68774136D01*
X73445161Y-68774136D02*
X73349923Y-68678898D01*
X73349923Y-68678898D02*
X73159447Y-68631279D01*
X73159447Y-68631279D02*
X72826114Y-68631279D01*
X72826114Y-68631279D02*
X72635638Y-68678898D01*
X72635638Y-68678898D02*
X72540400Y-68774136D01*
X72540400Y-68774136D02*
X72492780Y-68869374D01*
X72492780Y-68869374D02*
X72492780Y-69059850D01*
X72492780Y-69059850D02*
X72540400Y-69155088D01*
X72540400Y-69155088D02*
X72635638Y-69250326D01*
X72635638Y-69250326D02*
X72826114Y-69297945D01*
X72826114Y-69297945D02*
X73159447Y-69297945D01*
X73159447Y-69297945D02*
X73349923Y-69250326D01*
X73349923Y-69250326D02*
X73445161Y-69155088D01*
X73445161Y-69155088D02*
X73492780Y-69059850D01*
X73492780Y-68297945D02*
X72492780Y-68059850D01*
X72492780Y-68059850D02*
X73207066Y-67869374D01*
X73207066Y-67869374D02*
X72492780Y-67678898D01*
X72492780Y-67678898D02*
X73492780Y-67440803D01*
X73016590Y-67059850D02*
X73016590Y-66726517D01*
X72492780Y-66583660D02*
X72492780Y-67059850D01*
X72492780Y-67059850D02*
X73492780Y-67059850D01*
X73492780Y-67059850D02*
X73492780Y-66583660D01*
X72492780Y-65583660D02*
X72968971Y-65916993D01*
X72492780Y-66155088D02*
X73492780Y-66155088D01*
X73492780Y-66155088D02*
X73492780Y-65774136D01*
X73492780Y-65774136D02*
X73445161Y-65678898D01*
X73445161Y-65678898D02*
X73397542Y-65631279D01*
X73397542Y-65631279D02*
X73302304Y-65583660D01*
X73302304Y-65583660D02*
X73159447Y-65583660D01*
X73159447Y-65583660D02*
X73064209Y-65631279D01*
X73064209Y-65631279D02*
X73016590Y-65678898D01*
X73016590Y-65678898D02*
X72968971Y-65774136D01*
X72968971Y-65774136D02*
X72968971Y-66155088D01*
X83132780Y-69780326D02*
X84132780Y-69780326D01*
X84132780Y-69780326D02*
X84132780Y-69399374D01*
X84132780Y-69399374D02*
X84085161Y-69304136D01*
X84085161Y-69304136D02*
X84037542Y-69256517D01*
X84037542Y-69256517D02*
X83942304Y-69208898D01*
X83942304Y-69208898D02*
X83799447Y-69208898D01*
X83799447Y-69208898D02*
X83704209Y-69256517D01*
X83704209Y-69256517D02*
X83656590Y-69304136D01*
X83656590Y-69304136D02*
X83608971Y-69399374D01*
X83608971Y-69399374D02*
X83608971Y-69780326D01*
X84132780Y-68589850D02*
X84132780Y-68399374D01*
X84132780Y-68399374D02*
X84085161Y-68304136D01*
X84085161Y-68304136D02*
X83989923Y-68208898D01*
X83989923Y-68208898D02*
X83799447Y-68161279D01*
X83799447Y-68161279D02*
X83466114Y-68161279D01*
X83466114Y-68161279D02*
X83275638Y-68208898D01*
X83275638Y-68208898D02*
X83180400Y-68304136D01*
X83180400Y-68304136D02*
X83132780Y-68399374D01*
X83132780Y-68399374D02*
X83132780Y-68589850D01*
X83132780Y-68589850D02*
X83180400Y-68685088D01*
X83180400Y-68685088D02*
X83275638Y-68780326D01*
X83275638Y-68780326D02*
X83466114Y-68827945D01*
X83466114Y-68827945D02*
X83799447Y-68827945D01*
X83799447Y-68827945D02*
X83989923Y-68780326D01*
X83989923Y-68780326D02*
X84085161Y-68685088D01*
X84085161Y-68685088D02*
X84132780Y-68589850D01*
X83180400Y-67780326D02*
X83132780Y-67637469D01*
X83132780Y-67637469D02*
X83132780Y-67399374D01*
X83132780Y-67399374D02*
X83180400Y-67304136D01*
X83180400Y-67304136D02*
X83228019Y-67256517D01*
X83228019Y-67256517D02*
X83323257Y-67208898D01*
X83323257Y-67208898D02*
X83418495Y-67208898D01*
X83418495Y-67208898D02*
X83513733Y-67256517D01*
X83513733Y-67256517D02*
X83561352Y-67304136D01*
X83561352Y-67304136D02*
X83608971Y-67399374D01*
X83608971Y-67399374D02*
X83656590Y-67589850D01*
X83656590Y-67589850D02*
X83704209Y-67685088D01*
X83704209Y-67685088D02*
X83751828Y-67732707D01*
X83751828Y-67732707D02*
X83847066Y-67780326D01*
X83847066Y-67780326D02*
X83942304Y-67780326D01*
X83942304Y-67780326D02*
X84037542Y-67732707D01*
X84037542Y-67732707D02*
X84085161Y-67685088D01*
X84085161Y-67685088D02*
X84132780Y-67589850D01*
X84132780Y-67589850D02*
X84132780Y-67351755D01*
X84132780Y-67351755D02*
X84085161Y-67208898D01*
X83799447Y-66351755D02*
X83132780Y-66351755D01*
X84180400Y-66589850D02*
X83466114Y-66827945D01*
X83466114Y-66827945D02*
X83466114Y-66208898D01*
X93192780Y-69790326D02*
X94192780Y-69790326D01*
X94192780Y-69790326D02*
X94192780Y-69409374D01*
X94192780Y-69409374D02*
X94145161Y-69314136D01*
X94145161Y-69314136D02*
X94097542Y-69266517D01*
X94097542Y-69266517D02*
X94002304Y-69218898D01*
X94002304Y-69218898D02*
X93859447Y-69218898D01*
X93859447Y-69218898D02*
X93764209Y-69266517D01*
X93764209Y-69266517D02*
X93716590Y-69314136D01*
X93716590Y-69314136D02*
X93668971Y-69409374D01*
X93668971Y-69409374D02*
X93668971Y-69790326D01*
X94192780Y-68599850D02*
X94192780Y-68409374D01*
X94192780Y-68409374D02*
X94145161Y-68314136D01*
X94145161Y-68314136D02*
X94049923Y-68218898D01*
X94049923Y-68218898D02*
X93859447Y-68171279D01*
X93859447Y-68171279D02*
X93526114Y-68171279D01*
X93526114Y-68171279D02*
X93335638Y-68218898D01*
X93335638Y-68218898D02*
X93240400Y-68314136D01*
X93240400Y-68314136D02*
X93192780Y-68409374D01*
X93192780Y-68409374D02*
X93192780Y-68599850D01*
X93192780Y-68599850D02*
X93240400Y-68695088D01*
X93240400Y-68695088D02*
X93335638Y-68790326D01*
X93335638Y-68790326D02*
X93526114Y-68837945D01*
X93526114Y-68837945D02*
X93859447Y-68837945D01*
X93859447Y-68837945D02*
X94049923Y-68790326D01*
X94049923Y-68790326D02*
X94145161Y-68695088D01*
X94145161Y-68695088D02*
X94192780Y-68599850D01*
X93240400Y-67790326D02*
X93192780Y-67647469D01*
X93192780Y-67647469D02*
X93192780Y-67409374D01*
X93192780Y-67409374D02*
X93240400Y-67314136D01*
X93240400Y-67314136D02*
X93288019Y-67266517D01*
X93288019Y-67266517D02*
X93383257Y-67218898D01*
X93383257Y-67218898D02*
X93478495Y-67218898D01*
X93478495Y-67218898D02*
X93573733Y-67266517D01*
X93573733Y-67266517D02*
X93621352Y-67314136D01*
X93621352Y-67314136D02*
X93668971Y-67409374D01*
X93668971Y-67409374D02*
X93716590Y-67599850D01*
X93716590Y-67599850D02*
X93764209Y-67695088D01*
X93764209Y-67695088D02*
X93811828Y-67742707D01*
X93811828Y-67742707D02*
X93907066Y-67790326D01*
X93907066Y-67790326D02*
X94002304Y-67790326D01*
X94002304Y-67790326D02*
X94097542Y-67742707D01*
X94097542Y-67742707D02*
X94145161Y-67695088D01*
X94145161Y-67695088D02*
X94192780Y-67599850D01*
X94192780Y-67599850D02*
X94192780Y-67361755D01*
X94192780Y-67361755D02*
X94145161Y-67218898D01*
X94192780Y-66885564D02*
X94192780Y-66266517D01*
X94192780Y-66266517D02*
X93811828Y-66599850D01*
X93811828Y-66599850D02*
X93811828Y-66456993D01*
X93811828Y-66456993D02*
X93764209Y-66361755D01*
X93764209Y-66361755D02*
X93716590Y-66314136D01*
X93716590Y-66314136D02*
X93621352Y-66266517D01*
X93621352Y-66266517D02*
X93383257Y-66266517D01*
X93383257Y-66266517D02*
X93288019Y-66314136D01*
X93288019Y-66314136D02*
X93240400Y-66361755D01*
X93240400Y-66361755D02*
X93192780Y-66456993D01*
X93192780Y-66456993D02*
X93192780Y-66742707D01*
X93192780Y-66742707D02*
X93240400Y-66837945D01*
X93240400Y-66837945D02*
X93288019Y-66885564D01*
X103242780Y-69980326D02*
X104242780Y-69980326D01*
X104242780Y-69980326D02*
X104242780Y-69599374D01*
X104242780Y-69599374D02*
X104195161Y-69504136D01*
X104195161Y-69504136D02*
X104147542Y-69456517D01*
X104147542Y-69456517D02*
X104052304Y-69408898D01*
X104052304Y-69408898D02*
X103909447Y-69408898D01*
X103909447Y-69408898D02*
X103814209Y-69456517D01*
X103814209Y-69456517D02*
X103766590Y-69504136D01*
X103766590Y-69504136D02*
X103718971Y-69599374D01*
X103718971Y-69599374D02*
X103718971Y-69980326D01*
X104242780Y-68789850D02*
X104242780Y-68599374D01*
X104242780Y-68599374D02*
X104195161Y-68504136D01*
X104195161Y-68504136D02*
X104099923Y-68408898D01*
X104099923Y-68408898D02*
X103909447Y-68361279D01*
X103909447Y-68361279D02*
X103576114Y-68361279D01*
X103576114Y-68361279D02*
X103385638Y-68408898D01*
X103385638Y-68408898D02*
X103290400Y-68504136D01*
X103290400Y-68504136D02*
X103242780Y-68599374D01*
X103242780Y-68599374D02*
X103242780Y-68789850D01*
X103242780Y-68789850D02*
X103290400Y-68885088D01*
X103290400Y-68885088D02*
X103385638Y-68980326D01*
X103385638Y-68980326D02*
X103576114Y-69027945D01*
X103576114Y-69027945D02*
X103909447Y-69027945D01*
X103909447Y-69027945D02*
X104099923Y-68980326D01*
X104099923Y-68980326D02*
X104195161Y-68885088D01*
X104195161Y-68885088D02*
X104242780Y-68789850D01*
X103290400Y-67980326D02*
X103242780Y-67837469D01*
X103242780Y-67837469D02*
X103242780Y-67599374D01*
X103242780Y-67599374D02*
X103290400Y-67504136D01*
X103290400Y-67504136D02*
X103338019Y-67456517D01*
X103338019Y-67456517D02*
X103433257Y-67408898D01*
X103433257Y-67408898D02*
X103528495Y-67408898D01*
X103528495Y-67408898D02*
X103623733Y-67456517D01*
X103623733Y-67456517D02*
X103671352Y-67504136D01*
X103671352Y-67504136D02*
X103718971Y-67599374D01*
X103718971Y-67599374D02*
X103766590Y-67789850D01*
X103766590Y-67789850D02*
X103814209Y-67885088D01*
X103814209Y-67885088D02*
X103861828Y-67932707D01*
X103861828Y-67932707D02*
X103957066Y-67980326D01*
X103957066Y-67980326D02*
X104052304Y-67980326D01*
X104052304Y-67980326D02*
X104147542Y-67932707D01*
X104147542Y-67932707D02*
X104195161Y-67885088D01*
X104195161Y-67885088D02*
X104242780Y-67789850D01*
X104242780Y-67789850D02*
X104242780Y-67551755D01*
X104242780Y-67551755D02*
X104195161Y-67408898D01*
X104147542Y-67027945D02*
X104195161Y-66980326D01*
X104195161Y-66980326D02*
X104242780Y-66885088D01*
X104242780Y-66885088D02*
X104242780Y-66646993D01*
X104242780Y-66646993D02*
X104195161Y-66551755D01*
X104195161Y-66551755D02*
X104147542Y-66504136D01*
X104147542Y-66504136D02*
X104052304Y-66456517D01*
X104052304Y-66456517D02*
X103957066Y-66456517D01*
X103957066Y-66456517D02*
X103814209Y-66504136D01*
X103814209Y-66504136D02*
X103242780Y-67075564D01*
X103242780Y-67075564D02*
X103242780Y-66456517D01*
X113642780Y-70150326D02*
X114642780Y-70150326D01*
X114642780Y-70150326D02*
X114642780Y-69769374D01*
X114642780Y-69769374D02*
X114595161Y-69674136D01*
X114595161Y-69674136D02*
X114547542Y-69626517D01*
X114547542Y-69626517D02*
X114452304Y-69578898D01*
X114452304Y-69578898D02*
X114309447Y-69578898D01*
X114309447Y-69578898D02*
X114214209Y-69626517D01*
X114214209Y-69626517D02*
X114166590Y-69674136D01*
X114166590Y-69674136D02*
X114118971Y-69769374D01*
X114118971Y-69769374D02*
X114118971Y-70150326D01*
X114642780Y-68959850D02*
X114642780Y-68769374D01*
X114642780Y-68769374D02*
X114595161Y-68674136D01*
X114595161Y-68674136D02*
X114499923Y-68578898D01*
X114499923Y-68578898D02*
X114309447Y-68531279D01*
X114309447Y-68531279D02*
X113976114Y-68531279D01*
X113976114Y-68531279D02*
X113785638Y-68578898D01*
X113785638Y-68578898D02*
X113690400Y-68674136D01*
X113690400Y-68674136D02*
X113642780Y-68769374D01*
X113642780Y-68769374D02*
X113642780Y-68959850D01*
X113642780Y-68959850D02*
X113690400Y-69055088D01*
X113690400Y-69055088D02*
X113785638Y-69150326D01*
X113785638Y-69150326D02*
X113976114Y-69197945D01*
X113976114Y-69197945D02*
X114309447Y-69197945D01*
X114309447Y-69197945D02*
X114499923Y-69150326D01*
X114499923Y-69150326D02*
X114595161Y-69055088D01*
X114595161Y-69055088D02*
X114642780Y-68959850D01*
X113690400Y-68150326D02*
X113642780Y-68007469D01*
X113642780Y-68007469D02*
X113642780Y-67769374D01*
X113642780Y-67769374D02*
X113690400Y-67674136D01*
X113690400Y-67674136D02*
X113738019Y-67626517D01*
X113738019Y-67626517D02*
X113833257Y-67578898D01*
X113833257Y-67578898D02*
X113928495Y-67578898D01*
X113928495Y-67578898D02*
X114023733Y-67626517D01*
X114023733Y-67626517D02*
X114071352Y-67674136D01*
X114071352Y-67674136D02*
X114118971Y-67769374D01*
X114118971Y-67769374D02*
X114166590Y-67959850D01*
X114166590Y-67959850D02*
X114214209Y-68055088D01*
X114214209Y-68055088D02*
X114261828Y-68102707D01*
X114261828Y-68102707D02*
X114357066Y-68150326D01*
X114357066Y-68150326D02*
X114452304Y-68150326D01*
X114452304Y-68150326D02*
X114547542Y-68102707D01*
X114547542Y-68102707D02*
X114595161Y-68055088D01*
X114595161Y-68055088D02*
X114642780Y-67959850D01*
X114642780Y-67959850D02*
X114642780Y-67721755D01*
X114642780Y-67721755D02*
X114595161Y-67578898D01*
X113642780Y-66626517D02*
X113642780Y-67197945D01*
X113642780Y-66912231D02*
X114642780Y-66912231D01*
X114642780Y-66912231D02*
X114499923Y-67007469D01*
X114499923Y-67007469D02*
X114404685Y-67102707D01*
X114404685Y-67102707D02*
X114357066Y-67197945D01*
D11*
X84161241Y-102674619D02*
X84637431Y-102674619D01*
X84637431Y-102674619D02*
X84637431Y-101674619D01*
X83399336Y-102007952D02*
X83399336Y-102674619D01*
X83827907Y-102007952D02*
X83827907Y-102531761D01*
X83827907Y-102531761D02*
X83780288Y-102627000D01*
X83780288Y-102627000D02*
X83685050Y-102674619D01*
X83685050Y-102674619D02*
X83542193Y-102674619D01*
X83542193Y-102674619D02*
X83446955Y-102627000D01*
X83446955Y-102627000D02*
X83399336Y-102579380D01*
X83018383Y-102674619D02*
X82494574Y-102007952D01*
X83018383Y-102007952D02*
X82494574Y-102674619D01*
X81732669Y-102627000D02*
X81827907Y-102674619D01*
X81827907Y-102674619D02*
X82018383Y-102674619D01*
X82018383Y-102674619D02*
X82113621Y-102627000D01*
X82113621Y-102627000D02*
X82161240Y-102531761D01*
X82161240Y-102531761D02*
X82161240Y-102150809D01*
X82161240Y-102150809D02*
X82113621Y-102055571D01*
X82113621Y-102055571D02*
X82018383Y-102007952D01*
X82018383Y-102007952D02*
X81827907Y-102007952D01*
X81827907Y-102007952D02*
X81732669Y-102055571D01*
X81732669Y-102055571D02*
X81685050Y-102150809D01*
X81685050Y-102150809D02*
X81685050Y-102246047D01*
X81685050Y-102246047D02*
X82161240Y-102341285D01*
X81113621Y-102674619D02*
X81208859Y-102627000D01*
X81208859Y-102627000D02*
X81256478Y-102531761D01*
X81256478Y-102531761D02*
X81256478Y-101674619D01*
X79637430Y-102150809D02*
X79970763Y-102150809D01*
X79970763Y-102674619D02*
X79970763Y-101674619D01*
X79970763Y-101674619D02*
X79494573Y-101674619D01*
X79113620Y-102674619D02*
X79113620Y-102007952D01*
X79113620Y-101674619D02*
X79161239Y-101722238D01*
X79161239Y-101722238D02*
X79113620Y-101769857D01*
X79113620Y-101769857D02*
X79066001Y-101722238D01*
X79066001Y-101722238D02*
X79113620Y-101674619D01*
X79113620Y-101674619D02*
X79113620Y-101769857D01*
X78494573Y-102674619D02*
X78589811Y-102627000D01*
X78589811Y-102627000D02*
X78637430Y-102531761D01*
X78637430Y-102531761D02*
X78637430Y-101674619D01*
X78256477Y-102007952D02*
X77875525Y-102007952D01*
X78113620Y-101674619D02*
X78113620Y-102531761D01*
X78113620Y-102531761D02*
X78066001Y-102627000D01*
X78066001Y-102627000D02*
X77970763Y-102674619D01*
X77970763Y-102674619D02*
X77875525Y-102674619D01*
X77161239Y-102627000D02*
X77256477Y-102674619D01*
X77256477Y-102674619D02*
X77446953Y-102674619D01*
X77446953Y-102674619D02*
X77542191Y-102627000D01*
X77542191Y-102627000D02*
X77589810Y-102531761D01*
X77589810Y-102531761D02*
X77589810Y-102150809D01*
X77589810Y-102150809D02*
X77542191Y-102055571D01*
X77542191Y-102055571D02*
X77446953Y-102007952D01*
X77446953Y-102007952D02*
X77256477Y-102007952D01*
X77256477Y-102007952D02*
X77161239Y-102055571D01*
X77161239Y-102055571D02*
X77113620Y-102150809D01*
X77113620Y-102150809D02*
X77113620Y-102246047D01*
X77113620Y-102246047D02*
X77589810Y-102341285D01*
X76685048Y-102674619D02*
X76685048Y-102007952D01*
X76685048Y-102198428D02*
X76637429Y-102103190D01*
X76637429Y-102103190D02*
X76589810Y-102055571D01*
X76589810Y-102055571D02*
X76494572Y-102007952D01*
X76494572Y-102007952D02*
X76399334Y-102007952D01*
X75351714Y-102388904D02*
X74875524Y-102388904D01*
X75446952Y-102674619D02*
X75113619Y-101674619D01*
X75113619Y-101674619D02*
X74780286Y-102674619D01*
X74018381Y-102627000D02*
X74113619Y-102674619D01*
X74113619Y-102674619D02*
X74304095Y-102674619D01*
X74304095Y-102674619D02*
X74399333Y-102627000D01*
X74399333Y-102627000D02*
X74446952Y-102579380D01*
X74446952Y-102579380D02*
X74494571Y-102484142D01*
X74494571Y-102484142D02*
X74494571Y-102198428D01*
X74494571Y-102198428D02*
X74446952Y-102103190D01*
X74446952Y-102103190D02*
X74399333Y-102055571D01*
X74399333Y-102055571D02*
X74304095Y-102007952D01*
X74304095Y-102007952D02*
X74113619Y-102007952D01*
X74113619Y-102007952D02*
X74018381Y-102055571D01*
X73732666Y-102007952D02*
X73351714Y-102007952D01*
X73589809Y-101674619D02*
X73589809Y-102531761D01*
X73589809Y-102531761D02*
X73542190Y-102627000D01*
X73542190Y-102627000D02*
X73446952Y-102674619D01*
X73446952Y-102674619D02*
X73351714Y-102674619D01*
X72589809Y-102007952D02*
X72589809Y-102674619D01*
X73018380Y-102007952D02*
X73018380Y-102531761D01*
X73018380Y-102531761D02*
X72970761Y-102627000D01*
X72970761Y-102627000D02*
X72875523Y-102674619D01*
X72875523Y-102674619D02*
X72732666Y-102674619D01*
X72732666Y-102674619D02*
X72637428Y-102627000D01*
X72637428Y-102627000D02*
X72589809Y-102579380D01*
X71685047Y-102674619D02*
X71685047Y-102150809D01*
X71685047Y-102150809D02*
X71732666Y-102055571D01*
X71732666Y-102055571D02*
X71827904Y-102007952D01*
X71827904Y-102007952D02*
X72018380Y-102007952D01*
X72018380Y-102007952D02*
X72113618Y-102055571D01*
X71685047Y-102627000D02*
X71780285Y-102674619D01*
X71780285Y-102674619D02*
X72018380Y-102674619D01*
X72018380Y-102674619D02*
X72113618Y-102627000D01*
X72113618Y-102627000D02*
X72161237Y-102531761D01*
X72161237Y-102531761D02*
X72161237Y-102436523D01*
X72161237Y-102436523D02*
X72113618Y-102341285D01*
X72113618Y-102341285D02*
X72018380Y-102293666D01*
X72018380Y-102293666D02*
X71780285Y-102293666D01*
X71780285Y-102293666D02*
X71685047Y-102246047D01*
X71351713Y-102007952D02*
X70970761Y-102007952D01*
X71208856Y-101674619D02*
X71208856Y-102531761D01*
X71208856Y-102531761D02*
X71161237Y-102627000D01*
X71161237Y-102627000D02*
X71065999Y-102674619D01*
X71065999Y-102674619D02*
X70970761Y-102674619D01*
X70494570Y-102674619D02*
X70589808Y-102627000D01*
X70589808Y-102627000D02*
X70637427Y-102579380D01*
X70637427Y-102579380D02*
X70685046Y-102484142D01*
X70685046Y-102484142D02*
X70685046Y-102198428D01*
X70685046Y-102198428D02*
X70637427Y-102103190D01*
X70637427Y-102103190D02*
X70589808Y-102055571D01*
X70589808Y-102055571D02*
X70494570Y-102007952D01*
X70494570Y-102007952D02*
X70351713Y-102007952D01*
X70351713Y-102007952D02*
X70256475Y-102055571D01*
X70256475Y-102055571D02*
X70208856Y-102103190D01*
X70208856Y-102103190D02*
X70161237Y-102198428D01*
X70161237Y-102198428D02*
X70161237Y-102484142D01*
X70161237Y-102484142D02*
X70208856Y-102579380D01*
X70208856Y-102579380D02*
X70256475Y-102627000D01*
X70256475Y-102627000D02*
X70351713Y-102674619D01*
X70351713Y-102674619D02*
X70494570Y-102674619D01*
X69732665Y-102674619D02*
X69732665Y-102007952D01*
X69732665Y-102198428D02*
X69685046Y-102103190D01*
X69685046Y-102103190D02*
X69637427Y-102055571D01*
X69637427Y-102055571D02*
X69542189Y-102007952D01*
X69542189Y-102007952D02*
X69446951Y-102007952D01*
X67780284Y-102674619D02*
X68113617Y-102198428D01*
X68351712Y-102674619D02*
X68351712Y-101674619D01*
X68351712Y-101674619D02*
X67970760Y-101674619D01*
X67970760Y-101674619D02*
X67875522Y-101722238D01*
X67875522Y-101722238D02*
X67827903Y-101769857D01*
X67827903Y-101769857D02*
X67780284Y-101865095D01*
X67780284Y-101865095D02*
X67780284Y-102007952D01*
X67780284Y-102007952D02*
X67827903Y-102103190D01*
X67827903Y-102103190D02*
X67875522Y-102150809D01*
X67875522Y-102150809D02*
X67970760Y-102198428D01*
X67970760Y-102198428D02*
X68351712Y-102198428D01*
X66970760Y-102627000D02*
X67065998Y-102674619D01*
X67065998Y-102674619D02*
X67256474Y-102674619D01*
X67256474Y-102674619D02*
X67351712Y-102627000D01*
X67351712Y-102627000D02*
X67399331Y-102531761D01*
X67399331Y-102531761D02*
X67399331Y-102150809D01*
X67399331Y-102150809D02*
X67351712Y-102055571D01*
X67351712Y-102055571D02*
X67256474Y-102007952D01*
X67256474Y-102007952D02*
X67065998Y-102007952D01*
X67065998Y-102007952D02*
X66970760Y-102055571D01*
X66970760Y-102055571D02*
X66923141Y-102150809D01*
X66923141Y-102150809D02*
X66923141Y-102246047D01*
X66923141Y-102246047D02*
X67399331Y-102341285D01*
X66589807Y-102007952D02*
X66351712Y-102674619D01*
X66351712Y-102674619D02*
X66113617Y-102007952D01*
X64446950Y-102674619D02*
X65018378Y-102674619D01*
X64732664Y-102674619D02*
X64732664Y-101674619D01*
X64732664Y-101674619D02*
X64827902Y-101817476D01*
X64827902Y-101817476D02*
X64923140Y-101912714D01*
X64923140Y-101912714D02*
X65018378Y-101960333D01*
X64018378Y-102579380D02*
X63970759Y-102627000D01*
X63970759Y-102627000D02*
X64018378Y-102674619D01*
X64018378Y-102674619D02*
X64065997Y-102627000D01*
X64065997Y-102627000D02*
X64018378Y-102579380D01*
X64018378Y-102579380D02*
X64018378Y-102674619D01*
X63351712Y-101674619D02*
X63256474Y-101674619D01*
X63256474Y-101674619D02*
X63161236Y-101722238D01*
X63161236Y-101722238D02*
X63113617Y-101769857D01*
X63113617Y-101769857D02*
X63065998Y-101865095D01*
X63065998Y-101865095D02*
X63018379Y-102055571D01*
X63018379Y-102055571D02*
X63018379Y-102293666D01*
X63018379Y-102293666D02*
X63065998Y-102484142D01*
X63065998Y-102484142D02*
X63113617Y-102579380D01*
X63113617Y-102579380D02*
X63161236Y-102627000D01*
X63161236Y-102627000D02*
X63256474Y-102674619D01*
X63256474Y-102674619D02*
X63351712Y-102674619D01*
X63351712Y-102674619D02*
X63446950Y-102627000D01*
X63446950Y-102627000D02*
X63494569Y-102579380D01*
X63494569Y-102579380D02*
X63542188Y-102484142D01*
X63542188Y-102484142D02*
X63589807Y-102293666D01*
X63589807Y-102293666D02*
X63589807Y-102055571D01*
X63589807Y-102055571D02*
X63542188Y-101865095D01*
X63542188Y-101865095D02*
X63494569Y-101769857D01*
X63494569Y-101769857D02*
X63446950Y-101722238D01*
X63446950Y-101722238D02*
X63351712Y-101674619D01*
X58675380Y-86831241D02*
X58675380Y-87307431D01*
X58675380Y-87307431D02*
X59675380Y-87307431D01*
X58675380Y-86497907D02*
X59675380Y-86497907D01*
X59675380Y-86497907D02*
X58961095Y-86164574D01*
X58961095Y-86164574D02*
X59675380Y-85831241D01*
X59675380Y-85831241D02*
X58675380Y-85831241D01*
X59675380Y-85497907D02*
X59675380Y-84926479D01*
X58675380Y-85212193D02*
X59675380Y-85212193D01*
X58723000Y-83878859D02*
X58675380Y-83736002D01*
X58675380Y-83736002D02*
X58675380Y-83497907D01*
X58675380Y-83497907D02*
X58723000Y-83402669D01*
X58723000Y-83402669D02*
X58770619Y-83355050D01*
X58770619Y-83355050D02*
X58865857Y-83307431D01*
X58865857Y-83307431D02*
X58961095Y-83307431D01*
X58961095Y-83307431D02*
X59056333Y-83355050D01*
X59056333Y-83355050D02*
X59103952Y-83402669D01*
X59103952Y-83402669D02*
X59151571Y-83497907D01*
X59151571Y-83497907D02*
X59199190Y-83688383D01*
X59199190Y-83688383D02*
X59246809Y-83783621D01*
X59246809Y-83783621D02*
X59294428Y-83831240D01*
X59294428Y-83831240D02*
X59389666Y-83878859D01*
X59389666Y-83878859D02*
X59484904Y-83878859D01*
X59484904Y-83878859D02*
X59580142Y-83831240D01*
X59580142Y-83831240D02*
X59627761Y-83783621D01*
X59627761Y-83783621D02*
X59675380Y-83688383D01*
X59675380Y-83688383D02*
X59675380Y-83450288D01*
X59675380Y-83450288D02*
X59627761Y-83307431D01*
X59675380Y-82974097D02*
X58675380Y-82736002D01*
X58675380Y-82736002D02*
X59389666Y-82545526D01*
X59389666Y-82545526D02*
X58675380Y-82355050D01*
X58675380Y-82355050D02*
X59675380Y-82116955D01*
X129235380Y-80377431D02*
X130235380Y-80377431D01*
X130235380Y-80377431D02*
X129521095Y-80044098D01*
X129521095Y-80044098D02*
X130235380Y-79710765D01*
X130235380Y-79710765D02*
X129235380Y-79710765D01*
X130235380Y-79044098D02*
X130235380Y-78853622D01*
X130235380Y-78853622D02*
X130187761Y-78758384D01*
X130187761Y-78758384D02*
X130092523Y-78663146D01*
X130092523Y-78663146D02*
X129902047Y-78615527D01*
X129902047Y-78615527D02*
X129568714Y-78615527D01*
X129568714Y-78615527D02*
X129378238Y-78663146D01*
X129378238Y-78663146D02*
X129283000Y-78758384D01*
X129283000Y-78758384D02*
X129235380Y-78853622D01*
X129235380Y-78853622D02*
X129235380Y-79044098D01*
X129235380Y-79044098D02*
X129283000Y-79139336D01*
X129283000Y-79139336D02*
X129378238Y-79234574D01*
X129378238Y-79234574D02*
X129568714Y-79282193D01*
X129568714Y-79282193D02*
X129902047Y-79282193D01*
X129902047Y-79282193D02*
X130092523Y-79234574D01*
X130092523Y-79234574D02*
X130187761Y-79139336D01*
X130187761Y-79139336D02*
X130235380Y-79044098D01*
X130235380Y-78329812D02*
X130235380Y-77758384D01*
X129235380Y-78044098D02*
X130235380Y-78044098D01*
X130235380Y-77234574D02*
X130235380Y-77044098D01*
X130235380Y-77044098D02*
X130187761Y-76948860D01*
X130187761Y-76948860D02*
X130092523Y-76853622D01*
X130092523Y-76853622D02*
X129902047Y-76806003D01*
X129902047Y-76806003D02*
X129568714Y-76806003D01*
X129568714Y-76806003D02*
X129378238Y-76853622D01*
X129378238Y-76853622D02*
X129283000Y-76948860D01*
X129283000Y-76948860D02*
X129235380Y-77044098D01*
X129235380Y-77044098D02*
X129235380Y-77234574D01*
X129235380Y-77234574D02*
X129283000Y-77329812D01*
X129283000Y-77329812D02*
X129378238Y-77425050D01*
X129378238Y-77425050D02*
X129568714Y-77472669D01*
X129568714Y-77472669D02*
X129902047Y-77472669D01*
X129902047Y-77472669D02*
X130092523Y-77425050D01*
X130092523Y-77425050D02*
X130187761Y-77329812D01*
X130187761Y-77329812D02*
X130235380Y-77234574D01*
X129235380Y-75806003D02*
X129711571Y-76139336D01*
X129235380Y-76377431D02*
X130235380Y-76377431D01*
X130235380Y-76377431D02*
X130235380Y-75996479D01*
X130235380Y-75996479D02*
X130187761Y-75901241D01*
X130187761Y-75901241D02*
X130140142Y-75853622D01*
X130140142Y-75853622D02*
X130044904Y-75806003D01*
X130044904Y-75806003D02*
X129902047Y-75806003D01*
X129902047Y-75806003D02*
X129806809Y-75853622D01*
X129806809Y-75853622D02*
X129759190Y-75901241D01*
X129759190Y-75901241D02*
X129711571Y-75996479D01*
X129711571Y-75996479D02*
X129711571Y-76377431D01*
D12*
X115288214Y-83815838D02*
X115499881Y-83513457D01*
X115651071Y-83815838D02*
X115651071Y-83180838D01*
X115651071Y-83180838D02*
X115409166Y-83180838D01*
X115409166Y-83180838D02*
X115348690Y-83211076D01*
X115348690Y-83211076D02*
X115318452Y-83241314D01*
X115318452Y-83241314D02*
X115288214Y-83301790D01*
X115288214Y-83301790D02*
X115288214Y-83392504D01*
X115288214Y-83392504D02*
X115318452Y-83452980D01*
X115318452Y-83452980D02*
X115348690Y-83483219D01*
X115348690Y-83483219D02*
X115409166Y-83513457D01*
X115409166Y-83513457D02*
X115651071Y-83513457D01*
X115046309Y-83241314D02*
X115016071Y-83211076D01*
X115016071Y-83211076D02*
X114955595Y-83180838D01*
X114955595Y-83180838D02*
X114804404Y-83180838D01*
X114804404Y-83180838D02*
X114743928Y-83211076D01*
X114743928Y-83211076D02*
X114713690Y-83241314D01*
X114713690Y-83241314D02*
X114683452Y-83301790D01*
X114683452Y-83301790D02*
X114683452Y-83362266D01*
X114683452Y-83362266D02*
X114713690Y-83452980D01*
X114713690Y-83452980D02*
X115076547Y-83815838D01*
X115076547Y-83815838D02*
X114683452Y-83815838D01*
X114471785Y-83180838D02*
X114048452Y-83180838D01*
X114048452Y-83180838D02*
X114320595Y-83815838D01*
X104116780Y-77747023D02*
X104086542Y-77656309D01*
X104086542Y-77656309D02*
X104056304Y-77626071D01*
X104056304Y-77626071D02*
X103995828Y-77595833D01*
X103995828Y-77595833D02*
X103905114Y-77595833D01*
X103905114Y-77595833D02*
X103844638Y-77626071D01*
X103844638Y-77626071D02*
X103814400Y-77656309D01*
X103814400Y-77656309D02*
X103784161Y-77716785D01*
X103784161Y-77716785D02*
X103784161Y-77958690D01*
X103784161Y-77958690D02*
X104419161Y-77958690D01*
X104419161Y-77958690D02*
X104419161Y-77747023D01*
X104419161Y-77747023D02*
X104388923Y-77686547D01*
X104388923Y-77686547D02*
X104358685Y-77656309D01*
X104358685Y-77656309D02*
X104298209Y-77626071D01*
X104298209Y-77626071D02*
X104237733Y-77626071D01*
X104237733Y-77626071D02*
X104177257Y-77656309D01*
X104177257Y-77656309D02*
X104147019Y-77686547D01*
X104147019Y-77686547D02*
X104116780Y-77747023D01*
X104116780Y-77747023D02*
X104116780Y-77958690D01*
X104207495Y-77051547D02*
X103784161Y-77051547D01*
X104449400Y-77202738D02*
X103995828Y-77353928D01*
X103995828Y-77353928D02*
X103995828Y-76960833D01*
X81773333Y-65645838D02*
X82075714Y-65645838D01*
X82075714Y-65645838D02*
X82075714Y-65010838D01*
X81561666Y-65645838D02*
X81561666Y-65010838D01*
X81561666Y-65010838D02*
X81319761Y-65010838D01*
X81319761Y-65010838D02*
X81259285Y-65041076D01*
X81259285Y-65041076D02*
X81229047Y-65071314D01*
X81229047Y-65071314D02*
X81198809Y-65131790D01*
X81198809Y-65131790D02*
X81198809Y-65222504D01*
X81198809Y-65222504D02*
X81229047Y-65282980D01*
X81229047Y-65282980D02*
X81259285Y-65313219D01*
X81259285Y-65313219D02*
X81319761Y-65343457D01*
X81319761Y-65343457D02*
X81561666Y-65343457D01*
X80956904Y-65071314D02*
X80926666Y-65041076D01*
X80926666Y-65041076D02*
X80866190Y-65010838D01*
X80866190Y-65010838D02*
X80714999Y-65010838D01*
X80714999Y-65010838D02*
X80654523Y-65041076D01*
X80654523Y-65041076D02*
X80624285Y-65071314D01*
X80624285Y-65071314D02*
X80594047Y-65131790D01*
X80594047Y-65131790D02*
X80594047Y-65192266D01*
X80594047Y-65192266D02*
X80624285Y-65282980D01*
X80624285Y-65282980D02*
X80987142Y-65645838D01*
X80987142Y-65645838D02*
X80594047Y-65645838D01*
X68615833Y-87055361D02*
X68646071Y-87085600D01*
X68646071Y-87085600D02*
X68736785Y-87115838D01*
X68736785Y-87115838D02*
X68797261Y-87115838D01*
X68797261Y-87115838D02*
X68887976Y-87085600D01*
X68887976Y-87085600D02*
X68948452Y-87025123D01*
X68948452Y-87025123D02*
X68978690Y-86964647D01*
X68978690Y-86964647D02*
X69008928Y-86843695D01*
X69008928Y-86843695D02*
X69008928Y-86752980D01*
X69008928Y-86752980D02*
X68978690Y-86632028D01*
X68978690Y-86632028D02*
X68948452Y-86571552D01*
X68948452Y-86571552D02*
X68887976Y-86511076D01*
X68887976Y-86511076D02*
X68797261Y-86480838D01*
X68797261Y-86480838D02*
X68736785Y-86480838D01*
X68736785Y-86480838D02*
X68646071Y-86511076D01*
X68646071Y-86511076D02*
X68615833Y-86541314D01*
X68252976Y-86752980D02*
X68313452Y-86722742D01*
X68313452Y-86722742D02*
X68343690Y-86692504D01*
X68343690Y-86692504D02*
X68373928Y-86632028D01*
X68373928Y-86632028D02*
X68373928Y-86601790D01*
X68373928Y-86601790D02*
X68343690Y-86541314D01*
X68343690Y-86541314D02*
X68313452Y-86511076D01*
X68313452Y-86511076D02*
X68252976Y-86480838D01*
X68252976Y-86480838D02*
X68132023Y-86480838D01*
X68132023Y-86480838D02*
X68071547Y-86511076D01*
X68071547Y-86511076D02*
X68041309Y-86541314D01*
X68041309Y-86541314D02*
X68011071Y-86601790D01*
X68011071Y-86601790D02*
X68011071Y-86632028D01*
X68011071Y-86632028D02*
X68041309Y-86692504D01*
X68041309Y-86692504D02*
X68071547Y-86722742D01*
X68071547Y-86722742D02*
X68132023Y-86752980D01*
X68132023Y-86752980D02*
X68252976Y-86752980D01*
X68252976Y-86752980D02*
X68313452Y-86783219D01*
X68313452Y-86783219D02*
X68343690Y-86813457D01*
X68343690Y-86813457D02*
X68373928Y-86873933D01*
X68373928Y-86873933D02*
X68373928Y-86994885D01*
X68373928Y-86994885D02*
X68343690Y-87055361D01*
X68343690Y-87055361D02*
X68313452Y-87085600D01*
X68313452Y-87085600D02*
X68252976Y-87115838D01*
X68252976Y-87115838D02*
X68132023Y-87115838D01*
X68132023Y-87115838D02*
X68071547Y-87085600D01*
X68071547Y-87085600D02*
X68041309Y-87055361D01*
X68041309Y-87055361D02*
X68011071Y-86994885D01*
X68011071Y-86994885D02*
X68011071Y-86873933D01*
X68011071Y-86873933D02*
X68041309Y-86813457D01*
X68041309Y-86813457D02*
X68071547Y-86783219D01*
X68071547Y-86783219D02*
X68132023Y-86752980D01*
X101823333Y-65735838D02*
X102125714Y-65735838D01*
X102125714Y-65735838D02*
X102125714Y-65100838D01*
X101611666Y-65735838D02*
X101611666Y-65100838D01*
X101611666Y-65100838D02*
X101369761Y-65100838D01*
X101369761Y-65100838D02*
X101309285Y-65131076D01*
X101309285Y-65131076D02*
X101279047Y-65161314D01*
X101279047Y-65161314D02*
X101248809Y-65221790D01*
X101248809Y-65221790D02*
X101248809Y-65312504D01*
X101248809Y-65312504D02*
X101279047Y-65372980D01*
X101279047Y-65372980D02*
X101309285Y-65403219D01*
X101309285Y-65403219D02*
X101369761Y-65433457D01*
X101369761Y-65433457D02*
X101611666Y-65433457D01*
X100704523Y-65312504D02*
X100704523Y-65735838D01*
X100855714Y-65070600D02*
X101006904Y-65524171D01*
X101006904Y-65524171D02*
X100613809Y-65524171D01*
X92613690Y-68755838D02*
X92613690Y-68120838D01*
X92613690Y-68120838D02*
X92462500Y-68120838D01*
X92462500Y-68120838D02*
X92371785Y-68151076D01*
X92371785Y-68151076D02*
X92311309Y-68211552D01*
X92311309Y-68211552D02*
X92281071Y-68272028D01*
X92281071Y-68272028D02*
X92250833Y-68392980D01*
X92250833Y-68392980D02*
X92250833Y-68483695D01*
X92250833Y-68483695D02*
X92281071Y-68604647D01*
X92281071Y-68604647D02*
X92311309Y-68665123D01*
X92311309Y-68665123D02*
X92371785Y-68725600D01*
X92371785Y-68725600D02*
X92462500Y-68755838D01*
X92462500Y-68755838D02*
X92613690Y-68755838D01*
X92039166Y-68120838D02*
X91646071Y-68120838D01*
X91646071Y-68120838D02*
X91857738Y-68362742D01*
X91857738Y-68362742D02*
X91767023Y-68362742D01*
X91767023Y-68362742D02*
X91706547Y-68392980D01*
X91706547Y-68392980D02*
X91676309Y-68423219D01*
X91676309Y-68423219D02*
X91646071Y-68483695D01*
X91646071Y-68483695D02*
X91646071Y-68634885D01*
X91646071Y-68634885D02*
X91676309Y-68695361D01*
X91676309Y-68695361D02*
X91706547Y-68725600D01*
X91706547Y-68725600D02*
X91767023Y-68755838D01*
X91767023Y-68755838D02*
X91948452Y-68755838D01*
X91948452Y-68755838D02*
X92008928Y-68725600D01*
X92008928Y-68725600D02*
X92039166Y-68695361D01*
X82613690Y-68755838D02*
X82613690Y-68120838D01*
X82613690Y-68120838D02*
X82462500Y-68120838D01*
X82462500Y-68120838D02*
X82371785Y-68151076D01*
X82371785Y-68151076D02*
X82311309Y-68211552D01*
X82311309Y-68211552D02*
X82281071Y-68272028D01*
X82281071Y-68272028D02*
X82250833Y-68392980D01*
X82250833Y-68392980D02*
X82250833Y-68483695D01*
X82250833Y-68483695D02*
X82281071Y-68604647D01*
X82281071Y-68604647D02*
X82311309Y-68665123D01*
X82311309Y-68665123D02*
X82371785Y-68725600D01*
X82371785Y-68725600D02*
X82462500Y-68755838D01*
X82462500Y-68755838D02*
X82613690Y-68755838D01*
X82008928Y-68181314D02*
X81978690Y-68151076D01*
X81978690Y-68151076D02*
X81918214Y-68120838D01*
X81918214Y-68120838D02*
X81767023Y-68120838D01*
X81767023Y-68120838D02*
X81706547Y-68151076D01*
X81706547Y-68151076D02*
X81676309Y-68181314D01*
X81676309Y-68181314D02*
X81646071Y-68241790D01*
X81646071Y-68241790D02*
X81646071Y-68302266D01*
X81646071Y-68302266D02*
X81676309Y-68392980D01*
X81676309Y-68392980D02*
X82039166Y-68755838D01*
X82039166Y-68755838D02*
X81646071Y-68755838D01*
X114686780Y-77647023D02*
X114656542Y-77556309D01*
X114656542Y-77556309D02*
X114626304Y-77526071D01*
X114626304Y-77526071D02*
X114565828Y-77495833D01*
X114565828Y-77495833D02*
X114475114Y-77495833D01*
X114475114Y-77495833D02*
X114414638Y-77526071D01*
X114414638Y-77526071D02*
X114384400Y-77556309D01*
X114384400Y-77556309D02*
X114354161Y-77616785D01*
X114354161Y-77616785D02*
X114354161Y-77858690D01*
X114354161Y-77858690D02*
X114989161Y-77858690D01*
X114989161Y-77858690D02*
X114989161Y-77647023D01*
X114989161Y-77647023D02*
X114958923Y-77586547D01*
X114958923Y-77586547D02*
X114928685Y-77556309D01*
X114928685Y-77556309D02*
X114868209Y-77526071D01*
X114868209Y-77526071D02*
X114807733Y-77526071D01*
X114807733Y-77526071D02*
X114747257Y-77556309D01*
X114747257Y-77556309D02*
X114717019Y-77586547D01*
X114717019Y-77586547D02*
X114686780Y-77647023D01*
X114686780Y-77647023D02*
X114686780Y-77858690D01*
X114989161Y-76921309D02*
X114989161Y-77223690D01*
X114989161Y-77223690D02*
X114686780Y-77253928D01*
X114686780Y-77253928D02*
X114717019Y-77223690D01*
X114717019Y-77223690D02*
X114747257Y-77163214D01*
X114747257Y-77163214D02*
X114747257Y-77012023D01*
X114747257Y-77012023D02*
X114717019Y-76951547D01*
X114717019Y-76951547D02*
X114686780Y-76921309D01*
X114686780Y-76921309D02*
X114626304Y-76891071D01*
X114626304Y-76891071D02*
X114475114Y-76891071D01*
X114475114Y-76891071D02*
X114414638Y-76921309D01*
X114414638Y-76921309D02*
X114384400Y-76951547D01*
X114384400Y-76951547D02*
X114354161Y-77012023D01*
X114354161Y-77012023D02*
X114354161Y-77163214D01*
X114354161Y-77163214D02*
X114384400Y-77223690D01*
X114384400Y-77223690D02*
X114414638Y-77253928D01*
X126901666Y-99903219D02*
X127113333Y-99903219D01*
X127113333Y-100235838D02*
X127113333Y-99600838D01*
X127113333Y-99600838D02*
X126810952Y-99600838D01*
X126629523Y-99600838D02*
X126236428Y-99600838D01*
X126236428Y-99600838D02*
X126448095Y-99842742D01*
X126448095Y-99842742D02*
X126357380Y-99842742D01*
X126357380Y-99842742D02*
X126296904Y-99872980D01*
X126296904Y-99872980D02*
X126266666Y-99903219D01*
X126266666Y-99903219D02*
X126236428Y-99963695D01*
X126236428Y-99963695D02*
X126236428Y-100114885D01*
X126236428Y-100114885D02*
X126266666Y-100175361D01*
X126266666Y-100175361D02*
X126296904Y-100205600D01*
X126296904Y-100205600D02*
X126357380Y-100235838D01*
X126357380Y-100235838D02*
X126538809Y-100235838D01*
X126538809Y-100235838D02*
X126599285Y-100205600D01*
X126599285Y-100205600D02*
X126629523Y-100175361D01*
X62411666Y-70963219D02*
X62623333Y-70963219D01*
X62623333Y-71295838D02*
X62623333Y-70660838D01*
X62623333Y-70660838D02*
X62320952Y-70660838D01*
X61806904Y-70872504D02*
X61806904Y-71295838D01*
X61958095Y-70630600D02*
X62109285Y-71084171D01*
X62109285Y-71084171D02*
X61716190Y-71084171D01*
X94116780Y-77647023D02*
X94086542Y-77556309D01*
X94086542Y-77556309D02*
X94056304Y-77526071D01*
X94056304Y-77526071D02*
X93995828Y-77495833D01*
X93995828Y-77495833D02*
X93905114Y-77495833D01*
X93905114Y-77495833D02*
X93844638Y-77526071D01*
X93844638Y-77526071D02*
X93814400Y-77556309D01*
X93814400Y-77556309D02*
X93784161Y-77616785D01*
X93784161Y-77616785D02*
X93784161Y-77858690D01*
X93784161Y-77858690D02*
X94419161Y-77858690D01*
X94419161Y-77858690D02*
X94419161Y-77647023D01*
X94419161Y-77647023D02*
X94388923Y-77586547D01*
X94388923Y-77586547D02*
X94358685Y-77556309D01*
X94358685Y-77556309D02*
X94298209Y-77526071D01*
X94298209Y-77526071D02*
X94237733Y-77526071D01*
X94237733Y-77526071D02*
X94177257Y-77556309D01*
X94177257Y-77556309D02*
X94147019Y-77586547D01*
X94147019Y-77586547D02*
X94116780Y-77647023D01*
X94116780Y-77647023D02*
X94116780Y-77858690D01*
X94419161Y-77284166D02*
X94419161Y-76891071D01*
X94419161Y-76891071D02*
X94177257Y-77102738D01*
X94177257Y-77102738D02*
X94177257Y-77012023D01*
X94177257Y-77012023D02*
X94147019Y-76951547D01*
X94147019Y-76951547D02*
X94116780Y-76921309D01*
X94116780Y-76921309D02*
X94056304Y-76891071D01*
X94056304Y-76891071D02*
X93905114Y-76891071D01*
X93905114Y-76891071D02*
X93844638Y-76921309D01*
X93844638Y-76921309D02*
X93814400Y-76951547D01*
X93814400Y-76951547D02*
X93784161Y-77012023D01*
X93784161Y-77012023D02*
X93784161Y-77193452D01*
X93784161Y-77193452D02*
X93814400Y-77253928D01*
X93814400Y-77253928D02*
X93844638Y-77284166D01*
X98745361Y-97571785D02*
X98775600Y-97541547D01*
X98775600Y-97541547D02*
X98805838Y-97450833D01*
X98805838Y-97450833D02*
X98805838Y-97390357D01*
X98805838Y-97390357D02*
X98775600Y-97299642D01*
X98775600Y-97299642D02*
X98715123Y-97239166D01*
X98715123Y-97239166D02*
X98654647Y-97208928D01*
X98654647Y-97208928D02*
X98533695Y-97178690D01*
X98533695Y-97178690D02*
X98442980Y-97178690D01*
X98442980Y-97178690D02*
X98322028Y-97208928D01*
X98322028Y-97208928D02*
X98261552Y-97239166D01*
X98261552Y-97239166D02*
X98201076Y-97299642D01*
X98201076Y-97299642D02*
X98170838Y-97390357D01*
X98170838Y-97390357D02*
X98170838Y-97450833D01*
X98170838Y-97450833D02*
X98201076Y-97541547D01*
X98201076Y-97541547D02*
X98231314Y-97571785D01*
X98805838Y-98176547D02*
X98805838Y-97813690D01*
X98805838Y-97995118D02*
X98170838Y-97995118D01*
X98170838Y-97995118D02*
X98261552Y-97934642D01*
X98261552Y-97934642D02*
X98322028Y-97874166D01*
X98322028Y-97874166D02*
X98352266Y-97813690D01*
X98170838Y-98751071D02*
X98170838Y-98448690D01*
X98170838Y-98448690D02*
X98473219Y-98418452D01*
X98473219Y-98418452D02*
X98442980Y-98448690D01*
X98442980Y-98448690D02*
X98412742Y-98509166D01*
X98412742Y-98509166D02*
X98412742Y-98660357D01*
X98412742Y-98660357D02*
X98442980Y-98720833D01*
X98442980Y-98720833D02*
X98473219Y-98751071D01*
X98473219Y-98751071D02*
X98533695Y-98781309D01*
X98533695Y-98781309D02*
X98684885Y-98781309D01*
X98684885Y-98781309D02*
X98745361Y-98751071D01*
X98745361Y-98751071D02*
X98775600Y-98720833D01*
X98775600Y-98720833D02*
X98805838Y-98660357D01*
X98805838Y-98660357D02*
X98805838Y-98509166D01*
X98805838Y-98509166D02*
X98775600Y-98448690D01*
X98775600Y-98448690D02*
X98745361Y-98418452D01*
X83558214Y-83755361D02*
X83588452Y-83785600D01*
X83588452Y-83785600D02*
X83679166Y-83815838D01*
X83679166Y-83815838D02*
X83739642Y-83815838D01*
X83739642Y-83815838D02*
X83830357Y-83785600D01*
X83830357Y-83785600D02*
X83890833Y-83725123D01*
X83890833Y-83725123D02*
X83921071Y-83664647D01*
X83921071Y-83664647D02*
X83951309Y-83543695D01*
X83951309Y-83543695D02*
X83951309Y-83452980D01*
X83951309Y-83452980D02*
X83921071Y-83332028D01*
X83921071Y-83332028D02*
X83890833Y-83271552D01*
X83890833Y-83271552D02*
X83830357Y-83211076D01*
X83830357Y-83211076D02*
X83739642Y-83180838D01*
X83739642Y-83180838D02*
X83679166Y-83180838D01*
X83679166Y-83180838D02*
X83588452Y-83211076D01*
X83588452Y-83211076D02*
X83558214Y-83241314D01*
X83316309Y-83241314D02*
X83286071Y-83211076D01*
X83286071Y-83211076D02*
X83225595Y-83180838D01*
X83225595Y-83180838D02*
X83074404Y-83180838D01*
X83074404Y-83180838D02*
X83013928Y-83211076D01*
X83013928Y-83211076D02*
X82983690Y-83241314D01*
X82983690Y-83241314D02*
X82953452Y-83301790D01*
X82953452Y-83301790D02*
X82953452Y-83362266D01*
X82953452Y-83362266D02*
X82983690Y-83452980D01*
X82983690Y-83452980D02*
X83346547Y-83815838D01*
X83346547Y-83815838D02*
X82953452Y-83815838D01*
X82741785Y-83180838D02*
X82318452Y-83180838D01*
X82318452Y-83180838D02*
X82590595Y-83815838D01*
X74757023Y-74653219D02*
X74666309Y-74683457D01*
X74666309Y-74683457D02*
X74636071Y-74713695D01*
X74636071Y-74713695D02*
X74605833Y-74774171D01*
X74605833Y-74774171D02*
X74605833Y-74864885D01*
X74605833Y-74864885D02*
X74636071Y-74925361D01*
X74636071Y-74925361D02*
X74666309Y-74955600D01*
X74666309Y-74955600D02*
X74726785Y-74985838D01*
X74726785Y-74985838D02*
X74968690Y-74985838D01*
X74968690Y-74985838D02*
X74968690Y-74350838D01*
X74968690Y-74350838D02*
X74757023Y-74350838D01*
X74757023Y-74350838D02*
X74696547Y-74381076D01*
X74696547Y-74381076D02*
X74666309Y-74411314D01*
X74666309Y-74411314D02*
X74636071Y-74471790D01*
X74636071Y-74471790D02*
X74636071Y-74532266D01*
X74636071Y-74532266D02*
X74666309Y-74592742D01*
X74666309Y-74592742D02*
X74696547Y-74622980D01*
X74696547Y-74622980D02*
X74757023Y-74653219D01*
X74757023Y-74653219D02*
X74968690Y-74653219D01*
X74001071Y-74985838D02*
X74363928Y-74985838D01*
X74182500Y-74985838D02*
X74182500Y-74350838D01*
X74182500Y-74350838D02*
X74242976Y-74441552D01*
X74242976Y-74441552D02*
X74303452Y-74502028D01*
X74303452Y-74502028D02*
X74363928Y-74532266D01*
X115378214Y-82715361D02*
X115408452Y-82745600D01*
X115408452Y-82745600D02*
X115499166Y-82775838D01*
X115499166Y-82775838D02*
X115559642Y-82775838D01*
X115559642Y-82775838D02*
X115650357Y-82745600D01*
X115650357Y-82745600D02*
X115710833Y-82685123D01*
X115710833Y-82685123D02*
X115741071Y-82624647D01*
X115741071Y-82624647D02*
X115771309Y-82503695D01*
X115771309Y-82503695D02*
X115771309Y-82412980D01*
X115771309Y-82412980D02*
X115741071Y-82292028D01*
X115741071Y-82292028D02*
X115710833Y-82231552D01*
X115710833Y-82231552D02*
X115650357Y-82171076D01*
X115650357Y-82171076D02*
X115559642Y-82140838D01*
X115559642Y-82140838D02*
X115499166Y-82140838D01*
X115499166Y-82140838D02*
X115408452Y-82171076D01*
X115408452Y-82171076D02*
X115378214Y-82201314D01*
X115166547Y-82140838D02*
X114773452Y-82140838D01*
X114773452Y-82140838D02*
X114985119Y-82382742D01*
X114985119Y-82382742D02*
X114894404Y-82382742D01*
X114894404Y-82382742D02*
X114833928Y-82412980D01*
X114833928Y-82412980D02*
X114803690Y-82443219D01*
X114803690Y-82443219D02*
X114773452Y-82503695D01*
X114773452Y-82503695D02*
X114773452Y-82654885D01*
X114773452Y-82654885D02*
X114803690Y-82715361D01*
X114803690Y-82715361D02*
X114833928Y-82745600D01*
X114833928Y-82745600D02*
X114894404Y-82775838D01*
X114894404Y-82775838D02*
X115075833Y-82775838D01*
X115075833Y-82775838D02*
X115136309Y-82745600D01*
X115136309Y-82745600D02*
X115166547Y-82715361D01*
X114380357Y-82140838D02*
X114319880Y-82140838D01*
X114319880Y-82140838D02*
X114259404Y-82171076D01*
X114259404Y-82171076D02*
X114229166Y-82201314D01*
X114229166Y-82201314D02*
X114198928Y-82261790D01*
X114198928Y-82261790D02*
X114168690Y-82382742D01*
X114168690Y-82382742D02*
X114168690Y-82533933D01*
X114168690Y-82533933D02*
X114198928Y-82654885D01*
X114198928Y-82654885D02*
X114229166Y-82715361D01*
X114229166Y-82715361D02*
X114259404Y-82745600D01*
X114259404Y-82745600D02*
X114319880Y-82775838D01*
X114319880Y-82775838D02*
X114380357Y-82775838D01*
X114380357Y-82775838D02*
X114440833Y-82745600D01*
X114440833Y-82745600D02*
X114471071Y-82715361D01*
X114471071Y-82715361D02*
X114501309Y-82654885D01*
X114501309Y-82654885D02*
X114531547Y-82533933D01*
X114531547Y-82533933D02*
X114531547Y-82382742D01*
X114531547Y-82382742D02*
X114501309Y-82261790D01*
X114501309Y-82261790D02*
X114471071Y-82201314D01*
X114471071Y-82201314D02*
X114440833Y-82171076D01*
X114440833Y-82171076D02*
X114380357Y-82140838D01*
X112613690Y-68755838D02*
X112613690Y-68120838D01*
X112613690Y-68120838D02*
X112462500Y-68120838D01*
X112462500Y-68120838D02*
X112371785Y-68151076D01*
X112371785Y-68151076D02*
X112311309Y-68211552D01*
X112311309Y-68211552D02*
X112281071Y-68272028D01*
X112281071Y-68272028D02*
X112250833Y-68392980D01*
X112250833Y-68392980D02*
X112250833Y-68483695D01*
X112250833Y-68483695D02*
X112281071Y-68604647D01*
X112281071Y-68604647D02*
X112311309Y-68665123D01*
X112311309Y-68665123D02*
X112371785Y-68725600D01*
X112371785Y-68725600D02*
X112462500Y-68755838D01*
X112462500Y-68755838D02*
X112613690Y-68755838D01*
X111676309Y-68120838D02*
X111978690Y-68120838D01*
X111978690Y-68120838D02*
X112008928Y-68423219D01*
X112008928Y-68423219D02*
X111978690Y-68392980D01*
X111978690Y-68392980D02*
X111918214Y-68362742D01*
X111918214Y-68362742D02*
X111767023Y-68362742D01*
X111767023Y-68362742D02*
X111706547Y-68392980D01*
X111706547Y-68392980D02*
X111676309Y-68423219D01*
X111676309Y-68423219D02*
X111646071Y-68483695D01*
X111646071Y-68483695D02*
X111646071Y-68634885D01*
X111646071Y-68634885D02*
X111676309Y-68695361D01*
X111676309Y-68695361D02*
X111706547Y-68725600D01*
X111706547Y-68725600D02*
X111767023Y-68755838D01*
X111767023Y-68755838D02*
X111918214Y-68755838D01*
X111918214Y-68755838D02*
X111978690Y-68725600D01*
X111978690Y-68725600D02*
X112008928Y-68695361D01*
X71548690Y-68815838D02*
X71548690Y-68180838D01*
X71548690Y-68180838D02*
X71397500Y-68180838D01*
X71397500Y-68180838D02*
X71306785Y-68211076D01*
X71306785Y-68211076D02*
X71246309Y-68271552D01*
X71246309Y-68271552D02*
X71216071Y-68332028D01*
X71216071Y-68332028D02*
X71185833Y-68452980D01*
X71185833Y-68452980D02*
X71185833Y-68543695D01*
X71185833Y-68543695D02*
X71216071Y-68664647D01*
X71216071Y-68664647D02*
X71246309Y-68725123D01*
X71246309Y-68725123D02*
X71306785Y-68785600D01*
X71306785Y-68785600D02*
X71397500Y-68815838D01*
X71397500Y-68815838D02*
X71548690Y-68815838D01*
X70581071Y-68815838D02*
X70943928Y-68815838D01*
X70762500Y-68815838D02*
X70762500Y-68180838D01*
X70762500Y-68180838D02*
X70822976Y-68271552D01*
X70822976Y-68271552D02*
X70883452Y-68332028D01*
X70883452Y-68332028D02*
X70943928Y-68362266D01*
X83401780Y-78652023D02*
X83371542Y-78561309D01*
X83371542Y-78561309D02*
X83341304Y-78531071D01*
X83341304Y-78531071D02*
X83280828Y-78500833D01*
X83280828Y-78500833D02*
X83190114Y-78500833D01*
X83190114Y-78500833D02*
X83129638Y-78531071D01*
X83129638Y-78531071D02*
X83099400Y-78561309D01*
X83099400Y-78561309D02*
X83069161Y-78621785D01*
X83069161Y-78621785D02*
X83069161Y-78863690D01*
X83069161Y-78863690D02*
X83704161Y-78863690D01*
X83704161Y-78863690D02*
X83704161Y-78652023D01*
X83704161Y-78652023D02*
X83673923Y-78591547D01*
X83673923Y-78591547D02*
X83643685Y-78561309D01*
X83643685Y-78561309D02*
X83583209Y-78531071D01*
X83583209Y-78531071D02*
X83522733Y-78531071D01*
X83522733Y-78531071D02*
X83462257Y-78561309D01*
X83462257Y-78561309D02*
X83432019Y-78591547D01*
X83432019Y-78591547D02*
X83401780Y-78652023D01*
X83401780Y-78652023D02*
X83401780Y-78863690D01*
X83643685Y-78258928D02*
X83673923Y-78228690D01*
X83673923Y-78228690D02*
X83704161Y-78168214D01*
X83704161Y-78168214D02*
X83704161Y-78017023D01*
X83704161Y-78017023D02*
X83673923Y-77956547D01*
X83673923Y-77956547D02*
X83643685Y-77926309D01*
X83643685Y-77926309D02*
X83583209Y-77896071D01*
X83583209Y-77896071D02*
X83522733Y-77896071D01*
X83522733Y-77896071D02*
X83432019Y-77926309D01*
X83432019Y-77926309D02*
X83069161Y-78289166D01*
X83069161Y-78289166D02*
X83069161Y-77896071D01*
X101708214Y-96005361D02*
X101738452Y-96035600D01*
X101738452Y-96035600D02*
X101829166Y-96065838D01*
X101829166Y-96065838D02*
X101889642Y-96065838D01*
X101889642Y-96065838D02*
X101980357Y-96035600D01*
X101980357Y-96035600D02*
X102040833Y-95975123D01*
X102040833Y-95975123D02*
X102071071Y-95914647D01*
X102071071Y-95914647D02*
X102101309Y-95793695D01*
X102101309Y-95793695D02*
X102101309Y-95702980D01*
X102101309Y-95702980D02*
X102071071Y-95582028D01*
X102071071Y-95582028D02*
X102040833Y-95521552D01*
X102040833Y-95521552D02*
X101980357Y-95461076D01*
X101980357Y-95461076D02*
X101889642Y-95430838D01*
X101889642Y-95430838D02*
X101829166Y-95430838D01*
X101829166Y-95430838D02*
X101738452Y-95461076D01*
X101738452Y-95461076D02*
X101708214Y-95491314D01*
X101103452Y-96065838D02*
X101466309Y-96065838D01*
X101284881Y-96065838D02*
X101284881Y-95430838D01*
X101284881Y-95430838D02*
X101345357Y-95521552D01*
X101345357Y-95521552D02*
X101405833Y-95582028D01*
X101405833Y-95582028D02*
X101466309Y-95612266D01*
X100559166Y-95642504D02*
X100559166Y-96065838D01*
X100710357Y-95400600D02*
X100861547Y-95854171D01*
X100861547Y-95854171D02*
X100468452Y-95854171D01*
X91208214Y-83675838D02*
X91419881Y-83373457D01*
X91571071Y-83675838D02*
X91571071Y-83040838D01*
X91571071Y-83040838D02*
X91329166Y-83040838D01*
X91329166Y-83040838D02*
X91268690Y-83071076D01*
X91268690Y-83071076D02*
X91238452Y-83101314D01*
X91238452Y-83101314D02*
X91208214Y-83161790D01*
X91208214Y-83161790D02*
X91208214Y-83252504D01*
X91208214Y-83252504D02*
X91238452Y-83312980D01*
X91238452Y-83312980D02*
X91268690Y-83343219D01*
X91268690Y-83343219D02*
X91329166Y-83373457D01*
X91329166Y-83373457D02*
X91571071Y-83373457D01*
X90966309Y-83101314D02*
X90936071Y-83071076D01*
X90936071Y-83071076D02*
X90875595Y-83040838D01*
X90875595Y-83040838D02*
X90724404Y-83040838D01*
X90724404Y-83040838D02*
X90663928Y-83071076D01*
X90663928Y-83071076D02*
X90633690Y-83101314D01*
X90633690Y-83101314D02*
X90603452Y-83161790D01*
X90603452Y-83161790D02*
X90603452Y-83222266D01*
X90603452Y-83222266D02*
X90633690Y-83312980D01*
X90633690Y-83312980D02*
X90996547Y-83675838D01*
X90996547Y-83675838D02*
X90603452Y-83675838D01*
X90028928Y-83040838D02*
X90331309Y-83040838D01*
X90331309Y-83040838D02*
X90361547Y-83343219D01*
X90361547Y-83343219D02*
X90331309Y-83312980D01*
X90331309Y-83312980D02*
X90270833Y-83282742D01*
X90270833Y-83282742D02*
X90119642Y-83282742D01*
X90119642Y-83282742D02*
X90059166Y-83312980D01*
X90059166Y-83312980D02*
X90028928Y-83343219D01*
X90028928Y-83343219D02*
X89998690Y-83403695D01*
X89998690Y-83403695D02*
X89998690Y-83554885D01*
X89998690Y-83554885D02*
X90028928Y-83615361D01*
X90028928Y-83615361D02*
X90059166Y-83645600D01*
X90059166Y-83645600D02*
X90119642Y-83675838D01*
X90119642Y-83675838D02*
X90270833Y-83675838D01*
X90270833Y-83675838D02*
X90331309Y-83645600D01*
X90331309Y-83645600D02*
X90361547Y-83615361D01*
X105545838Y-68904166D02*
X105243457Y-68692499D01*
X105545838Y-68541309D02*
X104910838Y-68541309D01*
X104910838Y-68541309D02*
X104910838Y-68783214D01*
X104910838Y-68783214D02*
X104941076Y-68843690D01*
X104941076Y-68843690D02*
X104971314Y-68873928D01*
X104971314Y-68873928D02*
X105031790Y-68904166D01*
X105031790Y-68904166D02*
X105122504Y-68904166D01*
X105122504Y-68904166D02*
X105182980Y-68873928D01*
X105182980Y-68873928D02*
X105213219Y-68843690D01*
X105213219Y-68843690D02*
X105243457Y-68783214D01*
X105243457Y-68783214D02*
X105243457Y-68541309D01*
X105545838Y-69206547D02*
X105545838Y-69327499D01*
X105545838Y-69327499D02*
X105515600Y-69387976D01*
X105515600Y-69387976D02*
X105485361Y-69418214D01*
X105485361Y-69418214D02*
X105394647Y-69478690D01*
X105394647Y-69478690D02*
X105273695Y-69508928D01*
X105273695Y-69508928D02*
X105031790Y-69508928D01*
X105031790Y-69508928D02*
X104971314Y-69478690D01*
X104971314Y-69478690D02*
X104941076Y-69448452D01*
X104941076Y-69448452D02*
X104910838Y-69387976D01*
X104910838Y-69387976D02*
X104910838Y-69267023D01*
X104910838Y-69267023D02*
X104941076Y-69206547D01*
X104941076Y-69206547D02*
X104971314Y-69176309D01*
X104971314Y-69176309D02*
X105031790Y-69146071D01*
X105031790Y-69146071D02*
X105182980Y-69146071D01*
X105182980Y-69146071D02*
X105243457Y-69176309D01*
X105243457Y-69176309D02*
X105273695Y-69206547D01*
X105273695Y-69206547D02*
X105303933Y-69267023D01*
X105303933Y-69267023D02*
X105303933Y-69387976D01*
X105303933Y-69387976D02*
X105273695Y-69448452D01*
X105273695Y-69448452D02*
X105243457Y-69478690D01*
X105243457Y-69478690D02*
X105182980Y-69508928D01*
X99758214Y-83615361D02*
X99788452Y-83645600D01*
X99788452Y-83645600D02*
X99879166Y-83675838D01*
X99879166Y-83675838D02*
X99939642Y-83675838D01*
X99939642Y-83675838D02*
X100030357Y-83645600D01*
X100030357Y-83645600D02*
X100090833Y-83585123D01*
X100090833Y-83585123D02*
X100121071Y-83524647D01*
X100121071Y-83524647D02*
X100151309Y-83403695D01*
X100151309Y-83403695D02*
X100151309Y-83312980D01*
X100151309Y-83312980D02*
X100121071Y-83192028D01*
X100121071Y-83192028D02*
X100090833Y-83131552D01*
X100090833Y-83131552D02*
X100030357Y-83071076D01*
X100030357Y-83071076D02*
X99939642Y-83040838D01*
X99939642Y-83040838D02*
X99879166Y-83040838D01*
X99879166Y-83040838D02*
X99788452Y-83071076D01*
X99788452Y-83071076D02*
X99758214Y-83101314D01*
X99516309Y-83101314D02*
X99486071Y-83071076D01*
X99486071Y-83071076D02*
X99425595Y-83040838D01*
X99425595Y-83040838D02*
X99274404Y-83040838D01*
X99274404Y-83040838D02*
X99213928Y-83071076D01*
X99213928Y-83071076D02*
X99183690Y-83101314D01*
X99183690Y-83101314D02*
X99153452Y-83161790D01*
X99153452Y-83161790D02*
X99153452Y-83222266D01*
X99153452Y-83222266D02*
X99183690Y-83312980D01*
X99183690Y-83312980D02*
X99546547Y-83675838D01*
X99546547Y-83675838D02*
X99153452Y-83675838D01*
X98851071Y-83675838D02*
X98730119Y-83675838D01*
X98730119Y-83675838D02*
X98669642Y-83645600D01*
X98669642Y-83645600D02*
X98639404Y-83615361D01*
X98639404Y-83615361D02*
X98578928Y-83524647D01*
X98578928Y-83524647D02*
X98548690Y-83403695D01*
X98548690Y-83403695D02*
X98548690Y-83161790D01*
X98548690Y-83161790D02*
X98578928Y-83101314D01*
X98578928Y-83101314D02*
X98609166Y-83071076D01*
X98609166Y-83071076D02*
X98669642Y-83040838D01*
X98669642Y-83040838D02*
X98790595Y-83040838D01*
X98790595Y-83040838D02*
X98851071Y-83071076D01*
X98851071Y-83071076D02*
X98881309Y-83101314D01*
X98881309Y-83101314D02*
X98911547Y-83161790D01*
X98911547Y-83161790D02*
X98911547Y-83312980D01*
X98911547Y-83312980D02*
X98881309Y-83373457D01*
X98881309Y-83373457D02*
X98851071Y-83403695D01*
X98851071Y-83403695D02*
X98790595Y-83433933D01*
X98790595Y-83433933D02*
X98669642Y-83433933D01*
X98669642Y-83433933D02*
X98609166Y-83403695D01*
X98609166Y-83403695D02*
X98578928Y-83373457D01*
X98578928Y-83373457D02*
X98548690Y-83312980D01*
X102613690Y-68755838D02*
X102613690Y-68120838D01*
X102613690Y-68120838D02*
X102462500Y-68120838D01*
X102462500Y-68120838D02*
X102371785Y-68151076D01*
X102371785Y-68151076D02*
X102311309Y-68211552D01*
X102311309Y-68211552D02*
X102281071Y-68272028D01*
X102281071Y-68272028D02*
X102250833Y-68392980D01*
X102250833Y-68392980D02*
X102250833Y-68483695D01*
X102250833Y-68483695D02*
X102281071Y-68604647D01*
X102281071Y-68604647D02*
X102311309Y-68665123D01*
X102311309Y-68665123D02*
X102371785Y-68725600D01*
X102371785Y-68725600D02*
X102462500Y-68755838D01*
X102462500Y-68755838D02*
X102613690Y-68755838D01*
X101706547Y-68332504D02*
X101706547Y-68755838D01*
X101857738Y-68090600D02*
X102008928Y-68544171D01*
X102008928Y-68544171D02*
X101615833Y-68544171D01*
X95425838Y-68944166D02*
X95123457Y-68732499D01*
X95425838Y-68581309D02*
X94790838Y-68581309D01*
X94790838Y-68581309D02*
X94790838Y-68823214D01*
X94790838Y-68823214D02*
X94821076Y-68883690D01*
X94821076Y-68883690D02*
X94851314Y-68913928D01*
X94851314Y-68913928D02*
X94911790Y-68944166D01*
X94911790Y-68944166D02*
X95002504Y-68944166D01*
X95002504Y-68944166D02*
X95062980Y-68913928D01*
X95062980Y-68913928D02*
X95093219Y-68883690D01*
X95093219Y-68883690D02*
X95123457Y-68823214D01*
X95123457Y-68823214D02*
X95123457Y-68581309D01*
X95062980Y-69307023D02*
X95032742Y-69246547D01*
X95032742Y-69246547D02*
X95002504Y-69216309D01*
X95002504Y-69216309D02*
X94942028Y-69186071D01*
X94942028Y-69186071D02*
X94911790Y-69186071D01*
X94911790Y-69186071D02*
X94851314Y-69216309D01*
X94851314Y-69216309D02*
X94821076Y-69246547D01*
X94821076Y-69246547D02*
X94790838Y-69307023D01*
X94790838Y-69307023D02*
X94790838Y-69427976D01*
X94790838Y-69427976D02*
X94821076Y-69488452D01*
X94821076Y-69488452D02*
X94851314Y-69518690D01*
X94851314Y-69518690D02*
X94911790Y-69548928D01*
X94911790Y-69548928D02*
X94942028Y-69548928D01*
X94942028Y-69548928D02*
X95002504Y-69518690D01*
X95002504Y-69518690D02*
X95032742Y-69488452D01*
X95032742Y-69488452D02*
X95062980Y-69427976D01*
X95062980Y-69427976D02*
X95062980Y-69307023D01*
X95062980Y-69307023D02*
X95093219Y-69246547D01*
X95093219Y-69246547D02*
X95123457Y-69216309D01*
X95123457Y-69216309D02*
X95183933Y-69186071D01*
X95183933Y-69186071D02*
X95304885Y-69186071D01*
X95304885Y-69186071D02*
X95365361Y-69216309D01*
X95365361Y-69216309D02*
X95395600Y-69246547D01*
X95395600Y-69246547D02*
X95425838Y-69307023D01*
X95425838Y-69307023D02*
X95425838Y-69427976D01*
X95425838Y-69427976D02*
X95395600Y-69488452D01*
X95395600Y-69488452D02*
X95365361Y-69518690D01*
X95365361Y-69518690D02*
X95304885Y-69548928D01*
X95304885Y-69548928D02*
X95183933Y-69548928D01*
X95183933Y-69548928D02*
X95123457Y-69518690D01*
X95123457Y-69518690D02*
X95093219Y-69488452D01*
X95093219Y-69488452D02*
X95062980Y-69427976D01*
X75545838Y-68884166D02*
X75243457Y-68672499D01*
X75545838Y-68521309D02*
X74910838Y-68521309D01*
X74910838Y-68521309D02*
X74910838Y-68763214D01*
X74910838Y-68763214D02*
X74941076Y-68823690D01*
X74941076Y-68823690D02*
X74971314Y-68853928D01*
X74971314Y-68853928D02*
X75031790Y-68884166D01*
X75031790Y-68884166D02*
X75122504Y-68884166D01*
X75122504Y-68884166D02*
X75182980Y-68853928D01*
X75182980Y-68853928D02*
X75213219Y-68823690D01*
X75213219Y-68823690D02*
X75243457Y-68763214D01*
X75243457Y-68763214D02*
X75243457Y-68521309D01*
X74910838Y-69428452D02*
X74910838Y-69307499D01*
X74910838Y-69307499D02*
X74941076Y-69247023D01*
X74941076Y-69247023D02*
X74971314Y-69216785D01*
X74971314Y-69216785D02*
X75062028Y-69156309D01*
X75062028Y-69156309D02*
X75182980Y-69126071D01*
X75182980Y-69126071D02*
X75424885Y-69126071D01*
X75424885Y-69126071D02*
X75485361Y-69156309D01*
X75485361Y-69156309D02*
X75515600Y-69186547D01*
X75515600Y-69186547D02*
X75545838Y-69247023D01*
X75545838Y-69247023D02*
X75545838Y-69367976D01*
X75545838Y-69367976D02*
X75515600Y-69428452D01*
X75515600Y-69428452D02*
X75485361Y-69458690D01*
X75485361Y-69458690D02*
X75424885Y-69488928D01*
X75424885Y-69488928D02*
X75273695Y-69488928D01*
X75273695Y-69488928D02*
X75213219Y-69458690D01*
X75213219Y-69458690D02*
X75182980Y-69428452D01*
X75182980Y-69428452D02*
X75152742Y-69367976D01*
X75152742Y-69367976D02*
X75152742Y-69247023D01*
X75152742Y-69247023D02*
X75182980Y-69186547D01*
X75182980Y-69186547D02*
X75213219Y-69156309D01*
X75213219Y-69156309D02*
X75273695Y-69126071D01*
X102018214Y-83685838D02*
X102229881Y-83383457D01*
X102381071Y-83685838D02*
X102381071Y-83050838D01*
X102381071Y-83050838D02*
X102139166Y-83050838D01*
X102139166Y-83050838D02*
X102078690Y-83081076D01*
X102078690Y-83081076D02*
X102048452Y-83111314D01*
X102048452Y-83111314D02*
X102018214Y-83171790D01*
X102018214Y-83171790D02*
X102018214Y-83262504D01*
X102018214Y-83262504D02*
X102048452Y-83322980D01*
X102048452Y-83322980D02*
X102078690Y-83353219D01*
X102078690Y-83353219D02*
X102139166Y-83383457D01*
X102139166Y-83383457D02*
X102381071Y-83383457D01*
X101776309Y-83111314D02*
X101746071Y-83081076D01*
X101746071Y-83081076D02*
X101685595Y-83050838D01*
X101685595Y-83050838D02*
X101534404Y-83050838D01*
X101534404Y-83050838D02*
X101473928Y-83081076D01*
X101473928Y-83081076D02*
X101443690Y-83111314D01*
X101443690Y-83111314D02*
X101413452Y-83171790D01*
X101413452Y-83171790D02*
X101413452Y-83232266D01*
X101413452Y-83232266D02*
X101443690Y-83322980D01*
X101443690Y-83322980D02*
X101806547Y-83685838D01*
X101806547Y-83685838D02*
X101413452Y-83685838D01*
X100869166Y-83050838D02*
X100990119Y-83050838D01*
X100990119Y-83050838D02*
X101050595Y-83081076D01*
X101050595Y-83081076D02*
X101080833Y-83111314D01*
X101080833Y-83111314D02*
X101141309Y-83202028D01*
X101141309Y-83202028D02*
X101171547Y-83322980D01*
X101171547Y-83322980D02*
X101171547Y-83564885D01*
X101171547Y-83564885D02*
X101141309Y-83625361D01*
X101141309Y-83625361D02*
X101111071Y-83655600D01*
X101111071Y-83655600D02*
X101050595Y-83685838D01*
X101050595Y-83685838D02*
X100929642Y-83685838D01*
X100929642Y-83685838D02*
X100869166Y-83655600D01*
X100869166Y-83655600D02*
X100838928Y-83625361D01*
X100838928Y-83625361D02*
X100808690Y-83564885D01*
X100808690Y-83564885D02*
X100808690Y-83413695D01*
X100808690Y-83413695D02*
X100838928Y-83353219D01*
X100838928Y-83353219D02*
X100869166Y-83322980D01*
X100869166Y-83322980D02*
X100929642Y-83292742D01*
X100929642Y-83292742D02*
X101050595Y-83292742D01*
X101050595Y-83292742D02*
X101111071Y-83322980D01*
X101111071Y-83322980D02*
X101141309Y-83353219D01*
X101141309Y-83353219D02*
X101171547Y-83413695D01*
X77665833Y-88715361D02*
X77696071Y-88745600D01*
X77696071Y-88745600D02*
X77786785Y-88775838D01*
X77786785Y-88775838D02*
X77847261Y-88775838D01*
X77847261Y-88775838D02*
X77937976Y-88745600D01*
X77937976Y-88745600D02*
X77998452Y-88685123D01*
X77998452Y-88685123D02*
X78028690Y-88624647D01*
X78028690Y-88624647D02*
X78058928Y-88503695D01*
X78058928Y-88503695D02*
X78058928Y-88412980D01*
X78058928Y-88412980D02*
X78028690Y-88292028D01*
X78028690Y-88292028D02*
X77998452Y-88231552D01*
X77998452Y-88231552D02*
X77937976Y-88171076D01*
X77937976Y-88171076D02*
X77847261Y-88140838D01*
X77847261Y-88140838D02*
X77786785Y-88140838D01*
X77786785Y-88140838D02*
X77696071Y-88171076D01*
X77696071Y-88171076D02*
X77665833Y-88201314D01*
X77454166Y-88140838D02*
X77030833Y-88140838D01*
X77030833Y-88140838D02*
X77302976Y-88775838D01*
X68675361Y-96881785D02*
X68705600Y-96851547D01*
X68705600Y-96851547D02*
X68735838Y-96760833D01*
X68735838Y-96760833D02*
X68735838Y-96700357D01*
X68735838Y-96700357D02*
X68705600Y-96609642D01*
X68705600Y-96609642D02*
X68645123Y-96549166D01*
X68645123Y-96549166D02*
X68584647Y-96518928D01*
X68584647Y-96518928D02*
X68463695Y-96488690D01*
X68463695Y-96488690D02*
X68372980Y-96488690D01*
X68372980Y-96488690D02*
X68252028Y-96518928D01*
X68252028Y-96518928D02*
X68191552Y-96549166D01*
X68191552Y-96549166D02*
X68131076Y-96609642D01*
X68131076Y-96609642D02*
X68100838Y-96700357D01*
X68100838Y-96700357D02*
X68100838Y-96760833D01*
X68100838Y-96760833D02*
X68131076Y-96851547D01*
X68131076Y-96851547D02*
X68161314Y-96881785D01*
X68735838Y-97486547D02*
X68735838Y-97123690D01*
X68735838Y-97305118D02*
X68100838Y-97305118D01*
X68100838Y-97305118D02*
X68191552Y-97244642D01*
X68191552Y-97244642D02*
X68252028Y-97184166D01*
X68252028Y-97184166D02*
X68282266Y-97123690D01*
X68100838Y-97879642D02*
X68100838Y-97940119D01*
X68100838Y-97940119D02*
X68131076Y-98000595D01*
X68131076Y-98000595D02*
X68161314Y-98030833D01*
X68161314Y-98030833D02*
X68221790Y-98061071D01*
X68221790Y-98061071D02*
X68342742Y-98091309D01*
X68342742Y-98091309D02*
X68493933Y-98091309D01*
X68493933Y-98091309D02*
X68614885Y-98061071D01*
X68614885Y-98061071D02*
X68675361Y-98030833D01*
X68675361Y-98030833D02*
X68705600Y-98000595D01*
X68705600Y-98000595D02*
X68735838Y-97940119D01*
X68735838Y-97940119D02*
X68735838Y-97879642D01*
X68735838Y-97879642D02*
X68705600Y-97819166D01*
X68705600Y-97819166D02*
X68675361Y-97788928D01*
X68675361Y-97788928D02*
X68614885Y-97758690D01*
X68614885Y-97758690D02*
X68493933Y-97728452D01*
X68493933Y-97728452D02*
X68342742Y-97728452D01*
X68342742Y-97728452D02*
X68221790Y-97758690D01*
X68221790Y-97758690D02*
X68161314Y-97788928D01*
X68161314Y-97788928D02*
X68131076Y-97819166D01*
X68131076Y-97819166D02*
X68100838Y-97879642D01*
X65175838Y-68874166D02*
X64873457Y-68662499D01*
X65175838Y-68511309D02*
X64540838Y-68511309D01*
X64540838Y-68511309D02*
X64540838Y-68753214D01*
X64540838Y-68753214D02*
X64571076Y-68813690D01*
X64571076Y-68813690D02*
X64601314Y-68843928D01*
X64601314Y-68843928D02*
X64661790Y-68874166D01*
X64661790Y-68874166D02*
X64752504Y-68874166D01*
X64752504Y-68874166D02*
X64812980Y-68843928D01*
X64812980Y-68843928D02*
X64843219Y-68813690D01*
X64843219Y-68813690D02*
X64873457Y-68753214D01*
X64873457Y-68753214D02*
X64873457Y-68511309D01*
X64540838Y-69448690D02*
X64540838Y-69146309D01*
X64540838Y-69146309D02*
X64843219Y-69116071D01*
X64843219Y-69116071D02*
X64812980Y-69146309D01*
X64812980Y-69146309D02*
X64782742Y-69206785D01*
X64782742Y-69206785D02*
X64782742Y-69357976D01*
X64782742Y-69357976D02*
X64812980Y-69418452D01*
X64812980Y-69418452D02*
X64843219Y-69448690D01*
X64843219Y-69448690D02*
X64903695Y-69478928D01*
X64903695Y-69478928D02*
X65054885Y-69478928D01*
X65054885Y-69478928D02*
X65115361Y-69448690D01*
X65115361Y-69448690D02*
X65145600Y-69418452D01*
X65145600Y-69418452D02*
X65175838Y-69357976D01*
X65175838Y-69357976D02*
X65175838Y-69206785D01*
X65175838Y-69206785D02*
X65145600Y-69146309D01*
X65145600Y-69146309D02*
X65115361Y-69116071D01*
X93548214Y-83575361D02*
X93578452Y-83605600D01*
X93578452Y-83605600D02*
X93669166Y-83635838D01*
X93669166Y-83635838D02*
X93729642Y-83635838D01*
X93729642Y-83635838D02*
X93820357Y-83605600D01*
X93820357Y-83605600D02*
X93880833Y-83545123D01*
X93880833Y-83545123D02*
X93911071Y-83484647D01*
X93911071Y-83484647D02*
X93941309Y-83363695D01*
X93941309Y-83363695D02*
X93941309Y-83272980D01*
X93941309Y-83272980D02*
X93911071Y-83152028D01*
X93911071Y-83152028D02*
X93880833Y-83091552D01*
X93880833Y-83091552D02*
X93820357Y-83031076D01*
X93820357Y-83031076D02*
X93729642Y-83000838D01*
X93729642Y-83000838D02*
X93669166Y-83000838D01*
X93669166Y-83000838D02*
X93578452Y-83031076D01*
X93578452Y-83031076D02*
X93548214Y-83061314D01*
X93306309Y-83061314D02*
X93276071Y-83031076D01*
X93276071Y-83031076D02*
X93215595Y-83000838D01*
X93215595Y-83000838D02*
X93064404Y-83000838D01*
X93064404Y-83000838D02*
X93003928Y-83031076D01*
X93003928Y-83031076D02*
X92973690Y-83061314D01*
X92973690Y-83061314D02*
X92943452Y-83121790D01*
X92943452Y-83121790D02*
X92943452Y-83182266D01*
X92943452Y-83182266D02*
X92973690Y-83272980D01*
X92973690Y-83272980D02*
X93336547Y-83635838D01*
X93336547Y-83635838D02*
X92943452Y-83635838D01*
X92580595Y-83272980D02*
X92641071Y-83242742D01*
X92641071Y-83242742D02*
X92671309Y-83212504D01*
X92671309Y-83212504D02*
X92701547Y-83152028D01*
X92701547Y-83152028D02*
X92701547Y-83121790D01*
X92701547Y-83121790D02*
X92671309Y-83061314D01*
X92671309Y-83061314D02*
X92641071Y-83031076D01*
X92641071Y-83031076D02*
X92580595Y-83000838D01*
X92580595Y-83000838D02*
X92459642Y-83000838D01*
X92459642Y-83000838D02*
X92399166Y-83031076D01*
X92399166Y-83031076D02*
X92368928Y-83061314D01*
X92368928Y-83061314D02*
X92338690Y-83121790D01*
X92338690Y-83121790D02*
X92338690Y-83152028D01*
X92338690Y-83152028D02*
X92368928Y-83212504D01*
X92368928Y-83212504D02*
X92399166Y-83242742D01*
X92399166Y-83242742D02*
X92459642Y-83272980D01*
X92459642Y-83272980D02*
X92580595Y-83272980D01*
X92580595Y-83272980D02*
X92641071Y-83303219D01*
X92641071Y-83303219D02*
X92671309Y-83333457D01*
X92671309Y-83333457D02*
X92701547Y-83393933D01*
X92701547Y-83393933D02*
X92701547Y-83514885D01*
X92701547Y-83514885D02*
X92671309Y-83575361D01*
X92671309Y-83575361D02*
X92641071Y-83605600D01*
X92641071Y-83605600D02*
X92580595Y-83635838D01*
X92580595Y-83635838D02*
X92459642Y-83635838D01*
X92459642Y-83635838D02*
X92399166Y-83605600D01*
X92399166Y-83605600D02*
X92368928Y-83575361D01*
X92368928Y-83575361D02*
X92338690Y-83514885D01*
X92338690Y-83514885D02*
X92338690Y-83393933D01*
X92338690Y-83393933D02*
X92368928Y-83333457D01*
X92368928Y-83333457D02*
X92399166Y-83303219D01*
X92399166Y-83303219D02*
X92459642Y-83272980D01*
X85525838Y-68864166D02*
X85223457Y-68652499D01*
X85525838Y-68501309D02*
X84890838Y-68501309D01*
X84890838Y-68501309D02*
X84890838Y-68743214D01*
X84890838Y-68743214D02*
X84921076Y-68803690D01*
X84921076Y-68803690D02*
X84951314Y-68833928D01*
X84951314Y-68833928D02*
X85011790Y-68864166D01*
X85011790Y-68864166D02*
X85102504Y-68864166D01*
X85102504Y-68864166D02*
X85162980Y-68833928D01*
X85162980Y-68833928D02*
X85193219Y-68803690D01*
X85193219Y-68803690D02*
X85223457Y-68743214D01*
X85223457Y-68743214D02*
X85223457Y-68501309D01*
X84890838Y-69075833D02*
X84890838Y-69499166D01*
X84890838Y-69499166D02*
X85525838Y-69227023D01*
X81198214Y-83825838D02*
X81409881Y-83523457D01*
X81561071Y-83825838D02*
X81561071Y-83190838D01*
X81561071Y-83190838D02*
X81319166Y-83190838D01*
X81319166Y-83190838D02*
X81258690Y-83221076D01*
X81258690Y-83221076D02*
X81228452Y-83251314D01*
X81228452Y-83251314D02*
X81198214Y-83311790D01*
X81198214Y-83311790D02*
X81198214Y-83402504D01*
X81198214Y-83402504D02*
X81228452Y-83462980D01*
X81228452Y-83462980D02*
X81258690Y-83493219D01*
X81258690Y-83493219D02*
X81319166Y-83523457D01*
X81319166Y-83523457D02*
X81561071Y-83523457D01*
X80956309Y-83251314D02*
X80926071Y-83221076D01*
X80926071Y-83221076D02*
X80865595Y-83190838D01*
X80865595Y-83190838D02*
X80714404Y-83190838D01*
X80714404Y-83190838D02*
X80653928Y-83221076D01*
X80653928Y-83221076D02*
X80623690Y-83251314D01*
X80623690Y-83251314D02*
X80593452Y-83311790D01*
X80593452Y-83311790D02*
X80593452Y-83372266D01*
X80593452Y-83372266D02*
X80623690Y-83462980D01*
X80623690Y-83462980D02*
X80986547Y-83825838D01*
X80986547Y-83825838D02*
X80593452Y-83825838D01*
X80049166Y-83402504D02*
X80049166Y-83825838D01*
X80200357Y-83160600D02*
X80351547Y-83614171D01*
X80351547Y-83614171D02*
X79958452Y-83614171D01*
X91813333Y-65855838D02*
X92115714Y-65855838D01*
X92115714Y-65855838D02*
X92115714Y-65220838D01*
X91601666Y-65855838D02*
X91601666Y-65220838D01*
X91601666Y-65220838D02*
X91359761Y-65220838D01*
X91359761Y-65220838D02*
X91299285Y-65251076D01*
X91299285Y-65251076D02*
X91269047Y-65281314D01*
X91269047Y-65281314D02*
X91238809Y-65341790D01*
X91238809Y-65341790D02*
X91238809Y-65432504D01*
X91238809Y-65432504D02*
X91269047Y-65492980D01*
X91269047Y-65492980D02*
X91299285Y-65523219D01*
X91299285Y-65523219D02*
X91359761Y-65553457D01*
X91359761Y-65553457D02*
X91601666Y-65553457D01*
X91027142Y-65220838D02*
X90634047Y-65220838D01*
X90634047Y-65220838D02*
X90845714Y-65462742D01*
X90845714Y-65462742D02*
X90754999Y-65462742D01*
X90754999Y-65462742D02*
X90694523Y-65492980D01*
X90694523Y-65492980D02*
X90664285Y-65523219D01*
X90664285Y-65523219D02*
X90634047Y-65583695D01*
X90634047Y-65583695D02*
X90634047Y-65734885D01*
X90634047Y-65734885D02*
X90664285Y-65795361D01*
X90664285Y-65795361D02*
X90694523Y-65825600D01*
X90694523Y-65825600D02*
X90754999Y-65855838D01*
X90754999Y-65855838D02*
X90936428Y-65855838D01*
X90936428Y-65855838D02*
X90996904Y-65825600D01*
X90996904Y-65825600D02*
X91027142Y-65795361D01*
X67715361Y-75424166D02*
X67745600Y-75393928D01*
X67745600Y-75393928D02*
X67775838Y-75303214D01*
X67775838Y-75303214D02*
X67775838Y-75242738D01*
X67775838Y-75242738D02*
X67745600Y-75152023D01*
X67745600Y-75152023D02*
X67685123Y-75091547D01*
X67685123Y-75091547D02*
X67624647Y-75061309D01*
X67624647Y-75061309D02*
X67503695Y-75031071D01*
X67503695Y-75031071D02*
X67412980Y-75031071D01*
X67412980Y-75031071D02*
X67292028Y-75061309D01*
X67292028Y-75061309D02*
X67231552Y-75091547D01*
X67231552Y-75091547D02*
X67171076Y-75152023D01*
X67171076Y-75152023D02*
X67140838Y-75242738D01*
X67140838Y-75242738D02*
X67140838Y-75303214D01*
X67140838Y-75303214D02*
X67171076Y-75393928D01*
X67171076Y-75393928D02*
X67201314Y-75424166D01*
X67775838Y-76028928D02*
X67775838Y-75666071D01*
X67775838Y-75847499D02*
X67140838Y-75847499D01*
X67140838Y-75847499D02*
X67231552Y-75787023D01*
X67231552Y-75787023D02*
X67292028Y-75726547D01*
X67292028Y-75726547D02*
X67322266Y-75666071D01*
X66661666Y-77740838D02*
X66661666Y-78194409D01*
X66661666Y-78194409D02*
X66691905Y-78285123D01*
X66691905Y-78285123D02*
X66752381Y-78345600D01*
X66752381Y-78345600D02*
X66843095Y-78375838D01*
X66843095Y-78375838D02*
X66903571Y-78375838D01*
X66389523Y-77801314D02*
X66359285Y-77771076D01*
X66359285Y-77771076D02*
X66298809Y-77740838D01*
X66298809Y-77740838D02*
X66147618Y-77740838D01*
X66147618Y-77740838D02*
X66087142Y-77771076D01*
X66087142Y-77771076D02*
X66056904Y-77801314D01*
X66056904Y-77801314D02*
X66026666Y-77861790D01*
X66026666Y-77861790D02*
X66026666Y-77922266D01*
X66026666Y-77922266D02*
X66056904Y-78012980D01*
X66056904Y-78012980D02*
X66419761Y-78375838D01*
X66419761Y-78375838D02*
X66026666Y-78375838D01*
X111813333Y-65755838D02*
X112115714Y-65755838D01*
X112115714Y-65755838D02*
X112115714Y-65120838D01*
X111601666Y-65755838D02*
X111601666Y-65120838D01*
X111601666Y-65120838D02*
X111359761Y-65120838D01*
X111359761Y-65120838D02*
X111299285Y-65151076D01*
X111299285Y-65151076D02*
X111269047Y-65181314D01*
X111269047Y-65181314D02*
X111238809Y-65241790D01*
X111238809Y-65241790D02*
X111238809Y-65332504D01*
X111238809Y-65332504D02*
X111269047Y-65392980D01*
X111269047Y-65392980D02*
X111299285Y-65423219D01*
X111299285Y-65423219D02*
X111359761Y-65453457D01*
X111359761Y-65453457D02*
X111601666Y-65453457D01*
X110664285Y-65120838D02*
X110966666Y-65120838D01*
X110966666Y-65120838D02*
X110996904Y-65423219D01*
X110996904Y-65423219D02*
X110966666Y-65392980D01*
X110966666Y-65392980D02*
X110906190Y-65362742D01*
X110906190Y-65362742D02*
X110754999Y-65362742D01*
X110754999Y-65362742D02*
X110694523Y-65392980D01*
X110694523Y-65392980D02*
X110664285Y-65423219D01*
X110664285Y-65423219D02*
X110634047Y-65483695D01*
X110634047Y-65483695D02*
X110634047Y-65634885D01*
X110634047Y-65634885D02*
X110664285Y-65695361D01*
X110664285Y-65695361D02*
X110694523Y-65725600D01*
X110694523Y-65725600D02*
X110754999Y-65755838D01*
X110754999Y-65755838D02*
X110906190Y-65755838D01*
X110906190Y-65755838D02*
X110966666Y-65725600D01*
X110966666Y-65725600D02*
X110996904Y-65695361D01*
X66695838Y-75394166D02*
X66393457Y-75182499D01*
X66695838Y-75031309D02*
X66060838Y-75031309D01*
X66060838Y-75031309D02*
X66060838Y-75273214D01*
X66060838Y-75273214D02*
X66091076Y-75333690D01*
X66091076Y-75333690D02*
X66121314Y-75363928D01*
X66121314Y-75363928D02*
X66181790Y-75394166D01*
X66181790Y-75394166D02*
X66272504Y-75394166D01*
X66272504Y-75394166D02*
X66332980Y-75363928D01*
X66332980Y-75363928D02*
X66363219Y-75333690D01*
X66363219Y-75333690D02*
X66393457Y-75273214D01*
X66393457Y-75273214D02*
X66393457Y-75031309D01*
X66695838Y-75998928D02*
X66695838Y-75636071D01*
X66695838Y-75817499D02*
X66060838Y-75817499D01*
X66060838Y-75817499D02*
X66151552Y-75757023D01*
X66151552Y-75757023D02*
X66212028Y-75696547D01*
X66212028Y-75696547D02*
X66242266Y-75636071D01*
X71273333Y-65825838D02*
X71575714Y-65825838D01*
X71575714Y-65825838D02*
X71575714Y-65190838D01*
X71061666Y-65825838D02*
X71061666Y-65190838D01*
X71061666Y-65190838D02*
X70819761Y-65190838D01*
X70819761Y-65190838D02*
X70759285Y-65221076D01*
X70759285Y-65221076D02*
X70729047Y-65251314D01*
X70729047Y-65251314D02*
X70698809Y-65311790D01*
X70698809Y-65311790D02*
X70698809Y-65402504D01*
X70698809Y-65402504D02*
X70729047Y-65462980D01*
X70729047Y-65462980D02*
X70759285Y-65493219D01*
X70759285Y-65493219D02*
X70819761Y-65523457D01*
X70819761Y-65523457D02*
X71061666Y-65523457D01*
X70094047Y-65825838D02*
X70456904Y-65825838D01*
X70275476Y-65825838D02*
X70275476Y-65190838D01*
X70275476Y-65190838D02*
X70335952Y-65281552D01*
X70335952Y-65281552D02*
X70396428Y-65342028D01*
X70396428Y-65342028D02*
X70456904Y-65372266D01*
X77615833Y-96985361D02*
X77646071Y-97015600D01*
X77646071Y-97015600D02*
X77736785Y-97045838D01*
X77736785Y-97045838D02*
X77797261Y-97045838D01*
X77797261Y-97045838D02*
X77887976Y-97015600D01*
X77887976Y-97015600D02*
X77948452Y-96955123D01*
X77948452Y-96955123D02*
X77978690Y-96894647D01*
X77978690Y-96894647D02*
X78008928Y-96773695D01*
X78008928Y-96773695D02*
X78008928Y-96682980D01*
X78008928Y-96682980D02*
X77978690Y-96562028D01*
X77978690Y-96562028D02*
X77948452Y-96501552D01*
X77948452Y-96501552D02*
X77887976Y-96441076D01*
X77887976Y-96441076D02*
X77797261Y-96410838D01*
X77797261Y-96410838D02*
X77736785Y-96410838D01*
X77736785Y-96410838D02*
X77646071Y-96441076D01*
X77646071Y-96441076D02*
X77615833Y-96471314D01*
X77313452Y-97045838D02*
X77192500Y-97045838D01*
X77192500Y-97045838D02*
X77132023Y-97015600D01*
X77132023Y-97015600D02*
X77101785Y-96985361D01*
X77101785Y-96985361D02*
X77041309Y-96894647D01*
X77041309Y-96894647D02*
X77011071Y-96773695D01*
X77011071Y-96773695D02*
X77011071Y-96531790D01*
X77011071Y-96531790D02*
X77041309Y-96471314D01*
X77041309Y-96471314D02*
X77071547Y-96441076D01*
X77071547Y-96441076D02*
X77132023Y-96410838D01*
X77132023Y-96410838D02*
X77252976Y-96410838D01*
X77252976Y-96410838D02*
X77313452Y-96441076D01*
X77313452Y-96441076D02*
X77343690Y-96471314D01*
X77343690Y-96471314D02*
X77373928Y-96531790D01*
X77373928Y-96531790D02*
X77373928Y-96682980D01*
X77373928Y-96682980D02*
X77343690Y-96743457D01*
X77343690Y-96743457D02*
X77313452Y-96773695D01*
X77313452Y-96773695D02*
X77252976Y-96803933D01*
X77252976Y-96803933D02*
X77132023Y-96803933D01*
X77132023Y-96803933D02*
X77071547Y-96773695D01*
X77071547Y-96773695D02*
X77041309Y-96743457D01*
X77041309Y-96743457D02*
X77011071Y-96682980D01*
%TO.C,R27*%
D13*
X112613641Y-83080000D02*
X112306359Y-83080000D01*
X112613641Y-83840000D02*
X112306359Y-83840000D01*
%TO.C,B4*%
D14*
X96580000Y-73770000D02*
X102880000Y-73770000D01*
X102880000Y-79770000D01*
X96580000Y-79770000D01*
X96580000Y-73770000D01*
%TO.C,LP2*%
X77315000Y-66055000D02*
X82145000Y-66055000D01*
X82145000Y-70885000D01*
X77315000Y-70885000D01*
X77315000Y-66055000D01*
%TO.C,C8*%
D13*
X68617836Y-87630000D02*
X68402164Y-87630000D01*
X68617836Y-88350000D02*
X68402164Y-88350000D01*
%TO.C,LP4*%
D14*
X97315000Y-66055000D02*
X102145000Y-66055000D01*
X102145000Y-70885000D01*
X97315000Y-70885000D01*
X97315000Y-66055000D01*
%TO.C,D3*%
X89610000Y-68170000D02*
X89910000Y-68470000D01*
X89610000Y-68770000D02*
X89610000Y-68170000D01*
X89910000Y-68470000D02*
X89610000Y-68770000D01*
%TO.C,D2*%
X79610000Y-68170000D02*
X79910000Y-68470000D01*
X79610000Y-68770000D02*
X79610000Y-68170000D01*
X79910000Y-68470000D02*
X79610000Y-68770000D01*
%TO.C,B5*%
X106580000Y-73770000D02*
X112880000Y-73770000D01*
X112880000Y-79770000D01*
X106580000Y-79770000D01*
X106580000Y-73770000D01*
%TO.C,B3*%
X86580000Y-73770000D02*
X92880000Y-73770000D01*
X92880000Y-79770000D01*
X86580000Y-79770000D01*
X86580000Y-73770000D01*
%TO.C,C15*%
D13*
X99120000Y-98062164D02*
X99120000Y-98277836D01*
X99840000Y-98062164D02*
X99840000Y-98277836D01*
%TO.C,C27*%
X83042164Y-82010000D02*
X83257836Y-82010000D01*
X83042164Y-82730000D02*
X83257836Y-82730000D01*
%TO.C,B1*%
D15*
X74407500Y-71590000D02*
G75*
G02*
X74130784Y-71590000I-138358J0D01*
G01*
X74130784Y-71590000D02*
G75*
G02*
X74407500Y-71590000I138358J0D01*
G01*
%TO.C,C30*%
D13*
X112352164Y-82100000D02*
X112567836Y-82100000D01*
X112352164Y-82820000D02*
X112567836Y-82820000D01*
%TO.C,D5*%
D14*
X109610000Y-68170000D02*
X109910000Y-68470000D01*
X109610000Y-68770000D02*
X109610000Y-68170000D01*
X109910000Y-68470000D02*
X109610000Y-68770000D01*
%TO.C,D1*%
X69100000Y-68180000D02*
X69400000Y-68480000D01*
X69100000Y-68780000D02*
X69100000Y-68180000D01*
X69400000Y-68480000D02*
X69100000Y-68780000D01*
%TO.C,B2*%
X76580000Y-73770000D02*
X82880000Y-73770000D01*
X82880000Y-79770000D01*
X76580000Y-79770000D01*
X76580000Y-73770000D01*
%TO.C,C14*%
D13*
X100582164Y-96340000D02*
X100797836Y-96340000D01*
X100582164Y-97060000D02*
X100797836Y-97060000D01*
%TO.C,R25*%
X90636359Y-81970000D02*
X90943641Y-81970000D01*
X90636359Y-82730000D02*
X90943641Y-82730000D01*
%TO.C,R9*%
X105920000Y-69143641D02*
X105920000Y-68836359D01*
X106680000Y-69143641D02*
X106680000Y-68836359D01*
%TO.C,C29*%
X99457836Y-82020000D02*
X99242164Y-82020000D01*
X99457836Y-82740000D02*
X99242164Y-82740000D01*
%TO.C,D4*%
D14*
X99610000Y-68170000D02*
X99910000Y-68470000D01*
X99610000Y-68770000D02*
X99610000Y-68170000D01*
X99910000Y-68470000D02*
X99610000Y-68770000D01*
%TO.C,R8*%
D13*
X95800000Y-69123641D02*
X95800000Y-68816359D01*
X96560000Y-69123641D02*
X96560000Y-68816359D01*
%TO.C,R6*%
X75950000Y-69153641D02*
X75950000Y-68846359D01*
X76710000Y-69153641D02*
X76710000Y-68846359D01*
%TO.C,R26*%
X101783641Y-81990000D02*
X101476359Y-81990000D01*
X101783641Y-82750000D02*
X101476359Y-82750000D01*
%TO.C,C7*%
X76907836Y-89150000D02*
X76692164Y-89150000D01*
X76907836Y-89870000D02*
X76692164Y-89870000D01*
%TO.C,C10*%
X69250000Y-97182164D02*
X69250000Y-97397836D01*
X69970000Y-97182164D02*
X69970000Y-97397836D01*
%TO.C,R5*%
X65510000Y-69083641D02*
X65510000Y-68776359D01*
X66270000Y-69083641D02*
X66270000Y-68776359D01*
%TO.C,C28*%
X93042164Y-81990000D02*
X93257836Y-81990000D01*
X93042164Y-82710000D02*
X93257836Y-82710000D01*
%TO.C,R7*%
X85980000Y-69113641D02*
X85980000Y-68806359D01*
X86740000Y-69113641D02*
X86740000Y-68806359D01*
%TO.C,R24*%
X80636359Y-81990000D02*
X80943641Y-81990000D01*
X80636359Y-82750000D02*
X80943641Y-82750000D01*
%TO.C,LP3*%
D14*
X87315000Y-66055000D02*
X92145000Y-66055000D01*
X92145000Y-70885000D01*
X87315000Y-70885000D01*
X87315000Y-66055000D01*
%TO.C,C1*%
D13*
X67170000Y-73927836D02*
X67170000Y-73712164D01*
X67890000Y-73927836D02*
X67890000Y-73712164D01*
%TO.C,LP5*%
D14*
X107315000Y-66055000D02*
X112145000Y-66055000D01*
X112145000Y-70885000D01*
X107315000Y-70885000D01*
X107315000Y-66055000D01*
%TO.C,R1*%
D13*
X66100000Y-73666359D02*
X66100000Y-73973641D01*
X66860000Y-73666359D02*
X66860000Y-73973641D01*
%TO.C,LP1*%
D14*
X66805000Y-66065000D02*
X71635000Y-66065000D01*
X71635000Y-70895000D01*
X66805000Y-70895000D01*
X66805000Y-66065000D01*
%TO.C,C9*%
D13*
X75732164Y-96350000D02*
X75947836Y-96350000D01*
X75732164Y-97070000D02*
X75947836Y-97070000D01*
%TD*%
M02*
