%TF.GenerationSoftware,KiCad,Pcbnew,10.0.3*%
%TF.CreationDate,2026-09-20T11:28:41-06:00*%
%TF.ProjectId,filter_actuator_rev1,66696c74-6572-45f6-9163-747561746f72,1.0*%
%TF.SameCoordinates,Original*%
%TF.FileFunction,Paste,Top*%
%TF.FilePolarity,Positive*%
%FSLAX46Y46*%
G04 Gerber Fmt 4.6, Leading zero omitted, Abs format (unit mm)*
G04 Created by KiCad (PCBNEW 10.0.3) date 2026-09-20 11:28:41*
%MOMM*%
%LPD*%
G01*
G04 APERTURE LIST*
G04 Aperture macros list*
%AMRoundRect*
0 Rectangle with rounded corners*
0 $1 Rounding radius*
0 $2 $3 $4 $5 $6 $7 $8 $9 X,Y pos of 4 corners*
0 Add a 4 corners polygon primitive as box body*
4,1,4,$2,$3,$4,$5,$6,$7,$8,$9,$2,$3,0*
0 Add four circle primitives for the rounded corners*
1,1,$1+$1,$2,$3*
1,1,$1+$1,$4,$5*
1,1,$1+$1,$6,$7*
1,1,$1+$1,$8,$9*
0 Add four rect primitives between the rounded corners*
20,1,$1+$1,$2,$3,$4,$5,0*
20,1,$1+$1,$4,$5,$6,$7,0*
20,1,$1+$1,$6,$7,$8,$9,0*
20,1,$1+$1,$8,$9,$2,$3,0*%
G04 Aperture macros list end*
%ADD10C,0.000000*%
%ADD11C,0.010000*%
%ADD12R,0.600000X1.150000*%
%ADD13R,0.300000X1.150000*%
%ADD14RoundRect,0.135000X-0.135000X-0.185000X0.135000X-0.185000X0.135000X0.185000X-0.135000X0.185000X0*%
%ADD15RoundRect,0.140000X0.170000X-0.140000X0.170000X0.140000X-0.170000X0.140000X-0.170000X-0.140000X0*%
%ADD16RoundRect,0.135000X0.135000X0.185000X-0.135000X0.185000X-0.135000X-0.185000X0.135000X-0.185000X0*%
%ADD17RoundRect,0.135000X0.185000X-0.135000X0.185000X0.135000X-0.185000X0.135000X-0.185000X-0.135000X0*%
%ADD18RoundRect,0.282608X0.367392X1.317392X-0.367392X1.317392X-0.367392X-1.317392X0.367392X-1.317392X0*%
%ADD19RoundRect,0.250000X-0.650000X0.325000X-0.650000X-0.325000X0.650000X-0.325000X0.650000X0.325000X0*%
%ADD20R,1.100000X1.300000*%
%ADD21RoundRect,0.140000X-0.140000X-0.170000X0.140000X-0.170000X0.140000X0.170000X-0.140000X0.170000X0*%
%ADD22RoundRect,0.140000X-0.170000X0.140000X-0.170000X-0.140000X0.170000X-0.140000X0.170000X0.140000X0*%
%ADD23RoundRect,0.250000X-0.325000X-0.650000X0.325000X-0.650000X0.325000X0.650000X-0.325000X0.650000X0*%
%ADD24RoundRect,0.250000X-0.475000X0.250000X-0.475000X-0.250000X0.475000X-0.250000X0.475000X0.250000X0*%
%ADD25RoundRect,0.135000X-0.185000X0.135000X-0.185000X-0.135000X0.185000X-0.135000X0.185000X0.135000X0*%
%ADD26R,0.300000X1.500000*%
%ADD27R,0.900000X0.300000*%
%ADD28R,0.900000X0.250000*%
%ADD29RoundRect,0.140000X0.140000X0.170000X-0.140000X0.170000X-0.140000X-0.170000X0.140000X-0.170000X0*%
%ADD30RoundRect,0.033750X0.101250X-0.401250X0.101250X0.401250X-0.101250X0.401250X-0.101250X-0.401250X0*%
%ADD31RoundRect,0.033750X0.401250X0.101250X-0.401250X0.101250X-0.401250X-0.101250X0.401250X-0.101250X0*%
%ADD32RoundRect,0.282608X-1.317392X0.367392X-1.317392X-0.367392X1.317392X-0.367392X1.317392X0.367392X0*%
%ADD33C,1.000000*%
%ADD34RoundRect,0.282608X1.317392X-0.367392X1.317392X0.367392X-1.317392X0.367392X-1.317392X-0.367392X0*%
%ADD35R,0.254000X0.812800*%
%ADD36R,0.812800X0.254000*%
%ADD37R,2.540000X2.540000*%
%ADD38RoundRect,0.050000X-0.250000X0.500000X-0.250000X-0.500000X0.250000X-0.500000X0.250000X0.500000X0*%
G04 APERTURE END LIST*
D10*
%TO.C,U4*%
G36*
X117170000Y-78120000D02*
G01*
X115820000Y-78120000D01*
X115820000Y-77420000D01*
X117170000Y-77420000D01*
X117170000Y-78120000D01*
G37*
G36*
X118720000Y-78120000D02*
G01*
X117370000Y-78120000D01*
X117370000Y-77420000D01*
X118720000Y-77420000D01*
X118720000Y-78120000D01*
G37*
D11*
%TO.C,U2*%
X70790000Y-91770000D02*
X70790000Y-89990000D01*
X72570000Y-89990000D01*
X72570000Y-91770000D01*
X70790000Y-91770000D01*
G36*
X72570000Y-91770000D02*
G01*
X70790000Y-91770000D01*
X70790000Y-89990000D01*
X72570000Y-89990000D01*
X72570000Y-91770000D01*
G37*
X70790000Y-94570000D02*
X70790000Y-92790000D01*
X72570000Y-92790000D01*
X72570000Y-94570000D01*
X70790000Y-94570000D01*
G36*
X72570000Y-94570000D02*
G01*
X70790000Y-94570000D01*
X70790000Y-92790000D01*
X72570000Y-92790000D01*
X72570000Y-94570000D01*
G37*
X73590000Y-91770000D02*
X73590000Y-89990000D01*
X75370000Y-89990000D01*
X75370000Y-91770000D01*
X73590000Y-91770000D01*
G36*
X75370000Y-91770000D02*
G01*
X73590000Y-91770000D01*
X73590000Y-89990000D01*
X75370000Y-89990000D01*
X75370000Y-91770000D01*
G37*
X73590000Y-94570000D02*
X73590000Y-92790000D01*
X75370000Y-92790000D01*
X75370000Y-94570000D01*
X73590000Y-94570000D01*
G36*
X75370000Y-94570000D02*
G01*
X73590000Y-94570000D01*
X73590000Y-92790000D01*
X75370000Y-92790000D01*
X75370000Y-94570000D01*
G37*
%TO.C,L1*%
X124345000Y-89930000D02*
X130845000Y-89930000D01*
X130866000Y-89931000D01*
X130887000Y-89932000D01*
X130908000Y-89935000D01*
X130928000Y-89939000D01*
X130949000Y-89944000D01*
X130969000Y-89950000D01*
X130988000Y-89957000D01*
X131008000Y-89965000D01*
X131027000Y-89974000D01*
X131045000Y-89984000D01*
X131063000Y-89995000D01*
X131080000Y-90006000D01*
X131097000Y-90019000D01*
X131113000Y-90033000D01*
X131128000Y-90047000D01*
X131142000Y-90062000D01*
X131156000Y-90078000D01*
X131169000Y-90095000D01*
X131180000Y-90112000D01*
X131191000Y-90130000D01*
X131201000Y-90148000D01*
X131210000Y-90167000D01*
X131218000Y-90187000D01*
X131225000Y-90206000D01*
X131231000Y-90226000D01*
X131236000Y-90247000D01*
X131240000Y-90267000D01*
X131243000Y-90288000D01*
X131244000Y-90309000D01*
X131245000Y-90330000D01*
X131245000Y-92530000D01*
X130083000Y-92530000D01*
X130036000Y-92425000D01*
X129990000Y-92331000D01*
X129940000Y-92239000D01*
X129886000Y-92149000D01*
X129829000Y-92061000D01*
X129768000Y-91975000D01*
X129704000Y-91892000D01*
X129637000Y-91811000D01*
X129567000Y-91733000D01*
X129493000Y-91658000D01*
X129417000Y-91586000D01*
X129338000Y-91516000D01*
X129257000Y-91450000D01*
X129173000Y-91387000D01*
X129086000Y-91327000D01*
X128998000Y-91271000D01*
X128907000Y-91219000D01*
X128814000Y-91169000D01*
X128720000Y-91124000D01*
X128623000Y-91082000D01*
X128525000Y-91044000D01*
X128426000Y-91010000D01*
X128326000Y-90980000D01*
X128224000Y-90953000D01*
X128121000Y-90931000D01*
X128018000Y-90913000D01*
X127914000Y-90898000D01*
X127809000Y-90888000D01*
X127705000Y-90882000D01*
X127595000Y-90880000D01*
X127485000Y-90882000D01*
X127381000Y-90888000D01*
X127276000Y-90898000D01*
X127172000Y-90913000D01*
X127069000Y-90931000D01*
X126966000Y-90953000D01*
X126864000Y-90980000D01*
X126764000Y-91010000D01*
X126665000Y-91044000D01*
X126567000Y-91082000D01*
X126470000Y-91124000D01*
X126376000Y-91169000D01*
X126283000Y-91219000D01*
X126192000Y-91271000D01*
X126104000Y-91327000D01*
X126017000Y-91387000D01*
X125933000Y-91450000D01*
X125852000Y-91516000D01*
X125773000Y-91586000D01*
X125697000Y-91658000D01*
X125623000Y-91733000D01*
X125553000Y-91811000D01*
X125486000Y-91892000D01*
X125422000Y-91975000D01*
X125361000Y-92061000D01*
X125304000Y-92149000D01*
X125250000Y-92239000D01*
X125200000Y-92331000D01*
X125154000Y-92425000D01*
X125107000Y-92530000D01*
X123945000Y-92530000D01*
X123945000Y-90330000D01*
X123946000Y-90309000D01*
X123947000Y-90288000D01*
X123950000Y-90267000D01*
X123954000Y-90247000D01*
X123959000Y-90226000D01*
X123965000Y-90206000D01*
X123972000Y-90187000D01*
X123980000Y-90167000D01*
X123989000Y-90148000D01*
X123999000Y-90130000D01*
X124010000Y-90112000D01*
X124021000Y-90095000D01*
X124034000Y-90078000D01*
X124048000Y-90062000D01*
X124062000Y-90047000D01*
X124077000Y-90033000D01*
X124093000Y-90019000D01*
X124110000Y-90006000D01*
X124127000Y-89995000D01*
X124145000Y-89984000D01*
X124163000Y-89974000D01*
X124182000Y-89965000D01*
X124202000Y-89957000D01*
X124221000Y-89950000D01*
X124241000Y-89944000D01*
X124262000Y-89939000D01*
X124282000Y-89935000D01*
X124303000Y-89932000D01*
X124324000Y-89931000D01*
X124345000Y-89930000D01*
G36*
X130866000Y-89931000D02*
G01*
X130887000Y-89932000D01*
X130908000Y-89935000D01*
X130928000Y-89939000D01*
X130949000Y-89944000D01*
X130969000Y-89950000D01*
X130988000Y-89957000D01*
X131008000Y-89965000D01*
X131027000Y-89974000D01*
X131045000Y-89984000D01*
X131063000Y-89995000D01*
X131080000Y-90006000D01*
X131097000Y-90019000D01*
X131113000Y-90033000D01*
X131128000Y-90047000D01*
X131142000Y-90062000D01*
X131156000Y-90078000D01*
X131169000Y-90095000D01*
X131180000Y-90112000D01*
X131191000Y-90130000D01*
X131201000Y-90148000D01*
X131210000Y-90167000D01*
X131218000Y-90187000D01*
X131225000Y-90206000D01*
X131231000Y-90226000D01*
X131236000Y-90247000D01*
X131240000Y-90267000D01*
X131243000Y-90288000D01*
X131244000Y-90309000D01*
X131245000Y-90330000D01*
X131245000Y-92530000D01*
X130083000Y-92530000D01*
X130036000Y-92425000D01*
X129990000Y-92331000D01*
X129940000Y-92239000D01*
X129886000Y-92149000D01*
X129829000Y-92061000D01*
X129768000Y-91975000D01*
X129704000Y-91892000D01*
X129637000Y-91811000D01*
X129567000Y-91733000D01*
X129493000Y-91658000D01*
X129417000Y-91586000D01*
X129338000Y-91516000D01*
X129257000Y-91450000D01*
X129173000Y-91387000D01*
X129086000Y-91327000D01*
X128998000Y-91271000D01*
X128907000Y-91219000D01*
X128814000Y-91169000D01*
X128720000Y-91124000D01*
X128623000Y-91082000D01*
X128525000Y-91044000D01*
X128426000Y-91010000D01*
X128326000Y-90980000D01*
X128224000Y-90953000D01*
X128121000Y-90931000D01*
X128018000Y-90913000D01*
X127914000Y-90898000D01*
X127809000Y-90888000D01*
X127705000Y-90882000D01*
X127595000Y-90880000D01*
X127485000Y-90882000D01*
X127381000Y-90888000D01*
X127276000Y-90898000D01*
X127172000Y-90913000D01*
X127069000Y-90931000D01*
X126966000Y-90953000D01*
X126864000Y-90980000D01*
X126764000Y-91010000D01*
X126665000Y-91044000D01*
X126567000Y-91082000D01*
X126470000Y-91124000D01*
X126376000Y-91169000D01*
X126283000Y-91219000D01*
X126192000Y-91271000D01*
X126104000Y-91327000D01*
X126017000Y-91387000D01*
X125933000Y-91450000D01*
X125852000Y-91516000D01*
X125773000Y-91586000D01*
X125697000Y-91658000D01*
X125623000Y-91733000D01*
X125553000Y-91811000D01*
X125486000Y-91892000D01*
X125422000Y-91975000D01*
X125361000Y-92061000D01*
X125304000Y-92149000D01*
X125250000Y-92239000D01*
X125200000Y-92331000D01*
X125154000Y-92425000D01*
X125107000Y-92530000D01*
X123945000Y-92530000D01*
X123945000Y-90330000D01*
X123946000Y-90309000D01*
X123947000Y-90288000D01*
X123950000Y-90267000D01*
X123954000Y-90247000D01*
X123959000Y-90226000D01*
X123965000Y-90206000D01*
X123972000Y-90187000D01*
X123980000Y-90167000D01*
X123989000Y-90148000D01*
X123999000Y-90130000D01*
X124010000Y-90112000D01*
X124021000Y-90095000D01*
X124034000Y-90078000D01*
X124048000Y-90062000D01*
X124062000Y-90047000D01*
X124077000Y-90033000D01*
X124093000Y-90019000D01*
X124110000Y-90006000D01*
X124127000Y-89995000D01*
X124145000Y-89984000D01*
X124163000Y-89974000D01*
X124182000Y-89965000D01*
X124202000Y-89957000D01*
X124221000Y-89950000D01*
X124241000Y-89944000D01*
X124262000Y-89939000D01*
X124282000Y-89935000D01*
X124303000Y-89932000D01*
X124324000Y-89931000D01*
X124345000Y-89930000D01*
X130845000Y-89930000D01*
X130866000Y-89931000D01*
G37*
X131245000Y-94630000D02*
X131245000Y-96830000D01*
X131244000Y-96851000D01*
X131243000Y-96872000D01*
X131240000Y-96893000D01*
X131236000Y-96913000D01*
X131231000Y-96934000D01*
X131225000Y-96954000D01*
X131218000Y-96973000D01*
X131210000Y-96993000D01*
X131201000Y-97012000D01*
X131191000Y-97030000D01*
X131180000Y-97048000D01*
X131169000Y-97065000D01*
X131156000Y-97082000D01*
X131142000Y-97098000D01*
X131128000Y-97113000D01*
X131113000Y-97127000D01*
X131097000Y-97141000D01*
X131080000Y-97154000D01*
X131063000Y-97165000D01*
X131045000Y-97176000D01*
X131027000Y-97186000D01*
X131008000Y-97195000D01*
X130988000Y-97203000D01*
X130969000Y-97210000D01*
X130949000Y-97216000D01*
X130928000Y-97221000D01*
X130908000Y-97225000D01*
X130887000Y-97228000D01*
X130866000Y-97229000D01*
X130845000Y-97230000D01*
X124345000Y-97230000D01*
X124324000Y-97229000D01*
X124303000Y-97228000D01*
X124282000Y-97225000D01*
X124262000Y-97221000D01*
X124241000Y-97216000D01*
X124221000Y-97210000D01*
X124202000Y-97203000D01*
X124182000Y-97195000D01*
X124163000Y-97186000D01*
X124145000Y-97176000D01*
X124127000Y-97165000D01*
X124110000Y-97154000D01*
X124093000Y-97141000D01*
X124077000Y-97127000D01*
X124062000Y-97113000D01*
X124048000Y-97098000D01*
X124034000Y-97082000D01*
X124021000Y-97065000D01*
X124010000Y-97048000D01*
X123999000Y-97030000D01*
X123989000Y-97012000D01*
X123980000Y-96993000D01*
X123972000Y-96973000D01*
X123965000Y-96954000D01*
X123959000Y-96934000D01*
X123954000Y-96913000D01*
X123950000Y-96893000D01*
X123947000Y-96872000D01*
X123946000Y-96851000D01*
X123945000Y-96830000D01*
X123945000Y-94630000D01*
X125107000Y-94630000D01*
X125154000Y-94735000D01*
X125200000Y-94829000D01*
X125250000Y-94921000D01*
X125304000Y-95011000D01*
X125361000Y-95099000D01*
X125422000Y-95185000D01*
X125486000Y-95268000D01*
X125553000Y-95349000D01*
X125623000Y-95427000D01*
X125697000Y-95502000D01*
X125773000Y-95574000D01*
X125852000Y-95644000D01*
X125933000Y-95710000D01*
X126017000Y-95773000D01*
X126104000Y-95833000D01*
X126192000Y-95889000D01*
X126283000Y-95941000D01*
X126376000Y-95991000D01*
X126470000Y-96036000D01*
X126567000Y-96078000D01*
X126665000Y-96116000D01*
X126764000Y-96150000D01*
X126864000Y-96180000D01*
X126966000Y-96207000D01*
X127069000Y-96229000D01*
X127172000Y-96247000D01*
X127276000Y-96262000D01*
X127381000Y-96272000D01*
X127485000Y-96278000D01*
X127595000Y-96280000D01*
X127705000Y-96278000D01*
X127809000Y-96272000D01*
X127914000Y-96262000D01*
X128018000Y-96247000D01*
X128121000Y-96229000D01*
X128224000Y-96207000D01*
X128326000Y-96180000D01*
X128426000Y-96150000D01*
X128525000Y-96116000D01*
X128623000Y-96078000D01*
X128720000Y-96036000D01*
X128814000Y-95991000D01*
X128907000Y-95941000D01*
X128998000Y-95889000D01*
X129086000Y-95833000D01*
X129173000Y-95773000D01*
X129257000Y-95710000D01*
X129338000Y-95644000D01*
X129417000Y-95574000D01*
X129493000Y-95502000D01*
X129567000Y-95427000D01*
X129637000Y-95349000D01*
X129704000Y-95268000D01*
X129768000Y-95185000D01*
X129829000Y-95099000D01*
X129886000Y-95011000D01*
X129940000Y-94921000D01*
X129990000Y-94829000D01*
X130036000Y-94735000D01*
X130083000Y-94630000D01*
X131245000Y-94630000D01*
G36*
X125154000Y-94735000D02*
G01*
X125200000Y-94829000D01*
X125250000Y-94921000D01*
X125304000Y-95011000D01*
X125361000Y-95099000D01*
X125422000Y-95185000D01*
X125486000Y-95268000D01*
X125553000Y-95349000D01*
X125623000Y-95427000D01*
X125697000Y-95502000D01*
X125773000Y-95574000D01*
X125852000Y-95644000D01*
X125933000Y-95710000D01*
X126017000Y-95773000D01*
X126104000Y-95833000D01*
X126192000Y-95889000D01*
X126283000Y-95941000D01*
X126376000Y-95991000D01*
X126470000Y-96036000D01*
X126567000Y-96078000D01*
X126665000Y-96116000D01*
X126764000Y-96150000D01*
X126864000Y-96180000D01*
X126966000Y-96207000D01*
X127069000Y-96229000D01*
X127172000Y-96247000D01*
X127276000Y-96262000D01*
X127381000Y-96272000D01*
X127485000Y-96278000D01*
X127595000Y-96280000D01*
X127705000Y-96278000D01*
X127809000Y-96272000D01*
X127914000Y-96262000D01*
X128018000Y-96247000D01*
X128121000Y-96229000D01*
X128224000Y-96207000D01*
X128326000Y-96180000D01*
X128426000Y-96150000D01*
X128525000Y-96116000D01*
X128623000Y-96078000D01*
X128720000Y-96036000D01*
X128814000Y-95991000D01*
X128907000Y-95941000D01*
X128998000Y-95889000D01*
X129086000Y-95833000D01*
X129173000Y-95773000D01*
X129257000Y-95710000D01*
X129338000Y-95644000D01*
X129417000Y-95574000D01*
X129493000Y-95502000D01*
X129567000Y-95427000D01*
X129637000Y-95349000D01*
X129704000Y-95268000D01*
X129768000Y-95185000D01*
X129829000Y-95099000D01*
X129886000Y-95011000D01*
X129940000Y-94921000D01*
X129990000Y-94829000D01*
X130036000Y-94735000D01*
X130083000Y-94630000D01*
X131245000Y-94630000D01*
X131245000Y-96830000D01*
X131244000Y-96851000D01*
X131243000Y-96872000D01*
X131240000Y-96893000D01*
X131236000Y-96913000D01*
X131231000Y-96934000D01*
X131225000Y-96954000D01*
X131218000Y-96973000D01*
X131210000Y-96993000D01*
X131201000Y-97012000D01*
X131191000Y-97030000D01*
X131180000Y-97048000D01*
X131169000Y-97065000D01*
X131156000Y-97082000D01*
X131142000Y-97098000D01*
X131128000Y-97113000D01*
X131113000Y-97127000D01*
X131097000Y-97141000D01*
X131080000Y-97154000D01*
X131063000Y-97165000D01*
X131045000Y-97176000D01*
X131027000Y-97186000D01*
X131008000Y-97195000D01*
X130988000Y-97203000D01*
X130969000Y-97210000D01*
X130949000Y-97216000D01*
X130928000Y-97221000D01*
X130908000Y-97225000D01*
X130887000Y-97228000D01*
X130866000Y-97229000D01*
X130845000Y-97230000D01*
X124345000Y-97230000D01*
X124324000Y-97229000D01*
X124303000Y-97228000D01*
X124282000Y-97225000D01*
X124262000Y-97221000D01*
X124241000Y-97216000D01*
X124221000Y-97210000D01*
X124202000Y-97203000D01*
X124182000Y-97195000D01*
X124163000Y-97186000D01*
X124145000Y-97176000D01*
X124127000Y-97165000D01*
X124110000Y-97154000D01*
X124093000Y-97141000D01*
X124077000Y-97127000D01*
X124062000Y-97113000D01*
X124048000Y-97098000D01*
X124034000Y-97082000D01*
X124021000Y-97065000D01*
X124010000Y-97048000D01*
X123999000Y-97030000D01*
X123989000Y-97012000D01*
X123980000Y-96993000D01*
X123972000Y-96973000D01*
X123965000Y-96954000D01*
X123959000Y-96934000D01*
X123954000Y-96913000D01*
X123950000Y-96893000D01*
X123947000Y-96872000D01*
X123946000Y-96851000D01*
X123945000Y-96830000D01*
X123945000Y-94630000D01*
X125107000Y-94630000D01*
X125154000Y-94735000D01*
G37*
%TD*%
D12*
%TO.C,J3*%
X95030000Y-98005000D03*
X95830000Y-98005000D03*
D13*
X96980000Y-98005000D03*
X97980000Y-98005000D03*
X98480000Y-98005000D03*
X99480000Y-98005000D03*
D12*
X101430000Y-98005000D03*
X100630000Y-98005000D03*
D13*
X99980000Y-98005000D03*
X98980000Y-98005000D03*
X97480000Y-98005000D03*
X96480000Y-98005000D03*
%TD*%
D14*
%TO.C,R17*%
X78280000Y-85570000D03*
X79300000Y-85570000D03*
%TD*%
D15*
%TO.C,C6*%
X126310000Y-100960000D03*
X126310000Y-100000000D03*
%TD*%
D16*
%TO.C,R20*%
X102930000Y-93860000D03*
X101910000Y-93860000D03*
%TD*%
D14*
%TO.C,R10*%
X101880000Y-96210000D03*
X102900000Y-96210000D03*
%TD*%
D17*
%TO.C,R16*%
X83380000Y-89250000D03*
X83380000Y-88230000D03*
%TD*%
D14*
%TO.C,R18*%
X101910000Y-94910000D03*
X102930000Y-94910000D03*
%TD*%
D18*
%TO.C,C12*%
X107630000Y-84560000D03*
X103330000Y-84560000D03*
%TD*%
D19*
%TO.C,C2*%
X116800000Y-98375000D03*
X116800000Y-101325000D03*
%TD*%
D20*
%TO.C,Y1*%
X74230000Y-100220000D03*
X74230000Y-97920000D03*
X72330000Y-97920000D03*
X72330000Y-100220000D03*
%TD*%
D21*
%TO.C,C22*%
X119750000Y-81480000D03*
X120710000Y-81480000D03*
%TD*%
D15*
%TO.C,C3*%
X75660000Y-99570000D03*
X75660000Y-98610000D03*
%TD*%
D22*
%TO.C,C23*%
X114920000Y-80780000D03*
X114920000Y-81740000D03*
%TD*%
D23*
%TO.C,C25*%
X117215000Y-84220000D03*
X120165000Y-84220000D03*
%TD*%
%TO.C,C21*%
X117175000Y-70640000D03*
X120125000Y-70640000D03*
%TD*%
D18*
%TO.C,C19*%
X107630000Y-80430000D03*
X103330000Y-80430000D03*
%TD*%
D24*
%TO.C,C5*%
X121505000Y-98285000D03*
X121505000Y-100185000D03*
%TD*%
D25*
%TO.C,R15*%
X85900000Y-88210000D03*
X85900000Y-89230000D03*
%TD*%
D18*
%TO.C,C18*%
X107610000Y-76250000D03*
X103310000Y-76250000D03*
%TD*%
D19*
%TO.C,C4*%
X119275000Y-98355000D03*
X119275000Y-101305000D03*
%TD*%
D16*
%TO.C,R4*%
X68110000Y-93030000D03*
X67090000Y-93030000D03*
%TD*%
D26*
%TO.C,U4*%
X118670252Y-76220001D03*
X117970126Y-76220001D03*
X117270000Y-76220001D03*
X116569874Y-76220001D03*
X115869748Y-76220001D03*
D27*
X114920000Y-76219622D03*
D28*
X114920000Y-76769748D03*
X114920000Y-77269874D03*
X114920000Y-77770000D03*
X114920000Y-78270126D03*
X114920000Y-78770252D03*
D27*
X114920000Y-79320378D03*
D26*
X115869748Y-79319999D03*
X116569874Y-79319999D03*
X117270000Y-79319999D03*
X117970126Y-79319999D03*
X118670252Y-79319999D03*
D27*
X119620000Y-79320378D03*
D28*
X119620000Y-78770252D03*
X119620000Y-78270126D03*
X119620000Y-77770000D03*
X119620000Y-77269874D03*
X119620000Y-76769748D03*
D27*
X119620000Y-76219622D03*
%TD*%
D29*
%TO.C,C24*%
X113590000Y-78770000D03*
X112630000Y-78770000D03*
%TD*%
D30*
%TO.C,U2*%
X70330000Y-95710000D03*
X70830000Y-95710000D03*
X71330000Y-95710000D03*
X71830000Y-95710000D03*
X72330000Y-95710000D03*
X72830000Y-95710000D03*
X73330000Y-95710000D03*
X73830000Y-95710000D03*
X74330000Y-95710000D03*
X74830000Y-95710000D03*
X75330000Y-95710000D03*
X75830000Y-95710000D03*
D31*
X76510000Y-95030000D03*
X76510000Y-94530000D03*
X76510000Y-94030000D03*
X76510000Y-93530000D03*
X76510000Y-93030000D03*
X76510000Y-92530000D03*
X76510000Y-92030000D03*
X76510000Y-91530000D03*
X76510000Y-91030000D03*
X76510000Y-90530000D03*
X76510000Y-90030000D03*
X76510000Y-89530000D03*
D30*
X75830000Y-88850000D03*
X75330000Y-88850000D03*
X74830000Y-88850000D03*
X74330000Y-88850000D03*
X73830000Y-88850000D03*
X73330000Y-88850000D03*
X72830000Y-88850000D03*
X72330000Y-88850000D03*
X71830000Y-88850000D03*
X71330000Y-88850000D03*
X70830000Y-88850000D03*
X70330000Y-88850000D03*
D31*
X69650000Y-89530000D03*
X69650000Y-90030000D03*
X69650000Y-90530000D03*
X69650000Y-91030000D03*
X69650000Y-91530000D03*
X69650000Y-92030000D03*
X69650000Y-92530000D03*
X69650000Y-93030000D03*
X69650000Y-93530000D03*
X69650000Y-94030000D03*
X69650000Y-94530000D03*
X69650000Y-95030000D03*
%TD*%
D32*
%TO.C,C11*%
X121795000Y-90440000D03*
X121795000Y-94740000D03*
%TD*%
D14*
%TO.C,R23*%
X61670000Y-91130000D03*
X62690000Y-91130000D03*
%TD*%
D16*
%TO.C,R11*%
X94640000Y-96040000D03*
X93620000Y-96040000D03*
%TD*%
D33*
%TO.C,F2*%
X112290000Y-101620000D03*
%TD*%
D21*
%TO.C,C20*%
X119750000Y-74070000D03*
X120710000Y-74070000D03*
%TD*%
D33*
%TO.C,F1*%
X59230000Y-74720000D03*
%TD*%
D16*
%TO.C,R2*%
X125190000Y-102250000D03*
X124170000Y-102250000D03*
%TD*%
D34*
%TO.C,C17*%
X114420000Y-71180000D03*
X114420000Y-66880000D03*
%TD*%
D35*
%TO.C,U3*%
X96970000Y-96057140D03*
X97469999Y-96057140D03*
X97970000Y-96057140D03*
X98470000Y-96057140D03*
X98970001Y-96057140D03*
X99470000Y-96057140D03*
D36*
X100112300Y-95414840D03*
X100112300Y-94914841D03*
X100112300Y-94414840D03*
X100112300Y-93914840D03*
X100112300Y-93414839D03*
X100112300Y-92914840D03*
D35*
X99470000Y-92272540D03*
X98970001Y-92272540D03*
X98470000Y-92272540D03*
X97970000Y-92272540D03*
X97469999Y-92272540D03*
X96970000Y-92272540D03*
D36*
X96327700Y-92914840D03*
X96327700Y-93414839D03*
X96327700Y-93914840D03*
X96327700Y-94414840D03*
X96327700Y-94914841D03*
X96327700Y-95414840D03*
D37*
X98220000Y-94164840D03*
%TD*%
D21*
%TO.C,C16*%
X121990000Y-77760000D03*
X122950000Y-77760000D03*
%TD*%
D16*
%TO.C,R3*%
X123190000Y-102250000D03*
X122170000Y-102250000D03*
%TD*%
%TO.C,R19*%
X81930000Y-85580000D03*
X80910000Y-85580000D03*
%TD*%
D25*
%TO.C,R21*%
X86940000Y-88180000D03*
X86940000Y-89200000D03*
%TD*%
%TO.C,R22*%
X84440000Y-88220000D03*
X84440000Y-89240000D03*
%TD*%
D34*
%TO.C,C13*%
X110630000Y-74700000D03*
X110630000Y-70400000D03*
%TD*%
D29*
%TO.C,C26*%
X62690000Y-90100000D03*
X61730000Y-90100000D03*
%TD*%
D38*
%TO.C,U1*%
X125100000Y-98260000D03*
X124150000Y-98260000D03*
X123200000Y-98260000D03*
X123200000Y-100960000D03*
X124150000Y-100960000D03*
X125100000Y-100960000D03*
%TD*%
M02*
