%TF.GenerationSoftware,KiCad,Pcbnew,10.0.3*%
%TF.CreationDate,2026-09-20T11:28:41-06:00*%
%TF.ProjectId,filter_actuator_rev1,66696c74-6572-45f6-9163-747561746f72,1.0*%
%TF.SameCoordinates,Original*%
%TF.FileFunction,Copper,L1,Top*%
%TF.FilePolarity,Positive*%
%FSLAX46Y46*%
G04 Gerber Fmt 4.6, Leading zero omitted, Abs format (unit mm)*
G04 Created by KiCad (PCBNEW 10.0.3) date 2026-09-20 11:28:41*
%MOMM*%
%LPD*%
G01*
G04 APERTURE LIST*
G04 Aperture macros list*
%AMRoundRect*
0 Rectangle with rounded corners*
0 $1 Rounding radius*
0 $2 $3 $4 $5 $6 $7 $8 $9 X,Y pos of 4 corners*
0 Add a 4 corners polygon primitive as box body*
4,1,4,$2,$3,$4,$5,$6,$7,$8,$9,$2,$3,0*
0 Add four circle primitives for the rounded corners*
1,1,$1+$1,$2,$3*
1,1,$1+$1,$4,$5*
1,1,$1+$1,$6,$7*
1,1,$1+$1,$8,$9*
0 Add four rect primitives between the rounded corners*
20,1,$1+$1,$2,$3,$4,$5,0*
20,1,$1+$1,$4,$5,$6,$7,0*
20,1,$1+$1,$6,$7,$8,$9,0*
20,1,$1+$1,$8,$9,$2,$3,0*%
%AMFreePoly0*
4,1,188,2.128536,3.653536,2.130000,3.650000,2.130000,2.488000,2.128536,2.484464,2.127043,2.483436,2.022111,2.436466,1.928295,2.390556,1.836465,2.340649,1.746667,2.286770,1.658801,2.229856,1.572979,2.168983,1.490121,2.105092,1.409262,2.038209,1.331426,1.968356,1.256578,1.894506,1.184676,1.818610,1.114807,1.739757,1.048945,1.658926,0.986061,1.575082,0.926159,1.488224,
0.870286,1.400423,0.818379,1.309585,0.768458,1.216732,0.723546,1.122918,0.681631,1.026114,0.643695,0.928277,0.609759,0.829465,0.579816,0.729653,0.552864,0.627834,0.530906,0.525033,0.512941,0.422230,0.497964,0.318390,0.487987,0.213639,0.481996,0.109798,0.480000,0.000000,0.481996,-0.109798,0.487987,-0.213639,0.497964,-0.318390,0.512941,-0.422230,0.530906,-0.525033,
0.552864,-0.627834,0.579816,-0.729653,0.609759,-0.829465,0.643695,-0.928277,0.681631,-1.026114,0.723546,-1.122918,0.768458,-1.216732,0.818379,-1.309585,0.870286,-1.400423,0.926159,-1.488224,0.986061,-1.575082,1.048945,-1.658926,1.114807,-1.739757,1.184676,-1.818610,1.256578,-1.894506,1.331426,-1.968356,1.409262,-2.038209,1.490121,-2.105092,1.572979,-2.168983,1.658801,-2.229856,
1.746667,-2.286770,1.836465,-2.340649,1.928295,-2.390556,2.022111,-2.436466,2.127043,-2.483436,2.129671,-2.486217,2.130000,-2.488000,2.130000,-3.650000,2.128536,-3.653536,2.125000,-3.655000,-0.075000,-3.655000,-0.075238,-3.654994,-0.117238,-3.652994,-0.117707,-3.652950,-0.138707,-3.649950,-0.138981,-3.649903,-0.158981,-3.645903,-0.159158,-3.645864,-0.180158,-3.640864,-0.180437,-3.640789,
-0.200437,-3.634789,-0.200729,-3.634692,-0.219729,-3.627692,-0.219857,-3.627642,-0.239857,-3.619642,-0.240140,-3.619519,-0.259140,-3.610519,-0.259428,-3.610371,-0.277428,-3.600371,-0.277607,-3.600266,-0.295607,-3.589266,-0.295716,-3.589198,-0.312716,-3.578198,-0.313037,-3.577972,-0.330037,-3.564972,-0.330293,-3.564763,-0.346293,-3.550763,-0.346412,-3.550655,-0.361412,-3.536655,-0.361655,-3.536412,
-0.375655,-3.521412,-0.375763,-3.521293,-0.389763,-3.505293,-0.389972,-3.505037,-0.402972,-3.488037,-0.403198,-3.487716,-0.414198,-3.470716,-0.414266,-3.470607,-0.425266,-3.452607,-0.425371,-3.452428,-0.435371,-3.434428,-0.435519,-3.434140,-0.444519,-3.415140,-0.444642,-3.414857,-0.452642,-3.394857,-0.452692,-3.394729,-0.459692,-3.375729,-0.459789,-3.375437,-0.465789,-3.355437,-0.465864,-3.355158,
-0.470864,-3.334158,-0.470903,-3.333981,-0.474903,-3.313981,-0.474950,-3.313707,-0.477950,-3.292707,-0.477994,-3.292238,-0.479994,-3.250238,-0.480000,-3.250000,-0.480000,3.250000,-0.479994,3.250238,-0.477994,3.292238,-0.477950,3.292707,-0.474950,3.313707,-0.474903,3.313981,-0.470903,3.333981,-0.470864,3.334158,-0.465864,3.355158,-0.465789,3.355437,-0.459789,3.375437,-0.459692,3.375729,
-0.452692,3.394729,-0.452642,3.394857,-0.444642,3.414857,-0.444519,3.415140,-0.435519,3.434140,-0.435371,3.434428,-0.425371,3.452428,-0.425266,3.452607,-0.414266,3.470607,-0.414198,3.470716,-0.403198,3.487716,-0.402972,3.488037,-0.389972,3.505037,-0.389763,3.505293,-0.375763,3.521293,-0.375655,3.521412,-0.361655,3.536412,-0.361412,3.536655,-0.346412,3.550655,-0.346293,3.550763,
-0.330293,3.564763,-0.330037,3.564972,-0.313037,3.577972,-0.312716,3.578198,-0.295716,3.589198,-0.295607,3.589266,-0.277607,3.600266,-0.277428,3.600371,-0.259428,3.610371,-0.259140,3.610519,-0.240140,3.619519,-0.239857,3.619642,-0.219857,3.627642,-0.219729,3.627692,-0.200729,3.634692,-0.200437,3.634789,-0.180437,3.640789,-0.180158,3.640864,-0.159158,3.645864,-0.158981,3.645903,
-0.138981,3.649903,-0.138707,3.649950,-0.117707,3.652950,-0.117238,3.652994,-0.075238,3.654994,-0.075000,3.655000,2.125000,3.655000,2.128536,3.653536,2.128536,3.653536,$1*%
%AMFreePoly1*
4,1,188,0.075238,3.654994,0.117238,3.652994,0.117707,3.652950,0.138707,3.649950,0.138981,3.649903,0.158981,3.645903,0.159158,3.645864,0.180158,3.640864,0.180437,3.640789,0.200437,3.634789,0.200729,3.634692,0.219729,3.627692,0.219857,3.627642,0.239857,3.619642,0.240140,3.619519,0.259140,3.610519,0.259428,3.610371,0.277428,3.600371,0.277607,3.600266,0.295607,3.589266,
0.295716,3.589198,0.312716,3.578198,0.313037,3.577972,0.330037,3.564972,0.330293,3.564763,0.346293,3.550763,0.346412,3.550655,0.361412,3.536655,0.361655,3.536412,0.375655,3.521412,0.375763,3.521293,0.389763,3.505293,0.389972,3.505037,0.402972,3.488037,0.403198,3.487716,0.414198,3.470716,0.414266,3.470607,0.425266,3.452607,0.425371,3.452428,0.435371,3.434428,
0.435519,3.434140,0.444519,3.415140,0.444642,3.414857,0.452642,3.394857,0.452692,3.394729,0.459692,3.375729,0.459789,3.375437,0.465789,3.355437,0.465864,3.355158,0.470864,3.334158,0.470903,3.333981,0.474903,3.313981,0.474950,3.313707,0.477950,3.292707,0.477994,3.292238,0.479994,3.250238,0.480000,3.250000,0.480000,-3.250000,0.479994,-3.250238,0.477994,-3.292238,
0.477950,-3.292707,0.474950,-3.313707,0.474903,-3.313981,0.470903,-3.333981,0.470864,-3.334158,0.465864,-3.355158,0.465789,-3.355437,0.459789,-3.375437,0.459692,-3.375729,0.452692,-3.394729,0.452642,-3.394857,0.444642,-3.414857,0.444519,-3.415140,0.435519,-3.434140,0.435371,-3.434428,0.425371,-3.452428,0.425266,-3.452607,0.414266,-3.470607,0.414198,-3.470716,0.403198,-3.487716,
0.402972,-3.488037,0.389972,-3.505037,0.389763,-3.505293,0.375763,-3.521293,0.375655,-3.521412,0.361655,-3.536412,0.361412,-3.536655,0.346412,-3.550655,0.346293,-3.550763,0.330293,-3.564763,0.330037,-3.564972,0.313037,-3.577972,0.312716,-3.578198,0.295716,-3.589198,0.295607,-3.589266,0.277607,-3.600266,0.277428,-3.600371,0.259428,-3.610371,0.259140,-3.610519,0.240140,-3.619519,
0.239857,-3.619642,0.219857,-3.627642,0.219729,-3.627692,0.200729,-3.634692,0.200437,-3.634789,0.180437,-3.640789,0.180158,-3.640864,0.159158,-3.645864,0.158981,-3.645903,0.138981,-3.649903,0.138707,-3.649950,0.117707,-3.652950,0.117238,-3.652994,0.075238,-3.654994,0.075000,-3.655000,-2.125000,-3.655000,-2.128536,-3.653536,-2.130000,-3.650000,-2.130000,-2.488000,-2.128536,-2.484464,
-2.127043,-2.483436,-2.022111,-2.436466,-1.928295,-2.390556,-1.836465,-2.340649,-1.746667,-2.286770,-1.658801,-2.229856,-1.572979,-2.168983,-1.490121,-2.105092,-1.409262,-2.038209,-1.331426,-1.968356,-1.256578,-1.894506,-1.184676,-1.818610,-1.114807,-1.739757,-1.048945,-1.658926,-0.986061,-1.575082,-0.926159,-1.488224,-0.870286,-1.400423,-0.818379,-1.309585,-0.768458,-1.216732,-0.723546,-1.122918,
-0.681631,-1.026114,-0.643695,-0.928277,-0.609759,-0.829465,-0.579816,-0.729653,-0.552864,-0.627834,-0.530906,-0.525033,-0.512941,-0.422230,-0.497964,-0.318390,-0.487987,-0.213639,-0.481996,-0.109798,-0.480000,0.000000,-0.481996,0.109798,-0.487987,0.213639,-0.497964,0.318390,-0.512941,0.422230,-0.530906,0.525033,-0.552864,0.627834,-0.579816,0.729653,-0.609759,0.829465,-0.643695,0.928277,
-0.681631,1.026114,-0.723546,1.122918,-0.768458,1.216732,-0.818379,1.309585,-0.870286,1.400423,-0.926159,1.488224,-0.986061,1.575082,-1.048945,1.658926,-1.114807,1.739757,-1.184676,1.818610,-1.256578,1.894506,-1.331426,1.968356,-1.409262,2.038209,-1.490121,2.105092,-1.572979,2.168983,-1.658801,2.229856,-1.746667,2.286770,-1.836465,2.340649,-1.928295,2.390556,-2.022111,2.436466,
-2.127043,2.483436,-2.129671,2.486217,-2.130000,2.488000,-2.130000,3.650000,-2.128536,3.653536,-2.125000,3.655000,0.075000,3.655000,0.075238,3.654994,0.075238,3.654994,$1*%
G04 Aperture macros list end*
%TA.AperFunction,SMDPad,CuDef*%
%ADD10R,0.600000X1.150000*%
%TD*%
%TA.AperFunction,SMDPad,CuDef*%
%ADD11R,0.300000X1.150000*%
%TD*%
%TA.AperFunction,ComponentPad*%
%ADD12O,1.000000X1.800000*%
%TD*%
%TA.AperFunction,ComponentPad*%
%ADD13O,1.000000X2.100000*%
%TD*%
%TA.AperFunction,SMDPad,CuDef*%
%ADD14RoundRect,0.135000X-0.135000X-0.185000X0.135000X-0.185000X0.135000X0.185000X-0.135000X0.185000X0*%
%TD*%
%TA.AperFunction,SMDPad,CuDef*%
%ADD15RoundRect,0.140000X0.170000X-0.140000X0.170000X0.140000X-0.170000X0.140000X-0.170000X-0.140000X0*%
%TD*%
%TA.AperFunction,SMDPad,CuDef*%
%ADD16RoundRect,0.135000X0.135000X0.185000X-0.135000X0.185000X-0.135000X-0.185000X0.135000X-0.185000X0*%
%TD*%
%TA.AperFunction,ComponentPad*%
%ADD17R,1.530000X1.530000*%
%TD*%
%TA.AperFunction,ComponentPad*%
%ADD18C,1.530000*%
%TD*%
%TA.AperFunction,SMDPad,CuDef*%
%ADD19RoundRect,0.135000X0.185000X-0.135000X0.185000X0.135000X-0.185000X0.135000X-0.185000X-0.135000X0*%
%TD*%
%TA.AperFunction,SMDPad,CuDef*%
%ADD20RoundRect,0.282608X0.367392X1.317392X-0.367392X1.317392X-0.367392X-1.317392X0.367392X-1.317392X0*%
%TD*%
%TA.AperFunction,SMDPad,CuDef*%
%ADD21RoundRect,0.250000X-0.650000X0.325000X-0.650000X-0.325000X0.650000X-0.325000X0.650000X0.325000X0*%
%TD*%
%TA.AperFunction,SMDPad,CuDef*%
%ADD22R,1.100000X1.300000*%
%TD*%
%TA.AperFunction,SMDPad,CuDef*%
%ADD23RoundRect,0.140000X-0.140000X-0.170000X0.140000X-0.170000X0.140000X0.170000X-0.140000X0.170000X0*%
%TD*%
%TA.AperFunction,SMDPad,CuDef*%
%ADD24RoundRect,0.140000X-0.170000X0.140000X-0.170000X-0.140000X0.170000X-0.140000X0.170000X0.140000X0*%
%TD*%
%TA.AperFunction,SMDPad,CuDef*%
%ADD25RoundRect,0.250000X-0.325000X-0.650000X0.325000X-0.650000X0.325000X0.650000X-0.325000X0.650000X0*%
%TD*%
%TA.AperFunction,SMDPad,CuDef*%
%ADD26RoundRect,0.250000X-0.475000X0.250000X-0.475000X-0.250000X0.475000X-0.250000X0.475000X0.250000X0*%
%TD*%
%TA.AperFunction,SMDPad,CuDef*%
%ADD27RoundRect,0.135000X-0.185000X0.135000X-0.185000X-0.135000X0.185000X-0.135000X0.185000X0.135000X0*%
%TD*%
%TA.AperFunction,SMDPad,CuDef*%
%ADD28R,0.300000X1.500000*%
%TD*%
%TA.AperFunction,SMDPad,CuDef*%
%ADD29R,0.900000X0.300000*%
%TD*%
%TA.AperFunction,SMDPad,CuDef*%
%ADD30R,0.900000X0.250000*%
%TD*%
%TA.AperFunction,SMDPad,CuDef*%
%ADD31R,3.099999X0.900000*%
%TD*%
%TA.AperFunction,SMDPad,CuDef*%
%ADD32RoundRect,0.140000X0.140000X0.170000X-0.140000X0.170000X-0.140000X-0.170000X0.140000X-0.170000X0*%
%TD*%
%TA.AperFunction,SMDPad,CuDef*%
%ADD33RoundRect,0.033750X0.101250X-0.401250X0.101250X0.401250X-0.101250X0.401250X-0.101250X-0.401250X0*%
%TD*%
%TA.AperFunction,SMDPad,CuDef*%
%ADD34RoundRect,0.033750X0.401250X0.101250X-0.401250X0.101250X-0.401250X-0.101250X0.401250X-0.101250X0*%
%TD*%
%TA.AperFunction,ComponentPad*%
%ADD35C,0.457200*%
%TD*%
%TA.AperFunction,SMDPad,CuDef*%
%ADD36R,5.600000X5.600000*%
%TD*%
%TA.AperFunction,SMDPad,CuDef*%
%ADD37FreePoly0,90.000000*%
%TD*%
%TA.AperFunction,SMDPad,CuDef*%
%ADD38FreePoly1,90.000000*%
%TD*%
%TA.AperFunction,SMDPad,CuDef*%
%ADD39RoundRect,0.282608X-1.317392X0.367392X-1.317392X-0.367392X1.317392X-0.367392X1.317392X0.367392X0*%
%TD*%
%TA.AperFunction,SMDPad,CuDef*%
%ADD40C,1.000000*%
%TD*%
%TA.AperFunction,SMDPad,CuDef*%
%ADD41RoundRect,0.282608X1.317392X-0.367392X1.317392X0.367392X-1.317392X0.367392X-1.317392X-0.367392X0*%
%TD*%
%TA.AperFunction,SMDPad,CuDef*%
%ADD42R,0.254000X0.812800*%
%TD*%
%TA.AperFunction,SMDPad,CuDef*%
%ADD43R,0.812800X0.254000*%
%TD*%
%TA.AperFunction,SMDPad,CuDef*%
%ADD44R,2.540000X2.540000*%
%TD*%
%TA.AperFunction,ComponentPad*%
%ADD45RoundRect,0.700000X1.250000X-0.000010X1.250000X0.000010X-1.250000X0.000010X-1.250000X-0.000010X0*%
%TD*%
%TA.AperFunction,ComponentPad*%
%ADD46RoundRect,0.700000X1.000000X-0.000010X1.000000X0.000010X-1.000000X0.000010X-1.000000X-0.000010X0*%
%TD*%
%TA.AperFunction,ComponentPad*%
%ADD47RoundRect,0.700000X0.000010X1.000000X-0.000010X1.000000X-0.000010X-1.000000X0.000010X-1.000000X0*%
%TD*%
%TA.AperFunction,SMDPad,CuDef*%
%ADD48RoundRect,0.050000X-0.250000X0.500000X-0.250000X-0.500000X0.250000X-0.500000X0.250000X0.500000X0*%
%TD*%
%TA.AperFunction,ViaPad*%
%ADD49C,0.457200*%
%TD*%
%TA.AperFunction,ViaPad*%
%ADD50C,1.200000*%
%TD*%
%TA.AperFunction,Conductor*%
%ADD51C,0.127000*%
%TD*%
%TA.AperFunction,Conductor*%
%ADD52C,0.254000*%
%TD*%
%TA.AperFunction,Conductor*%
%ADD53C,0.228600*%
%TD*%
G04 APERTURE END LIST*
D10*
%TO.P,J3,A1/B12,GND_A1/B12*%
%TO.N,GND*%
X95030000Y-98005000D03*
%TO.P,J3,A4/B9,VBUS_A4/B9*%
%TO.N,VBUS*%
X95830000Y-98005000D03*
D11*
%TO.P,J3,A5,CC1_A5*%
%TO.N,Net-(J3-CC1)*%
X96980000Y-98005000D03*
%TO.P,J3,A6,Dp1_A6*%
%TO.N,/USB_D+*%
X97980000Y-98005000D03*
%TO.P,J3,A7,Dn1_A7*%
%TO.N,/USB_D-*%
X98480000Y-98005000D03*
%TO.P,J3,A8,SBU1_A8*%
%TO.N,unconnected-(J3-SBU1-PadA8)*%
X99480000Y-98005000D03*
D10*
%TO.P,J3,B1/A12,GND_B1/A12*%
%TO.N,GND*%
X101430000Y-98005000D03*
%TO.P,J3,B4/A9,VBUS_B4/A9*%
%TO.N,VBUS*%
X100630000Y-98005000D03*
D11*
%TO.P,J3,B5,CC2_B5*%
%TO.N,Net-(J3-CC2)*%
X99980000Y-98005000D03*
%TO.P,J3,B6,Dp2_B6*%
%TO.N,/USB_D+*%
X98980000Y-98005000D03*
%TO.P,J3,B7,Dn2_B7*%
%TO.N,/USB_D-*%
X97480000Y-98005000D03*
%TO.P,J3,B8,SBU2_B8*%
%TO.N,unconnected-(J3-SBU2-PadB8)*%
X96480000Y-98005000D03*
D12*
%TO.P,J3,SH1,GND_SH1*%
%TO.N,GND*%
X93910000Y-102910000D03*
%TO.P,J3,SH2,GND_SH2*%
X102550000Y-102910000D03*
D13*
%TO.P,J3,SH3,GND_SH3*%
X93910000Y-98730000D03*
%TO.P,J3,SH4,GND_SH4*%
X102550000Y-98730000D03*
%TD*%
D14*
%TO.P,R17,1*%
%TO.N,+3.3V*%
X78280000Y-85570000D03*
%TO.P,R17,2*%
%TO.N,/MP6602_SLEEP*%
X79300000Y-85570000D03*
%TD*%
D15*
%TO.P,C6,1*%
%TO.N,Net-(U1-BOOT)*%
X126310000Y-100960000D03*
%TO.P,C6,2*%
%TO.N,Net-(U1-SW)*%
X126310000Y-100000000D03*
%TD*%
D16*
%TO.P,R20,1*%
%TO.N,+3.3V*%
X102930000Y-93860000D03*
%TO.P,R20,2*%
%TO.N,/CP_nRST*%
X101910000Y-93860000D03*
%TD*%
D17*
%TO.P,J5,1*%
%TO.N,/AOUT2*%
X124737500Y-73960000D03*
D18*
%TO.P,J5,2*%
%TO.N,/AOUT1*%
X124737500Y-76500000D03*
%TO.P,J5,3*%
%TO.N,/BOUT1*%
X124737500Y-79040000D03*
%TO.P,J5,4*%
%TO.N,/BOUT2*%
X124737500Y-81580000D03*
%TD*%
D14*
%TO.P,R10,1*%
%TO.N,Net-(J3-CC2)*%
X101880000Y-96210000D03*
%TO.P,R10,2*%
%TO.N,GND*%
X102900000Y-96210000D03*
%TD*%
D19*
%TO.P,R16,1*%
%TO.N,/STEP*%
X83380000Y-89250000D03*
%TO.P,R16,2*%
%TO.N,GND*%
X83380000Y-88230000D03*
%TD*%
D14*
%TO.P,R18,1*%
%TO.N,Net-(U3-VBUS)*%
X101910000Y-94910000D03*
%TO.P,R18,2*%
%TO.N,+3.3V*%
X102930000Y-94910000D03*
%TD*%
D20*
%TO.P,C12,1*%
%TO.N,+12V*%
X107630000Y-84560000D03*
%TO.P,C12,2*%
%TO.N,GND*%
X103330000Y-84560000D03*
%TD*%
D21*
%TO.P,C2,1*%
%TO.N,+12V*%
X116800000Y-98375000D03*
%TO.P,C2,2*%
%TO.N,GND*%
X116800000Y-101325000D03*
%TD*%
D22*
%TO.P,Y1,1,EN_1*%
%TO.N,+3.3V*%
X74230000Y-100220000D03*
%TO.P,Y1,2,GND_2*%
%TO.N,GND*%
X74230000Y-97920000D03*
%TO.P,Y1,3,OUT_3*%
%TO.N,Net-(U2-PF0_OSC_IN)*%
X72330000Y-97920000D03*
%TO.P,Y1,4,VDD_4*%
%TO.N,+3.3V*%
X72330000Y-100220000D03*
%TD*%
D23*
%TO.P,C22,1*%
%TO.N,+12V*%
X119750000Y-81480000D03*
%TO.P,C22,2*%
%TO.N,GND*%
X120710000Y-81480000D03*
%TD*%
D15*
%TO.P,C3,1*%
%TO.N,+3.3V*%
X75660000Y-99570000D03*
%TO.P,C3,2*%
%TO.N,GND*%
X75660000Y-98610000D03*
%TD*%
D24*
%TO.P,C23,1*%
%TO.N,Net-(U4-VCP)*%
X114920000Y-80780000D03*
%TO.P,C23,2*%
%TO.N,+12V*%
X114920000Y-81740000D03*
%TD*%
D25*
%TO.P,C25,1*%
%TO.N,+12V*%
X117215000Y-84220000D03*
%TO.P,C25,2*%
%TO.N,GND*%
X120165000Y-84220000D03*
%TD*%
%TO.P,C21,1*%
%TO.N,+12V*%
X117175000Y-70640000D03*
%TO.P,C21,2*%
%TO.N,GND*%
X120125000Y-70640000D03*
%TD*%
D20*
%TO.P,C19,1*%
%TO.N,+12V*%
X107630000Y-80430000D03*
%TO.P,C19,2*%
%TO.N,GND*%
X103330000Y-80430000D03*
%TD*%
D26*
%TO.P,C5,1*%
%TO.N,+12V*%
X121505000Y-98285000D03*
%TO.P,C5,2*%
%TO.N,GND*%
X121505000Y-100185000D03*
%TD*%
D27*
%TO.P,R15,1*%
%TO.N,+3.3V*%
X85900000Y-88210000D03*
%TO.P,R15,2*%
%TO.N,/MP6602_nFAULT*%
X85900000Y-89230000D03*
%TD*%
D17*
%TO.P,J4,1*%
%TO.N,GND*%
X64642500Y-86040000D03*
D18*
%TO.P,J4,2*%
%TO.N,/LMT_SW*%
X64642500Y-83500000D03*
%TD*%
D20*
%TO.P,C18,1*%
%TO.N,+12V*%
X107610000Y-76250000D03*
%TO.P,C18,2*%
%TO.N,GND*%
X103310000Y-76250000D03*
%TD*%
D21*
%TO.P,C4,1*%
%TO.N,+12V*%
X119275000Y-98355000D03*
%TO.P,C4,2*%
%TO.N,GND*%
X119275000Y-101305000D03*
%TD*%
D16*
%TO.P,R4,1*%
%TO.N,Net-(U2-PF11-BOOT0)*%
X68110000Y-93030000D03*
%TO.P,R4,2*%
%TO.N,GND*%
X67090000Y-93030000D03*
%TD*%
D28*
%TO.P,U4,1,PGND_1*%
%TO.N,GND*%
X118670252Y-76220001D03*
%TO.P,U4,2,AOUT1_2*%
%TO.N,/AOUT1*%
X117970126Y-76220001D03*
%TO.P,U4,3,VIN_3*%
%TO.N,+12V*%
X117270000Y-76220001D03*
%TO.P,U4,4,AOUT2_4*%
%TO.N,/AOUT2*%
X116569874Y-76220001D03*
%TO.P,U4,5,PGND_5*%
%TO.N,GND*%
X115869748Y-76220001D03*
D29*
%TO.P,U4,6,SLEEP_6*%
%TO.N,/MP6602_SLEEP*%
X114920000Y-76219622D03*
D30*
%TO.P,U4,7,nRESET_7*%
%TO.N,/MP6602_nRST*%
X114920000Y-76769748D03*
%TO.P,U4,8,nFAULT_8*%
%TO.N,/MP6602_nFAULT*%
X114920000Y-77269874D03*
%TO.P,U4,9,ENBL_9*%
%TO.N,/MP6602_ENBL*%
X114920000Y-77770000D03*
%TO.P,U4,10,GND_10*%
%TO.N,GND*%
X114920000Y-78270126D03*
%TO.P,U4,11,VG_11*%
%TO.N,Net-(U4-VG)*%
X114920000Y-78770252D03*
D29*
%TO.P,U4,12,VCP_12*%
%TO.N,Net-(U4-VCP)*%
X114920000Y-79320378D03*
D28*
%TO.P,U4,13,PGND_13*%
%TO.N,GND*%
X115869748Y-79319999D03*
%TO.P,U4,14,BOUT2_14*%
%TO.N,/BOUT2*%
X116569874Y-79319999D03*
%TO.P,U4,15,VIN_15*%
%TO.N,+12V*%
X117270000Y-79319999D03*
%TO.P,U4,16,BOUT1_16*%
%TO.N,/BOUT1*%
X117970126Y-79319999D03*
%TO.P,U4,17,PGND_17*%
%TO.N,GND*%
X118670252Y-79319999D03*
D29*
%TO.P,U4,18,DIR_18*%
%TO.N,/DIR*%
X119620000Y-79320378D03*
D30*
%TO.P,U4,19,STEP_19*%
%TO.N,/STEP*%
X119620000Y-78770252D03*
%TO.P,U4,20,SDATO_20*%
%TO.N,/MISO*%
X119620000Y-78270126D03*
%TO.P,U4,21,VCC_21*%
%TO.N,+3.3V*%
X119620000Y-77770000D03*
%TO.P,U4,22,SDATI_22*%
%TO.N,/MOSI*%
X119620000Y-77269874D03*
%TO.P,U4,23,nSCS_23*%
%TO.N,/CS*%
X119620000Y-76769748D03*
D29*
%TO.P,U4,24,SCLK_24*%
%TO.N,/SCLK*%
X119620000Y-76219622D03*
D31*
%TO.P,U4,25,PGND_25*%
%TO.N,GND*%
X117270000Y-77770000D03*
%TD*%
D32*
%TO.P,C24,1*%
%TO.N,Net-(U4-VG)*%
X113590000Y-78770000D03*
%TO.P,C24,2*%
%TO.N,GND*%
X112630000Y-78770000D03*
%TD*%
D33*
%TO.P,U2,1,VBAT_1*%
%TO.N,+3.3V*%
X70330000Y-95710000D03*
%TO.P,U2,2,PC13_2*%
%TO.N,unconnected-(U2-PC13-Pad2)*%
X70830000Y-95710000D03*
%TO.P,U2,3,PC14-OSC32_IN_3*%
%TO.N,unconnected-(U2-PC14-OSC32_IN-Pad3)*%
X71330000Y-95710000D03*
%TO.P,U2,4,PC15-OSC32_OUT_4*%
%TO.N,unconnected-(U2-PC15-OSC32_OUT-Pad4)*%
X71830000Y-95710000D03*
%TO.P,U2,5,PF0_OSC_IN_5*%
%TO.N,Net-(U2-PF0_OSC_IN)*%
X72330000Y-95710000D03*
%TO.P,U2,6,PF1-OSC_OUT_6*%
%TO.N,unconnected-(U2-PF1-OSC_OUT-Pad6)*%
X72830000Y-95710000D03*
%TO.P,U2,7,NRST_7*%
%TO.N,/nRST*%
X73330000Y-95710000D03*
%TO.P,U2,8,VSSA_8*%
%TO.N,GND*%
X73830000Y-95710000D03*
%TO.P,U2,9,VDDA_9*%
%TO.N,+3.3V*%
X74330000Y-95710000D03*
%TO.P,U2,10,PA0_10*%
%TO.N,unconnected-(U2-PA0-Pad10)*%
X74830000Y-95710000D03*
%TO.P,U2,11,PA1_11*%
%TO.N,/CP_nRST*%
X75330000Y-95710000D03*
%TO.P,U2,12,PA2\u002CUSART2_TX_12*%
%TO.N,/CP_RXD*%
X75830000Y-95710000D03*
D34*
%TO.P,U2,13,PA3\u002CUSART2_RX_13*%
%TO.N,/CP_TXD*%
X76510000Y-95030000D03*
%TO.P,U2,14,PA4\u002CSP1_NSS_14*%
%TO.N,/CS*%
X76510000Y-94530000D03*
%TO.P,U2,15,PA5\u002CSPI1_SCK_15*%
%TO.N,/SCLK*%
X76510000Y-94030000D03*
%TO.P,U2,16,PA6\u002CSPI1_MISO_16*%
%TO.N,/MISO*%
X76510000Y-93530000D03*
%TO.P,U2,17,PA7\u002CSPI1_MOSI_17*%
%TO.N,/MOSI*%
X76510000Y-93030000D03*
%TO.P,U2,18,PB0\u002CTIM3_CH3_18*%
%TO.N,/STEP*%
X76510000Y-92530000D03*
%TO.P,U2,19,PB1_19*%
%TO.N,/DIR*%
X76510000Y-92030000D03*
%TO.P,U2,20,PB2_20*%
%TO.N,/BUT_POS1*%
X76510000Y-91530000D03*
%TO.P,U2,21,PB10_21*%
%TO.N,/MP6602_ENBL*%
X76510000Y-91030000D03*
%TO.P,U2,22,PB11_22*%
%TO.N,/MP6602_nFAULT*%
X76510000Y-90530000D03*
%TO.P,U2,23,VSS_23*%
%TO.N,GND*%
X76510000Y-90030000D03*
%TO.P,U2,24,VDD_24*%
%TO.N,+3.3V*%
X76510000Y-89530000D03*
D33*
%TO.P,U2,25,PB12_25*%
%TO.N,/MP6602_nRST*%
X75830000Y-88850000D03*
%TO.P,U2,26,PB13_26*%
%TO.N,/MP6602_SLEEP*%
X75330000Y-88850000D03*
%TO.P,U2,27,PB14_27*%
%TO.N,/POS1*%
X74830000Y-88850000D03*
%TO.P,U2,28,PB15_28*%
%TO.N,/BUT_POS2*%
X74330000Y-88850000D03*
%TO.P,U2,29,PA8\u002CTIM1_CH1_29*%
%TO.N,/POS2*%
X73830000Y-88850000D03*
%TO.P,U2,30,PA9\u002CTIM1_CH2_30*%
%TO.N,/BUT_POS3*%
X73330000Y-88850000D03*
%TO.P,U2,31,PA10\u002CTIM1_CH3_31*%
%TO.N,/POS3*%
X72830000Y-88850000D03*
%TO.P,U2,32,PA11\u002CUSB_DM_32*%
%TO.N,unconnected-(U2-PA11\u002CUSB_DM-Pad32)*%
X72330000Y-88850000D03*
%TO.P,U2,33,PA12\u002CUSB_DP_33*%
%TO.N,unconnected-(U2-PA12\u002CUSB_DP-Pad33)*%
X71830000Y-88850000D03*
%TO.P,U2,34,PA13\u002CSWDIO_34*%
%TO.N,Net-(J2-SWDIO)*%
X71330000Y-88850000D03*
%TO.P,U2,35,VSS_35*%
%TO.N,GND*%
X70830000Y-88850000D03*
%TO.P,U2,36,VDDIO2_36*%
%TO.N,+3.3V*%
X70330000Y-88850000D03*
D34*
%TO.P,U2,37,PA14\u002CSWCLK_37*%
%TO.N,Net-(J2-SWCLK)*%
X69650000Y-89530000D03*
%TO.P,U2,38,PA15_38*%
%TO.N,/BUT_POS4*%
X69650000Y-90030000D03*
%TO.P,U2,39,PB3_39*%
%TO.N,/POS4*%
X69650000Y-90530000D03*
%TO.P,U2,40,PB4_40*%
%TO.N,/LMT_SW*%
X69650000Y-91030000D03*
%TO.P,U2,41,PB5_41*%
%TO.N,unconnected-(U2-PB5-Pad41)*%
X69650000Y-91530000D03*
%TO.P,U2,42,PB6\u002CI2C1_SCL_42*%
%TO.N,unconnected-(U2-PB6\u002CI2C1_SCL-Pad42)*%
X69650000Y-92030000D03*
%TO.P,U2,43,PB7\u002CI2C1_SDA_43*%
%TO.N,unconnected-(U2-PB7\u002CI2C1_SDA-Pad43)*%
X69650000Y-92530000D03*
%TO.P,U2,44,PF11-BOOT0_44*%
%TO.N,Net-(U2-PF11-BOOT0)*%
X69650000Y-93030000D03*
%TO.P,U2,45,PB8\u002CCAN_RX_45*%
%TO.N,unconnected-(U2-PB8\u002CCAN_RX-Pad45)*%
X69650000Y-93530000D03*
%TO.P,U2,46,PB9\u002CCAN_RX_46*%
%TO.N,unconnected-(U2-PB9\u002CCAN_RX-Pad46)*%
X69650000Y-94030000D03*
%TO.P,U2,47,VSS_47*%
%TO.N,GND*%
X69650000Y-94530000D03*
%TO.P,U2,48,VDD_48*%
%TO.N,+3.3V*%
X69650000Y-95030000D03*
D35*
%TO.P,U2,EP,VSS_EP*%
%TO.N,GND*%
X71680000Y-93680000D03*
X74480000Y-93680000D03*
X73080000Y-92280000D03*
D36*
X73080000Y-92280000D03*
D35*
X71680000Y-90880000D03*
X74480000Y-90880000D03*
%TD*%
D37*
%TO.P,L1,1*%
%TO.N,Net-(U1-SW)*%
X127595000Y-96755000D03*
D38*
%TO.P,L1,2*%
%TO.N,+3.3V*%
X127595000Y-90405000D03*
%TD*%
D39*
%TO.P,C11,1*%
%TO.N,+3.3V*%
X121795000Y-90440000D03*
%TO.P,C11,2*%
%TO.N,GND*%
X121795000Y-94740000D03*
%TD*%
D14*
%TO.P,R23,1*%
%TO.N,+3.3V*%
X61670000Y-91130000D03*
%TO.P,R23,2*%
%TO.N,/LMT_SW*%
X62690000Y-91130000D03*
%TD*%
D16*
%TO.P,R11,1*%
%TO.N,Net-(J3-CC1)*%
X94640000Y-96040000D03*
%TO.P,R11,2*%
%TO.N,GND*%
X93620000Y-96040000D03*
%TD*%
D40*
%TO.P,F2,1*%
%TO.N,N/C*%
X112290000Y-101620000D03*
%TD*%
D23*
%TO.P,C20,1*%
%TO.N,+12V*%
X119750000Y-74070000D03*
%TO.P,C20,2*%
%TO.N,GND*%
X120710000Y-74070000D03*
%TD*%
D40*
%TO.P,F1,1*%
%TO.N,N/C*%
X59230000Y-74720000D03*
%TD*%
D16*
%TO.P,R2,1*%
%TO.N,+3.3V*%
X125190000Y-102250000D03*
%TO.P,R2,2*%
%TO.N,Net-(U1-FB)*%
X124170000Y-102250000D03*
%TD*%
D41*
%TO.P,C17,1*%
%TO.N,+12V*%
X114420000Y-71180000D03*
%TO.P,C17,2*%
%TO.N,GND*%
X114420000Y-66880000D03*
%TD*%
D42*
%TO.P,U3,1,RI_1*%
%TO.N,unconnected-(U3-RI-Pad1)*%
X96970000Y-96057140D03*
%TO.P,U3,2,GND_2*%
%TO.N,GND*%
X97469999Y-96057140D03*
%TO.P,U3,3,D+_3*%
%TO.N,/USB_D+*%
X97970000Y-96057140D03*
%TO.P,U3,4,D-_4*%
%TO.N,/USB_D-*%
X98470000Y-96057140D03*
%TO.P,U3,5,VIO_5*%
%TO.N,+3.3V*%
X98970001Y-96057140D03*
%TO.P,U3,6,VDD_6*%
X99470000Y-96057140D03*
D43*
%TO.P,U3,7,VREGIN_7*%
X100112300Y-95414840D03*
%TO.P,U3,8,VBUS_8*%
%TO.N,Net-(U3-VBUS)*%
X100112300Y-94914841D03*
%TO.P,U3,9,RSTb_9*%
%TO.N,/CP_nRST*%
X100112300Y-94414840D03*
%TO.P,U3,10,NC_10*%
%TO.N,unconnected-(U3-NC-Pad10)*%
X100112300Y-93914840D03*
%TO.P,U3,11,NC_11*%
%TO.N,unconnected-(U3-NC-Pad11)*%
X100112300Y-93414839D03*
%TO.P,U3,12,NC_12*%
%TO.N,unconnected-(U3-NC-Pad12)*%
X100112300Y-92914840D03*
D42*
%TO.P,U3,13,NC_13*%
%TO.N,unconnected-(U3-NC-Pad13)*%
X99470000Y-92272540D03*
%TO.P,U3,14,NC_14*%
%TO.N,unconnected-(U3-NC-Pad14)*%
X98970001Y-92272540D03*
%TO.P,U3,15,SUSPENDb_15*%
%TO.N,unconnected-(U3-SUSPENDb-Pad15)*%
X98470000Y-92272540D03*
%TO.P,U3,16,NC_16*%
%TO.N,unconnected-(U3-NC-Pad16)*%
X97970000Y-92272540D03*
%TO.P,U3,17,SUSPEND_17*%
%TO.N,unconnected-(U3-SUSPEND-Pad17)*%
X97469999Y-92272540D03*
%TO.P,U3,18,CTS_18*%
%TO.N,unconnected-(U3-CTS-Pad18)*%
X96970000Y-92272540D03*
D43*
%TO.P,U3,19,RTS_19*%
%TO.N,unconnected-(U3-RTS-Pad19)*%
X96327700Y-92914840D03*
%TO.P,U3,20,RXD_20*%
%TO.N,/CP_RXD*%
X96327700Y-93414839D03*
%TO.P,U3,21,TXD_21*%
%TO.N,/CP_TXD*%
X96327700Y-93914840D03*
%TO.P,U3,22,DSR_22*%
%TO.N,unconnected-(U3-DSR-Pad22)*%
X96327700Y-94414840D03*
%TO.P,U3,23,DTR_23*%
%TO.N,unconnected-(U3-DTR-Pad23)*%
X96327700Y-94914841D03*
%TO.P,U3,24,DCD_24*%
%TO.N,unconnected-(U3-DCD-Pad24)*%
X96327700Y-95414840D03*
D35*
%TO.P,U3,EP,GND_EP*%
%TO.N,GND*%
X97574840Y-94810000D03*
X98865160Y-94810000D03*
D44*
X98220000Y-94164840D03*
D35*
X97574840Y-93519680D03*
X98865160Y-93519680D03*
%TD*%
D23*
%TO.P,C16,1*%
%TO.N,+3.3V*%
X121990000Y-77760000D03*
%TO.P,C16,2*%
%TO.N,GND*%
X122950000Y-77760000D03*
%TD*%
D45*
%TO.P,J1,1,V+_1*%
%TO.N,+12V*%
X110320000Y-91073100D03*
D46*
%TO.P,J1,2,GND_2*%
%TO.N,GND*%
X110320000Y-97073100D03*
D47*
%TO.P,J1,3,GND_3*%
X115020000Y-94073100D03*
%TD*%
D16*
%TO.P,R3,1*%
%TO.N,Net-(U1-FB)*%
X123190000Y-102250000D03*
%TO.P,R3,2*%
%TO.N,GND*%
X122170000Y-102250000D03*
%TD*%
%TO.P,R19,1*%
%TO.N,+3.3V*%
X81930000Y-85580000D03*
%TO.P,R19,2*%
%TO.N,/MP6602_nRST*%
X80910000Y-85580000D03*
%TD*%
D27*
%TO.P,R21,1*%
%TO.N,+3.3V*%
X86940000Y-88180000D03*
%TO.P,R21,2*%
%TO.N,/MP6602_ENBL*%
X86940000Y-89200000D03*
%TD*%
%TO.P,R22,1*%
%TO.N,+3.3V*%
X84440000Y-88220000D03*
%TO.P,R22,2*%
%TO.N,/DIR*%
X84440000Y-89240000D03*
%TD*%
D41*
%TO.P,C13,1*%
%TO.N,+12V*%
X110630000Y-74700000D03*
%TO.P,C13,2*%
%TO.N,GND*%
X110630000Y-70400000D03*
%TD*%
D32*
%TO.P,C26,1*%
%TO.N,/LMT_SW*%
X62690000Y-90100000D03*
%TO.P,C26,2*%
%TO.N,GND*%
X61730000Y-90100000D03*
%TD*%
D48*
%TO.P,U1,1,GND_1*%
%TO.N,GND*%
X125100000Y-98260000D03*
%TO.P,U1,2,SW_2*%
%TO.N,Net-(U1-SW)*%
X124150000Y-98260000D03*
%TO.P,U1,3,VIN_3*%
%TO.N,+12V*%
X123200000Y-98260000D03*
%TO.P,U1,4,FB_4*%
%TO.N,Net-(U1-FB)*%
X123200000Y-100960000D03*
%TO.P,U1,5,EN_5*%
%TO.N,unconnected-(U1-EN-Pad5)*%
X124150000Y-100960000D03*
%TO.P,U1,6,BOOT_6*%
%TO.N,Net-(U1-BOOT)*%
X125100000Y-100960000D03*
%TD*%
D49*
%TO.N,+3.3V*%
X87850000Y-88180000D03*
X124200000Y-88310000D03*
X65890000Y-70240000D03*
X74600000Y-96710000D03*
X76330000Y-70240000D03*
X126590000Y-87290000D03*
X123280000Y-87290000D03*
X113710000Y-83460000D03*
X120360000Y-87320000D03*
X89540000Y-82370000D03*
X126650000Y-89250000D03*
X77560000Y-85570000D03*
X129960000Y-87290000D03*
X130880000Y-88290000D03*
X66480000Y-72520000D03*
X129190000Y-88300000D03*
X125870000Y-88330000D03*
X70320000Y-87910000D03*
X78140000Y-89520000D03*
X125060000Y-89250000D03*
X123340000Y-89250000D03*
X60890000Y-91130000D03*
X69620000Y-76480000D03*
X82700000Y-85580000D03*
X79190000Y-82120000D03*
X121730000Y-87290000D03*
X69640000Y-95720000D03*
X96180000Y-70270000D03*
X103730000Y-93870000D03*
X103690000Y-94910000D03*
X126750000Y-102250000D03*
X86360000Y-70200000D03*
X121080000Y-88270000D03*
X128310000Y-87290000D03*
X99470000Y-96760000D03*
X128370000Y-89250000D03*
X122570000Y-88350000D03*
X127510000Y-88350000D03*
X130020000Y-89250000D03*
X125000000Y-87290000D03*
X100112300Y-95907700D03*
X75660000Y-100330000D03*
X103290000Y-82490000D03*
X121330000Y-77780000D03*
X106310000Y-70260000D03*
X120420000Y-89280000D03*
X121790000Y-89250000D03*
%TO.N,/MP6602_SLEEP*%
X114380000Y-75170000D03*
X79300000Y-86360000D03*
X75330000Y-87780000D03*
%TO.N,/CP_nRST*%
X92270000Y-96690000D03*
X101110000Y-94410000D03*
%TO.N,GND*%
X113930000Y-65780000D03*
D50*
X132230000Y-72270000D03*
D49*
X60880000Y-90100000D03*
X99490000Y-99530000D03*
X118800000Y-102350000D03*
X121130000Y-70140000D03*
X104410000Y-79980000D03*
X118500000Y-77770000D03*
X105720000Y-72770000D03*
X105790000Y-80770000D03*
X119320000Y-75570000D03*
X111980000Y-69400000D03*
X71010000Y-87760000D03*
X72160000Y-76590000D03*
D50*
X129730000Y-84770000D03*
D49*
X125650000Y-77760000D03*
X121460000Y-102250000D03*
D50*
X127230000Y-72270000D03*
D49*
X109300000Y-69380000D03*
X120820000Y-95860000D03*
X95690000Y-80770000D03*
X124940000Y-77760000D03*
X102230000Y-75800000D03*
X94370000Y-82350000D03*
X121840000Y-95860000D03*
X102230000Y-77590000D03*
X102240000Y-76730000D03*
X103680000Y-96210000D03*
X111090000Y-69380000D03*
X115840000Y-80490000D03*
X82560000Y-88230000D03*
X67280000Y-87990000D03*
X68110000Y-72190000D03*
X115910000Y-74440000D03*
D50*
X124730000Y-84770000D03*
D49*
X125630000Y-80300000D03*
X115750000Y-65790000D03*
X85640000Y-80770000D03*
D50*
X129730000Y-79770000D03*
D49*
X122570000Y-84710000D03*
X98070000Y-82380000D03*
X115910000Y-75060000D03*
X69610000Y-98470000D03*
X121710000Y-74590000D03*
X104420000Y-84560000D03*
X122340000Y-74710000D03*
X115840000Y-82470000D03*
X110160000Y-69390000D03*
X126020000Y-98260000D03*
D50*
X132230000Y-77270000D03*
D49*
X125670000Y-75240000D03*
X75450000Y-72770000D03*
X117250000Y-102370000D03*
X117900000Y-77770000D03*
X115840000Y-81190000D03*
X117270000Y-77770000D03*
D50*
X129730000Y-74770000D03*
D49*
X102250000Y-74910000D03*
X66370000Y-93030000D03*
X75660000Y-97870000D03*
X101960000Y-97020000D03*
X124940000Y-75240000D03*
X84390000Y-82370000D03*
X114860000Y-65770000D03*
D50*
X117230000Y-67270000D03*
D49*
X92860000Y-96040000D03*
X95620000Y-72770000D03*
X67530000Y-72530000D03*
X115840000Y-81850000D03*
X124240000Y-75240000D03*
X68550000Y-94530000D03*
D50*
X114730000Y-84770000D03*
X129730000Y-69770000D03*
D49*
X122650000Y-80580000D03*
X75650000Y-80770000D03*
X116660000Y-77770000D03*
X122930000Y-95860000D03*
X121430000Y-81480000D03*
D50*
X124730000Y-69770000D03*
D49*
X113850000Y-78010000D03*
X116050000Y-77770000D03*
X119760000Y-102350000D03*
X104430000Y-79090000D03*
X72000000Y-68480000D03*
X111910000Y-78770000D03*
X124200000Y-77770000D03*
X116290000Y-102370000D03*
X124070000Y-80300000D03*
D50*
X132230000Y-82270000D03*
D49*
X104420000Y-80910000D03*
X73100000Y-70920000D03*
X121980000Y-80890000D03*
X124850000Y-80300000D03*
X121130000Y-71100000D03*
X104430000Y-83700000D03*
X121380000Y-74080000D03*
D50*
X127230000Y-82270000D03*
X122230000Y-67270000D03*
D49*
X115910000Y-73080000D03*
X122810000Y-75170000D03*
X121500000Y-101140000D03*
D50*
X127230000Y-77270000D03*
D49*
X76330000Y-97520000D03*
X113070000Y-65770000D03*
X123500000Y-75230000D03*
X113710000Y-82460000D03*
X122570000Y-83750000D03*
X97400000Y-96910000D03*
X73960000Y-96720000D03*
X104410000Y-81770000D03*
X85600000Y-72770000D03*
D50*
X127230000Y-67270000D03*
D49*
X115910000Y-73780000D03*
%TO.N,/STEP*%
X77750000Y-92500000D03*
X83330000Y-92460000D03*
X120555000Y-79175000D03*
%TO.N,/USB_D-*%
X97480000Y-99110000D03*
X98480000Y-99110000D03*
%TO.N,+12V*%
X117270000Y-81050000D03*
X117270000Y-73930000D03*
X118720000Y-81290000D03*
X113820000Y-72970000D03*
X115550000Y-72230000D03*
X118930000Y-74250000D03*
X118400000Y-73920000D03*
X116130000Y-84550000D03*
X114980000Y-72980000D03*
X113250000Y-74880000D03*
X117170000Y-72220000D03*
X114420000Y-72230000D03*
X117270000Y-75060000D03*
X117880000Y-74250000D03*
X117280000Y-81650000D03*
X118270000Y-81650000D03*
X114420000Y-73770000D03*
X113250000Y-73760000D03*
X117270000Y-74480000D03*
X116110000Y-83640000D03*
X117790000Y-81310000D03*
X113240000Y-72230000D03*
X117269801Y-80417048D03*
%TO.N,/MP6602_nFAULT*%
X113340000Y-76670000D03*
X77700000Y-90430000D03*
X85890000Y-90170000D03*
%TO.N,/MP6602_nRST*%
X113540000Y-75990000D03*
X80940000Y-87380000D03*
X76490000Y-88590000D03*
%TO.N,/MP6602_ENBL*%
X78230000Y-90770000D03*
X113080000Y-77320000D03*
X86920000Y-90770000D03*
%TO.N,/DIR*%
X119620000Y-80130000D03*
X78220000Y-91850000D03*
X84400000Y-91850000D03*
%TO.N,/MISO*%
X122170000Y-78600000D03*
X77720000Y-93540000D03*
%TO.N,/MOSI*%
X78190000Y-93020000D03*
X120775000Y-77145000D03*
%TO.N,/CS*%
X77720000Y-94530000D03*
X121180000Y-76300000D03*
%TO.N,/SCLK*%
X78160000Y-94030000D03*
X120330000Y-75800000D03*
%TO.N,/nRST*%
X70890000Y-76640000D03*
X73330000Y-96700000D03*
X74750000Y-81570000D03*
%TO.N,/CP_RXD*%
X92950000Y-94720000D03*
X94690000Y-93410000D03*
%TO.N,/BUT_POS1*%
X77720000Y-91450000D03*
%TO.N,/POS1*%
X110480000Y-67450000D03*
%TO.N,/BUT_POS2*%
X100470000Y-82370000D03*
%TO.N,/POS2*%
X100480000Y-69720000D03*
%TO.N,/BUT_POS3*%
X91980000Y-82350000D03*
%TO.N,/POS3*%
X90480000Y-69730000D03*
%TO.N,Net-(J2-SWDIO)*%
X69620000Y-79660000D03*
%TO.N,Net-(J2-SWCLK)*%
X69050000Y-81480000D03*
%TO.N,/BUT_POS4*%
X73490000Y-82750000D03*
X82000000Y-82370000D03*
X68660000Y-90030000D03*
%TO.N,/POS4*%
X74020000Y-82220000D03*
X80490000Y-69790000D03*
X68180000Y-90530000D03*
%TD*%
%TO.N,/POS1*%
D51*
X107290000Y-69620000D02*
X109460000Y-67450000D01*
X104740000Y-69620000D02*
X107290000Y-69620000D01*
X101070000Y-73290000D02*
X104740000Y-69620000D01*
X101070000Y-77720000D02*
X101070000Y-73290000D01*
X101230000Y-77880000D02*
X101070000Y-77720000D01*
X82010000Y-84750000D02*
X99250000Y-84750000D01*
X82000000Y-84740000D02*
X82010000Y-84750000D01*
X77300000Y-84740000D02*
X82000000Y-84740000D01*
X99250000Y-84750000D02*
X101230000Y-82770000D01*
X101230000Y-82770000D02*
X101230000Y-77880000D01*
X109460000Y-67450000D02*
X110480000Y-67450000D01*
X74830000Y-87210000D02*
X77300000Y-84740000D01*
X74830000Y-88850000D02*
X74830000Y-87210000D01*
%TO.N,+3.3V*%
X121610000Y-77760000D02*
X121990000Y-77760000D01*
X78280000Y-85570000D02*
X77560000Y-85570000D01*
X121330000Y-77780000D02*
X121590000Y-77780000D01*
X70330000Y-87920000D02*
X70330000Y-88850000D01*
X98970001Y-96057140D02*
X99470000Y-96057140D01*
X70330000Y-95710000D02*
X69650000Y-95710000D01*
X84450000Y-88210000D02*
X84440000Y-88220000D01*
X100112300Y-95414840D02*
X100112300Y-95907700D01*
X99470000Y-96057140D02*
X99470000Y-96760000D01*
X120670000Y-77780000D02*
X120660000Y-77770000D01*
X70320000Y-87910000D02*
X70330000Y-87920000D01*
X120660000Y-77770000D02*
X119620000Y-77770000D01*
X102930000Y-94910000D02*
X103690000Y-94910000D01*
X76510000Y-89530000D02*
X78130000Y-89530000D01*
X121590000Y-77780000D02*
X121610000Y-77760000D01*
X74330000Y-96440000D02*
X74600000Y-96710000D01*
X60890000Y-91130000D02*
X61670000Y-91130000D01*
X86940000Y-88180000D02*
X85930000Y-88180000D01*
X74330000Y-95710000D02*
X74330000Y-96440000D01*
X75660000Y-100330000D02*
X75550000Y-100220000D01*
X69650000Y-95710000D02*
X69640000Y-95720000D01*
X102930000Y-93860000D02*
X103720000Y-93860000D01*
X72330000Y-100220000D02*
X74230000Y-100220000D01*
X69650000Y-95030000D02*
X69650000Y-95710000D01*
X81930000Y-85580000D02*
X82700000Y-85580000D01*
X121330000Y-77780000D02*
X120670000Y-77780000D01*
X75660000Y-99570000D02*
X75660000Y-100330000D01*
X125190000Y-102250000D02*
X126750000Y-102250000D01*
X103720000Y-93860000D02*
X103730000Y-93870000D01*
X85930000Y-88180000D02*
X85900000Y-88210000D01*
X87850000Y-88180000D02*
X86940000Y-88180000D01*
X78130000Y-89530000D02*
X78140000Y-89520000D01*
X75550000Y-100220000D02*
X74230000Y-100220000D01*
X85900000Y-88210000D02*
X84450000Y-88210000D01*
%TO.N,/MP6602_SLEEP*%
X114370000Y-75180000D02*
X114380000Y-75170000D01*
X79300000Y-85570000D02*
X79300000Y-86360000D01*
X114370000Y-75669622D02*
X114370000Y-75180000D01*
X114920000Y-76219622D02*
X114370000Y-75669622D01*
X75330000Y-88850000D02*
X75330000Y-87780000D01*
%TO.N,Net-(U1-BOOT)*%
X125100000Y-100960000D02*
X126310000Y-100960000D01*
%TO.N,Net-(U1-SW)*%
X124900000Y-100000000D02*
X126310000Y-100000000D01*
X124150000Y-99250000D02*
X124900000Y-100000000D01*
X124150000Y-98260000D02*
X124150000Y-99250000D01*
%TO.N,/CP_nRST*%
X75640000Y-96690000D02*
X75330000Y-96380000D01*
X101105160Y-94414840D02*
X101110000Y-94410000D01*
X92270000Y-96690000D02*
X75640000Y-96690000D01*
X101910000Y-93860000D02*
X101660000Y-93860000D01*
X101660000Y-93860000D02*
X101110000Y-94410000D01*
X100112300Y-94414840D02*
X101105160Y-94414840D01*
X75330000Y-96380000D02*
X75330000Y-95710000D01*
%TO.N,Net-(J3-CC2)*%
X100880000Y-96210000D02*
X101880000Y-96210000D01*
X99980000Y-97110000D02*
X100880000Y-96210000D01*
X99980000Y-98005000D02*
X99980000Y-97110000D01*
%TO.N,GND*%
D52*
X121505000Y-101135000D02*
X121500000Y-101140000D01*
D51*
X70830000Y-88850000D02*
X70830000Y-87940000D01*
X75610000Y-97920000D02*
X75660000Y-97870000D01*
X97469999Y-96057140D02*
X97469999Y-96840001D01*
X114920000Y-78270126D02*
X114110126Y-78270126D01*
X60880000Y-90100000D02*
X61730000Y-90100000D01*
X119320000Y-75570253D02*
X119290253Y-75600000D01*
D52*
X125100000Y-98260000D02*
X126130000Y-98260000D01*
D51*
X102900000Y-96210000D02*
X103680000Y-96210000D01*
X97469999Y-96840001D02*
X97400000Y-96910000D01*
X73830000Y-96590000D02*
X73960000Y-96720000D01*
X94635000Y-98005000D02*
X93910000Y-98730000D01*
X124200000Y-77770000D02*
X122960000Y-77770000D01*
X92860000Y-96040000D02*
X93620000Y-96040000D01*
X70830000Y-87940000D02*
X71010000Y-87760000D01*
X111910000Y-78770000D02*
X112630000Y-78770000D01*
X69650000Y-94530000D02*
X68550000Y-94530000D01*
X83380000Y-88230000D02*
X82560000Y-88230000D01*
X102155000Y-98730000D02*
X101430000Y-98005000D01*
X118670252Y-77990252D02*
X118450000Y-77770000D01*
X95030000Y-98005000D02*
X94635000Y-98005000D01*
X114110126Y-78270126D02*
X113850000Y-78010000D01*
X76510000Y-90030000D02*
X75330000Y-90030000D01*
X118450000Y-77770000D02*
X117270000Y-77770000D01*
X67090000Y-93030000D02*
X66370000Y-93030000D01*
X102550000Y-98730000D02*
X102155000Y-98730000D01*
X119290253Y-75600000D02*
X118600000Y-75600000D01*
X122960000Y-77770000D02*
X122950000Y-77760000D01*
X119320000Y-75570000D02*
X119320000Y-75570253D01*
X75330000Y-90030000D02*
X73080000Y-92280000D01*
X118670252Y-79319999D02*
X118670252Y-77990252D01*
X74230000Y-97920000D02*
X75610000Y-97920000D01*
X73830000Y-95710000D02*
X73830000Y-96590000D01*
X75660000Y-98610000D02*
X75660000Y-97870000D01*
X121460000Y-102250000D02*
X122170000Y-102250000D01*
D52*
X121505000Y-100185000D02*
X121505000Y-101135000D01*
%TO.N,/STEP*%
D51*
X77720000Y-92530000D02*
X77750000Y-92500000D01*
X120555000Y-79175000D02*
X120150252Y-78770252D01*
X83360000Y-89760000D02*
X83360000Y-92430000D01*
X83380000Y-89740000D02*
X83380000Y-89250000D01*
X120150252Y-78770252D02*
X119620000Y-78770252D01*
X83360000Y-89760000D02*
X83380000Y-89740000D01*
X83360000Y-92430000D02*
X83330000Y-92460000D01*
X76510000Y-92530000D02*
X77720000Y-92530000D01*
%TO.N,VBUS*%
X95830000Y-98707000D02*
X97290000Y-100167000D01*
X97290000Y-100180000D02*
X97680000Y-100570000D01*
X100477500Y-99171118D02*
X100477500Y-98157500D01*
X95830000Y-98005000D02*
X95830000Y-98707000D01*
X100477500Y-98157500D02*
X100630000Y-98005000D01*
X99078618Y-100570000D02*
X100477500Y-99171118D01*
X97680000Y-100570000D02*
X99078618Y-100570000D01*
X97290000Y-100167000D02*
X97290000Y-100180000D01*
%TO.N,Net-(J3-CC1)*%
X96980000Y-98005000D02*
X96980000Y-97190000D01*
X94640000Y-96230000D02*
X94640000Y-96040000D01*
X95370000Y-96960000D02*
X94640000Y-96230000D01*
X96980000Y-97190000D02*
X96750000Y-96960000D01*
X96750000Y-96960000D02*
X95370000Y-96960000D01*
%TO.N,/USB_D+*%
D53*
X97937900Y-97962900D02*
X97937900Y-96430000D01*
X98690000Y-99770000D02*
X98980000Y-99480000D01*
X97980000Y-98005000D02*
X97980000Y-99440000D01*
X98310000Y-99770000D02*
X98690000Y-99770000D01*
X97980000Y-99440000D02*
X98310000Y-99770000D01*
X97980000Y-98005000D02*
X97937900Y-97962900D01*
X98980000Y-99480000D02*
X98980000Y-98005000D01*
%TO.N,/USB_D-*%
X97480000Y-99110000D02*
X97480000Y-98005000D01*
X98522100Y-97962900D02*
X98522100Y-96430000D01*
X98480000Y-98005000D02*
X98480000Y-99110000D01*
X98480000Y-98005000D02*
X98522100Y-97962900D01*
%TO.N,Net-(U3-VBUS)*%
D51*
X100112300Y-94914841D02*
X101905159Y-94914841D01*
X101905159Y-94914841D02*
X101910000Y-94910000D01*
%TO.N,Net-(U2-PF0_OSC_IN)*%
X72330000Y-95710000D02*
X72330000Y-97920000D01*
%TO.N,Net-(U4-VCP)*%
X114920000Y-80780000D02*
X114920000Y-79320378D01*
%TO.N,/MP6602_nFAULT*%
X77600000Y-90530000D02*
X77700000Y-90430000D01*
X114097702Y-77269874D02*
X113497828Y-76670000D01*
X85890000Y-90170000D02*
X85890000Y-89140000D01*
X76510000Y-90530000D02*
X77600000Y-90530000D01*
X85890000Y-89140000D02*
X85900000Y-89130000D01*
X114920000Y-77269874D02*
X114097702Y-77269874D01*
X113497828Y-76670000D02*
X113340000Y-76670000D01*
%TO.N,/LMT_SW*%
X62690000Y-84320000D02*
X62690000Y-90100000D01*
X68550000Y-91130000D02*
X68650000Y-91030000D01*
X63510000Y-83500000D02*
X62690000Y-84320000D01*
X64642500Y-83500000D02*
X63510000Y-83500000D01*
X62690000Y-91130000D02*
X68550000Y-91130000D01*
X62690000Y-90100000D02*
X62690000Y-91130000D01*
X68650000Y-91030000D02*
X69650000Y-91030000D01*
%TO.N,Net-(U2-PF11-BOOT0)*%
X69650000Y-93030000D02*
X68110000Y-93030000D01*
%TO.N,/MP6602_nRST*%
X80910000Y-87350000D02*
X80940000Y-87380000D01*
X76490000Y-88590000D02*
X76100000Y-88590000D01*
X76100000Y-88590000D02*
X75840000Y-88850000D01*
X114319748Y-76769748D02*
X113540000Y-75990000D01*
X114920000Y-76769748D02*
X114319748Y-76769748D01*
X80910000Y-85580000D02*
X80910000Y-87350000D01*
X75840000Y-88850000D02*
X75830000Y-88850000D01*
%TO.N,/MP6602_ENBL*%
X113788618Y-77320000D02*
X113080000Y-77320000D01*
X78040000Y-90960000D02*
X78230000Y-90770000D01*
X76510000Y-91030000D02*
X76580000Y-90960000D01*
X86920000Y-90770000D02*
X86920000Y-89610000D01*
X76580000Y-90960000D02*
X78040000Y-90960000D01*
X114920000Y-77770000D02*
X114238618Y-77770000D01*
X114238618Y-77770000D02*
X113788618Y-77320000D01*
X86920000Y-89610000D02*
X86940000Y-89590000D01*
X86940000Y-89590000D02*
X86940000Y-89100000D01*
%TO.N,Net-(U4-VG)*%
X114920000Y-78770252D02*
X113590252Y-78770252D01*
X113590252Y-78770252D02*
X113590000Y-78770000D01*
%TO.N,/DIR*%
X84440000Y-89730000D02*
X84440000Y-89240000D01*
X76510000Y-92030000D02*
X78040000Y-92030000D01*
X84400000Y-91850000D02*
X84420000Y-91830000D01*
X78040000Y-92030000D02*
X78220000Y-91850000D01*
X84420000Y-89750000D02*
X84440000Y-89730000D01*
X84420000Y-91830000D02*
X84420000Y-89750000D01*
X119620000Y-80130000D02*
X119620000Y-79320378D01*
%TO.N,/MISO*%
X76510000Y-93530000D02*
X77710000Y-93530000D01*
X122170000Y-78600000D02*
X122120000Y-78650000D01*
X120650126Y-78270126D02*
X119620000Y-78270126D01*
X121030000Y-78650000D02*
X120650126Y-78270126D01*
X122120000Y-78650000D02*
X121030000Y-78650000D01*
X77710000Y-93530000D02*
X77720000Y-93540000D01*
%TO.N,/MOSI*%
X120650126Y-77269874D02*
X119620000Y-77269874D01*
X120775000Y-77145000D02*
X120650126Y-77269874D01*
X78190000Y-93020000D02*
X78180000Y-93030000D01*
X78180000Y-93030000D02*
X76510000Y-93030000D01*
%TO.N,/CS*%
X120350252Y-76769748D02*
X119620000Y-76769748D01*
X121180000Y-76300000D02*
X120820000Y-76300000D01*
X120820000Y-76300000D02*
X120350252Y-76769748D01*
X76510000Y-94530000D02*
X77720000Y-94530000D01*
%TO.N,/SCLK*%
X119910378Y-76219622D02*
X119620000Y-76219622D01*
X120330000Y-75800000D02*
X119910378Y-76219622D01*
X78160000Y-94030000D02*
X76510000Y-94030000D01*
%TO.N,/nRST*%
X70890000Y-77710000D02*
X70890000Y-76640000D01*
X73330000Y-95710000D02*
X73330000Y-96700000D01*
X74750000Y-81570000D02*
X70890000Y-77710000D01*
%TO.N,/CP_RXD*%
X75830000Y-95710000D02*
X91960000Y-95710000D01*
X94694839Y-93414839D02*
X96322540Y-93414839D01*
X94690000Y-93410000D02*
X94694839Y-93414839D01*
X91960000Y-95710000D02*
X92950000Y-94720000D01*
%TO.N,/CP_TXD*%
X76510000Y-95030000D02*
X91760000Y-95030000D01*
X92875160Y-93914840D02*
X96322540Y-93914840D01*
X91760000Y-95030000D02*
X92875160Y-93914840D01*
%TO.N,/BUT_POS1*%
X77640000Y-91530000D02*
X77720000Y-91450000D01*
X76510000Y-91530000D02*
X77640000Y-91530000D01*
%TO.N,/BUT_POS2*%
X74330000Y-86900000D02*
X74330000Y-88850000D01*
X100470000Y-82370000D02*
X100450000Y-82370000D01*
X100450000Y-82370000D02*
X98510000Y-84310000D01*
X98510000Y-84310000D02*
X76920000Y-84310000D01*
X76920000Y-84310000D02*
X74330000Y-86900000D01*
%TO.N,/POS2*%
X94310000Y-83830000D02*
X76500000Y-83830000D01*
X73830000Y-86500000D02*
X73830000Y-88850000D01*
X98030000Y-83870000D02*
X94350000Y-83870000D01*
X76500000Y-83830000D02*
X73830000Y-86500000D01*
X100480000Y-69720000D02*
X100480000Y-81420000D01*
X100480000Y-81420000D02*
X98030000Y-83870000D01*
X94350000Y-83870000D02*
X94310000Y-83830000D01*
%TO.N,/BUT_POS3*%
X73330000Y-86130000D02*
X73330000Y-88850000D01*
X90860000Y-83470000D02*
X75990000Y-83470000D01*
X91980000Y-82350000D02*
X90860000Y-83470000D01*
X75990000Y-83470000D02*
X73330000Y-86130000D01*
%TO.N,/POS3*%
X90480000Y-80801382D02*
X89095500Y-82185882D01*
X75450000Y-83120000D02*
X72830000Y-85740000D01*
X88160000Y-83120000D02*
X75450000Y-83120000D01*
X89094118Y-82185882D02*
X88160000Y-83120000D01*
X90480000Y-69730000D02*
X90480000Y-80801382D01*
X72830000Y-85740000D02*
X72830000Y-88850000D01*
X89095500Y-82185882D02*
X89094118Y-82185882D01*
%TO.N,Net-(J2-SWDIO)*%
X69620000Y-85170000D02*
X71454500Y-87004500D01*
X71454500Y-87004500D02*
X71454500Y-87985500D01*
X71330000Y-88110000D02*
X71330000Y-88850000D01*
X69620000Y-79660000D02*
X69620000Y-85170000D01*
X71454500Y-87985500D02*
X71330000Y-88110000D01*
%TO.N,Net-(J2-SWCLK)*%
X69050000Y-81480000D02*
X69050000Y-85810000D01*
X69650000Y-86410000D02*
X69650000Y-89530000D01*
X69050000Y-85810000D02*
X69650000Y-86410000D01*
%TO.N,/BUT_POS4*%
X82000000Y-82370000D02*
X81620000Y-82750000D01*
X73490000Y-82750000D02*
X73470000Y-82750000D01*
X68660000Y-90030000D02*
X69650000Y-90030000D01*
X81620000Y-82750000D02*
X73490000Y-82750000D01*
%TO.N,/POS4*%
X68180000Y-90530000D02*
X69650000Y-90530000D01*
X76130000Y-82220000D02*
X80490000Y-77860000D01*
X80490000Y-77860000D02*
X80490000Y-69790000D01*
X74020000Y-82220000D02*
X76130000Y-82220000D01*
%TO.N,Net-(U1-FB)*%
X123190000Y-102250000D02*
X124170000Y-102250000D01*
X123200000Y-100960000D02*
X123200000Y-102240000D01*
X123200000Y-102240000D02*
X123190000Y-102250000D01*
%TD*%
%TA.AperFunction,Conductor*%
%TO.N,+12V*%
G36*
X118624553Y-69744923D02*
G01*
X118637444Y-69749112D01*
X118687732Y-69785641D01*
X118690776Y-69789832D01*
X118710000Y-69848957D01*
X118710000Y-72353467D01*
X118705074Y-72384562D01*
X118700885Y-72397451D01*
X118664358Y-72447732D01*
X118661854Y-72449551D01*
X118660168Y-72450776D01*
X118601042Y-72470000D01*
X115500000Y-72470000D01*
X115500000Y-72643767D01*
X115481411Y-72702030D01*
X115477125Y-72708062D01*
X115458795Y-72752235D01*
X115442856Y-72832102D01*
X115441312Y-75350147D01*
X115441313Y-75350156D01*
X115450946Y-75412956D01*
X115450948Y-75412964D01*
X115462243Y-75448833D01*
X115462246Y-75448841D01*
X115489636Y-75504419D01*
X115500000Y-75548889D01*
X115500000Y-75749821D01*
X115495074Y-75780916D01*
X115490885Y-75793805D01*
X115481519Y-75806696D01*
X115480787Y-75808952D01*
X115478869Y-75810345D01*
X115454359Y-75844085D01*
X115452166Y-75845679D01*
X115403873Y-75864317D01*
X115402156Y-75864503D01*
X115395006Y-75865279D01*
X115394494Y-75865335D01*
X115383639Y-75865922D01*
X115001781Y-75865922D01*
X114970694Y-75860998D01*
X114947090Y-75853328D01*
X114907044Y-75828788D01*
X114719732Y-75641476D01*
X114691506Y-75586078D01*
X114698088Y-75531452D01*
X114758120Y-75388245D01*
X114761688Y-75377559D01*
X114769988Y-75359118D01*
X114774589Y-75351149D01*
X114782839Y-75336861D01*
X114812300Y-75226913D01*
X114812300Y-75113087D01*
X114782839Y-75003139D01*
X114782807Y-75003084D01*
X114733038Y-74916881D01*
X114725926Y-74904562D01*
X114645438Y-74824074D01*
X114645435Y-74824072D01*
X114645430Y-74824069D01*
X114546868Y-74767164D01*
X114546866Y-74767163D01*
X114546864Y-74767162D01*
X114546861Y-74767161D01*
X114546855Y-74767159D01*
X114546844Y-74767156D01*
X114508422Y-74756861D01*
X114436915Y-74737700D01*
X114323084Y-74737700D01*
X114213135Y-74767162D01*
X114213134Y-74767162D01*
X114213132Y-74767163D01*
X114114563Y-74824072D01*
X114034072Y-74904563D01*
X113977163Y-75003132D01*
X113947700Y-75113083D01*
X113947700Y-75226919D01*
X113951308Y-75240381D01*
X113953917Y-75250118D01*
X113954348Y-75257396D01*
X113955062Y-75261898D01*
X113965403Y-75301489D01*
X113973717Y-75324011D01*
X113974913Y-75328474D01*
X113977161Y-75336863D01*
X113978117Y-75339172D01*
X113983736Y-75351149D01*
X114070870Y-75587160D01*
X114091881Y-75644072D01*
X114096574Y-75656782D01*
X114102800Y-75691624D01*
X114102800Y-75708822D01*
X114097873Y-75739920D01*
X114095284Y-75747885D01*
X114085921Y-75760768D01*
X114083587Y-75767953D01*
X114077471Y-75772396D01*
X114058733Y-75798181D01*
X113999599Y-75817387D01*
X113940480Y-75798174D01*
X113938359Y-75796633D01*
X113911587Y-75767601D01*
X113897914Y-75745167D01*
X113896769Y-75743288D01*
X113895548Y-75741230D01*
X113887432Y-75727171D01*
X113886329Y-75725121D01*
X113885927Y-75724563D01*
X113805439Y-75644075D01*
X113805438Y-75644074D01*
X113786498Y-75633139D01*
X113786497Y-75633138D01*
X113706864Y-75587162D01*
X113706861Y-75587161D01*
X113706855Y-75587159D01*
X113706844Y-75587156D01*
X113653412Y-75572839D01*
X113596915Y-75557700D01*
X113483084Y-75557700D01*
X113373135Y-75587162D01*
X113373134Y-75587162D01*
X113373132Y-75587163D01*
X113274563Y-75644072D01*
X113194072Y-75724563D01*
X113137163Y-75823132D01*
X113137162Y-75823134D01*
X113137162Y-75823135D01*
X113107700Y-75933084D01*
X113107700Y-76046915D01*
X113120733Y-76095552D01*
X113136577Y-76154683D01*
X113137162Y-76156864D01*
X113141489Y-76164358D01*
X113144858Y-76175552D01*
X113144802Y-76178087D01*
X113146927Y-76183622D01*
X113149746Y-76196881D01*
X113143250Y-76258715D01*
X113143248Y-76258719D01*
X113141143Y-76263447D01*
X113099541Y-76309651D01*
X113074564Y-76324072D01*
X113074563Y-76324073D01*
X113074560Y-76324075D01*
X113074555Y-76324081D01*
X112994072Y-76404563D01*
X112937163Y-76503132D01*
X112907700Y-76613083D01*
X112907700Y-76726917D01*
X112928473Y-76804438D01*
X112931763Y-76835739D01*
X112931054Y-76849272D01*
X112908774Y-76907317D01*
X112908771Y-76907321D01*
X112901706Y-76916045D01*
X112873828Y-76939854D01*
X112814581Y-76974061D01*
X112814563Y-76974072D01*
X112734072Y-77054563D01*
X112677163Y-77153132D01*
X112647700Y-77263083D01*
X112647700Y-77376915D01*
X112677163Y-77486866D01*
X112734069Y-77585430D01*
X112734074Y-77585438D01*
X112814563Y-77665927D01*
X112815124Y-77666331D01*
X112817177Y-77667436D01*
X112845706Y-77683907D01*
X112913135Y-77722837D01*
X112913139Y-77722839D01*
X113023087Y-77752300D01*
X113136912Y-77752300D01*
X113136913Y-77752300D01*
X113163234Y-77745246D01*
X113172096Y-77744531D01*
X113176586Y-77743720D01*
X113215941Y-77732536D01*
X113227170Y-77728115D01*
X113246861Y-77722839D01*
X113253857Y-77718799D01*
X113267300Y-77712316D01*
X113329850Y-77687690D01*
X113391909Y-77683907D01*
X113444339Y-77717324D01*
X113467115Y-77775177D01*
X113453823Y-77831597D01*
X113447164Y-77843130D01*
X113447163Y-77843131D01*
X113417700Y-77953083D01*
X113417700Y-78066918D01*
X113432631Y-78122638D01*
X113435921Y-78153947D01*
X113435211Y-78167481D01*
X113412935Y-78225515D01*
X113411778Y-78226944D01*
X113368438Y-78258012D01*
X113343512Y-78267215D01*
X113337754Y-78273024D01*
X113334213Y-78274761D01*
X113323584Y-78279717D01*
X113306764Y-78287561D01*
X113306762Y-78287561D01*
X113249821Y-78314113D01*
X113192398Y-78371536D01*
X113166932Y-78390037D01*
X113154857Y-78396189D01*
X113093461Y-78405915D01*
X113088348Y-78405105D01*
X113032950Y-78376885D01*
X113032944Y-78376878D01*
X112970182Y-78314117D01*
X112970179Y-78314114D01*
X112970173Y-78314111D01*
X112861561Y-78263464D01*
X112860443Y-78262924D01*
X112860327Y-78262888D01*
X112841555Y-78260417D01*
X112810274Y-78256300D01*
X112810272Y-78256300D01*
X112810269Y-78256300D01*
X112449731Y-78256300D01*
X112449728Y-78256300D01*
X112449726Y-78256300D01*
X112399675Y-78262888D01*
X112346762Y-78287562D01*
X112346761Y-78287561D01*
X112289826Y-78314111D01*
X112289817Y-78314117D01*
X112289815Y-78314120D01*
X112289814Y-78314119D01*
X112244090Y-78359842D01*
X112218625Y-78378343D01*
X112206546Y-78384497D01*
X112145147Y-78394222D01*
X112145138Y-78394220D01*
X112145137Y-78394221D01*
X112145135Y-78394220D01*
X112134062Y-78392467D01*
X112099493Y-78380227D01*
X112076864Y-78367162D01*
X112076861Y-78367161D01*
X112076855Y-78367159D01*
X112076844Y-78367156D01*
X112047405Y-78359268D01*
X111966917Y-78337700D01*
X111966915Y-78337700D01*
X111966913Y-78337700D01*
X111853087Y-78337700D01*
X111853084Y-78337700D01*
X111743135Y-78367162D01*
X111743134Y-78367162D01*
X111743132Y-78367163D01*
X111644563Y-78424072D01*
X111564072Y-78504563D01*
X111507163Y-78603132D01*
X111477700Y-78713083D01*
X111477700Y-78826915D01*
X111507163Y-78936866D01*
X111564069Y-79035430D01*
X111564074Y-79035438D01*
X111644563Y-79115927D01*
X111645124Y-79116331D01*
X111647177Y-79117436D01*
X111667160Y-79128973D01*
X111743135Y-79172837D01*
X111743139Y-79172839D01*
X111853087Y-79202300D01*
X111966913Y-79202300D01*
X112076861Y-79172839D01*
X112097593Y-79160868D01*
X112126967Y-79149591D01*
X112140230Y-79146772D01*
X112202061Y-79153269D01*
X112202064Y-79153270D01*
X112212322Y-79157837D01*
X112242539Y-79178604D01*
X112289821Y-79225886D01*
X112399672Y-79277110D01*
X112400345Y-79277424D01*
X112401811Y-79277682D01*
X112406199Y-79277969D01*
X112449726Y-79283700D01*
X112449728Y-79283700D01*
X112810269Y-79283700D01*
X112810274Y-79283700D01*
X112860324Y-79277111D01*
X112860324Y-79277110D01*
X112860359Y-79277106D01*
X112861193Y-79276706D01*
X112970179Y-79225886D01*
X113027602Y-79168461D01*
X113053063Y-79149964D01*
X113053797Y-79149590D01*
X113065138Y-79143811D01*
X113126528Y-79134083D01*
X113131646Y-79134893D01*
X113187045Y-79163110D01*
X113187055Y-79163121D01*
X113226234Y-79202299D01*
X113249821Y-79225886D01*
X113359672Y-79277110D01*
X113360345Y-79277424D01*
X113361811Y-79277682D01*
X113366199Y-79277969D01*
X113409726Y-79283700D01*
X113409728Y-79283700D01*
X113770269Y-79283700D01*
X113770274Y-79283700D01*
X113820324Y-79277111D01*
X113820324Y-79277110D01*
X113820359Y-79277106D01*
X113821193Y-79276706D01*
X113930179Y-79225886D01*
X114015886Y-79140179D01*
X114023976Y-79122828D01*
X114029971Y-79109975D01*
X114046525Y-79085020D01*
X114047002Y-79084491D01*
X114053914Y-79077080D01*
X114054771Y-79075899D01*
X114057605Y-79072766D01*
X114082659Y-79058370D01*
X114107015Y-79042847D01*
X114112195Y-79041507D01*
X114115498Y-79040654D01*
X114140677Y-79037452D01*
X114150488Y-79037452D01*
X114181574Y-79042375D01*
X114194465Y-79046564D01*
X114244749Y-79083088D01*
X114246341Y-79085278D01*
X114264982Y-79133583D01*
X114265713Y-79140323D01*
X114266300Y-79151170D01*
X114266300Y-79490440D01*
X114278117Y-79549856D01*
X114280464Y-79554246D01*
X114283624Y-79558097D01*
X114323140Y-79617238D01*
X114390520Y-79662259D01*
X114449936Y-79674078D01*
X114536267Y-79674078D01*
X114567353Y-79679001D01*
X114578062Y-79682481D01*
X114580244Y-79683190D01*
X114630532Y-79719719D01*
X114633576Y-79723910D01*
X114652800Y-79783035D01*
X114652800Y-80226071D01*
X114647874Y-80257164D01*
X114642645Y-80273254D01*
X114610965Y-80319783D01*
X114604597Y-80325033D01*
X114583120Y-80338585D01*
X114549826Y-80354110D01*
X114549824Y-80354111D01*
X114549820Y-80354114D01*
X114464114Y-80439820D01*
X114432306Y-80508034D01*
X114412888Y-80549675D01*
X114406300Y-80599725D01*
X114406300Y-80960274D01*
X114411790Y-81001982D01*
X114412888Y-81010325D01*
X114412888Y-81010326D01*
X114424597Y-81035436D01*
X114424598Y-81035438D01*
X114464114Y-81120179D01*
X114549821Y-81205886D01*
X114659672Y-81257110D01*
X114660345Y-81257424D01*
X114661811Y-81257682D01*
X114666199Y-81257969D01*
X114709726Y-81263700D01*
X114709728Y-81263700D01*
X115130269Y-81263700D01*
X115130274Y-81263700D01*
X115180324Y-81257111D01*
X115180326Y-81257110D01*
X115180328Y-81257110D01*
X115228184Y-81234793D01*
X115289894Y-81227216D01*
X115344274Y-81257358D01*
X115370550Y-81313707D01*
X115371300Y-81325968D01*
X115371300Y-82707499D01*
X115374866Y-82725438D01*
X115387162Y-82787303D01*
X115387165Y-82787310D01*
X115405437Y-82831463D01*
X115405438Y-82831464D01*
X115405439Y-82831466D01*
X115405441Y-82831470D01*
X115442578Y-82890633D01*
X115457666Y-82901352D01*
X115494741Y-82951261D01*
X115500000Y-82983361D01*
X115500000Y-83070000D01*
X118583383Y-83070000D01*
X118614469Y-83074923D01*
X118627360Y-83079112D01*
X118677652Y-83115647D01*
X118677658Y-83115655D01*
X118677660Y-83115657D01*
X118677660Y-83115658D01*
X118680689Y-83119826D01*
X118699909Y-83178955D01*
X118699909Y-83179051D01*
X118689998Y-95050000D01*
X119745832Y-95835182D01*
X119936264Y-95976799D01*
X122240000Y-97690000D01*
X123413543Y-97690000D01*
X123444629Y-97694923D01*
X123457520Y-97699112D01*
X123507813Y-97735648D01*
X123510863Y-97739846D01*
X123530082Y-97798909D01*
X123531070Y-99104896D01*
X123526171Y-99135982D01*
X123521994Y-99148869D01*
X123521995Y-99148872D01*
X123521993Y-99148873D01*
X123521993Y-99148876D01*
X123492653Y-99189329D01*
X123485492Y-99199203D01*
X123481307Y-99202249D01*
X123422192Y-99221512D01*
X123422183Y-99221512D01*
X105736609Y-99234910D01*
X105705523Y-99230011D01*
X105692629Y-99225833D01*
X105642300Y-99189329D01*
X105642298Y-99189326D01*
X105639259Y-99185150D01*
X105620000Y-99126034D01*
X105620000Y-97009827D01*
X108416300Y-97009827D01*
X108416300Y-97136371D01*
X108422509Y-97215253D01*
X108471672Y-97398737D01*
X108557917Y-97568002D01*
X108623974Y-97649573D01*
X108623974Y-97649574D01*
X108623975Y-97649574D01*
X108677468Y-97715632D01*
X108731656Y-97759513D01*
X108759037Y-97781686D01*
X108759038Y-97781686D01*
X108759040Y-97781688D01*
X108825097Y-97835181D01*
X108825099Y-97835182D01*
X108994355Y-97921423D01*
X108994358Y-97921424D01*
X108994360Y-97921425D01*
X109139073Y-97960200D01*
X109177851Y-97970591D01*
X109256746Y-97976800D01*
X109256757Y-97976800D01*
X111383243Y-97976800D01*
X111383254Y-97976800D01*
X111462149Y-97970591D01*
X111553895Y-97946007D01*
X111645639Y-97921425D01*
X111814902Y-97835181D01*
X111962532Y-97715632D01*
X112082081Y-97568002D01*
X112168324Y-97398741D01*
X112168500Y-97398081D01*
X112169267Y-97395227D01*
X112176580Y-97367927D01*
X112193284Y-97305589D01*
X112217491Y-97215249D01*
X112223700Y-97136354D01*
X112223700Y-97009846D01*
X112217491Y-96930951D01*
X112207100Y-96892173D01*
X112168325Y-96747460D01*
X112168323Y-96747457D01*
X112168323Y-96747455D01*
X112082082Y-96578199D01*
X112082081Y-96578197D01*
X112028588Y-96512140D01*
X111962532Y-96430568D01*
X111896474Y-96377075D01*
X111896474Y-96377074D01*
X111896473Y-96377074D01*
X111814902Y-96311017D01*
X111645637Y-96224772D01*
X111462153Y-96175609D01*
X111383271Y-96169400D01*
X111383263Y-96169400D01*
X111383254Y-96169400D01*
X109256746Y-96169400D01*
X109256736Y-96169400D01*
X109256727Y-96169400D01*
X109177845Y-96175609D01*
X108994361Y-96224772D01*
X108825096Y-96311017D01*
X108677471Y-96430564D01*
X108677464Y-96430571D01*
X108557917Y-96578196D01*
X108471672Y-96747461D01*
X108422509Y-96930945D01*
X108416300Y-97009827D01*
X105620000Y-97009827D01*
X105620000Y-93009827D01*
X114116300Y-93009827D01*
X114116300Y-95136371D01*
X114122509Y-95215253D01*
X114171672Y-95398737D01*
X114257917Y-95568002D01*
X114323974Y-95649573D01*
X114323974Y-95649574D01*
X114323975Y-95649574D01*
X114377468Y-95715632D01*
X114434534Y-95761843D01*
X114459037Y-95781686D01*
X114459038Y-95781686D01*
X114459040Y-95781688D01*
X114525097Y-95835181D01*
X114525099Y-95835182D01*
X114694355Y-95921423D01*
X114694358Y-95921424D01*
X114694360Y-95921425D01*
X114839073Y-95960200D01*
X114877851Y-95970591D01*
X114956746Y-95976800D01*
X114956757Y-95976800D01*
X115083243Y-95976800D01*
X115083254Y-95976800D01*
X115162149Y-95970591D01*
X115269747Y-95941760D01*
X115269748Y-95941760D01*
X115345636Y-95921426D01*
X115345636Y-95921425D01*
X115345639Y-95921425D01*
X115514902Y-95835181D01*
X115662532Y-95715632D01*
X115782081Y-95568002D01*
X115868324Y-95398741D01*
X115868326Y-95398737D01*
X115892907Y-95306995D01*
X115917491Y-95215249D01*
X115923700Y-95136354D01*
X115923700Y-93009846D01*
X115917491Y-92930951D01*
X115868657Y-92748700D01*
X115868325Y-92747460D01*
X115782081Y-92578197D01*
X115728588Y-92512140D01*
X115662532Y-92430568D01*
X115596474Y-92377075D01*
X115596474Y-92377074D01*
X115596473Y-92377074D01*
X115514902Y-92311017D01*
X115345637Y-92224772D01*
X115162153Y-92175609D01*
X115083271Y-92169400D01*
X115083263Y-92169400D01*
X115083254Y-92169400D01*
X114956746Y-92169400D01*
X114956736Y-92169400D01*
X114956727Y-92169400D01*
X114877845Y-92175609D01*
X114694361Y-92224772D01*
X114525096Y-92311017D01*
X114377471Y-92430564D01*
X114377464Y-92430571D01*
X114257917Y-92578196D01*
X114171672Y-92747461D01*
X114122509Y-92930945D01*
X114116300Y-93009827D01*
X105620000Y-93009827D01*
X105620000Y-84690842D01*
X113926300Y-84690842D01*
X113926300Y-84849156D01*
X113957186Y-85004435D01*
X114017765Y-85150684D01*
X114017768Y-85150691D01*
X114017772Y-85150699D01*
X114017775Y-85150703D01*
X114017778Y-85150709D01*
X114105721Y-85282325D01*
X114217673Y-85394277D01*
X114349290Y-85482221D01*
X114349307Y-85482231D01*
X114422437Y-85512522D01*
X114492275Y-85541450D01*
X114495029Y-85542707D01*
X114600246Y-85563635D01*
X114650842Y-85573700D01*
X114650843Y-85573700D01*
X114809157Y-85573700D01*
X114809158Y-85573700D01*
X114964431Y-85542814D01*
X115110695Y-85482230D01*
X115242329Y-85394275D01*
X115354275Y-85282329D01*
X115442230Y-85150695D01*
X115502814Y-85004431D01*
X115533700Y-84849158D01*
X115533700Y-84690842D01*
X115502814Y-84535569D01*
X115442234Y-84389314D01*
X115442231Y-84389306D01*
X115442230Y-84389305D01*
X115425374Y-84364077D01*
X115425370Y-84364073D01*
X115354276Y-84257672D01*
X115242327Y-84145723D01*
X115242325Y-84145721D01*
X115110709Y-84057778D01*
X115110703Y-84057775D01*
X115110699Y-84057772D01*
X115110693Y-84057769D01*
X115110692Y-84057768D01*
X115110684Y-84057765D01*
X114964435Y-83997186D01*
X114860915Y-83976595D01*
X114847969Y-83974020D01*
X114809158Y-83966300D01*
X114809157Y-83966300D01*
X114650842Y-83966300D01*
X114612023Y-83974020D01*
X114612023Y-83974021D01*
X114599083Y-83976595D01*
X114495563Y-83997186D01*
X114349314Y-84057765D01*
X114349306Y-84057768D01*
X114349304Y-84057770D01*
X114349289Y-84057778D01*
X114217307Y-84145965D01*
X114215432Y-84147963D01*
X114107963Y-84255432D01*
X114105965Y-84257307D01*
X114017778Y-84389289D01*
X114017770Y-84389304D01*
X114017768Y-84389306D01*
X114017765Y-84389314D01*
X113957186Y-84535563D01*
X113926300Y-84690842D01*
X105620000Y-84690842D01*
X105620000Y-82403083D01*
X113277700Y-82403083D01*
X113277700Y-82516915D01*
X113307162Y-82626864D01*
X113307163Y-82626866D01*
X113312932Y-82636857D01*
X113312933Y-82636861D01*
X113312934Y-82636861D01*
X113364074Y-82725438D01*
X113444563Y-82805927D01*
X113445121Y-82806329D01*
X113447173Y-82807433D01*
X113540681Y-82861420D01*
X113545156Y-82864162D01*
X113563490Y-82876069D01*
X113602616Y-82924389D01*
X113605868Y-82986478D01*
X113572006Y-83038619D01*
X113566870Y-83042778D01*
X113546519Y-83055564D01*
X113543134Y-83057162D01*
X113444566Y-83114070D01*
X113444560Y-83114075D01*
X113444555Y-83114081D01*
X113364072Y-83194563D01*
X113307163Y-83293132D01*
X113307162Y-83293134D01*
X113307162Y-83293135D01*
X113277700Y-83403084D01*
X113277700Y-83516915D01*
X113307162Y-83626864D01*
X113345396Y-83693087D01*
X113364074Y-83725438D01*
X113364075Y-83725439D01*
X113444563Y-83805927D01*
X113445124Y-83806331D01*
X113447177Y-83807436D01*
X113485480Y-83829550D01*
X113543135Y-83862837D01*
X113543139Y-83862839D01*
X113653087Y-83892300D01*
X113766913Y-83892300D01*
X113876861Y-83862839D01*
X113975438Y-83805926D01*
X114055926Y-83725438D01*
X114112839Y-83626861D01*
X114142300Y-83516913D01*
X114142300Y-83403087D01*
X114112839Y-83293139D01*
X114055926Y-83194562D01*
X113975438Y-83114074D01*
X113975437Y-83114073D01*
X113975430Y-83114069D01*
X113879330Y-83058585D01*
X113877498Y-83057019D01*
X113874843Y-83055835D01*
X113856514Y-83043933D01*
X113817384Y-82995616D01*
X113814128Y-82933528D01*
X113829870Y-82909283D01*
X113832259Y-82900411D01*
X113839355Y-82894677D01*
X113847986Y-82881385D01*
X113853264Y-82877111D01*
X113870972Y-82866678D01*
X113870782Y-82866349D01*
X113931194Y-82831470D01*
X113975438Y-82805926D01*
X114055926Y-82725438D01*
X114112839Y-82626861D01*
X114142300Y-82516913D01*
X114142300Y-82403087D01*
X114112839Y-82293139D01*
X114055926Y-82194562D01*
X113975438Y-82114074D01*
X113975437Y-82114073D01*
X113975430Y-82114069D01*
X113876868Y-82057164D01*
X113876866Y-82057163D01*
X113876864Y-82057162D01*
X113876861Y-82057161D01*
X113876855Y-82057159D01*
X113876844Y-82057156D01*
X113847405Y-82049268D01*
X113766917Y-82027700D01*
X113766915Y-82027700D01*
X113766913Y-82027700D01*
X113653087Y-82027700D01*
X113653084Y-82027700D01*
X113543135Y-82057162D01*
X113543134Y-82057162D01*
X113543132Y-82057163D01*
X113444563Y-82114072D01*
X113364072Y-82194563D01*
X113307163Y-82293132D01*
X113277700Y-82403083D01*
X105620000Y-82403083D01*
X105620000Y-81318056D01*
X105624923Y-81286971D01*
X105629112Y-81274077D01*
X105665632Y-81223798D01*
X105667114Y-81222721D01*
X105717061Y-81203916D01*
X105726493Y-81203050D01*
X105726493Y-81203049D01*
X105730070Y-81202721D01*
X105739268Y-81202300D01*
X105846913Y-81202300D01*
X105956861Y-81172839D01*
X106055438Y-81115926D01*
X106135926Y-81035438D01*
X106192839Y-80936861D01*
X106222300Y-80826913D01*
X106222300Y-80713087D01*
X106192839Y-80603139D01*
X106192838Y-80603138D01*
X106192838Y-80603136D01*
X106171073Y-80565440D01*
X106171072Y-80565438D01*
X106137937Y-80508046D01*
X106135926Y-80504562D01*
X106055438Y-80424074D01*
X106055439Y-80424074D01*
X106005839Y-80395438D01*
X105956864Y-80367162D01*
X105956861Y-80367161D01*
X105956855Y-80367159D01*
X105956835Y-80367153D01*
X105915870Y-80356177D01*
X105915868Y-80356176D01*
X105908170Y-80354114D01*
X105846915Y-80337700D01*
X105846913Y-80337700D01*
X105738207Y-80337700D01*
X105733015Y-80337160D01*
X105731831Y-80336634D01*
X105725078Y-80336013D01*
X105704721Y-80332237D01*
X105650091Y-80302565D01*
X105648832Y-80301238D01*
X105623690Y-80254189D01*
X105622478Y-80248830D01*
X105620000Y-80226639D01*
X105620000Y-73318832D01*
X105624923Y-73287747D01*
X105629112Y-73274853D01*
X105665654Y-73224557D01*
X105669853Y-73221507D01*
X105728977Y-73202300D01*
X105776913Y-73202300D01*
X105886861Y-73172839D01*
X105985438Y-73115926D01*
X106065926Y-73035438D01*
X106095566Y-72984099D01*
X106115374Y-72959637D01*
X106129705Y-72946733D01*
X106176118Y-72923089D01*
X106180333Y-72922193D01*
X106186205Y-72921577D01*
X106186503Y-72921445D01*
X106186821Y-72921512D01*
X106201229Y-72920000D01*
X111460000Y-72920000D01*
X112783074Y-70614345D01*
X112802816Y-70589836D01*
X112817062Y-70576941D01*
X112863526Y-70553151D01*
X112867859Y-70552224D01*
X112873524Y-70551625D01*
X112873794Y-70551505D01*
X112874086Y-70551566D01*
X112888900Y-70550000D01*
X115990000Y-70550000D01*
X116570118Y-69792103D01*
X116592917Y-69770415D01*
X116611288Y-69757757D01*
X116668364Y-69740000D01*
X118593467Y-69740000D01*
X118624553Y-69744923D01*
G37*
%TD.AperFunction*%
%TD*%
%TA.AperFunction,Conductor*%
%TO.N,/BOUT1*%
G36*
X125435471Y-78270629D02*
G01*
X125459384Y-78275399D01*
X125468173Y-78279045D01*
X125501979Y-78312886D01*
X125505616Y-78321679D01*
X125510362Y-78345603D01*
X125509583Y-79735102D01*
X125504813Y-79759015D01*
X125501163Y-79767814D01*
X125467731Y-79801220D01*
X125467337Y-79801614D01*
X125458558Y-79805248D01*
X125434654Y-79810000D01*
X123087891Y-79810000D01*
X123082476Y-79812242D01*
X123079543Y-79814406D01*
X121043068Y-80889213D01*
X121028927Y-80894605D01*
X121014555Y-80898166D01*
X120999524Y-80900000D01*
X117894931Y-80900000D01*
X117871009Y-80895240D01*
X117865055Y-80892774D01*
X117862217Y-80891598D01*
X117828399Y-80857776D01*
X117824758Y-80848986D01*
X117820000Y-80825068D01*
X117820000Y-78644931D01*
X117824758Y-78621013D01*
X117824761Y-78621007D01*
X117828399Y-78612222D01*
X117862222Y-78578399D01*
X117871013Y-78574757D01*
X117894931Y-78570000D01*
X118045069Y-78570000D01*
X118068989Y-78574759D01*
X118077778Y-78578400D01*
X118111598Y-78612217D01*
X118113011Y-78615628D01*
X118115240Y-78621009D01*
X118120000Y-78644931D01*
X118120000Y-80070000D01*
X118530000Y-80470000D01*
X119420923Y-80470000D01*
X119437093Y-80472128D01*
X119452454Y-80476244D01*
X119467514Y-80482480D01*
X119471018Y-80484503D01*
X119472529Y-80485442D01*
X119472743Y-80485499D01*
X119472746Y-80485501D01*
X119523569Y-80499118D01*
X119532117Y-80501409D01*
X119532119Y-80501409D01*
X119532125Y-80501411D01*
X119563667Y-80509863D01*
X119565025Y-80510379D01*
X119568855Y-80511283D01*
X119569716Y-80511500D01*
X119569775Y-80511500D01*
X119569776Y-80511500D01*
X119670224Y-80511500D01*
X119670225Y-80511500D01*
X119767254Y-80485501D01*
X119771664Y-80482954D01*
X119772510Y-80482465D01*
X119772554Y-80482459D01*
X119787545Y-80476244D01*
X119800192Y-80472855D01*
X119802905Y-80472129D01*
X119819077Y-80470000D01*
X120369999Y-80470000D01*
X120370000Y-80470000D01*
X122208095Y-78992958D01*
X122218962Y-78985944D01*
X122230332Y-78980177D01*
X122242404Y-78975556D01*
X122317254Y-78955501D01*
X122404247Y-78905276D01*
X122475276Y-78834247D01*
X122522778Y-78751970D01*
X122526886Y-78745747D01*
X122528154Y-78744054D01*
X122528155Y-78744055D01*
X122539055Y-78729512D01*
X122549916Y-78718281D01*
X123083122Y-78289812D01*
X123101528Y-78279575D01*
X123120551Y-78272885D01*
X123141314Y-78269345D01*
X125435471Y-78270629D01*
G37*
%TD.AperFunction*%
%TD*%
%TA.AperFunction,Conductor*%
%TO.N,GND*%
G36*
X123273106Y-94095023D02*
G01*
X123288104Y-94099427D01*
X123303094Y-94109057D01*
X123320175Y-94114067D01*
X123346855Y-94137172D01*
X123348042Y-94138541D01*
X123375518Y-94193402D01*
X123377163Y-94200960D01*
X123380000Y-94227331D01*
X123380000Y-95948170D01*
X123374975Y-95983114D01*
X123370570Y-95998112D01*
X123360939Y-96013101D01*
X123355932Y-96030175D01*
X123332827Y-96056855D01*
X123331458Y-96058042D01*
X123276597Y-96085518D01*
X123269039Y-96087163D01*
X123242668Y-96090000D01*
X120976642Y-96090000D01*
X120909603Y-96070315D01*
X120902646Y-96065502D01*
X120550004Y-95803255D01*
X120507956Y-95747454D01*
X120500000Y-95703753D01*
X120500000Y-95519998D01*
X120287717Y-95420934D01*
X120258183Y-95401607D01*
X120246246Y-95391090D01*
X120209097Y-95332490D01*
X120204877Y-95317897D01*
X120200000Y-95283460D01*
X120200000Y-94231829D01*
X120205023Y-94196893D01*
X120209427Y-94181895D01*
X120219057Y-94166904D01*
X120224067Y-94149824D01*
X120247172Y-94123144D01*
X120248541Y-94121957D01*
X120303420Y-94094477D01*
X120310979Y-94092833D01*
X120337332Y-94090000D01*
X123238170Y-94090000D01*
X123273106Y-94095023D01*
G37*
%TD.AperFunction*%
%TD*%
%TA.AperFunction,Conductor*%
%TO.N,Net-(U1-SW)*%
G36*
X131198989Y-94634759D02*
G01*
X131207768Y-94638396D01*
X131207769Y-94638396D01*
X131207770Y-94638396D01*
X131207771Y-94638397D01*
X131207778Y-94638400D01*
X131241369Y-94671988D01*
X131241598Y-94672217D01*
X131245240Y-94681009D01*
X131250000Y-94704931D01*
X131250000Y-97155068D01*
X131245240Y-97178992D01*
X131241598Y-97187782D01*
X131207784Y-97221597D01*
X131201757Y-97224094D01*
X131198992Y-97225239D01*
X131175069Y-97230000D01*
X124887826Y-97230000D01*
X124465731Y-97703570D01*
X124460000Y-97710000D01*
X124460000Y-98735068D01*
X124455240Y-98758992D01*
X124451598Y-98767782D01*
X124417784Y-98801597D01*
X124411757Y-98804094D01*
X124408992Y-98805239D01*
X124385069Y-98810000D01*
X123924931Y-98810000D01*
X123901009Y-98805240D01*
X123895628Y-98803011D01*
X123892217Y-98801598D01*
X123858399Y-98767776D01*
X123854758Y-98758986D01*
X123850000Y-98735068D01*
X123850000Y-97719852D01*
X123850343Y-97713318D01*
X123851024Y-97706840D01*
X123852049Y-97700367D01*
X123950000Y-97240000D01*
X123940287Y-94705164D01*
X123944953Y-94681235D01*
X123948562Y-94672427D01*
X123982253Y-94638477D01*
X123990925Y-94634847D01*
X124015057Y-94630000D01*
X131175069Y-94630000D01*
X131198989Y-94634759D01*
G37*
%TD.AperFunction*%
%TD*%
%TA.AperFunction,Conductor*%
%TO.N,GND*%
G36*
X104598212Y-78830252D02*
G01*
X104633146Y-78835287D01*
X104648143Y-78839696D01*
X104663125Y-78849325D01*
X104680183Y-78854330D01*
X104706862Y-78877437D01*
X104708054Y-78878812D01*
X104735530Y-78933695D01*
X104737170Y-78941239D01*
X104740000Y-78967580D01*
X104740000Y-81888170D01*
X104734975Y-81923112D01*
X104734811Y-81923671D01*
X104730570Y-81938112D01*
X104720939Y-81953101D01*
X104715932Y-81970175D01*
X104692827Y-81996855D01*
X104691458Y-81998042D01*
X104636597Y-82025518D01*
X104629039Y-82027163D01*
X104602668Y-82030000D01*
X103930295Y-82030000D01*
X103895359Y-82024977D01*
X103870117Y-82017565D01*
X103817372Y-81986269D01*
X103754771Y-81923668D01*
X103635358Y-81843879D01*
X103635359Y-81843879D01*
X103635349Y-81843874D01*
X103502672Y-81788919D01*
X103502645Y-81788913D01*
X103361815Y-81760900D01*
X103361813Y-81760900D01*
X103361810Y-81760900D01*
X103218190Y-81760900D01*
X103218187Y-81760900D01*
X103218185Y-81760900D01*
X103077353Y-81788913D01*
X103077326Y-81788919D01*
X102944653Y-81843873D01*
X102944636Y-81843881D01*
X102897812Y-81875169D01*
X102870638Y-81888170D01*
X102865973Y-81890402D01*
X102852981Y-81894470D01*
X102783123Y-81895717D01*
X102723680Y-81858997D01*
X102695001Y-81803566D01*
X102693170Y-81795493D01*
X102690100Y-81768044D01*
X102690903Y-78971525D01*
X102695936Y-78936600D01*
X102700346Y-78921595D01*
X102709983Y-78906606D01*
X102715000Y-78889526D01*
X102738110Y-78862856D01*
X102739487Y-78861664D01*
X102794350Y-78834212D01*
X102801921Y-78832567D01*
X102828263Y-78829742D01*
X104598212Y-78830252D01*
G37*
%TD.AperFunction*%
%TD*%
%TA.AperFunction,Conductor*%
%TO.N,GND*%
G36*
X112088473Y-69000903D02*
G01*
X112123404Y-69005937D01*
X112127505Y-69007143D01*
X112138403Y-69010347D01*
X112153393Y-69019985D01*
X112170484Y-69025007D01*
X112197153Y-69048123D01*
X112198339Y-69049493D01*
X112225786Y-69104353D01*
X112227429Y-69111915D01*
X112230256Y-69138278D01*
X112229855Y-70529753D01*
X112213405Y-70591433D01*
X111986004Y-70987716D01*
X111935565Y-71036065D01*
X111878454Y-71050000D01*
X109171830Y-71050000D01*
X109171825Y-71049999D01*
X109171823Y-71050000D01*
X109136889Y-71044975D01*
X109121890Y-71040570D01*
X109063144Y-71002827D01*
X109063115Y-71002793D01*
X109063114Y-71002793D01*
X109063113Y-71002791D01*
X109061957Y-71001458D01*
X109034477Y-70946583D01*
X109032832Y-70939021D01*
X109030000Y-70912668D01*
X109030000Y-69141890D01*
X109035023Y-69106954D01*
X109039427Y-69091956D01*
X109077164Y-69033212D01*
X109077200Y-69033180D01*
X109077199Y-69033180D01*
X109078527Y-69032029D01*
X109133413Y-69004543D01*
X109140999Y-69002894D01*
X109167364Y-69000064D01*
X112088473Y-69000903D01*
G37*
%TD.AperFunction*%
%TD*%
%TA.AperFunction,Conductor*%
%TO.N,/AOUT2*%
G36*
X116413694Y-72767164D02*
G01*
X116413705Y-72767167D01*
X116413710Y-72767164D01*
X116415001Y-72767165D01*
X116419879Y-72767170D01*
X116419995Y-72767219D01*
X116419995Y-72767170D01*
X116420940Y-72767171D01*
X116422181Y-72767178D01*
X122589647Y-72770369D01*
X122589647Y-72770368D01*
X122601841Y-72770375D01*
X122602749Y-72770000D01*
X125473712Y-72770000D01*
X125485477Y-72772340D01*
X125489802Y-72774131D01*
X125506445Y-72790771D01*
X125506447Y-72790774D01*
X125508235Y-72795091D01*
X125510575Y-72806877D01*
X125509423Y-74693617D01*
X125507076Y-74705380D01*
X125505283Y-74709702D01*
X125505283Y-74709704D01*
X125488633Y-74726338D01*
X125484308Y-74728127D01*
X125472540Y-74730462D01*
X122965834Y-74729282D01*
X122955780Y-74727587D01*
X122946545Y-74724387D01*
X122937596Y-74719497D01*
X122666703Y-74506297D01*
X122662481Y-74502268D01*
X122658708Y-74497912D01*
X122655326Y-74493162D01*
X122645276Y-74475753D01*
X122574247Y-74404724D01*
X122574244Y-74404722D01*
X122574243Y-74404721D01*
X122487254Y-74354499D01*
X122487255Y-74354499D01*
X122484189Y-74353677D01*
X122473633Y-74350848D01*
X122471377Y-74349836D01*
X122471214Y-74349663D01*
X122470199Y-74349278D01*
X122464731Y-74346540D01*
X122459481Y-74343208D01*
X121349093Y-73469306D01*
X121347961Y-73468301D01*
X121347658Y-73468176D01*
X121347657Y-73468176D01*
X121347656Y-73468176D01*
X116810000Y-73470498D01*
X116810000Y-75361146D01*
X116807659Y-75372915D01*
X116803335Y-75383353D01*
X116796670Y-75393327D01*
X116720000Y-75469998D01*
X116720000Y-76933132D01*
X116717659Y-76944900D01*
X116715867Y-76949226D01*
X116699228Y-76965866D01*
X116699226Y-76965866D01*
X116699225Y-76965868D01*
X116699223Y-76965867D01*
X116694903Y-76967658D01*
X116683133Y-76970000D01*
X116456867Y-76970000D01*
X116445099Y-76967659D01*
X116440773Y-76965867D01*
X116440771Y-76965865D01*
X116440769Y-76965865D01*
X116434113Y-76959207D01*
X116424131Y-76949225D01*
X116424130Y-76949221D01*
X116422339Y-76944895D01*
X116420000Y-76933132D01*
X116420000Y-75469998D01*
X116343333Y-75393331D01*
X116336670Y-75383360D01*
X116332344Y-75372915D01*
X116330005Y-75361149D01*
X116330307Y-74404721D01*
X116330810Y-72804001D01*
X116333154Y-72792237D01*
X116334947Y-72787912D01*
X116351585Y-72771280D01*
X116355919Y-72769486D01*
X116367680Y-72767149D01*
X116413694Y-72767164D01*
G37*
%TD.AperFunction*%
%TD*%
%TA.AperFunction,Conductor*%
%TO.N,+12V*%
G36*
X117368989Y-78574759D02*
G01*
X117377768Y-78578396D01*
X117377769Y-78578396D01*
X117377770Y-78578396D01*
X117377771Y-78578397D01*
X117377778Y-78578400D01*
X117411598Y-78612217D01*
X117413011Y-78615628D01*
X117415240Y-78621009D01*
X117420000Y-78644931D01*
X117420000Y-80070000D01*
X117492903Y-80142903D01*
X117506450Y-80163177D01*
X117515242Y-80184402D01*
X117520000Y-80208319D01*
X117520000Y-81030000D01*
X117866486Y-81030000D01*
X117872614Y-81030301D01*
X117875809Y-81030615D01*
X117894931Y-81032500D01*
X119971104Y-81032500D01*
X119995022Y-81037258D01*
X119997780Y-81038400D01*
X120031598Y-81072217D01*
X120035240Y-81081009D01*
X120040000Y-81104931D01*
X120040000Y-81825068D01*
X120035240Y-81848992D01*
X120031598Y-81857782D01*
X119997784Y-81891597D01*
X119991757Y-81894094D01*
X119988992Y-81895239D01*
X119965069Y-81900000D01*
X117094931Y-81900000D01*
X117071009Y-81895240D01*
X117065628Y-81893011D01*
X117062217Y-81891598D01*
X117028399Y-81857776D01*
X117024758Y-81848986D01*
X117020000Y-81825068D01*
X117020000Y-80195719D01*
X117024756Y-80171805D01*
X117032666Y-80152707D01*
X117050147Y-80128822D01*
X117120000Y-80070000D01*
X117120000Y-78644931D01*
X117124758Y-78621013D01*
X117124761Y-78621007D01*
X117128399Y-78612222D01*
X117162222Y-78578399D01*
X117171013Y-78574757D01*
X117194931Y-78570000D01*
X117345069Y-78570000D01*
X117368989Y-78574759D01*
G37*
%TD.AperFunction*%
%TD*%
%TA.AperFunction,Conductor*%
%TO.N,+12V*%
G36*
X119988989Y-73644759D02*
G01*
X119997768Y-73648396D01*
X119997769Y-73648396D01*
X119997770Y-73648396D01*
X119997771Y-73648397D01*
X119997778Y-73648400D01*
X120031598Y-73682217D01*
X120033011Y-73685628D01*
X120035240Y-73691009D01*
X120040000Y-73714931D01*
X120040000Y-74435068D01*
X120035240Y-74458992D01*
X120031598Y-74467782D01*
X119997798Y-74501591D01*
X119995044Y-74502733D01*
X119971104Y-74507500D01*
X117894931Y-74507500D01*
X117874959Y-74509466D01*
X117872602Y-74509699D01*
X117866477Y-74510000D01*
X117520000Y-74510000D01*
X117520000Y-75331680D01*
X117515242Y-75355599D01*
X117506451Y-75376821D01*
X117492903Y-75397096D01*
X117420000Y-75469999D01*
X117420000Y-76895068D01*
X117415240Y-76918992D01*
X117411598Y-76927782D01*
X117377784Y-76961597D01*
X117371757Y-76964094D01*
X117368992Y-76965239D01*
X117345069Y-76970000D01*
X117194931Y-76970000D01*
X117171009Y-76965240D01*
X117165628Y-76963011D01*
X117162217Y-76961598D01*
X117128399Y-76927776D01*
X117124758Y-76918986D01*
X117120000Y-76895068D01*
X117120000Y-75470000D01*
X117051749Y-75412525D01*
X117036520Y-75393480D01*
X117027009Y-75375132D01*
X117020000Y-75346373D01*
X117020000Y-73714931D01*
X117024758Y-73691013D01*
X117024761Y-73691007D01*
X117028399Y-73682222D01*
X117062223Y-73648399D01*
X117062228Y-73648397D01*
X117071013Y-73644757D01*
X117094931Y-73640000D01*
X119965069Y-73640000D01*
X119988989Y-73644759D01*
G37*
%TD.AperFunction*%
%TD*%
%TA.AperFunction,Conductor*%
%TO.N,GND*%
G36*
X121373039Y-69759685D02*
G01*
X121418794Y-69812489D01*
X121430000Y-69864000D01*
X121430000Y-71416000D01*
X121410315Y-71483039D01*
X121357511Y-71528794D01*
X121306000Y-71540000D01*
X119674000Y-71540000D01*
X119606961Y-71520315D01*
X119561206Y-71467511D01*
X119550000Y-71416000D01*
X119550000Y-69864000D01*
X119569685Y-69796961D01*
X119622489Y-69751206D01*
X119674000Y-69740000D01*
X121306000Y-69740000D01*
X121373039Y-69759685D01*
G37*
%TD.AperFunction*%
%TD*%
%TA.AperFunction,Conductor*%
%TO.N,GND*%
G36*
X116001694Y-78588306D02*
G01*
X116020000Y-78632500D01*
X116020000Y-80070000D01*
X116057347Y-80123353D01*
X116078689Y-80153842D01*
X116089987Y-80189721D01*
X116088442Y-82707768D01*
X116070109Y-82751951D01*
X116025904Y-82770230D01*
X115642462Y-82769995D01*
X115598279Y-82751662D01*
X115580000Y-82707495D01*
X115580000Y-80289700D01*
X115591297Y-80253860D01*
X115720000Y-80070000D01*
X115720000Y-78632500D01*
X115738306Y-78588306D01*
X115782500Y-78570000D01*
X115957500Y-78570000D01*
X116001694Y-78588306D01*
G37*
%TD.AperFunction*%
%TD*%
%TA.AperFunction,Conductor*%
%TO.N,GND*%
G36*
X116097539Y-72770004D02*
G01*
X116141721Y-72788337D01*
X116160000Y-72832504D01*
X116160000Y-75250299D01*
X116148702Y-75286140D01*
X116020000Y-75470000D01*
X116020000Y-76907500D01*
X116001694Y-76951694D01*
X115957500Y-76970000D01*
X115782500Y-76970000D01*
X115738306Y-76951694D01*
X115720000Y-76907500D01*
X115720000Y-75470000D01*
X115661310Y-75386157D01*
X115650012Y-75350278D01*
X115651557Y-72832504D01*
X115651557Y-72832229D01*
X115669890Y-72788048D01*
X115714094Y-72769769D01*
X116097539Y-72770004D01*
G37*
%TD.AperFunction*%
%TD*%
%TA.AperFunction,Conductor*%
%TO.N,/BOUT2*%
G36*
X116694898Y-78572340D02*
G01*
X116699223Y-78574131D01*
X116699224Y-78574131D01*
X116699225Y-78574131D01*
X116710318Y-78585224D01*
X116715866Y-78590771D01*
X116715867Y-78590773D01*
X116717659Y-78595099D01*
X116720000Y-78606867D01*
X116720000Y-80070000D01*
X116796670Y-80146671D01*
X116803334Y-80156643D01*
X116807659Y-80167087D01*
X116810000Y-80178852D01*
X116810000Y-82069502D01*
X121343018Y-82071820D01*
X121346774Y-82071822D01*
X121347785Y-82071852D01*
X121349071Y-82070710D01*
X122781085Y-80943680D01*
X122786330Y-80940351D01*
X122791810Y-80937608D01*
X122796073Y-80935990D01*
X122797251Y-80935501D01*
X122797254Y-80935501D01*
X122884247Y-80885276D01*
X122945482Y-80824039D01*
X122955451Y-80817378D01*
X122965885Y-80813054D01*
X122977642Y-80810711D01*
X125472543Y-80809536D01*
X125484304Y-80811870D01*
X125488636Y-80813662D01*
X125505284Y-80830295D01*
X125507077Y-80834618D01*
X125509423Y-80846380D01*
X125510575Y-82733113D01*
X125508240Y-82744887D01*
X125506450Y-82749214D01*
X125489828Y-82765858D01*
X125487021Y-82767023D01*
X125485512Y-82767649D01*
X125473722Y-82770000D01*
X122599916Y-82770000D01*
X122596542Y-82769657D01*
X122596530Y-82769785D01*
X122594977Y-82769627D01*
X116422124Y-82772820D01*
X116422028Y-82772822D01*
X116420880Y-82772827D01*
X116420138Y-82772831D01*
X116420024Y-82772831D01*
X116420022Y-82772831D01*
X116419873Y-82772831D01*
X116419874Y-82772832D01*
X116419869Y-82772832D01*
X116410037Y-82772835D01*
X116367687Y-82772849D01*
X116355921Y-82770512D01*
X116351592Y-82768721D01*
X116351590Y-82768719D01*
X116351590Y-82768720D01*
X116346049Y-82763181D01*
X116334948Y-82752087D01*
X116333152Y-82747756D01*
X116330810Y-82735995D01*
X116330600Y-82069502D01*
X116330246Y-80943681D01*
X116330006Y-80178852D01*
X116332342Y-80167091D01*
X116336663Y-80156651D01*
X116343328Y-80146671D01*
X116420000Y-80070000D01*
X116420000Y-78606867D01*
X116422339Y-78595104D01*
X116424130Y-78590778D01*
X116440769Y-78574134D01*
X116440776Y-78574131D01*
X116442122Y-78573573D01*
X116445104Y-78572339D01*
X116456867Y-78570000D01*
X116683133Y-78570000D01*
X116694898Y-78572340D01*
G37*
%TD.AperFunction*%
%TD*%
%TA.AperFunction,Conductor*%
%TO.N,GND*%
G36*
X134144053Y-65275423D02*
G01*
X134144107Y-65275441D01*
X134156944Y-65279612D01*
X134207232Y-65316141D01*
X134210276Y-65320332D01*
X134229500Y-65379457D01*
X134229500Y-82934934D01*
X134224574Y-82966029D01*
X134220385Y-82978918D01*
X134183847Y-83029207D01*
X134179644Y-83032261D01*
X134120632Y-83051477D01*
X125731421Y-83061828D01*
X125672266Y-83042688D01*
X125635659Y-82992433D01*
X125635582Y-82930259D01*
X125651590Y-82900940D01*
X125651379Y-82900799D01*
X125652968Y-82898416D01*
X125653494Y-82897455D01*
X125654111Y-82896699D01*
X125654121Y-82896690D01*
X125699300Y-82828992D01*
X125701090Y-82824665D01*
X125712953Y-82785485D01*
X125715288Y-82773711D01*
X125719275Y-82732986D01*
X125718123Y-80846253D01*
X125714092Y-80805558D01*
X125711746Y-80793796D01*
X125699854Y-80754662D01*
X125699850Y-80754652D01*
X125698061Y-80750338D01*
X125652793Y-80682658D01*
X125652792Y-80682657D01*
X125652791Y-80682655D01*
X125636143Y-80666022D01*
X125568412Y-80620811D01*
X125564080Y-80619019D01*
X125524929Y-80607162D01*
X125524924Y-80607161D01*
X125524921Y-80607160D01*
X125513173Y-80604829D01*
X125513168Y-80604828D01*
X125513161Y-80604827D01*
X125513159Y-80604827D01*
X125472446Y-80600836D01*
X125472445Y-80600836D01*
X125471268Y-80600836D01*
X122977549Y-80602010D01*
X122977542Y-80602011D01*
X122936862Y-80606035D01*
X122936853Y-80606036D01*
X122925096Y-80608379D01*
X122925095Y-80608379D01*
X122885998Y-80620249D01*
X122885972Y-80620259D01*
X122875568Y-80624570D01*
X122875541Y-80624583D01*
X122839508Y-80643847D01*
X122829520Y-80650521D01*
X122797911Y-80676462D01*
X122797908Y-80676465D01*
X122765464Y-80708910D01*
X122744628Y-80724898D01*
X122707582Y-80746286D01*
X122699510Y-80750375D01*
X122699543Y-80750444D01*
X122698369Y-80750994D01*
X122692927Y-80753718D01*
X122674499Y-80764142D01*
X122674493Y-80764145D01*
X122669254Y-80767471D01*
X122669234Y-80767484D01*
X122652030Y-80779667D01*
X122652008Y-80779683D01*
X121302828Y-81841520D01*
X121244479Y-81862993D01*
X121240560Y-81863067D01*
X120349249Y-81862611D01*
X120290127Y-81843368D01*
X120253608Y-81793049D01*
X120248700Y-81762011D01*
X120248700Y-81209300D01*
X120267913Y-81150169D01*
X120318213Y-81113624D01*
X120349300Y-81108700D01*
X120999515Y-81108700D01*
X120999524Y-81108700D01*
X121024801Y-81107164D01*
X121039832Y-81105330D01*
X121051085Y-81103256D01*
X121064707Y-81100748D01*
X121064723Y-81100744D01*
X121064748Y-81100740D01*
X121079120Y-81097179D01*
X121103283Y-81089610D01*
X121117424Y-81084218D01*
X121140481Y-81073784D01*
X123117548Y-80030330D01*
X123164504Y-80018700D01*
X125434655Y-80018700D01*
X125438353Y-80018335D01*
X125475346Y-80014694D01*
X125499250Y-80009942D01*
X125538379Y-79998080D01*
X125547158Y-79994446D01*
X125614910Y-79949187D01*
X125615246Y-79948850D01*
X125615247Y-79948851D01*
X125648679Y-79915445D01*
X125693935Y-79847780D01*
X125697585Y-79838981D01*
X125709481Y-79799841D01*
X125714251Y-79775928D01*
X125718283Y-79735219D01*
X125719062Y-78345720D01*
X125715073Y-78304993D01*
X125710327Y-78281069D01*
X125698470Y-78241910D01*
X125698464Y-78241895D01*
X125694835Y-78233120D01*
X125694834Y-78233119D01*
X125676173Y-78205160D01*
X125649629Y-78165389D01*
X125649627Y-78165386D01*
X125615823Y-78131548D01*
X125615820Y-78131545D01*
X125575214Y-78104383D01*
X125548142Y-78086274D01*
X125539353Y-78082628D01*
X125539350Y-78082627D01*
X125500220Y-78070733D01*
X125500205Y-78070729D01*
X125476294Y-78065960D01*
X125435587Y-78061928D01*
X125435591Y-78061928D01*
X123143989Y-78060646D01*
X123141431Y-78060645D01*
X123141430Y-78060645D01*
X123141429Y-78060645D01*
X123106243Y-78063613D01*
X123106241Y-78063613D01*
X123085471Y-78067154D01*
X123051314Y-78076004D01*
X123051306Y-78076006D01*
X123032297Y-78082692D01*
X123032295Y-78082692D01*
X123032289Y-78082695D01*
X123000088Y-78097187D01*
X123000083Y-78097189D01*
X123000078Y-78097192D01*
X122981691Y-78107418D01*
X122981675Y-78107428D01*
X122952400Y-78127123D01*
X122663907Y-78358947D01*
X122605779Y-78381009D01*
X122545784Y-78364691D01*
X122528442Y-78350323D01*
X122519915Y-78341472D01*
X122515926Y-78334562D01*
X122443120Y-78261756D01*
X122442463Y-78261074D01*
X122441770Y-78259650D01*
X122425277Y-78236949D01*
X122418685Y-78224011D01*
X122415664Y-78205961D01*
X122415275Y-78205160D01*
X122415406Y-78204418D01*
X122408700Y-78164340D01*
X122410380Y-78152386D01*
X122418824Y-78123877D01*
X122467110Y-78020328D01*
X122473700Y-77970272D01*
X122473700Y-77549728D01*
X122469778Y-77519937D01*
X122467111Y-77499675D01*
X122455304Y-77474354D01*
X122415886Y-77389821D01*
X122330179Y-77304114D01*
X122326439Y-77302370D01*
X122221561Y-77253464D01*
X122220443Y-77252924D01*
X122220327Y-77252888D01*
X122201555Y-77250417D01*
X122170274Y-77246300D01*
X122170272Y-77246300D01*
X122170269Y-77246300D01*
X121809731Y-77246300D01*
X121809728Y-77246300D01*
X121809726Y-77246300D01*
X121768016Y-77251790D01*
X121759674Y-77252888D01*
X121649820Y-77304114D01*
X121649819Y-77304116D01*
X121612163Y-77341770D01*
X121586703Y-77360267D01*
X121572673Y-77367416D01*
X121515211Y-77377689D01*
X121493169Y-77375088D01*
X121478922Y-77372353D01*
X121438637Y-77361559D01*
X121438635Y-77361559D01*
X121386915Y-77347700D01*
X121315274Y-77347700D01*
X121284190Y-77342777D01*
X121272297Y-77338912D01*
X121221998Y-77302370D01*
X121202819Y-77245872D01*
X121202551Y-77235644D01*
X121205945Y-77206968D01*
X121207300Y-77201913D01*
X121207300Y-77088087D01*
X121177839Y-76978139D01*
X121130991Y-76896995D01*
X121119713Y-76867616D01*
X121117306Y-76856293D01*
X121123804Y-76794459D01*
X121165403Y-76748255D01*
X121167583Y-76746996D01*
X121169715Y-76745767D01*
X121219996Y-76732300D01*
X121236913Y-76732300D01*
X121346861Y-76702839D01*
X121445438Y-76645926D01*
X121525926Y-76565438D01*
X121582839Y-76466861D01*
X121582839Y-76466859D01*
X121585111Y-76462925D01*
X121631315Y-76421322D01*
X121693149Y-76414823D01*
X121735248Y-76434806D01*
X122898433Y-77369509D01*
X122898434Y-77369509D01*
X122898436Y-77369511D01*
X122898437Y-77369512D01*
X122926366Y-77391955D01*
X122952392Y-77412869D01*
X122952394Y-77412870D01*
X122981659Y-77432560D01*
X122981662Y-77432561D01*
X122981670Y-77432567D01*
X123000080Y-77442807D01*
X123000098Y-77442815D01*
X123024332Y-77453722D01*
X123032285Y-77457301D01*
X123051310Y-77463992D01*
X123051312Y-77463992D01*
X123051316Y-77463994D01*
X123065438Y-77467652D01*
X123085486Y-77472846D01*
X123106256Y-77476386D01*
X123141438Y-77479353D01*
X125434947Y-77478069D01*
X125435589Y-77478069D01*
X125442372Y-77477397D01*
X125476297Y-77474037D01*
X125500210Y-77469267D01*
X125539353Y-77457370D01*
X125548142Y-77453724D01*
X125615822Y-77408451D01*
X125626582Y-77397680D01*
X125626582Y-77397679D01*
X125632301Y-77391955D01*
X125632305Y-77391949D01*
X125649629Y-77374608D01*
X125694833Y-77306881D01*
X125695978Y-77304114D01*
X125698464Y-77298102D01*
X125698465Y-77298099D01*
X125698470Y-77298088D01*
X125710327Y-77258929D01*
X125715073Y-77235005D01*
X125719062Y-77194278D01*
X125718283Y-75804771D01*
X125714256Y-75764085D01*
X125709492Y-75740188D01*
X125697614Y-75701080D01*
X125693981Y-75692315D01*
X125686845Y-75675100D01*
X125674048Y-75664361D01*
X125649243Y-75625418D01*
X125648897Y-75624870D01*
X125648749Y-75624635D01*
X125648742Y-75624626D01*
X125614924Y-75590817D01*
X125614918Y-75590812D01*
X125614915Y-75590809D01*
X125614911Y-75590806D01*
X125614906Y-75590802D01*
X125547241Y-75545594D01*
X125547235Y-75545591D01*
X125544659Y-75544524D01*
X125538436Y-75541946D01*
X125499269Y-75530065D01*
X125499268Y-75530064D01*
X125499259Y-75530062D01*
X125475358Y-75525309D01*
X125475345Y-75525307D01*
X125434646Y-75521300D01*
X123164507Y-75521300D01*
X123117551Y-75509669D01*
X122929438Y-75410387D01*
X122845976Y-75366337D01*
X122835466Y-75361162D01*
X122835450Y-75361154D01*
X122829119Y-75358255D01*
X122818392Y-75353700D01*
X122811925Y-75351164D01*
X122803482Y-75348124D01*
X122800947Y-75347211D01*
X122794315Y-75345030D01*
X122783136Y-75341697D01*
X122756087Y-75334448D01*
X122731826Y-75324398D01*
X122714442Y-75314361D01*
X122696323Y-75300990D01*
X122688880Y-75294085D01*
X122688877Y-75294082D01*
X122681782Y-75287978D01*
X122669553Y-75278230D01*
X122669547Y-75278225D01*
X122662080Y-75272718D01*
X122649166Y-75263921D01*
X122641227Y-75258937D01*
X122627691Y-75251130D01*
X121748121Y-74786912D01*
X121737669Y-74781764D01*
X121731308Y-74778849D01*
X121720616Y-74774307D01*
X121714097Y-74771749D01*
X121703064Y-74767774D01*
X121696506Y-74765618D01*
X121696498Y-74765615D01*
X121696484Y-74765611D01*
X121693376Y-74764684D01*
X121685271Y-74762267D01*
X121656093Y-74754450D01*
X121631827Y-74744399D01*
X121614684Y-74734501D01*
X121596568Y-74721132D01*
X121593975Y-74718727D01*
X121587700Y-74712905D01*
X121580605Y-74706801D01*
X121568376Y-74697053D01*
X121568370Y-74697048D01*
X121560903Y-74691541D01*
X121547997Y-74682749D01*
X121547983Y-74682740D01*
X121540056Y-74677764D01*
X121540037Y-74677753D01*
X121526520Y-74669958D01*
X121526511Y-74669953D01*
X121140480Y-74466215D01*
X121140474Y-74466212D01*
X121140466Y-74466208D01*
X121140457Y-74466203D01*
X121117420Y-74455779D01*
X121103294Y-74450393D01*
X121103285Y-74450390D01*
X121103276Y-74450387D01*
X121103273Y-74450386D01*
X121079102Y-74442815D01*
X121079091Y-74442812D01*
X121079087Y-74442811D01*
X121064731Y-74439255D01*
X121064696Y-74439248D01*
X121039848Y-74434673D01*
X121039827Y-74434670D01*
X121039825Y-74434669D01*
X121039821Y-74434669D01*
X121033471Y-74433894D01*
X121024797Y-74432836D01*
X121024800Y-74432836D01*
X121015317Y-74432260D01*
X120999524Y-74431300D01*
X120999514Y-74431300D01*
X120349300Y-74431300D01*
X120290169Y-74412087D01*
X120253624Y-74361787D01*
X120248700Y-74330700D01*
X120248700Y-73777986D01*
X120267913Y-73718855D01*
X120318213Y-73682310D01*
X120349244Y-73677386D01*
X121240562Y-73676930D01*
X121299701Y-73696113D01*
X121302813Y-73698466D01*
X122330409Y-74507208D01*
X122347648Y-74519415D01*
X122350336Y-74521121D01*
X122352888Y-74522741D01*
X122352894Y-74522744D01*
X122352898Y-74522747D01*
X122371288Y-74533152D01*
X122371304Y-74533160D01*
X122376747Y-74535886D01*
X122376755Y-74535889D01*
X122376756Y-74535890D01*
X122384757Y-74539399D01*
X122385959Y-74540255D01*
X122388215Y-74541267D01*
X122392438Y-74542769D01*
X122396183Y-74544412D01*
X122396201Y-74544418D01*
X122397394Y-74544907D01*
X122397366Y-74544973D01*
X122410815Y-74551353D01*
X122434632Y-74565103D01*
X122455466Y-74581089D01*
X122471787Y-74597410D01*
X122484551Y-74613250D01*
X122484631Y-74613197D01*
X122485275Y-74614149D01*
X122485282Y-74614157D01*
X122485300Y-74614185D01*
X122485320Y-74614215D01*
X122488688Y-74618946D01*
X122488695Y-74618956D01*
X122488698Y-74618959D01*
X122500956Y-74634550D01*
X122500976Y-74634573D01*
X122504722Y-74638899D01*
X122504732Y-74638910D01*
X122518391Y-74653244D01*
X122518399Y-74653252D01*
X122522621Y-74657281D01*
X122533092Y-74666361D01*
X122537625Y-74670292D01*
X122537646Y-74670309D01*
X122654499Y-74762275D01*
X122793735Y-74871858D01*
X122808528Y-74883500D01*
X122808535Y-74883505D01*
X122837528Y-74902643D01*
X122846463Y-74907526D01*
X122867586Y-74916878D01*
X122878215Y-74921584D01*
X122887450Y-74924784D01*
X122921085Y-74933383D01*
X122931139Y-74935078D01*
X122965736Y-74937982D01*
X125472442Y-74939162D01*
X125513158Y-74935171D01*
X125513162Y-74935170D01*
X125513164Y-74935170D01*
X125513165Y-74935169D01*
X125517131Y-74934382D01*
X125524913Y-74932839D01*
X125524926Y-74932836D01*
X125564080Y-74920980D01*
X125564084Y-74920977D01*
X125564557Y-74920835D01*
X125574090Y-74918449D01*
X125581980Y-74916881D01*
X125649360Y-74871860D01*
X125694381Y-74804480D01*
X125694719Y-74802779D01*
X125699281Y-74787771D01*
X125699013Y-74787675D01*
X125699844Y-74785356D01*
X125700938Y-74781759D01*
X125711742Y-74746216D01*
X125714089Y-74734453D01*
X125718123Y-74693744D01*
X125719275Y-72807004D01*
X125715279Y-72766235D01*
X125712939Y-72754449D01*
X125701051Y-72715231D01*
X125699263Y-72710914D01*
X125699263Y-72710913D01*
X125680100Y-72675015D01*
X125680095Y-72675007D01*
X125680093Y-72675004D01*
X125654006Y-72643186D01*
X125637366Y-72626548D01*
X125637362Y-72626545D01*
X125569650Y-72581310D01*
X125569648Y-72581309D01*
X125569647Y-72581308D01*
X125565325Y-72579519D01*
X125565306Y-72579512D01*
X125526194Y-72567649D01*
X125514421Y-72565308D01*
X125473712Y-72561300D01*
X122602749Y-72561300D01*
X122601603Y-72561300D01*
X122594004Y-72561670D01*
X122589827Y-72561668D01*
X122589767Y-72561668D01*
X122589758Y-72561668D01*
X122589756Y-72561667D01*
X122589754Y-72561668D01*
X119309725Y-72559970D01*
X119250604Y-72540726D01*
X119214085Y-72490408D01*
X119209177Y-72459430D01*
X119207719Y-69864000D01*
X119550000Y-69864000D01*
X119550000Y-71416000D01*
X119561206Y-71467511D01*
X119606961Y-71520315D01*
X119674000Y-71540000D01*
X121306000Y-71540000D01*
X121357511Y-71528794D01*
X121410315Y-71483039D01*
X121430000Y-71416000D01*
X121430000Y-69864000D01*
X121418794Y-69812489D01*
X121373039Y-69759685D01*
X121306000Y-69740000D01*
X119674000Y-69740000D01*
X119622489Y-69751206D01*
X119569685Y-69796961D01*
X119550000Y-69864000D01*
X119207719Y-69864000D01*
X119206554Y-67790253D01*
X129600500Y-67790253D01*
X129600500Y-68049745D01*
X129634369Y-68307005D01*
X129634370Y-68307011D01*
X129634375Y-68307038D01*
X129701521Y-68557629D01*
X129701524Y-68557636D01*
X129701529Y-68557654D01*
X129701530Y-68557657D01*
X129701532Y-68557662D01*
X129701534Y-68557668D01*
X129800829Y-68797387D01*
X129875735Y-68927126D01*
X129930576Y-69022113D01*
X129930581Y-69022120D01*
X129930589Y-69022131D01*
X129930600Y-69022146D01*
X130088530Y-69227965D01*
X130272033Y-69411468D01*
X130477852Y-69569398D01*
X130477863Y-69569405D01*
X130477879Y-69569418D01*
X130477886Y-69569423D01*
X130702611Y-69699169D01*
X130942342Y-69798469D01*
X130942345Y-69798470D01*
X130942360Y-69798474D01*
X130942369Y-69798477D01*
X131124677Y-69847326D01*
X131192977Y-69865627D01*
X131192980Y-69865627D01*
X131192990Y-69865630D01*
X131423445Y-69895970D01*
X131450255Y-69899500D01*
X131450256Y-69899500D01*
X131450257Y-69899500D01*
X131709743Y-69899500D01*
X131709744Y-69899500D01*
X131734023Y-69896303D01*
X131967010Y-69865630D01*
X131967020Y-69865627D01*
X131967022Y-69865627D01*
X131967045Y-69865620D01*
X131967351Y-69865555D01*
X131968418Y-69865253D01*
X132002430Y-69856139D01*
X132078709Y-69835700D01*
X132217655Y-69798470D01*
X132457389Y-69699169D01*
X132682111Y-69569425D01*
X132887975Y-69411460D01*
X133071460Y-69227975D01*
X133229425Y-69022111D01*
X133359169Y-68797389D01*
X133458470Y-68557655D01*
X133495700Y-68418709D01*
X133525627Y-68307022D01*
X133525627Y-68307020D01*
X133525630Y-68307010D01*
X133559500Y-68049743D01*
X133559500Y-67790257D01*
X133559499Y-67790253D01*
X133553106Y-67741695D01*
X133525630Y-67532990D01*
X133458470Y-67282345D01*
X133359169Y-67042611D01*
X133229425Y-66817889D01*
X133229423Y-66817886D01*
X133229418Y-66817879D01*
X133229400Y-66817855D01*
X133071468Y-66612033D01*
X132887965Y-66428530D01*
X132682146Y-66270600D01*
X132682131Y-66270589D01*
X132682120Y-66270581D01*
X132682113Y-66270576D01*
X132587126Y-66215735D01*
X132457387Y-66140829D01*
X132217668Y-66041534D01*
X132217662Y-66041532D01*
X132217657Y-66041530D01*
X132217654Y-66041529D01*
X132217639Y-66041525D01*
X132217636Y-66041524D01*
X132217629Y-66041521D01*
X131967022Y-65974372D01*
X131967008Y-65974369D01*
X131966697Y-65974306D01*
X131965384Y-65974155D01*
X131795499Y-65951790D01*
X131795498Y-65951790D01*
X131709745Y-65940500D01*
X131709744Y-65940500D01*
X131709743Y-65940500D01*
X131450257Y-65940500D01*
X131450256Y-65940500D01*
X131450255Y-65940500D01*
X131321623Y-65957435D01*
X131195046Y-65974099D01*
X131193584Y-65974261D01*
X131192993Y-65974368D01*
X131192961Y-65974375D01*
X130942369Y-66041521D01*
X130942363Y-66041524D01*
X130942357Y-66041525D01*
X130942345Y-66041529D01*
X130942342Y-66041530D01*
X130942338Y-66041531D01*
X130942330Y-66041534D01*
X130702611Y-66140829D01*
X130477889Y-66270574D01*
X130477852Y-66270600D01*
X130272033Y-66428530D01*
X130088530Y-66612033D01*
X129930600Y-66817852D01*
X129930574Y-66817889D01*
X129800829Y-67042611D01*
X129701534Y-67282330D01*
X129701524Y-67282363D01*
X129701521Y-67282369D01*
X129634375Y-67532960D01*
X129634370Y-67532987D01*
X129634369Y-67532993D01*
X129600500Y-67790253D01*
X119206554Y-67790253D01*
X119205203Y-65387085D01*
X119210112Y-65355994D01*
X119214295Y-65343099D01*
X119214362Y-65343007D01*
X119250807Y-65292788D01*
X119250808Y-65292786D01*
X119254986Y-65289748D01*
X119314105Y-65270500D01*
X134112967Y-65270500D01*
X134144053Y-65275423D01*
G37*
%TD.AperFunction*%
%TA.AperFunction,Conductor*%
G36*
X120056197Y-75297913D02*
G01*
X120092742Y-75348213D01*
X120092742Y-75410387D01*
X120068201Y-75450435D01*
X119984068Y-75534568D01*
X119975033Y-75550215D01*
X119975034Y-75550216D01*
X119970457Y-75558143D01*
X119964708Y-75564900D01*
X119962110Y-75568642D01*
X119942168Y-75604410D01*
X119937343Y-75615496D01*
X119934491Y-75620438D01*
X119927165Y-75633128D01*
X119927159Y-75633141D01*
X119925072Y-75640931D01*
X119920151Y-75655017D01*
X119854704Y-75805455D01*
X119813499Y-75852012D01*
X119762457Y-75865922D01*
X119327570Y-75865922D01*
X119296481Y-75860997D01*
X119287816Y-75858182D01*
X119283588Y-75856808D01*
X119233294Y-75820266D01*
X119230246Y-75816071D01*
X119211032Y-75756994D01*
X119210962Y-75633141D01*
X119210820Y-75379356D01*
X119230000Y-75320215D01*
X119280279Y-75283641D01*
X119311420Y-75278700D01*
X119997066Y-75278700D01*
X120056197Y-75297913D01*
G37*
%TD.AperFunction*%
%TD*%
%TA.AperFunction,Conductor*%
%TO.N,GND*%
G36*
X117643039Y-100769685D02*
G01*
X117688794Y-100822489D01*
X117700000Y-100874000D01*
X117700000Y-102506000D01*
X117680315Y-102573039D01*
X117627511Y-102618794D01*
X117576000Y-102630000D01*
X116024000Y-102630000D01*
X115956961Y-102610315D01*
X115911206Y-102557511D01*
X115900000Y-102506000D01*
X115900000Y-100874000D01*
X115919685Y-100806961D01*
X115972489Y-100761206D01*
X116024000Y-100750000D01*
X117576000Y-100750000D01*
X117643039Y-100769685D01*
G37*
%TD.AperFunction*%
%TD*%
%TA.AperFunction,Conductor*%
%TO.N,GND*%
G36*
X115896297Y-65480909D02*
G01*
X115963329Y-65500613D01*
X116009069Y-65553430D01*
X116020260Y-65604945D01*
X116019742Y-67406036D01*
X116000038Y-67473069D01*
X115947221Y-67518809D01*
X115895742Y-67530000D01*
X112944000Y-67530000D01*
X112876961Y-67510315D01*
X112831206Y-67457511D01*
X112820000Y-67406000D01*
X112820000Y-65604061D01*
X112839685Y-65537022D01*
X112892489Y-65491267D01*
X112944033Y-65480061D01*
X115896297Y-65480909D01*
G37*
%TD.AperFunction*%
%TD*%
%TA.AperFunction,Conductor*%
%TO.N,/AOUT1*%
G36*
X121014551Y-74641833D02*
G01*
X121028923Y-74645393D01*
X121043068Y-74650786D01*
X121429099Y-74854524D01*
X121437026Y-74859500D01*
X121444495Y-74865009D01*
X121451590Y-74871113D01*
X121475753Y-74895276D01*
X121562746Y-74945501D01*
X121631280Y-74963864D01*
X121637884Y-74966036D01*
X121644382Y-74968585D01*
X121650710Y-74971485D01*
X122530276Y-75435701D01*
X122538203Y-75440677D01*
X122545672Y-75446186D01*
X122552767Y-75452290D01*
X122575753Y-75475276D01*
X122662746Y-75525501D01*
X122662749Y-75525502D01*
X122696352Y-75534505D01*
X122729117Y-75543285D01*
X122735749Y-75545466D01*
X122742218Y-75548002D01*
X122748563Y-75550908D01*
X123087894Y-75730000D01*
X125434646Y-75730000D01*
X125458560Y-75734756D01*
X125467361Y-75738402D01*
X125501180Y-75772212D01*
X125501184Y-75772223D01*
X125501186Y-75772225D01*
X125501186Y-75772226D01*
X125504819Y-75780991D01*
X125509583Y-75804888D01*
X125510362Y-77194395D01*
X125505616Y-77218319D01*
X125501979Y-77227112D01*
X125478933Y-77250182D01*
X125468173Y-77260953D01*
X125459384Y-77264599D01*
X125435471Y-77269369D01*
X123141321Y-77270653D01*
X123120551Y-77267113D01*
X123101526Y-77260422D01*
X123083116Y-77250182D01*
X123029164Y-77206828D01*
X121284528Y-75804888D01*
X120370005Y-75070003D01*
X120370003Y-75070002D01*
X120370002Y-75070001D01*
X120370000Y-75070000D01*
X120369999Y-75070000D01*
X118529998Y-75070000D01*
X118120000Y-75469998D01*
X118120000Y-76895068D01*
X118115240Y-76918992D01*
X118111598Y-76927782D01*
X118077784Y-76961597D01*
X118071757Y-76964094D01*
X118068992Y-76965239D01*
X118045069Y-76970000D01*
X117894931Y-76970000D01*
X117871009Y-76965240D01*
X117865628Y-76963011D01*
X117862217Y-76961598D01*
X117828399Y-76927776D01*
X117824758Y-76918986D01*
X117820000Y-76895068D01*
X117820000Y-74714931D01*
X117824758Y-74691013D01*
X117828399Y-74682223D01*
X117862223Y-74648399D01*
X117871013Y-74644758D01*
X117894931Y-74640000D01*
X120999524Y-74640000D01*
X121014551Y-74641833D01*
G37*
%TD.AperFunction*%
%TD*%
%TA.AperFunction,Conductor*%
%TO.N,GND*%
G36*
X120113039Y-100749685D02*
G01*
X120158794Y-100802489D01*
X120170000Y-100854000D01*
X120170000Y-102486000D01*
X120150315Y-102553039D01*
X120097511Y-102598794D01*
X120046000Y-102610000D01*
X118494000Y-102610000D01*
X118426961Y-102590315D01*
X118381206Y-102537511D01*
X118370000Y-102486000D01*
X118370000Y-100854000D01*
X118389685Y-100786961D01*
X118442489Y-100741206D01*
X118494000Y-100730000D01*
X120046000Y-100730000D01*
X120113039Y-100749685D01*
G37*
%TD.AperFunction*%
%TD*%
%TA.AperFunction,Conductor*%
%TO.N,GND*%
G36*
X103846037Y-74650258D02*
G01*
X103913070Y-74669962D01*
X103958809Y-74722779D01*
X103970000Y-74774258D01*
X103970000Y-77726000D01*
X103950315Y-77793039D01*
X103897511Y-77838794D01*
X103846000Y-77850000D01*
X102044062Y-77850000D01*
X101977023Y-77830315D01*
X101931268Y-77777511D01*
X101920062Y-77725964D01*
X101920909Y-74773703D01*
X101940613Y-74706670D01*
X101993430Y-74660930D01*
X102044941Y-74649739D01*
X103846037Y-74650258D01*
G37*
%TD.AperFunction*%
%TD*%
%TA.AperFunction,Conductor*%
%TO.N,+3.3V*%
G36*
X131363096Y-86785475D02*
G01*
X131375716Y-86789123D01*
X131378116Y-86789817D01*
X131393146Y-86799383D01*
X131410238Y-86804316D01*
X131437018Y-86827305D01*
X131438205Y-86828663D01*
X131465927Y-86883454D01*
X131467605Y-86891022D01*
X131470544Y-86917371D01*
X131492280Y-92388501D01*
X131487396Y-92423455D01*
X131483052Y-92438470D01*
X131473467Y-92453515D01*
X131468506Y-92470652D01*
X131445523Y-92497379D01*
X131445512Y-92497398D01*
X131445495Y-92497413D01*
X131444131Y-92498604D01*
X131389401Y-92526263D01*
X131381847Y-92527937D01*
X131355512Y-92530873D01*
X119635657Y-92577432D01*
X119600703Y-92572548D01*
X119585688Y-92568204D01*
X119570631Y-92558612D01*
X119553484Y-92553644D01*
X119526798Y-92530688D01*
X119526760Y-92530664D01*
X119525539Y-92529266D01*
X119497900Y-92474561D01*
X119497034Y-92470652D01*
X119496223Y-92466994D01*
X119493287Y-92440638D01*
X119493158Y-92406329D01*
X119472616Y-86972587D01*
X119477505Y-86937643D01*
X119481853Y-86922623D01*
X119519401Y-86863707D01*
X119520798Y-86862488D01*
X119575487Y-86834850D01*
X119583012Y-86833181D01*
X119609331Y-86830240D01*
X131328142Y-86780600D01*
X131363096Y-86785475D01*
G37*
%TD.AperFunction*%
%TD*%
%TA.AperFunction,Conductor*%
%TO.N,GND*%
G36*
X122833106Y-83325023D02*
G01*
X122848104Y-83329427D01*
X122863094Y-83339057D01*
X122880175Y-83344067D01*
X122906855Y-83367172D01*
X122908042Y-83368541D01*
X122935518Y-83423402D01*
X122937163Y-83430960D01*
X122940000Y-83457331D01*
X122940000Y-84978170D01*
X122934975Y-85013114D01*
X122930570Y-85028112D01*
X122920939Y-85043101D01*
X122915932Y-85060175D01*
X122892827Y-85086855D01*
X122891458Y-85088042D01*
X122836597Y-85115518D01*
X122829039Y-85117163D01*
X122802668Y-85120000D01*
X119731830Y-85120000D01*
X119696889Y-85114975D01*
X119681890Y-85110570D01*
X119666902Y-85100940D01*
X119649824Y-85095932D01*
X119623144Y-85072827D01*
X119621957Y-85071458D01*
X119594477Y-85016583D01*
X119592832Y-85009021D01*
X119590000Y-84982668D01*
X119590000Y-83461829D01*
X119595023Y-83426893D01*
X119599427Y-83411895D01*
X119609057Y-83396904D01*
X119614067Y-83379824D01*
X119637172Y-83353144D01*
X119638541Y-83351957D01*
X119693420Y-83324477D01*
X119700979Y-83322833D01*
X119727332Y-83320000D01*
X122798170Y-83320000D01*
X122833106Y-83325023D01*
G37*
%TD.AperFunction*%
%TD*%
%TA.AperFunction,Conductor*%
%TO.N,GND*%
G36*
X104586621Y-82960096D02*
G01*
X104621554Y-82965131D01*
X104636551Y-82969540D01*
X104651533Y-82979169D01*
X104668591Y-82984174D01*
X104695270Y-83007281D01*
X104696462Y-83008656D01*
X104723938Y-83063539D01*
X104725578Y-83071083D01*
X104728408Y-83097424D01*
X104728408Y-86018014D01*
X104723383Y-86052958D01*
X104718978Y-86067956D01*
X104709347Y-86082945D01*
X104704340Y-86100019D01*
X104681235Y-86126699D01*
X104679866Y-86127886D01*
X104625005Y-86155362D01*
X104617447Y-86157007D01*
X104591076Y-86159844D01*
X102820300Y-86159844D01*
X102785359Y-86154819D01*
X102770360Y-86150414D01*
X102755370Y-86140783D01*
X102738297Y-86135777D01*
X102711616Y-86112674D01*
X102710435Y-86111312D01*
X102682951Y-86056421D01*
X102681302Y-86048836D01*
X102678473Y-86022472D01*
X102679278Y-83219099D01*
X102679280Y-83208581D01*
X102684312Y-83173663D01*
X102688157Y-83160585D01*
X102725948Y-83101822D01*
X102789513Y-83072818D01*
X102851509Y-83079778D01*
X102859217Y-83082733D01*
X102883720Y-83095414D01*
X102906155Y-83110404D01*
X102944635Y-83136116D01*
X102944641Y-83136119D01*
X102944642Y-83136120D01*
X103077329Y-83191081D01*
X103218185Y-83219099D01*
X103218188Y-83219100D01*
X103218190Y-83219100D01*
X103361812Y-83219100D01*
X103361813Y-83219099D01*
X103502671Y-83191081D01*
X103635358Y-83136120D01*
X103754774Y-83056329D01*
X103802279Y-83008822D01*
X103830536Y-82987670D01*
X103853612Y-82975070D01*
X103913072Y-82959903D01*
X104586621Y-82960096D01*
G37*
%TD.AperFunction*%
%TD*%
%TA.AperFunction,Conductor*%
%TO.N,+3.3V*%
G36*
X77617326Y-85350803D02*
G01*
X78005394Y-85503581D01*
X78011837Y-85509801D01*
X78012808Y-85514468D01*
X78012808Y-85625531D01*
X78009381Y-85633804D01*
X78005394Y-85636418D01*
X77617326Y-85789196D01*
X77608373Y-85789038D01*
X77602153Y-85782595D01*
X77601622Y-85780864D01*
X77555175Y-85572543D01*
X77555175Y-85567456D01*
X77601621Y-85359141D01*
X77606766Y-85351815D01*
X77615586Y-85350270D01*
X77617326Y-85350803D01*
G37*
%TD.AperFunction*%
%TD*%
%TA.AperFunction,Conductor*%
%TO.N,+3.3V*%
G36*
X70334852Y-87905740D02*
G01*
X70531301Y-87951585D01*
X70538578Y-87956803D01*
X70540035Y-87965638D01*
X70539617Y-87967031D01*
X70396324Y-88355160D01*
X70390244Y-88361734D01*
X70385348Y-88362808D01*
X70274281Y-88362808D01*
X70266008Y-88359381D01*
X70263491Y-88355631D01*
X70133671Y-88045937D01*
X70133633Y-88036982D01*
X70138003Y-88031658D01*
X70325796Y-87907389D01*
X70334585Y-87905682D01*
X70334852Y-87905740D01*
G37*
%TD.AperFunction*%
%TD*%
%TA.AperFunction,Conductor*%
%TO.N,+3.3V*%
G36*
X69697028Y-95500381D02*
G01*
X70085160Y-95643676D01*
X70091734Y-95649756D01*
X70092808Y-95654652D01*
X70092808Y-95765718D01*
X70089381Y-95773991D01*
X70085631Y-95776508D01*
X69775937Y-95906328D01*
X69766982Y-95906366D01*
X69761657Y-95901995D01*
X69678618Y-95776508D01*
X69637389Y-95714203D01*
X69635682Y-95705414D01*
X69635737Y-95705161D01*
X69681586Y-95508697D01*
X69686803Y-95501421D01*
X69695638Y-95499964D01*
X69697028Y-95500381D01*
G37*
%TD.AperFunction*%
%TD*%
%TA.AperFunction,Conductor*%
%TO.N,+3.3V*%
G36*
X78018342Y-89338004D02*
G01*
X78142609Y-89525794D01*
X78144317Y-89534585D01*
X78144246Y-89534910D01*
X78098414Y-89731300D01*
X78093196Y-89738578D01*
X78084361Y-89740035D01*
X78082968Y-89739617D01*
X77694840Y-89596323D01*
X77688266Y-89590243D01*
X77687192Y-89585347D01*
X77687192Y-89474281D01*
X77690619Y-89466008D01*
X77694367Y-89463492D01*
X78004063Y-89333670D01*
X78013017Y-89333633D01*
X78018342Y-89338004D01*
G37*
%TD.AperFunction*%
%TD*%
%TA.AperFunction,Conductor*%
%TO.N,+3.3V*%
G36*
X74379053Y-96372457D02*
G01*
X74382480Y-96380730D01*
X74380304Y-96387526D01*
X74374900Y-96395098D01*
X74374901Y-96395098D01*
X74374901Y-96395099D01*
X74635033Y-96482575D01*
X74641783Y-96488460D01*
X74642821Y-96495725D01*
X74605247Y-96705790D01*
X74600417Y-96713331D01*
X74595790Y-96715247D01*
X74385725Y-96752821D01*
X74376978Y-96750905D01*
X74372575Y-96745034D01*
X74318881Y-96585362D01*
X74315501Y-96572746D01*
X74313436Y-96569170D01*
X74285099Y-96484901D01*
X74267391Y-96442151D01*
X74266500Y-96437673D01*
X74266500Y-96380730D01*
X74269927Y-96372457D01*
X74278200Y-96369030D01*
X74370780Y-96369030D01*
X74379053Y-96372457D01*
G37*
%TD.AperFunction*%
%TD*%
%TA.AperFunction,Conductor*%
%TO.N,+3.3V*%
G36*
X60947326Y-90910803D02*
G01*
X61335394Y-91063581D01*
X61341837Y-91069801D01*
X61342808Y-91074468D01*
X61342808Y-91185531D01*
X61339381Y-91193804D01*
X61335394Y-91196418D01*
X60947326Y-91349196D01*
X60938373Y-91349038D01*
X60932153Y-91342595D01*
X60931622Y-91340864D01*
X60885175Y-91132543D01*
X60885175Y-91127456D01*
X60931621Y-90919141D01*
X60936766Y-90911815D01*
X60945586Y-90910270D01*
X60947326Y-90910803D01*
G37*
%TD.AperFunction*%
%TD*%
%TA.AperFunction,Conductor*%
%TO.N,+3.3V*%
G36*
X69713621Y-95270619D02*
G01*
X69716324Y-95274840D01*
X69859617Y-95662968D01*
X69859267Y-95671916D01*
X69852693Y-95677996D01*
X69851300Y-95678414D01*
X69654910Y-95724246D01*
X69646075Y-95722789D01*
X69645794Y-95722609D01*
X69458004Y-95598342D01*
X69452996Y-95590919D01*
X69453671Y-95584062D01*
X69583491Y-95274369D01*
X69589849Y-95268064D01*
X69594281Y-95267192D01*
X69705348Y-95267192D01*
X69713621Y-95270619D01*
G37*
%TD.AperFunction*%
%TD*%
%TA.AperFunction,Conductor*%
%TO.N,+3.3V*%
G36*
X82651626Y-85360961D02*
G01*
X82657846Y-85367404D01*
X82658379Y-85369144D01*
X82704824Y-85577454D01*
X82704824Y-85582546D01*
X82658379Y-85790855D01*
X82653233Y-85798184D01*
X82644413Y-85799729D01*
X82642673Y-85799196D01*
X82254606Y-85646418D01*
X82248163Y-85640198D01*
X82247192Y-85635531D01*
X82247192Y-85524468D01*
X82250619Y-85516195D01*
X82254606Y-85513581D01*
X82642673Y-85360803D01*
X82651626Y-85360961D01*
G37*
%TD.AperFunction*%
%TD*%
%TA.AperFunction,Conductor*%
%TO.N,+3.3V*%
G36*
X121276779Y-77560875D02*
G01*
X121280348Y-77562427D01*
X121284989Y-77564445D01*
X121284990Y-77564446D01*
X121285747Y-77565230D01*
X121288750Y-77570811D01*
X121334544Y-77776198D01*
X121334824Y-77778744D01*
X121334824Y-77781255D01*
X121334544Y-77783801D01*
X121288885Y-77988584D01*
X121287038Y-77992764D01*
X121286015Y-77994220D01*
X121278459Y-77999019D01*
X121278455Y-77999019D01*
X121278455Y-77999020D01*
X121278454Y-77999019D01*
X121277385Y-77999207D01*
X121271082Y-77998569D01*
X120886771Y-77847270D01*
X120882929Y-77844799D01*
X120880764Y-77842708D01*
X120877194Y-77834495D01*
X120877192Y-77834292D01*
X120877192Y-77726795D01*
X120878081Y-77722321D01*
X120879234Y-77719537D01*
X120885563Y-77713206D01*
X120885693Y-77713152D01*
X121270509Y-77561654D01*
X121274997Y-77560844D01*
X121276779Y-77560875D01*
G37*
%TD.AperFunction*%
%TD*%
%TA.AperFunction,Conductor*%
%TO.N,+3.3V*%
G36*
X75723805Y-99880619D02*
G01*
X75726419Y-99884606D01*
X75879196Y-100272673D01*
X75879038Y-100281626D01*
X75872595Y-100287846D01*
X75870855Y-100288379D01*
X75662546Y-100334824D01*
X75657454Y-100334824D01*
X75449144Y-100288379D01*
X75441815Y-100283233D01*
X75440270Y-100274413D01*
X75440803Y-100272673D01*
X75593581Y-99884606D01*
X75599801Y-99878163D01*
X75604468Y-99877192D01*
X75715532Y-99877192D01*
X75723805Y-99880619D01*
G37*
%TD.AperFunction*%
%TD*%
%TA.AperFunction,Conductor*%
%TO.N,+3.3V*%
G36*
X126701626Y-102030961D02*
G01*
X126707846Y-102037404D01*
X126708379Y-102039144D01*
X126754824Y-102247454D01*
X126754824Y-102252546D01*
X126708379Y-102460855D01*
X126703233Y-102468184D01*
X126694413Y-102469729D01*
X126692673Y-102469196D01*
X126304606Y-102316418D01*
X126298163Y-102310198D01*
X126297192Y-102305531D01*
X126297192Y-102194468D01*
X126300619Y-102186195D01*
X126304606Y-102183581D01*
X126692673Y-102030803D01*
X126701626Y-102030961D01*
G37*
%TD.AperFunction*%
%TD*%
%TA.AperFunction,Conductor*%
%TO.N,+3.3V*%
G36*
X87801626Y-87960961D02*
G01*
X87807846Y-87967404D01*
X87808379Y-87969144D01*
X87854824Y-88177454D01*
X87854824Y-88182546D01*
X87808379Y-88390855D01*
X87803233Y-88398184D01*
X87794413Y-88399729D01*
X87792673Y-88399196D01*
X87404606Y-88246418D01*
X87398163Y-88240198D01*
X87397192Y-88235531D01*
X87397192Y-88124468D01*
X87400619Y-88116195D01*
X87404606Y-88113581D01*
X87792673Y-87960803D01*
X87801626Y-87960961D01*
G37*
%TD.AperFunction*%
%TD*%
%TA.AperFunction,Conductor*%
%TO.N,+3.3V*%
G36*
X75658548Y-100105042D02*
G01*
X75662689Y-100111218D01*
X75689849Y-100210383D01*
X75688730Y-100219268D01*
X75683406Y-100224125D01*
X75435444Y-100336835D01*
X75427456Y-100337453D01*
X75242836Y-100285888D01*
X75235789Y-100280362D01*
X75234283Y-100274619D01*
X75234283Y-100166783D01*
X75237710Y-100158510D01*
X75244480Y-100155180D01*
X75649905Y-100102706D01*
X75658548Y-100105042D01*
G37*
%TD.AperFunction*%
%TD*%
%TA.AperFunction,Conductor*%
%TO.N,/MP6602_SLEEP*%
G36*
X114371470Y-75166805D02*
G01*
X114376017Y-75168590D01*
X114450811Y-75218083D01*
X114560055Y-75290373D01*
X114563295Y-75293584D01*
X114564644Y-75295583D01*
X114566589Y-75303277D01*
X114566499Y-75304189D01*
X114565646Y-75307563D01*
X114437408Y-75613484D01*
X114434858Y-75617267D01*
X114432694Y-75619414D01*
X114424454Y-75622808D01*
X114316979Y-75622808D01*
X114312502Y-75621917D01*
X114309774Y-75620787D01*
X114304393Y-75616280D01*
X114304354Y-75616219D01*
X114303512Y-75614525D01*
X114303442Y-75614455D01*
X114303442Y-75614383D01*
X114303236Y-75613969D01*
X114189513Y-75305937D01*
X114188531Y-75303277D01*
X114161186Y-75229208D01*
X114160472Y-75224706D01*
X114160542Y-75222920D01*
X114164291Y-75214790D01*
X114165174Y-75213974D01*
X114170453Y-75211175D01*
X114362829Y-75166280D01*
X114367383Y-75166131D01*
X114371470Y-75166805D01*
G37*
%TD.AperFunction*%
%TD*%
%TA.AperFunction,Conductor*%
%TO.N,GND*%
G36*
X124205392Y-77770000D02*
G01*
X124155402Y-77994208D01*
X123747192Y-77833500D01*
X123747192Y-77706500D01*
X124155402Y-77545792D01*
X124205392Y-77770000D01*
G37*
%TD.AperFunction*%
%TD*%
%TA.AperFunction,Conductor*%
%TO.N,/STEP*%
G36*
X120287023Y-78813094D02*
G01*
X120301564Y-78819420D01*
X120669460Y-78979469D01*
X120675679Y-78985911D01*
X120675521Y-78994864D01*
X120674667Y-78996471D01*
X120560212Y-79176611D01*
X120556611Y-79180212D01*
X120376471Y-79294667D01*
X120367651Y-79296212D01*
X120360322Y-79291066D01*
X120359472Y-79289467D01*
X120193094Y-78907023D01*
X120192936Y-78898070D01*
X120195548Y-78894085D01*
X120274084Y-78815549D01*
X120282356Y-78812123D01*
X120287023Y-78813094D01*
G37*
%TD.AperFunction*%
%TD*%
%TA.AperFunction,Conductor*%
%TO.N,/MP6602_nFAULT*%
G36*
X113507812Y-76516298D02*
G01*
X113758044Y-76838592D01*
X113760410Y-76847228D01*
X113757075Y-76854040D01*
X113680892Y-76930223D01*
X113672619Y-76933650D01*
X113666812Y-76932106D01*
X113501409Y-76837490D01*
X113496291Y-76831511D01*
X113399088Y-76577101D01*
X113399336Y-76568152D01*
X113404309Y-76562714D01*
X113492865Y-76513257D01*
X113501759Y-76512216D01*
X113507812Y-76516298D01*
G37*
%TD.AperFunction*%
%TD*%
%TA.AperFunction,Conductor*%
%TO.N,/MP6602_nRST*%
G36*
X113731312Y-75871570D02*
G01*
X113732209Y-75872200D01*
X113736212Y-75877106D01*
X113900977Y-76255843D01*
X113901946Y-76260304D01*
X113901999Y-76263311D01*
X113898719Y-76271643D01*
X113898574Y-76271790D01*
X113822561Y-76347803D01*
X113818766Y-76350339D01*
X113815985Y-76351491D01*
X113807030Y-76351491D01*
X113806840Y-76351411D01*
X113802330Y-76349449D01*
X113551840Y-76240476D01*
X113427673Y-76186458D01*
X113423924Y-76183856D01*
X113422687Y-76182575D01*
X113419405Y-76174244D01*
X113419424Y-76173153D01*
X113421246Y-76167088D01*
X113534102Y-75989466D01*
X113535696Y-75987477D01*
X113537477Y-75985696D01*
X113539466Y-75984102D01*
X113716568Y-75871577D01*
X113720816Y-75869930D01*
X113722576Y-75869622D01*
X113731312Y-75871570D01*
G37*
%TD.AperFunction*%
%TD*%
%TA.AperFunction,Conductor*%
%TO.N,/MP6602_ENBL*%
G36*
X113138916Y-77101429D02*
G01*
X113149965Y-77105779D01*
X113523229Y-77252728D01*
X113527068Y-77255197D01*
X113529234Y-77257288D01*
X113532806Y-77265500D01*
X113532808Y-77265706D01*
X113532808Y-77373203D01*
X113531917Y-77377681D01*
X113530765Y-77380462D01*
X113524433Y-77386793D01*
X113524242Y-77386871D01*
X113139490Y-77538343D01*
X113135000Y-77539154D01*
X113133221Y-77539123D01*
X113125009Y-77535553D01*
X113125008Y-77535552D01*
X113124251Y-77534768D01*
X113121248Y-77529187D01*
X113075455Y-77323798D01*
X113075175Y-77321252D01*
X113075175Y-77318746D01*
X113075455Y-77316200D01*
X113089056Y-77255197D01*
X113121114Y-77111411D01*
X113122960Y-77107234D01*
X113123982Y-77105779D01*
X113131539Y-77100979D01*
X113132613Y-77100791D01*
X113138916Y-77101429D01*
G37*
%TD.AperFunction*%
%TD*%
%TA.AperFunction,Conductor*%
%TO.N,/DIR*%
G36*
X119677680Y-79678081D02*
G01*
X119680462Y-79679234D01*
X119686794Y-79685564D01*
X119686872Y-79685757D01*
X119838343Y-80070508D01*
X119839154Y-80074998D01*
X119839123Y-80076777D01*
X119835553Y-80084989D01*
X119835552Y-80084990D01*
X119834768Y-80085747D01*
X119829187Y-80088750D01*
X119623802Y-80134544D01*
X119621256Y-80134824D01*
X119618744Y-80134824D01*
X119616198Y-80134544D01*
X119411414Y-80088885D01*
X119407234Y-80087038D01*
X119405778Y-80086015D01*
X119405127Y-80084990D01*
X119400979Y-80078459D01*
X119400791Y-80077385D01*
X119401429Y-80071082D01*
X119401655Y-80070508D01*
X119552729Y-79686768D01*
X119555197Y-79682931D01*
X119557290Y-79680763D01*
X119565503Y-79677194D01*
X119565706Y-79677192D01*
X119673205Y-79677192D01*
X119677680Y-79678081D01*
G37*
%TD.AperFunction*%
%TD*%
%TA.AperFunction,Conductor*%
%TO.N,/MISO*%
G36*
X121986625Y-78476507D02*
G01*
X122173574Y-78646316D01*
X122177394Y-78654415D01*
X122177396Y-78655475D01*
X122170615Y-78814194D01*
X122166838Y-78822314D01*
X122158427Y-78825384D01*
X122156030Y-78825031D01*
X121728234Y-78715749D01*
X121721067Y-78710381D01*
X121719430Y-78704413D01*
X121719430Y-78594134D01*
X121722857Y-78585861D01*
X121726418Y-78583425D01*
X121974048Y-78474459D01*
X121983000Y-78474264D01*
X121986625Y-78476507D01*
G37*
%TD.AperFunction*%
%TD*%
%TA.AperFunction,Conductor*%
%TO.N,/MOSI*%
G36*
X120550619Y-77167409D02*
G01*
X120802902Y-77265689D01*
X120809367Y-77271885D01*
X120809619Y-77280676D01*
X120778136Y-77365180D01*
X120772036Y-77371736D01*
X120766055Y-77372742D01*
X120366027Y-77334388D01*
X120358119Y-77330187D01*
X120355444Y-77322741D01*
X120355444Y-77215875D01*
X120358871Y-77207602D01*
X120364741Y-77204425D01*
X120543976Y-77166861D01*
X120550619Y-77167409D01*
G37*
%TD.AperFunction*%
%TD*%
%TA.AperFunction,Conductor*%
%TO.N,/CS*%
G36*
X121056324Y-76116601D02*
G01*
X121057368Y-76117354D01*
X121060119Y-76120152D01*
X121179404Y-76291404D01*
X121181232Y-76295587D01*
X121181864Y-76298472D01*
X121181225Y-76305501D01*
X121181199Y-76305563D01*
X121180304Y-76307189D01*
X121180287Y-76307287D01*
X121180228Y-76307327D01*
X121180010Y-76307725D01*
X121060310Y-76479572D01*
X121057017Y-76482739D01*
X121055202Y-76483901D01*
X121047031Y-76485598D01*
X121046596Y-76485527D01*
X121045764Y-76485393D01*
X121042044Y-76484124D01*
X121033665Y-76479572D01*
X120820000Y-76363499D01*
X120819999Y-76363499D01*
X120819998Y-76363500D01*
X120807106Y-76392755D01*
X120804484Y-76396495D01*
X120803197Y-76397725D01*
X120794848Y-76400964D01*
X120794842Y-76400964D01*
X120794280Y-76400951D01*
X120786278Y-76397527D01*
X120719392Y-76330641D01*
X120716858Y-76326851D01*
X120716174Y-76325201D01*
X120716172Y-76316252D01*
X120716859Y-76314593D01*
X120719389Y-76310807D01*
X120736884Y-76293313D01*
X120772643Y-76257553D01*
X120774413Y-76256102D01*
X120776292Y-76254847D01*
X120778309Y-76253768D01*
X120820000Y-76236500D01*
X121041753Y-76116033D01*
X121046109Y-76114680D01*
X121047637Y-76114518D01*
X121048252Y-76114454D01*
X121056324Y-76116601D01*
G37*
%TD.AperFunction*%
%TD*%
%TA.AperFunction,Conductor*%
%TO.N,/SCLK*%
G36*
X120146843Y-75679424D02*
G01*
X120152909Y-75681246D01*
X120330524Y-75794097D01*
X120332523Y-75795699D01*
X120334299Y-75797475D01*
X120335901Y-75799474D01*
X120446241Y-75973136D01*
X120446241Y-75973137D01*
X120446242Y-75973137D01*
X120448419Y-75976564D01*
X120450068Y-75980822D01*
X120450375Y-75982577D01*
X120448425Y-75991317D01*
X120447800Y-75992207D01*
X120442892Y-75996212D01*
X120064155Y-76160977D01*
X120059694Y-76161946D01*
X120056687Y-76161999D01*
X120048355Y-76158719D01*
X120048208Y-76158574D01*
X119972195Y-76082561D01*
X119969659Y-76078766D01*
X119968507Y-76075985D01*
X119968507Y-76067030D01*
X119968550Y-76066926D01*
X120133543Y-75687665D01*
X120136141Y-75683923D01*
X120137428Y-75682681D01*
X120145751Y-75679405D01*
X120146843Y-75679424D01*
G37*
%TD.AperFunction*%
%TD*%
M02*
