%TF.GenerationSoftware,KiCad,Pcbnew,10.0.3*%
%TF.CreationDate,2026-09-20T11:28:41-06:00*%
%TF.ProjectId,filter_actuator_rev1,66696c74-6572-45f6-9163-747561746f72,1.0*%
%TF.SameCoordinates,Original*%
%TF.FileFunction,Soldermask,Top*%
%TF.FilePolarity,Negative*%
%FSLAX46Y46*%
G04 Gerber Fmt 4.6, Leading zero omitted, Abs format (unit mm)*
G04 Created by KiCad (PCBNEW 10.0.3) date 2026-09-20 11:28:41*
%MOMM*%
%LPD*%
G01*
G04 APERTURE LIST*
G04 APERTURE END LIST*
G36*
X94120476Y-102001866D02*
G01*
X94244819Y-102073656D01*
X94346344Y-102175181D01*
X94418134Y-102299524D01*
X94455295Y-102438211D01*
X94460000Y-102510000D01*
X94460000Y-103310000D01*
X94455295Y-103381789D01*
X94418134Y-103520476D01*
X94346344Y-103644819D01*
X94244819Y-103746344D01*
X94120476Y-103818134D01*
X93981789Y-103855295D01*
X93838211Y-103855295D01*
X93699524Y-103818134D01*
X93575181Y-103746344D01*
X93473656Y-103644819D01*
X93401866Y-103520476D01*
X93364705Y-103381789D01*
X93360000Y-103310000D01*
X93360000Y-102510000D01*
X93364705Y-102438211D01*
X93401866Y-102299524D01*
X93473656Y-102175181D01*
X93575181Y-102073656D01*
X93699524Y-102001866D01*
X93838211Y-101964705D01*
X93981789Y-101964705D01*
X94120476Y-102001866D01*
G37*
G36*
X102760476Y-102001866D02*
G01*
X102884819Y-102073656D01*
X102986344Y-102175181D01*
X103058134Y-102299524D01*
X103095295Y-102438211D01*
X103100000Y-102510000D01*
X103100000Y-103310000D01*
X103095295Y-103381789D01*
X103058134Y-103520476D01*
X102986344Y-103644819D01*
X102884819Y-103746344D01*
X102760476Y-103818134D01*
X102621789Y-103855295D01*
X102478211Y-103855295D01*
X102339524Y-103818134D01*
X102215181Y-103746344D01*
X102113656Y-103644819D01*
X102041866Y-103520476D01*
X102004705Y-103381789D01*
X102000000Y-103310000D01*
X102000000Y-102510000D01*
X102004705Y-102438211D01*
X102041866Y-102299524D01*
X102113656Y-102175181D01*
X102215181Y-102073656D01*
X102339524Y-102001866D01*
X102478211Y-101964705D01*
X102621789Y-101964705D01*
X102760476Y-102001866D01*
G37*
G36*
X58226285Y-99879106D02*
G01*
X58450555Y-99939199D01*
X58665062Y-100028051D01*
X58866137Y-100144141D01*
X59050339Y-100285484D01*
X59214516Y-100449661D01*
X59355859Y-100633863D01*
X59471949Y-100834938D01*
X59560801Y-101049445D01*
X59620894Y-101273715D01*
X59651200Y-101503909D01*
X59651200Y-101736091D01*
X59620894Y-101966285D01*
X59560801Y-102190555D01*
X59471949Y-102405062D01*
X59355859Y-102606137D01*
X59214516Y-102790339D01*
X59050339Y-102954516D01*
X58866137Y-103095859D01*
X58665062Y-103211949D01*
X58450555Y-103300801D01*
X58226285Y-103360894D01*
X57996091Y-103391200D01*
X57763909Y-103391200D01*
X57533715Y-103360894D01*
X57309445Y-103300801D01*
X57094938Y-103211949D01*
X56893863Y-103095859D01*
X56709661Y-102954516D01*
X56545484Y-102790339D01*
X56404141Y-102606137D01*
X56288051Y-102405062D01*
X56199199Y-102190555D01*
X56139106Y-101966285D01*
X56108800Y-101736091D01*
X56108800Y-101503909D01*
X56139106Y-101273715D01*
X56199199Y-101049445D01*
X56288051Y-100834938D01*
X56404141Y-100633863D01*
X56545484Y-100449661D01*
X56709661Y-100285484D01*
X56893863Y-100144141D01*
X57094938Y-100028051D01*
X57309445Y-99939199D01*
X57533715Y-99879106D01*
X57763909Y-99848800D01*
X57996091Y-99848800D01*
X58226285Y-99879106D01*
G37*
G36*
X131926285Y-99879106D02*
G01*
X132150555Y-99939199D01*
X132365062Y-100028051D01*
X132566137Y-100144141D01*
X132750339Y-100285484D01*
X132914516Y-100449661D01*
X133055859Y-100633863D01*
X133171949Y-100834938D01*
X133260801Y-101049445D01*
X133320894Y-101273715D01*
X133351200Y-101503909D01*
X133351200Y-101736091D01*
X133320894Y-101966285D01*
X133260801Y-102190555D01*
X133171949Y-102405062D01*
X133055859Y-102606137D01*
X132914516Y-102790339D01*
X132750339Y-102954516D01*
X132566137Y-103095859D01*
X132365062Y-103211949D01*
X132150555Y-103300801D01*
X131926285Y-103360894D01*
X131696091Y-103391200D01*
X131463909Y-103391200D01*
X131233715Y-103360894D01*
X131009445Y-103300801D01*
X130794938Y-103211949D01*
X130593863Y-103095859D01*
X130409661Y-102954516D01*
X130245484Y-102790339D01*
X130104141Y-102606137D01*
X129988051Y-102405062D01*
X129899199Y-102190555D01*
X129839106Y-101966285D01*
X129808800Y-101736091D01*
X129808800Y-101503909D01*
X129839106Y-101273715D01*
X129899199Y-101049445D01*
X129988051Y-100834938D01*
X130104141Y-100633863D01*
X130245484Y-100449661D01*
X130409661Y-100285484D01*
X130593863Y-100144141D01*
X130794938Y-100028051D01*
X131009445Y-99939199D01*
X131233715Y-99879106D01*
X131463909Y-99848800D01*
X131696091Y-99848800D01*
X131926285Y-99879106D01*
G37*
G36*
X112640168Y-100161445D02*
G01*
X112864025Y-100234181D01*
X113073748Y-100341040D01*
X113264172Y-100479391D01*
X113430609Y-100645828D01*
X113568960Y-100836252D01*
X113675819Y-101045975D01*
X113748555Y-101269832D01*
X113785376Y-101502311D01*
X113785376Y-101737689D01*
X113748555Y-101970168D01*
X113675819Y-102194025D01*
X113568960Y-102403748D01*
X113430609Y-102594172D01*
X113264172Y-102760609D01*
X113073748Y-102898960D01*
X112864025Y-103005819D01*
X112640168Y-103078555D01*
X112407689Y-103115376D01*
X112172311Y-103115376D01*
X111939832Y-103078555D01*
X111715975Y-103005819D01*
X111506252Y-102898960D01*
X111315828Y-102760609D01*
X111149391Y-102594172D01*
X111011040Y-102403748D01*
X110904181Y-102194025D01*
X110831445Y-101970168D01*
X110794624Y-101737689D01*
X110794624Y-101502311D01*
X110831445Y-101269832D01*
X110904181Y-101045975D01*
X111011040Y-100836252D01*
X111149391Y-100645828D01*
X111315828Y-100479391D01*
X111506252Y-100341040D01*
X111715975Y-100234181D01*
X111939832Y-100161445D01*
X112172311Y-100124624D01*
X112407689Y-100124624D01*
X112640168Y-100161445D01*
G37*
G36*
X122375796Y-101894082D02*
G01*
X122435815Y-101934185D01*
X122475918Y-101994204D01*
X122490000Y-102065000D01*
X122490000Y-102435000D01*
X122475918Y-102505796D01*
X122435815Y-102565815D01*
X122375796Y-102605918D01*
X122305000Y-102620000D01*
X122035000Y-102620000D01*
X121964204Y-102605918D01*
X121904185Y-102565815D01*
X121864082Y-102505796D01*
X121850000Y-102435000D01*
X121850000Y-102065000D01*
X121864082Y-101994204D01*
X121904185Y-101934185D01*
X121964204Y-101894082D01*
X122035000Y-101880000D01*
X122305000Y-101880000D01*
X122375796Y-101894082D01*
G37*
G36*
X123395796Y-101894082D02*
G01*
X123455815Y-101934185D01*
X123495918Y-101994204D01*
X123510000Y-102065000D01*
X123510000Y-102435000D01*
X123495918Y-102505796D01*
X123455815Y-102565815D01*
X123395796Y-102605918D01*
X123325000Y-102620000D01*
X123055000Y-102620000D01*
X122984204Y-102605918D01*
X122924185Y-102565815D01*
X122884082Y-102505796D01*
X122870000Y-102435000D01*
X122870000Y-102065000D01*
X122884082Y-101994204D01*
X122924185Y-101934185D01*
X122984204Y-101894082D01*
X123055000Y-101880000D01*
X123325000Y-101880000D01*
X123395796Y-101894082D01*
G37*
G36*
X124375796Y-101894082D02*
G01*
X124435815Y-101934185D01*
X124475918Y-101994204D01*
X124490000Y-102065000D01*
X124490000Y-102435000D01*
X124475918Y-102505796D01*
X124435815Y-102565815D01*
X124375796Y-102605918D01*
X124305000Y-102620000D01*
X124035000Y-102620000D01*
X123964204Y-102605918D01*
X123904185Y-102565815D01*
X123864082Y-102505796D01*
X123850000Y-102435000D01*
X123850000Y-102065000D01*
X123864082Y-101994204D01*
X123904185Y-101934185D01*
X123964204Y-101894082D01*
X124035000Y-101880000D01*
X124305000Y-101880000D01*
X124375796Y-101894082D01*
G37*
G36*
X125395796Y-101894082D02*
G01*
X125455815Y-101934185D01*
X125495918Y-101994204D01*
X125510000Y-102065000D01*
X125510000Y-102435000D01*
X125495918Y-102505796D01*
X125455815Y-102565815D01*
X125395796Y-102605918D01*
X125325000Y-102620000D01*
X125055000Y-102620000D01*
X124984204Y-102605918D01*
X124924185Y-102565815D01*
X124884082Y-102505796D01*
X124870000Y-102435000D01*
X124870000Y-102065000D01*
X124884082Y-101994204D01*
X124924185Y-101934185D01*
X124984204Y-101894082D01*
X125055000Y-101880000D01*
X125325000Y-101880000D01*
X125395796Y-101894082D01*
G37*
G36*
X117518685Y-100707969D02*
G01*
X117527386Y-100711810D01*
X117534916Y-100712908D01*
X117581981Y-100735917D01*
X117619541Y-100752501D01*
X117623018Y-100755978D01*
X117623915Y-100756417D01*
X117693582Y-100826084D01*
X117694020Y-100826980D01*
X117697499Y-100830459D01*
X117714087Y-100868028D01*
X117737091Y-100915083D01*
X117738187Y-100922610D01*
X117742031Y-100931315D01*
X117750000Y-101000000D01*
X117750000Y-101650000D01*
X117742031Y-101718685D01*
X117738187Y-101727389D01*
X117737091Y-101734916D01*
X117714092Y-101781960D01*
X117697499Y-101819541D01*
X117694019Y-101823020D01*
X117693582Y-101823915D01*
X117623915Y-101893582D01*
X117623020Y-101894019D01*
X117619541Y-101897499D01*
X117581960Y-101914092D01*
X117534916Y-101937091D01*
X117527389Y-101938187D01*
X117518685Y-101942031D01*
X117450000Y-101950000D01*
X116150000Y-101950000D01*
X116081315Y-101942031D01*
X116072610Y-101938187D01*
X116065083Y-101937091D01*
X116018028Y-101914087D01*
X115980459Y-101897499D01*
X115976980Y-101894020D01*
X115976084Y-101893582D01*
X115906417Y-101823915D01*
X115905978Y-101823018D01*
X115902501Y-101819541D01*
X115885917Y-101781981D01*
X115862908Y-101734916D01*
X115861810Y-101727386D01*
X115857969Y-101718685D01*
X115850000Y-101650000D01*
X115850000Y-101000000D01*
X115857969Y-100931315D01*
X115861810Y-100922614D01*
X115862908Y-100915083D01*
X115885921Y-100868007D01*
X115902501Y-100830459D01*
X115905977Y-100826982D01*
X115906417Y-100826084D01*
X115976084Y-100756417D01*
X115976982Y-100755977D01*
X115980459Y-100752501D01*
X116018007Y-100735921D01*
X116065083Y-100712908D01*
X116072614Y-100711810D01*
X116081315Y-100707969D01*
X116150000Y-100700000D01*
X117450000Y-100700000D01*
X117518685Y-100707969D01*
G37*
G36*
X119993685Y-100687969D02*
G01*
X120002386Y-100691810D01*
X120009916Y-100692908D01*
X120056981Y-100715917D01*
X120094541Y-100732501D01*
X120098018Y-100735978D01*
X120098915Y-100736417D01*
X120168582Y-100806084D01*
X120169020Y-100806980D01*
X120172499Y-100810459D01*
X120189087Y-100848028D01*
X120212091Y-100895083D01*
X120213187Y-100902610D01*
X120217031Y-100911315D01*
X120225000Y-100980000D01*
X120225000Y-101630000D01*
X120217031Y-101698685D01*
X120213187Y-101707389D01*
X120212091Y-101714916D01*
X120189092Y-101761960D01*
X120172499Y-101799541D01*
X120169019Y-101803020D01*
X120168582Y-101803915D01*
X120098915Y-101873582D01*
X120098020Y-101874019D01*
X120094541Y-101877499D01*
X120056960Y-101894092D01*
X120009916Y-101917091D01*
X120002389Y-101918187D01*
X119993685Y-101922031D01*
X119925000Y-101930000D01*
X118625000Y-101930000D01*
X118556315Y-101922031D01*
X118547610Y-101918187D01*
X118540083Y-101917091D01*
X118493028Y-101894087D01*
X118455459Y-101877499D01*
X118451980Y-101874020D01*
X118451084Y-101873582D01*
X118381417Y-101803915D01*
X118380978Y-101803018D01*
X118377501Y-101799541D01*
X118360917Y-101761981D01*
X118337908Y-101714916D01*
X118336810Y-101707386D01*
X118332969Y-101698685D01*
X118325000Y-101630000D01*
X118325000Y-100980000D01*
X118332969Y-100911315D01*
X118336810Y-100902614D01*
X118337908Y-100895083D01*
X118360921Y-100848007D01*
X118377501Y-100810459D01*
X118380977Y-100806982D01*
X118381417Y-100806084D01*
X118451084Y-100736417D01*
X118451982Y-100735977D01*
X118455459Y-100732501D01*
X118493007Y-100715921D01*
X118540083Y-100692908D01*
X118547614Y-100691810D01*
X118556315Y-100687969D01*
X118625000Y-100680000D01*
X119925000Y-100680000D01*
X119993685Y-100687969D01*
G37*
G36*
X123495922Y-100349134D02*
G01*
X123534853Y-100375147D01*
X123560866Y-100414078D01*
X123570000Y-100460000D01*
X123570000Y-101460000D01*
X123560866Y-101505922D01*
X123534853Y-101544853D01*
X123495922Y-101570866D01*
X123450000Y-101580000D01*
X122950000Y-101580000D01*
X122904078Y-101570866D01*
X122865147Y-101544853D01*
X122839134Y-101505922D01*
X122830000Y-101460000D01*
X122830000Y-100460000D01*
X122839134Y-100414078D01*
X122865147Y-100375147D01*
X122904078Y-100349134D01*
X122950000Y-100340000D01*
X123450000Y-100340000D01*
X123495922Y-100349134D01*
G37*
G36*
X124445922Y-100349134D02*
G01*
X124484853Y-100375147D01*
X124510866Y-100414078D01*
X124520000Y-100460000D01*
X124520000Y-101460000D01*
X124510866Y-101505922D01*
X124484853Y-101544853D01*
X124445922Y-101570866D01*
X124400000Y-101580000D01*
X123900000Y-101580000D01*
X123854078Y-101570866D01*
X123815147Y-101544853D01*
X123789134Y-101505922D01*
X123780000Y-101460000D01*
X123780000Y-100460000D01*
X123789134Y-100414078D01*
X123815147Y-100375147D01*
X123854078Y-100349134D01*
X123900000Y-100340000D01*
X124400000Y-100340000D01*
X124445922Y-100349134D01*
G37*
G36*
X125395922Y-100349134D02*
G01*
X125434853Y-100375147D01*
X125460866Y-100414078D01*
X125470000Y-100460000D01*
X125470000Y-101460000D01*
X125460866Y-101505922D01*
X125434853Y-101544853D01*
X125395922Y-101570866D01*
X125350000Y-101580000D01*
X124850000Y-101580000D01*
X124804078Y-101570866D01*
X124765147Y-101544853D01*
X124739134Y-101505922D01*
X124730000Y-101460000D01*
X124730000Y-100460000D01*
X124739134Y-100414078D01*
X124765147Y-100375147D01*
X124804078Y-100349134D01*
X124850000Y-100340000D01*
X125350000Y-100340000D01*
X125395922Y-100349134D01*
G37*
G36*
X126552710Y-100644463D02*
G01*
X126614350Y-100685650D01*
X126655537Y-100747290D01*
X126670000Y-100820000D01*
X126670000Y-101100000D01*
X126655537Y-101172710D01*
X126614350Y-101234350D01*
X126552710Y-101275537D01*
X126480000Y-101290000D01*
X126140000Y-101290000D01*
X126067290Y-101275537D01*
X126005650Y-101234350D01*
X125964463Y-101172710D01*
X125950000Y-101100000D01*
X125950000Y-100820000D01*
X125964463Y-100747290D01*
X126005650Y-100685650D01*
X126067290Y-100644463D01*
X126140000Y-100630000D01*
X126480000Y-100630000D01*
X126552710Y-100644463D01*
G37*
G36*
X72919034Y-99475764D02*
G01*
X72952125Y-99497875D01*
X72974236Y-99530966D01*
X72982000Y-99570000D01*
X72982000Y-100870000D01*
X72974236Y-100909034D01*
X72952125Y-100942125D01*
X72919034Y-100964236D01*
X72880000Y-100972000D01*
X71780000Y-100972000D01*
X71740966Y-100964236D01*
X71707875Y-100942125D01*
X71685764Y-100909034D01*
X71678000Y-100870000D01*
X71678000Y-99570000D01*
X71685764Y-99530966D01*
X71707875Y-99497875D01*
X71740966Y-99475764D01*
X71780000Y-99468000D01*
X72880000Y-99468000D01*
X72919034Y-99475764D01*
G37*
G36*
X74819034Y-99475764D02*
G01*
X74852125Y-99497875D01*
X74874236Y-99530966D01*
X74882000Y-99570000D01*
X74882000Y-100870000D01*
X74874236Y-100909034D01*
X74852125Y-100942125D01*
X74819034Y-100964236D01*
X74780000Y-100972000D01*
X73680000Y-100972000D01*
X73640966Y-100964236D01*
X73607875Y-100942125D01*
X73585764Y-100909034D01*
X73578000Y-100870000D01*
X73578000Y-99570000D01*
X73585764Y-99530966D01*
X73607875Y-99497875D01*
X73640966Y-99475764D01*
X73680000Y-99468000D01*
X74780000Y-99468000D01*
X74819034Y-99475764D01*
G37*
G36*
X122048685Y-99642969D02*
G01*
X122057386Y-99646810D01*
X122064916Y-99647908D01*
X122111981Y-99670917D01*
X122149541Y-99687501D01*
X122153018Y-99690978D01*
X122153915Y-99691417D01*
X122223582Y-99761084D01*
X122224020Y-99761980D01*
X122227499Y-99765459D01*
X122244087Y-99803028D01*
X122267091Y-99850083D01*
X122268187Y-99857610D01*
X122272031Y-99866315D01*
X122280000Y-99935000D01*
X122280000Y-100435000D01*
X122272031Y-100503685D01*
X122268187Y-100512389D01*
X122267091Y-100519916D01*
X122244092Y-100566960D01*
X122227499Y-100604541D01*
X122224019Y-100608020D01*
X122223582Y-100608915D01*
X122153915Y-100678582D01*
X122153020Y-100679019D01*
X122149541Y-100682499D01*
X122111960Y-100699092D01*
X122064916Y-100722091D01*
X122057389Y-100723187D01*
X122048685Y-100727031D01*
X121980000Y-100735000D01*
X121030000Y-100735000D01*
X120961315Y-100727031D01*
X120952610Y-100723187D01*
X120945083Y-100722091D01*
X120898028Y-100699087D01*
X120860459Y-100682499D01*
X120856980Y-100679020D01*
X120856084Y-100678582D01*
X120786417Y-100608915D01*
X120785978Y-100608018D01*
X120782501Y-100604541D01*
X120765917Y-100566981D01*
X120742908Y-100519916D01*
X120741810Y-100512386D01*
X120737969Y-100503685D01*
X120730000Y-100435000D01*
X120730000Y-99935000D01*
X120737969Y-99866315D01*
X120741810Y-99857614D01*
X120742908Y-99850083D01*
X120765921Y-99803007D01*
X120782501Y-99765459D01*
X120785977Y-99761982D01*
X120786417Y-99761084D01*
X120856084Y-99691417D01*
X120856982Y-99690977D01*
X120860459Y-99687501D01*
X120898007Y-99670921D01*
X120945083Y-99647908D01*
X120952614Y-99646810D01*
X120961315Y-99642969D01*
X121030000Y-99635000D01*
X121980000Y-99635000D01*
X122048685Y-99642969D01*
G37*
G36*
X126552710Y-99684463D02*
G01*
X126614350Y-99725650D01*
X126655537Y-99787290D01*
X126670000Y-99860000D01*
X126670000Y-100140000D01*
X126655537Y-100212710D01*
X126614350Y-100274350D01*
X126552710Y-100315537D01*
X126480000Y-100330000D01*
X126140000Y-100330000D01*
X126067290Y-100315537D01*
X126005650Y-100274350D01*
X125964463Y-100212710D01*
X125950000Y-100140000D01*
X125950000Y-99860000D01*
X125964463Y-99787290D01*
X126005650Y-99725650D01*
X126067290Y-99684463D01*
X126140000Y-99670000D01*
X126480000Y-99670000D01*
X126552710Y-99684463D01*
G37*
G36*
X75902710Y-99254463D02*
G01*
X75964350Y-99295650D01*
X76005537Y-99357290D01*
X76020000Y-99430000D01*
X76020000Y-99710000D01*
X76005537Y-99782710D01*
X75964350Y-99844350D01*
X75902710Y-99885537D01*
X75830000Y-99900000D01*
X75490000Y-99900000D01*
X75417290Y-99885537D01*
X75355650Y-99844350D01*
X75314463Y-99782710D01*
X75300000Y-99710000D01*
X75300000Y-99430000D01*
X75314463Y-99357290D01*
X75355650Y-99295650D01*
X75417290Y-99254463D01*
X75490000Y-99240000D01*
X75830000Y-99240000D01*
X75902710Y-99254463D01*
G37*
G36*
X94120476Y-97671866D02*
G01*
X94244819Y-97743656D01*
X94346344Y-97845181D01*
X94418134Y-97969524D01*
X94455295Y-98108211D01*
X94460000Y-98180000D01*
X94460000Y-99280000D01*
X94455295Y-99351789D01*
X94418134Y-99490476D01*
X94346344Y-99614819D01*
X94244819Y-99716344D01*
X94120476Y-99788134D01*
X93981789Y-99825295D01*
X93838211Y-99825295D01*
X93699524Y-99788134D01*
X93575181Y-99716344D01*
X93473656Y-99614819D01*
X93401866Y-99490476D01*
X93364705Y-99351789D01*
X93360000Y-99280000D01*
X93360000Y-98180000D01*
X93364705Y-98108211D01*
X93401866Y-97969524D01*
X93473656Y-97845181D01*
X93575181Y-97743656D01*
X93699524Y-97671866D01*
X93838211Y-97634705D01*
X93981789Y-97634705D01*
X94120476Y-97671866D01*
G37*
G36*
X102760476Y-97671866D02*
G01*
X102884819Y-97743656D01*
X102986344Y-97845181D01*
X103058134Y-97969524D01*
X103095295Y-98108211D01*
X103100000Y-98180000D01*
X103100000Y-99280000D01*
X103095295Y-99351789D01*
X103058134Y-99490476D01*
X102986344Y-99614819D01*
X102884819Y-99716344D01*
X102760476Y-99788134D01*
X102621789Y-99825295D01*
X102478211Y-99825295D01*
X102339524Y-99788134D01*
X102215181Y-99716344D01*
X102113656Y-99614819D01*
X102041866Y-99490476D01*
X102004705Y-99351789D01*
X102000000Y-99280000D01*
X102000000Y-98180000D01*
X102004705Y-98108211D01*
X102041866Y-97969524D01*
X102113656Y-97845181D01*
X102215181Y-97743656D01*
X102339524Y-97671866D01*
X102478211Y-97634705D01*
X102621789Y-97634705D01*
X102760476Y-97671866D01*
G37*
G36*
X95483506Y-98883545D02*
G01*
X95568286Y-98932492D01*
X95637508Y-99001714D01*
X95686455Y-99086494D01*
X95711792Y-99181053D01*
X95711792Y-99278947D01*
X95686455Y-99373506D01*
X95637508Y-99458286D01*
X95568286Y-99527508D01*
X95483506Y-99576455D01*
X95388947Y-99601792D01*
X95291053Y-99601792D01*
X95196494Y-99576455D01*
X95111714Y-99527508D01*
X95042492Y-99458286D01*
X94993545Y-99373506D01*
X94968208Y-99278947D01*
X94968208Y-99181053D01*
X94993545Y-99086494D01*
X95042492Y-99001714D01*
X95111714Y-98932492D01*
X95196494Y-98883545D01*
X95291053Y-98858208D01*
X95388947Y-98858208D01*
X95483506Y-98883545D01*
G37*
G36*
X101263506Y-98883545D02*
G01*
X101348286Y-98932492D01*
X101417508Y-99001714D01*
X101466455Y-99086494D01*
X101491792Y-99181053D01*
X101491792Y-99278947D01*
X101466455Y-99373506D01*
X101417508Y-99458286D01*
X101348286Y-99527508D01*
X101263506Y-99576455D01*
X101168947Y-99601792D01*
X101071053Y-99601792D01*
X100976494Y-99576455D01*
X100891714Y-99527508D01*
X100822492Y-99458286D01*
X100773545Y-99373506D01*
X100748208Y-99278947D01*
X100748208Y-99181053D01*
X100773545Y-99086494D01*
X100822492Y-99001714D01*
X100891714Y-98932492D01*
X100976494Y-98883545D01*
X101071053Y-98858208D01*
X101168947Y-98858208D01*
X101263506Y-98883545D01*
G37*
G36*
X117518685Y-97757969D02*
G01*
X117527386Y-97761810D01*
X117534916Y-97762908D01*
X117581981Y-97785917D01*
X117619541Y-97802501D01*
X117623018Y-97805978D01*
X117623915Y-97806417D01*
X117693582Y-97876084D01*
X117694020Y-97876980D01*
X117697499Y-97880459D01*
X117714087Y-97918028D01*
X117737091Y-97965083D01*
X117738187Y-97972610D01*
X117742031Y-97981315D01*
X117750000Y-98050000D01*
X117750000Y-98700000D01*
X117742031Y-98768685D01*
X117738187Y-98777389D01*
X117737091Y-98784916D01*
X117714092Y-98831960D01*
X117697499Y-98869541D01*
X117694019Y-98873020D01*
X117693582Y-98873915D01*
X117623915Y-98943582D01*
X117623020Y-98944019D01*
X117619541Y-98947499D01*
X117581960Y-98964092D01*
X117534916Y-98987091D01*
X117527389Y-98988187D01*
X117518685Y-98992031D01*
X117450000Y-99000000D01*
X116150000Y-99000000D01*
X116081315Y-98992031D01*
X116072610Y-98988187D01*
X116065083Y-98987091D01*
X116018028Y-98964087D01*
X115980459Y-98947499D01*
X115976980Y-98944020D01*
X115976084Y-98943582D01*
X115906417Y-98873915D01*
X115905978Y-98873018D01*
X115902501Y-98869541D01*
X115885917Y-98831981D01*
X115862908Y-98784916D01*
X115861810Y-98777386D01*
X115857969Y-98768685D01*
X115850000Y-98700000D01*
X115850000Y-98050000D01*
X115857969Y-97981315D01*
X115861810Y-97972614D01*
X115862908Y-97965083D01*
X115885921Y-97918007D01*
X115902501Y-97880459D01*
X115905977Y-97876982D01*
X115906417Y-97876084D01*
X115976084Y-97806417D01*
X115976982Y-97805977D01*
X115980459Y-97802501D01*
X116018007Y-97785921D01*
X116065083Y-97762908D01*
X116072614Y-97761810D01*
X116081315Y-97757969D01*
X116150000Y-97750000D01*
X117450000Y-97750000D01*
X117518685Y-97757969D01*
G37*
G36*
X119993685Y-97737969D02*
G01*
X120002386Y-97741810D01*
X120009916Y-97742908D01*
X120056981Y-97765917D01*
X120094541Y-97782501D01*
X120098018Y-97785978D01*
X120098915Y-97786417D01*
X120168582Y-97856084D01*
X120169020Y-97856980D01*
X120172499Y-97860459D01*
X120189087Y-97898028D01*
X120212091Y-97945083D01*
X120213187Y-97952610D01*
X120217031Y-97961315D01*
X120225000Y-98030000D01*
X120225000Y-98680000D01*
X120217031Y-98748685D01*
X120213187Y-98757389D01*
X120212091Y-98764916D01*
X120189092Y-98811960D01*
X120172499Y-98849541D01*
X120169019Y-98853020D01*
X120168582Y-98853915D01*
X120098915Y-98923582D01*
X120098020Y-98924019D01*
X120094541Y-98927499D01*
X120056960Y-98944092D01*
X120009916Y-98967091D01*
X120002389Y-98968187D01*
X119993685Y-98972031D01*
X119925000Y-98980000D01*
X118625000Y-98980000D01*
X118556315Y-98972031D01*
X118547610Y-98968187D01*
X118540083Y-98967091D01*
X118493028Y-98944087D01*
X118455459Y-98927499D01*
X118451980Y-98924020D01*
X118451084Y-98923582D01*
X118381417Y-98853915D01*
X118380978Y-98853018D01*
X118377501Y-98849541D01*
X118360917Y-98811981D01*
X118337908Y-98764916D01*
X118336810Y-98757386D01*
X118332969Y-98748685D01*
X118325000Y-98680000D01*
X118325000Y-98030000D01*
X118332969Y-97961315D01*
X118336810Y-97952614D01*
X118337908Y-97945083D01*
X118360921Y-97898007D01*
X118377501Y-97860459D01*
X118380977Y-97856982D01*
X118381417Y-97856084D01*
X118451084Y-97786417D01*
X118451982Y-97785977D01*
X118455459Y-97782501D01*
X118493007Y-97765921D01*
X118540083Y-97742908D01*
X118547614Y-97741810D01*
X118556315Y-97737969D01*
X118625000Y-97730000D01*
X119925000Y-97730000D01*
X119993685Y-97737969D01*
G37*
G36*
X75902710Y-98294463D02*
G01*
X75964350Y-98335650D01*
X76005537Y-98397290D01*
X76020000Y-98470000D01*
X76020000Y-98750000D01*
X76005537Y-98822710D01*
X75964350Y-98884350D01*
X75902710Y-98925537D01*
X75830000Y-98940000D01*
X75490000Y-98940000D01*
X75417290Y-98925537D01*
X75355650Y-98884350D01*
X75314463Y-98822710D01*
X75300000Y-98750000D01*
X75300000Y-98470000D01*
X75314463Y-98397290D01*
X75355650Y-98335650D01*
X75417290Y-98294463D01*
X75490000Y-98280000D01*
X75830000Y-98280000D01*
X75902710Y-98294463D01*
G37*
G36*
X123495922Y-97649134D02*
G01*
X123534853Y-97675147D01*
X123560866Y-97714078D01*
X123570000Y-97760000D01*
X123570000Y-98760000D01*
X123560866Y-98805922D01*
X123534853Y-98844853D01*
X123495922Y-98870866D01*
X123450000Y-98880000D01*
X122950000Y-98880000D01*
X122904078Y-98870866D01*
X122865147Y-98844853D01*
X122839134Y-98805922D01*
X122830000Y-98760000D01*
X122830000Y-97760000D01*
X122839134Y-97714078D01*
X122865147Y-97675147D01*
X122904078Y-97649134D01*
X122950000Y-97640000D01*
X123450000Y-97640000D01*
X123495922Y-97649134D01*
G37*
G36*
X124445922Y-97649134D02*
G01*
X124484853Y-97675147D01*
X124510866Y-97714078D01*
X124520000Y-97760000D01*
X124520000Y-98760000D01*
X124510866Y-98805922D01*
X124484853Y-98844853D01*
X124445922Y-98870866D01*
X124400000Y-98880000D01*
X123900000Y-98880000D01*
X123854078Y-98870866D01*
X123815147Y-98844853D01*
X123789134Y-98805922D01*
X123780000Y-98760000D01*
X123780000Y-97760000D01*
X123789134Y-97714078D01*
X123815147Y-97675147D01*
X123854078Y-97649134D01*
X123900000Y-97640000D01*
X124400000Y-97640000D01*
X124445922Y-97649134D01*
G37*
G36*
X125395922Y-97649134D02*
G01*
X125434853Y-97675147D01*
X125460866Y-97714078D01*
X125470000Y-97760000D01*
X125470000Y-98760000D01*
X125460866Y-98805922D01*
X125434853Y-98844853D01*
X125395922Y-98870866D01*
X125350000Y-98880000D01*
X124850000Y-98880000D01*
X124804078Y-98870866D01*
X124765147Y-98844853D01*
X124739134Y-98805922D01*
X124730000Y-98760000D01*
X124730000Y-97760000D01*
X124739134Y-97714078D01*
X124765147Y-97675147D01*
X124804078Y-97649134D01*
X124850000Y-97640000D01*
X125350000Y-97640000D01*
X125395922Y-97649134D01*
G37*
G36*
X122048685Y-97742969D02*
G01*
X122057386Y-97746810D01*
X122064916Y-97747908D01*
X122111981Y-97770917D01*
X122149541Y-97787501D01*
X122153018Y-97790978D01*
X122153915Y-97791417D01*
X122223582Y-97861084D01*
X122224020Y-97861980D01*
X122227499Y-97865459D01*
X122244087Y-97903028D01*
X122267091Y-97950083D01*
X122268187Y-97957610D01*
X122272031Y-97966315D01*
X122280000Y-98035000D01*
X122280000Y-98535000D01*
X122272031Y-98603685D01*
X122268187Y-98612389D01*
X122267091Y-98619916D01*
X122244092Y-98666960D01*
X122227499Y-98704541D01*
X122224019Y-98708020D01*
X122223582Y-98708915D01*
X122153915Y-98778582D01*
X122153020Y-98779019D01*
X122149541Y-98782499D01*
X122111960Y-98799092D01*
X122064916Y-98822091D01*
X122057389Y-98823187D01*
X122048685Y-98827031D01*
X121980000Y-98835000D01*
X121030000Y-98835000D01*
X120961315Y-98827031D01*
X120952610Y-98823187D01*
X120945083Y-98822091D01*
X120898028Y-98799087D01*
X120860459Y-98782499D01*
X120856980Y-98779020D01*
X120856084Y-98778582D01*
X120786417Y-98708915D01*
X120785978Y-98708018D01*
X120782501Y-98704541D01*
X120765917Y-98666981D01*
X120742908Y-98619916D01*
X120741810Y-98612386D01*
X120737969Y-98603685D01*
X120730000Y-98535000D01*
X120730000Y-98035000D01*
X120737969Y-97966315D01*
X120741810Y-97957614D01*
X120742908Y-97950083D01*
X120765921Y-97903007D01*
X120782501Y-97865459D01*
X120785977Y-97861982D01*
X120786417Y-97861084D01*
X120856084Y-97791417D01*
X120856982Y-97790977D01*
X120860459Y-97787501D01*
X120898007Y-97770921D01*
X120945083Y-97747908D01*
X120952614Y-97746810D01*
X120961315Y-97742969D01*
X121030000Y-97735000D01*
X121980000Y-97735000D01*
X122048685Y-97742969D01*
G37*
G36*
X72919034Y-97175764D02*
G01*
X72952125Y-97197875D01*
X72974236Y-97230966D01*
X72982000Y-97270000D01*
X72982000Y-98570000D01*
X72974236Y-98609034D01*
X72952125Y-98642125D01*
X72919034Y-98664236D01*
X72880000Y-98672000D01*
X71780000Y-98672000D01*
X71740966Y-98664236D01*
X71707875Y-98642125D01*
X71685764Y-98609034D01*
X71678000Y-98570000D01*
X71678000Y-97270000D01*
X71685764Y-97230966D01*
X71707875Y-97197875D01*
X71740966Y-97175764D01*
X71780000Y-97168000D01*
X72880000Y-97168000D01*
X72919034Y-97175764D01*
G37*
G36*
X74819034Y-97175764D02*
G01*
X74852125Y-97197875D01*
X74874236Y-97230966D01*
X74882000Y-97270000D01*
X74882000Y-98570000D01*
X74874236Y-98609034D01*
X74852125Y-98642125D01*
X74819034Y-98664236D01*
X74780000Y-98672000D01*
X73680000Y-98672000D01*
X73640966Y-98664236D01*
X73607875Y-98642125D01*
X73585764Y-98609034D01*
X73578000Y-98570000D01*
X73578000Y-97270000D01*
X73585764Y-97230966D01*
X73607875Y-97197875D01*
X73640966Y-97175764D01*
X73680000Y-97168000D01*
X74780000Y-97168000D01*
X74819034Y-97175764D01*
G37*
G36*
X95349134Y-97383806D02*
G01*
X95365355Y-97394645D01*
X95376194Y-97410866D01*
X95380000Y-97430000D01*
X95380000Y-97435008D01*
X95388308Y-97476783D01*
X95471687Y-97476785D01*
X95480000Y-97434997D01*
X95480000Y-97430000D01*
X95483806Y-97410866D01*
X95494645Y-97394645D01*
X95510866Y-97383806D01*
X95530000Y-97380000D01*
X96130000Y-97380000D01*
X96149134Y-97383806D01*
X96165355Y-97394645D01*
X96176194Y-97410866D01*
X96180000Y-97430000D01*
X96180000Y-97435008D01*
X96188308Y-97476783D01*
X96271687Y-97476785D01*
X96280000Y-97434997D01*
X96280000Y-97430000D01*
X96283806Y-97410866D01*
X96294645Y-97394645D01*
X96310866Y-97383806D01*
X96330000Y-97380000D01*
X96630000Y-97380000D01*
X96649134Y-97383806D01*
X96665355Y-97394645D01*
X96676194Y-97410866D01*
X96680000Y-97430000D01*
X96680000Y-97435008D01*
X96688308Y-97476783D01*
X96771687Y-97476785D01*
X96780000Y-97434997D01*
X96780000Y-97430000D01*
X96783806Y-97410866D01*
X96794645Y-97394645D01*
X96810866Y-97383806D01*
X96830000Y-97380000D01*
X97130000Y-97380000D01*
X97149134Y-97383806D01*
X97165355Y-97394645D01*
X97176194Y-97410866D01*
X97180000Y-97430000D01*
X97180000Y-97435008D01*
X97188308Y-97476783D01*
X97271687Y-97476785D01*
X97280000Y-97434997D01*
X97280000Y-97430000D01*
X97283806Y-97410866D01*
X97294645Y-97394645D01*
X97310866Y-97383806D01*
X97330000Y-97380000D01*
X97630000Y-97380000D01*
X97649134Y-97383806D01*
X97665355Y-97394645D01*
X97676194Y-97410866D01*
X97680000Y-97430000D01*
X97680000Y-97435008D01*
X97688308Y-97476783D01*
X97771687Y-97476785D01*
X97780000Y-97434997D01*
X97780000Y-97430000D01*
X97783806Y-97410866D01*
X97794645Y-97394645D01*
X97810866Y-97383806D01*
X97830000Y-97380000D01*
X98130000Y-97380000D01*
X98149134Y-97383806D01*
X98165355Y-97394645D01*
X98176194Y-97410866D01*
X98180000Y-97430000D01*
X98180000Y-97435008D01*
X98188308Y-97476783D01*
X98271687Y-97476785D01*
X98280000Y-97434997D01*
X98280000Y-97430000D01*
X98283806Y-97410866D01*
X98294645Y-97394645D01*
X98310866Y-97383806D01*
X98330000Y-97380000D01*
X98630000Y-97380000D01*
X98649134Y-97383806D01*
X98665355Y-97394645D01*
X98676194Y-97410866D01*
X98680000Y-97430000D01*
X98680000Y-97435008D01*
X98688308Y-97476783D01*
X98771687Y-97476785D01*
X98780000Y-97434997D01*
X98780000Y-97430000D01*
X98783806Y-97410866D01*
X98794645Y-97394645D01*
X98810866Y-97383806D01*
X98830000Y-97380000D01*
X99130000Y-97380000D01*
X99149134Y-97383806D01*
X99165355Y-97394645D01*
X99176194Y-97410866D01*
X99180000Y-97430000D01*
X99180000Y-97435008D01*
X99188308Y-97476783D01*
X99271687Y-97476785D01*
X99280000Y-97434997D01*
X99280000Y-97430000D01*
X99283806Y-97410866D01*
X99294645Y-97394645D01*
X99310866Y-97383806D01*
X99330000Y-97380000D01*
X99630000Y-97380000D01*
X99649134Y-97383806D01*
X99665355Y-97394645D01*
X99676194Y-97410866D01*
X99680000Y-97430000D01*
X99680000Y-97435008D01*
X99688308Y-97476783D01*
X99771687Y-97476785D01*
X99780000Y-97434997D01*
X99780000Y-97430000D01*
X99783806Y-97410866D01*
X99794645Y-97394645D01*
X99810866Y-97383806D01*
X99830000Y-97380000D01*
X100130000Y-97380000D01*
X100149134Y-97383806D01*
X100165355Y-97394645D01*
X100176194Y-97410866D01*
X100180000Y-97430000D01*
X100180000Y-97435008D01*
X100188308Y-97476783D01*
X100271687Y-97476785D01*
X100280000Y-97434997D01*
X100280000Y-97430000D01*
X100283806Y-97410866D01*
X100294645Y-97394645D01*
X100310866Y-97383806D01*
X100330000Y-97380000D01*
X100930000Y-97380000D01*
X100949134Y-97383806D01*
X100965355Y-97394645D01*
X100976194Y-97410866D01*
X100980000Y-97430000D01*
X100980000Y-97435008D01*
X100988308Y-97476783D01*
X101071687Y-97476785D01*
X101080000Y-97434997D01*
X101080000Y-97430000D01*
X101083806Y-97410866D01*
X101094645Y-97394645D01*
X101110866Y-97383806D01*
X101130000Y-97380000D01*
X101730000Y-97380000D01*
X101749134Y-97383806D01*
X101765355Y-97394645D01*
X101776194Y-97410866D01*
X101780000Y-97430000D01*
X101780000Y-98580000D01*
X101776194Y-98599134D01*
X101765355Y-98615355D01*
X101749134Y-98626194D01*
X101730000Y-98630000D01*
X101130000Y-98630000D01*
X101110866Y-98626194D01*
X101094645Y-98615355D01*
X101083806Y-98599134D01*
X101080000Y-98580000D01*
X101080000Y-98574995D01*
X101071690Y-98533215D01*
X100988310Y-98533215D01*
X100980000Y-98574993D01*
X100980000Y-98580000D01*
X100976194Y-98599134D01*
X100965355Y-98615355D01*
X100949134Y-98626194D01*
X100930000Y-98630000D01*
X100330000Y-98630000D01*
X100310866Y-98626194D01*
X100294645Y-98615355D01*
X100283806Y-98599134D01*
X100280000Y-98580000D01*
X100280000Y-98574995D01*
X100271690Y-98533215D01*
X100188310Y-98533215D01*
X100180000Y-98574993D01*
X100180000Y-98580000D01*
X100176194Y-98599134D01*
X100165355Y-98615355D01*
X100149134Y-98626194D01*
X100130000Y-98630000D01*
X99830000Y-98630000D01*
X99810866Y-98626194D01*
X99794645Y-98615355D01*
X99783806Y-98599134D01*
X99780000Y-98580000D01*
X99780000Y-98574995D01*
X99771690Y-98533215D01*
X99688310Y-98533215D01*
X99680000Y-98574993D01*
X99680000Y-98580000D01*
X99676194Y-98599134D01*
X99665355Y-98615355D01*
X99649134Y-98626194D01*
X99630000Y-98630000D01*
X99330000Y-98630000D01*
X99310866Y-98626194D01*
X99294645Y-98615355D01*
X99283806Y-98599134D01*
X99280000Y-98580000D01*
X99280000Y-98574995D01*
X99271690Y-98533215D01*
X99188310Y-98533215D01*
X99180000Y-98574993D01*
X99180000Y-98580000D01*
X99176194Y-98599134D01*
X99165355Y-98615355D01*
X99149134Y-98626194D01*
X99130000Y-98630000D01*
X98830000Y-98630000D01*
X98810866Y-98626194D01*
X98794645Y-98615355D01*
X98783806Y-98599134D01*
X98780000Y-98580000D01*
X98780000Y-98574995D01*
X98771690Y-98533215D01*
X98688310Y-98533215D01*
X98680000Y-98574993D01*
X98680000Y-98580000D01*
X98676194Y-98599134D01*
X98665355Y-98615355D01*
X98649134Y-98626194D01*
X98630000Y-98630000D01*
X98330000Y-98630000D01*
X98310866Y-98626194D01*
X98294645Y-98615355D01*
X98283806Y-98599134D01*
X98280000Y-98580000D01*
X98280000Y-98574995D01*
X98271690Y-98533215D01*
X98188310Y-98533215D01*
X98180000Y-98574993D01*
X98180000Y-98580000D01*
X98176194Y-98599134D01*
X98165355Y-98615355D01*
X98149134Y-98626194D01*
X98130000Y-98630000D01*
X97830000Y-98630000D01*
X97810866Y-98626194D01*
X97794645Y-98615355D01*
X97783806Y-98599134D01*
X97780000Y-98580000D01*
X97780000Y-98574995D01*
X97771690Y-98533215D01*
X97688310Y-98533215D01*
X97680000Y-98574993D01*
X97680000Y-98580000D01*
X97676194Y-98599134D01*
X97665355Y-98615355D01*
X97649134Y-98626194D01*
X97630000Y-98630000D01*
X97330000Y-98630000D01*
X97310866Y-98626194D01*
X97294645Y-98615355D01*
X97283806Y-98599134D01*
X97280000Y-98580000D01*
X97280000Y-98574995D01*
X97271690Y-98533215D01*
X97188310Y-98533215D01*
X97180000Y-98574993D01*
X97180000Y-98580000D01*
X97176194Y-98599134D01*
X97165355Y-98615355D01*
X97149134Y-98626194D01*
X97130000Y-98630000D01*
X96830000Y-98630000D01*
X96810866Y-98626194D01*
X96794645Y-98615355D01*
X96783806Y-98599134D01*
X96780000Y-98580000D01*
X96780000Y-98574995D01*
X96771690Y-98533215D01*
X96688310Y-98533215D01*
X96680000Y-98574993D01*
X96680000Y-98580000D01*
X96676194Y-98599134D01*
X96665355Y-98615355D01*
X96649134Y-98626194D01*
X96630000Y-98630000D01*
X96330000Y-98630000D01*
X96310866Y-98626194D01*
X96294645Y-98615355D01*
X96283806Y-98599134D01*
X96280000Y-98580000D01*
X96280000Y-98574995D01*
X96271690Y-98533215D01*
X96188310Y-98533215D01*
X96180000Y-98574993D01*
X96180000Y-98580000D01*
X96176194Y-98599134D01*
X96165355Y-98615355D01*
X96149134Y-98626194D01*
X96130000Y-98630000D01*
X95530000Y-98630000D01*
X95510866Y-98626194D01*
X95494645Y-98615355D01*
X95483806Y-98599134D01*
X95480000Y-98580000D01*
X95480000Y-98574995D01*
X95471690Y-98533215D01*
X95388310Y-98533215D01*
X95380000Y-98574993D01*
X95380000Y-98580000D01*
X95376194Y-98599134D01*
X95365355Y-98615355D01*
X95349134Y-98626194D01*
X95330000Y-98630000D01*
X94730000Y-98630000D01*
X94710866Y-98626194D01*
X94694645Y-98615355D01*
X94683806Y-98599134D01*
X94680000Y-98580000D01*
X94680000Y-97430000D01*
X94683806Y-97410866D01*
X94694645Y-97394645D01*
X94710866Y-97383806D01*
X94730000Y-97380000D01*
X95330000Y-97380000D01*
X95349134Y-97383806D01*
G37*
G36*
X111471663Y-96338595D02*
G01*
X111480419Y-96341496D01*
X111486822Y-96342218D01*
X111562291Y-96368625D01*
X111636964Y-96393369D01*
X111642154Y-96396570D01*
X111645271Y-96397661D01*
X111717372Y-96442965D01*
X111785177Y-96484788D01*
X111787281Y-96486892D01*
X111787419Y-96486979D01*
X111906120Y-96605680D01*
X111906206Y-96605817D01*
X111908312Y-96607923D01*
X111950154Y-96675759D01*
X111995438Y-96747828D01*
X111996528Y-96750943D01*
X111999731Y-96756136D01*
X112024486Y-96830843D01*
X112050881Y-96906277D01*
X112051601Y-96912676D01*
X112054505Y-96921437D01*
X112070000Y-97073100D01*
X112054505Y-97224763D01*
X112051601Y-97233524D01*
X112050881Y-97239922D01*
X112024492Y-97315337D01*
X111999731Y-97390064D01*
X111996527Y-97395258D01*
X111995438Y-97398371D01*
X111950187Y-97470385D01*
X111908312Y-97538277D01*
X111906204Y-97540384D01*
X111906120Y-97540519D01*
X111787419Y-97659220D01*
X111787284Y-97659304D01*
X111785177Y-97661412D01*
X111717285Y-97703287D01*
X111645271Y-97748538D01*
X111642158Y-97749627D01*
X111636964Y-97752831D01*
X111562237Y-97777592D01*
X111486822Y-97803981D01*
X111480424Y-97804701D01*
X111471663Y-97807605D01*
X111320000Y-97823100D01*
X109320000Y-97823100D01*
X109168337Y-97807605D01*
X109159576Y-97804701D01*
X109153177Y-97803981D01*
X109077743Y-97777586D01*
X109003036Y-97752831D01*
X108997843Y-97749628D01*
X108994728Y-97748538D01*
X108922659Y-97703254D01*
X108854823Y-97661412D01*
X108852717Y-97659306D01*
X108852580Y-97659220D01*
X108733879Y-97540519D01*
X108733792Y-97540381D01*
X108731688Y-97538277D01*
X108689865Y-97470472D01*
X108644561Y-97398371D01*
X108643470Y-97395254D01*
X108640269Y-97390064D01*
X108615516Y-97315363D01*
X108589118Y-97239922D01*
X108588396Y-97233519D01*
X108585495Y-97224763D01*
X108570000Y-97073100D01*
X108585495Y-96921437D01*
X108588396Y-96912680D01*
X108589118Y-96906277D01*
X108615531Y-96830789D01*
X108640269Y-96756136D01*
X108643469Y-96750946D01*
X108644561Y-96747828D01*
X108689899Y-96675672D01*
X108731688Y-96607923D01*
X108733791Y-96605819D01*
X108733879Y-96605680D01*
X108852580Y-96486979D01*
X108852719Y-96486891D01*
X108854823Y-96484788D01*
X108922572Y-96442999D01*
X108994728Y-96397661D01*
X108997846Y-96396569D01*
X109003036Y-96393369D01*
X109077689Y-96368631D01*
X109153177Y-96342218D01*
X109159580Y-96341496D01*
X109168337Y-96338595D01*
X109320000Y-96323100D01*
X111320000Y-96323100D01*
X111471663Y-96338595D01*
G37*
G36*
X125181071Y-94522929D02*
G01*
X125183261Y-94526227D01*
X125216190Y-94607052D01*
X125259023Y-94701684D01*
X125293086Y-94769086D01*
X125305823Y-94794289D01*
X125356649Y-94884977D01*
X125410102Y-94973077D01*
X125410759Y-94974103D01*
X125468198Y-95059271D01*
X125529013Y-95144013D01*
X125592363Y-95225180D01*
X125593136Y-95226123D01*
X125613284Y-95249530D01*
X125660449Y-95304325D01*
X125731193Y-95380051D01*
X125804482Y-95453340D01*
X125805336Y-95454154D01*
X125822981Y-95470195D01*
X125881618Y-95523501D01*
X125943179Y-95576491D01*
X125959876Y-95590863D01*
X125960818Y-95591636D01*
X126041481Y-95654592D01*
X126042461Y-95655320D01*
X126126656Y-95714752D01*
X126212798Y-95772180D01*
X126213891Y-95772869D01*
X126301980Y-95825326D01*
X126393128Y-95875854D01*
X126394168Y-95876400D01*
X126430125Y-95894185D01*
X126486279Y-95921960D01*
X126580287Y-95964511D01*
X126581475Y-95965013D01*
X126677513Y-96002636D01*
X126775153Y-96037507D01*
X126860270Y-96063893D01*
X126874800Y-96068398D01*
X126888514Y-96072100D01*
X126974396Y-96095288D01*
X127076009Y-96118202D01*
X127106501Y-96123826D01*
X127177984Y-96137012D01*
X127179171Y-96137202D01*
X127281213Y-96151072D01*
X127322573Y-96155489D01*
X127383246Y-96161968D01*
X127384411Y-96162064D01*
X127437751Y-96165141D01*
X127487368Y-96168004D01*
X127595000Y-96169998D01*
X127702631Y-96168004D01*
X127752247Y-96165141D01*
X127805587Y-96162064D01*
X127806752Y-96161968D01*
X127867425Y-96155489D01*
X127908786Y-96151072D01*
X128010829Y-96137202D01*
X128012016Y-96137012D01*
X128077592Y-96124916D01*
X128113990Y-96118202D01*
X128215603Y-96095288D01*
X128301484Y-96072100D01*
X128315199Y-96068398D01*
X128329728Y-96063893D01*
X128414846Y-96037507D01*
X128512485Y-96002636D01*
X128608523Y-95965013D01*
X128609712Y-95964511D01*
X128703720Y-95921960D01*
X128759874Y-95894185D01*
X128795830Y-95876400D01*
X128796871Y-95875854D01*
X128888019Y-95825326D01*
X128976108Y-95772869D01*
X128977201Y-95772180D01*
X129063343Y-95714752D01*
X129147538Y-95655320D01*
X129148518Y-95654592D01*
X129229181Y-95591636D01*
X129230123Y-95590863D01*
X129246820Y-95576491D01*
X129308381Y-95523501D01*
X129367019Y-95470195D01*
X129384664Y-95454154D01*
X129385539Y-95453319D01*
X129413122Y-95425736D01*
X129458806Y-95380051D01*
X129529550Y-95304325D01*
X129576715Y-95249530D01*
X129596863Y-95226123D01*
X129597636Y-95225180D01*
X129660986Y-95144013D01*
X129721801Y-95059271D01*
X129779240Y-94974103D01*
X129779897Y-94973077D01*
X129833350Y-94884977D01*
X129884176Y-94794289D01*
X129896913Y-94769086D01*
X129930976Y-94701684D01*
X129973809Y-94607052D01*
X130006739Y-94526227D01*
X130012119Y-94520784D01*
X130016000Y-94520000D01*
X131345000Y-94520000D01*
X131352071Y-94522929D01*
X131355000Y-94530000D01*
X131355000Y-96830000D01*
X131354993Y-96830384D01*
X131353993Y-96856384D01*
X131353971Y-96856767D01*
X131351971Y-96882767D01*
X131351934Y-96883146D01*
X131348934Y-96909146D01*
X131348820Y-96909888D01*
X131343820Y-96935888D01*
X131343724Y-96936334D01*
X131337724Y-96961334D01*
X131337656Y-96961600D01*
X131330656Y-96987600D01*
X131330363Y-96988511D01*
X131321363Y-97012511D01*
X131321231Y-97012846D01*
X131311231Y-97036846D01*
X131311091Y-97037167D01*
X131300091Y-97061167D01*
X131299706Y-97061921D01*
X131286706Y-97084921D01*
X131286437Y-97085369D01*
X131258437Y-97129369D01*
X131257954Y-97130060D01*
X131241954Y-97151060D01*
X131241619Y-97151476D01*
X131224619Y-97171476D01*
X131224260Y-97171877D01*
X131206260Y-97190877D01*
X131205877Y-97191260D01*
X131186877Y-97209260D01*
X131186476Y-97209619D01*
X131166476Y-97226619D01*
X131166060Y-97226954D01*
X131145060Y-97242954D01*
X131144369Y-97243437D01*
X131100369Y-97271437D01*
X131099921Y-97271706D01*
X131076921Y-97284706D01*
X131076167Y-97285091D01*
X131052167Y-97296091D01*
X131051846Y-97296231D01*
X131027846Y-97306231D01*
X131027511Y-97306363D01*
X131003511Y-97315363D01*
X131002600Y-97315656D01*
X130976600Y-97322656D01*
X130976334Y-97322724D01*
X130951334Y-97328724D01*
X130950888Y-97328820D01*
X130924888Y-97333820D01*
X130924146Y-97333934D01*
X130898146Y-97336934D01*
X130897767Y-97336971D01*
X130871767Y-97338971D01*
X130871384Y-97338993D01*
X130845384Y-97339993D01*
X130845000Y-97340000D01*
X130844489Y-97340000D01*
X124345511Y-97340000D01*
X124345000Y-97340000D01*
X124344616Y-97339993D01*
X124318616Y-97338993D01*
X124318233Y-97338971D01*
X124292233Y-97336971D01*
X124291854Y-97336934D01*
X124265854Y-97333934D01*
X124265112Y-97333820D01*
X124264191Y-97333643D01*
X124264185Y-97333642D01*
X124256390Y-97332142D01*
X124239112Y-97328820D01*
X124238666Y-97328724D01*
X124213666Y-97322724D01*
X124213400Y-97322656D01*
X124187400Y-97315656D01*
X124186489Y-97315363D01*
X124162489Y-97306363D01*
X124162154Y-97306231D01*
X124138154Y-97296231D01*
X124137833Y-97296091D01*
X124113833Y-97285091D01*
X124113079Y-97284706D01*
X124090079Y-97271706D01*
X124089631Y-97271437D01*
X124045631Y-97243437D01*
X124044940Y-97242954D01*
X124044093Y-97242308D01*
X124044082Y-97242301D01*
X124024481Y-97227367D01*
X124024462Y-97227351D01*
X124023940Y-97226954D01*
X124023524Y-97226619D01*
X124023037Y-97226205D01*
X124023022Y-97226193D01*
X124004037Y-97210055D01*
X124003524Y-97209619D01*
X124003123Y-97209260D01*
X123984123Y-97191260D01*
X123983740Y-97190877D01*
X123965740Y-97171877D01*
X123965381Y-97171476D01*
X123962426Y-97168000D01*
X123948806Y-97151977D01*
X123948790Y-97151958D01*
X123948381Y-97151476D01*
X123948046Y-97151060D01*
X123947651Y-97150542D01*
X123947632Y-97150518D01*
X123932698Y-97130917D01*
X123932687Y-97130902D01*
X123932046Y-97130060D01*
X123931563Y-97129369D01*
X123903563Y-97085369D01*
X123903294Y-97084921D01*
X123890294Y-97061921D01*
X123889909Y-97061167D01*
X123878909Y-97037167D01*
X123878769Y-97036846D01*
X123878592Y-97036422D01*
X123868958Y-97013301D01*
X123868947Y-97013273D01*
X123868769Y-97012846D01*
X123868637Y-97012511D01*
X123859637Y-96988511D01*
X123859344Y-96987600D01*
X123859024Y-96986412D01*
X123852433Y-96961933D01*
X123852421Y-96961889D01*
X123852344Y-96961600D01*
X123852276Y-96961334D01*
X123846276Y-96936334D01*
X123846180Y-96935888D01*
X123846069Y-96935312D01*
X123841357Y-96910814D01*
X123841352Y-96910786D01*
X123841180Y-96909888D01*
X123841066Y-96909146D01*
X123840960Y-96908232D01*
X123840957Y-96908209D01*
X123838120Y-96883620D01*
X123838116Y-96883583D01*
X123838066Y-96883146D01*
X123838029Y-96882767D01*
X123837994Y-96882319D01*
X123837990Y-96882272D01*
X123836068Y-96857278D01*
X123836067Y-96857262D01*
X123836029Y-96856767D01*
X123836007Y-96856384D01*
X123835987Y-96855868D01*
X123835027Y-96830918D01*
X123835026Y-96830890D01*
X123835007Y-96830384D01*
X123835000Y-96830000D01*
X123835000Y-94530000D01*
X123837929Y-94522929D01*
X123845000Y-94520000D01*
X125174000Y-94520000D01*
X125181071Y-94522929D01*
G37*
G36*
X102085796Y-95854082D02*
G01*
X102145815Y-95894185D01*
X102185918Y-95954204D01*
X102200000Y-96025000D01*
X102200000Y-96395000D01*
X102185918Y-96465796D01*
X102145815Y-96525815D01*
X102085796Y-96565918D01*
X102015000Y-96580000D01*
X101745000Y-96580000D01*
X101674204Y-96565918D01*
X101614185Y-96525815D01*
X101574082Y-96465796D01*
X101560000Y-96395000D01*
X101560000Y-96025000D01*
X101574082Y-95954204D01*
X101614185Y-95894185D01*
X101674204Y-95854082D01*
X101745000Y-95840000D01*
X102015000Y-95840000D01*
X102085796Y-95854082D01*
G37*
G36*
X103105796Y-95854082D02*
G01*
X103165815Y-95894185D01*
X103205918Y-95954204D01*
X103220000Y-96025000D01*
X103220000Y-96395000D01*
X103205918Y-96465796D01*
X103165815Y-96525815D01*
X103105796Y-96565918D01*
X103035000Y-96580000D01*
X102765000Y-96580000D01*
X102694204Y-96565918D01*
X102634185Y-96525815D01*
X102594082Y-96465796D01*
X102580000Y-96395000D01*
X102580000Y-96025000D01*
X102594082Y-95954204D01*
X102634185Y-95894185D01*
X102694204Y-95854082D01*
X102765000Y-95840000D01*
X103035000Y-95840000D01*
X103105796Y-95854082D01*
G37*
G36*
X96753234Y-95241646D02*
G01*
X96769455Y-95252485D01*
X96780294Y-95268706D01*
X96784100Y-95287840D01*
X96784100Y-95541840D01*
X96780294Y-95560974D01*
X96778874Y-95563098D01*
X96777766Y-95568671D01*
X96816163Y-95607072D01*
X96821747Y-95605961D01*
X96823866Y-95604546D01*
X96843000Y-95600740D01*
X97097000Y-95600740D01*
X97116134Y-95604546D01*
X97132355Y-95615385D01*
X97143194Y-95631606D01*
X97147000Y-95650740D01*
X97147000Y-96463540D01*
X97143194Y-96482674D01*
X97132355Y-96498895D01*
X97116134Y-96509734D01*
X97097000Y-96513540D01*
X96843000Y-96513540D01*
X96823866Y-96509734D01*
X96807645Y-96498895D01*
X96796806Y-96482674D01*
X96793000Y-96463540D01*
X96793000Y-95650740D01*
X96796806Y-95631606D01*
X96798219Y-95629489D01*
X96799331Y-95623902D01*
X96760930Y-95585505D01*
X96755360Y-95586613D01*
X96753234Y-95588034D01*
X96734100Y-95591840D01*
X95921300Y-95591840D01*
X95902166Y-95588034D01*
X95885945Y-95577195D01*
X95875106Y-95560974D01*
X95871300Y-95541840D01*
X95871300Y-95287840D01*
X95875106Y-95268706D01*
X95885945Y-95252485D01*
X95902166Y-95241646D01*
X95921300Y-95237840D01*
X96734100Y-95237840D01*
X96753234Y-95241646D01*
G37*
G36*
X97616133Y-95604546D02*
G01*
X97632354Y-95615385D01*
X97643193Y-95631606D01*
X97646999Y-95650740D01*
X97646999Y-96463540D01*
X97643193Y-96482674D01*
X97632354Y-96498895D01*
X97616133Y-96509734D01*
X97596999Y-96513540D01*
X97342999Y-96513540D01*
X97323865Y-96509734D01*
X97307644Y-96498895D01*
X97296805Y-96482674D01*
X97292999Y-96463540D01*
X97292999Y-95650740D01*
X97296805Y-95631606D01*
X97307644Y-95615385D01*
X97323865Y-95604546D01*
X97342999Y-95600740D01*
X97596999Y-95600740D01*
X97616133Y-95604546D01*
G37*
G36*
X98116134Y-95604546D02*
G01*
X98132355Y-95615385D01*
X98143194Y-95631606D01*
X98147000Y-95650740D01*
X98147000Y-96463540D01*
X98143194Y-96482674D01*
X98132355Y-96498895D01*
X98116134Y-96509734D01*
X98097000Y-96513540D01*
X97843000Y-96513540D01*
X97823866Y-96509734D01*
X97807645Y-96498895D01*
X97796806Y-96482674D01*
X97793000Y-96463540D01*
X97793000Y-95650740D01*
X97796806Y-95631606D01*
X97807645Y-95615385D01*
X97823866Y-95604546D01*
X97843000Y-95600740D01*
X98097000Y-95600740D01*
X98116134Y-95604546D01*
G37*
G36*
X98616134Y-95604546D02*
G01*
X98632355Y-95615385D01*
X98643194Y-95631606D01*
X98647000Y-95650740D01*
X98647000Y-96463540D01*
X98643194Y-96482674D01*
X98632355Y-96498895D01*
X98616134Y-96509734D01*
X98597000Y-96513540D01*
X98343000Y-96513540D01*
X98323866Y-96509734D01*
X98307645Y-96498895D01*
X98296806Y-96482674D01*
X98293000Y-96463540D01*
X98293000Y-95650740D01*
X98296806Y-95631606D01*
X98307645Y-95615385D01*
X98323866Y-95604546D01*
X98343000Y-95600740D01*
X98597000Y-95600740D01*
X98616134Y-95604546D01*
G37*
G36*
X99116135Y-95604546D02*
G01*
X99132356Y-95615385D01*
X99143195Y-95631606D01*
X99147001Y-95650740D01*
X99147001Y-96463540D01*
X99143195Y-96482674D01*
X99132356Y-96498895D01*
X99116135Y-96509734D01*
X99097001Y-96513540D01*
X98843001Y-96513540D01*
X98823867Y-96509734D01*
X98807646Y-96498895D01*
X98796807Y-96482674D01*
X98793001Y-96463540D01*
X98793001Y-95650740D01*
X98796807Y-95631606D01*
X98807646Y-95615385D01*
X98823867Y-95604546D01*
X98843001Y-95600740D01*
X99097001Y-95600740D01*
X99116135Y-95604546D01*
G37*
G36*
X100537834Y-95241646D02*
G01*
X100554055Y-95252485D01*
X100564894Y-95268706D01*
X100568700Y-95287840D01*
X100568700Y-95541840D01*
X100564894Y-95560974D01*
X100554055Y-95577195D01*
X100537834Y-95588034D01*
X100518700Y-95591840D01*
X99705900Y-95591840D01*
X99686766Y-95588034D01*
X99684642Y-95586615D01*
X99679066Y-95585506D01*
X99640665Y-95623907D01*
X99641773Y-95629480D01*
X99643194Y-95631606D01*
X99647000Y-95650740D01*
X99647000Y-96463540D01*
X99643194Y-96482674D01*
X99632355Y-96498895D01*
X99616134Y-96509734D01*
X99597000Y-96513540D01*
X99343000Y-96513540D01*
X99323866Y-96509734D01*
X99307645Y-96498895D01*
X99296806Y-96482674D01*
X99293000Y-96463540D01*
X99293000Y-95650740D01*
X99296806Y-95631606D01*
X99307645Y-95615385D01*
X99323866Y-95604546D01*
X99343000Y-95600740D01*
X99597000Y-95600740D01*
X99616134Y-95604546D01*
X99618250Y-95605960D01*
X99623835Y-95607071D01*
X99662232Y-95568674D01*
X99661121Y-95563093D01*
X99659706Y-95560974D01*
X99655900Y-95541840D01*
X99655900Y-95287840D01*
X99659706Y-95268706D01*
X99670545Y-95252485D01*
X99686766Y-95241646D01*
X99705900Y-95237840D01*
X100518700Y-95237840D01*
X100537834Y-95241646D01*
G37*
G36*
X93825796Y-95684082D02*
G01*
X93885815Y-95724185D01*
X93925918Y-95784204D01*
X93940000Y-95855000D01*
X93940000Y-96225000D01*
X93925918Y-96295796D01*
X93885815Y-96355815D01*
X93825796Y-96395918D01*
X93755000Y-96410000D01*
X93485000Y-96410000D01*
X93414204Y-96395918D01*
X93354185Y-96355815D01*
X93314082Y-96295796D01*
X93300000Y-96225000D01*
X93300000Y-95855000D01*
X93314082Y-95784204D01*
X93354185Y-95724185D01*
X93414204Y-95684082D01*
X93485000Y-95670000D01*
X93755000Y-95670000D01*
X93825796Y-95684082D01*
G37*
G36*
X94845796Y-95684082D02*
G01*
X94905815Y-95724185D01*
X94945918Y-95784204D01*
X94960000Y-95855000D01*
X94960000Y-96225000D01*
X94945918Y-96295796D01*
X94905815Y-96355815D01*
X94845796Y-96395918D01*
X94775000Y-96410000D01*
X94505000Y-96410000D01*
X94434204Y-96395918D01*
X94374185Y-96355815D01*
X94334082Y-96295796D01*
X94320000Y-96225000D01*
X94320000Y-95855000D01*
X94334082Y-95784204D01*
X94374185Y-95724185D01*
X94434204Y-95684082D01*
X94505000Y-95670000D01*
X94775000Y-95670000D01*
X94845796Y-95684082D01*
G37*
G36*
X70463300Y-88371375D02*
G01*
X70490470Y-88389530D01*
X70508625Y-88416700D01*
X70515000Y-88448750D01*
X70515000Y-89251250D01*
X70508625Y-89283300D01*
X70490470Y-89310470D01*
X70463300Y-89328625D01*
X70431250Y-89335000D01*
X70426225Y-89335000D01*
X70409347Y-89338356D01*
X70418370Y-89430000D01*
X70741627Y-89430000D01*
X70750650Y-89338358D01*
X70733764Y-89335000D01*
X70728750Y-89335000D01*
X70696700Y-89328625D01*
X70669530Y-89310470D01*
X70651375Y-89283300D01*
X70645000Y-89251250D01*
X70645000Y-88448750D01*
X70651375Y-88416700D01*
X70669530Y-88389530D01*
X70696700Y-88371375D01*
X70728750Y-88365000D01*
X70931250Y-88365000D01*
X70963300Y-88371375D01*
X70990470Y-88389530D01*
X71008625Y-88416700D01*
X71015000Y-88448750D01*
X71015000Y-89251250D01*
X71008625Y-89283300D01*
X70990470Y-89310470D01*
X70963300Y-89328625D01*
X70931250Y-89335000D01*
X70926225Y-89335000D01*
X70909347Y-89338356D01*
X70918370Y-89430000D01*
X71241625Y-89430000D01*
X71250650Y-89338359D01*
X71233760Y-89335000D01*
X71228750Y-89335000D01*
X71196700Y-89328625D01*
X71169530Y-89310470D01*
X71151375Y-89283300D01*
X71145000Y-89251250D01*
X71145000Y-88448750D01*
X71151375Y-88416700D01*
X71169530Y-88389530D01*
X71196700Y-88371375D01*
X71228750Y-88365000D01*
X71431250Y-88365000D01*
X71463300Y-88371375D01*
X71490470Y-88389530D01*
X71508625Y-88416700D01*
X71515000Y-88448750D01*
X71515000Y-89251250D01*
X71508625Y-89283300D01*
X71490470Y-89310470D01*
X71463300Y-89328625D01*
X71431250Y-89335000D01*
X71426228Y-89335000D01*
X71409348Y-89338357D01*
X71418371Y-89430000D01*
X71741625Y-89430000D01*
X71750650Y-89338359D01*
X71733760Y-89335000D01*
X71728750Y-89335000D01*
X71696700Y-89328625D01*
X71669530Y-89310470D01*
X71651375Y-89283300D01*
X71645000Y-89251250D01*
X71645000Y-88448750D01*
X71651375Y-88416700D01*
X71669530Y-88389530D01*
X71696700Y-88371375D01*
X71728750Y-88365000D01*
X71931250Y-88365000D01*
X71963300Y-88371375D01*
X71990470Y-88389530D01*
X72008625Y-88416700D01*
X72015000Y-88448750D01*
X72015000Y-89251250D01*
X72008625Y-89283300D01*
X71990470Y-89310470D01*
X71963300Y-89328625D01*
X71931250Y-89335000D01*
X71926228Y-89335000D01*
X71909348Y-89338357D01*
X71918371Y-89430000D01*
X72241624Y-89430000D01*
X72250649Y-89338359D01*
X72233760Y-89335000D01*
X72228750Y-89335000D01*
X72196700Y-89328625D01*
X72169530Y-89310470D01*
X72151375Y-89283300D01*
X72145000Y-89251250D01*
X72145000Y-88448750D01*
X72151375Y-88416700D01*
X72169530Y-88389530D01*
X72196700Y-88371375D01*
X72228750Y-88365000D01*
X72431250Y-88365000D01*
X72463300Y-88371375D01*
X72490470Y-88389530D01*
X72508625Y-88416700D01*
X72515000Y-88448750D01*
X72515000Y-89251250D01*
X72508625Y-89283300D01*
X72490470Y-89310470D01*
X72463300Y-89328625D01*
X72431250Y-89335000D01*
X72426235Y-89335000D01*
X72409349Y-89338358D01*
X72418372Y-89430000D01*
X72741624Y-89430000D01*
X72750649Y-89338359D01*
X72733760Y-89335000D01*
X72728750Y-89335000D01*
X72696700Y-89328625D01*
X72669530Y-89310470D01*
X72651375Y-89283300D01*
X72645000Y-89251250D01*
X72645000Y-88448750D01*
X72651375Y-88416700D01*
X72669530Y-88389530D01*
X72696700Y-88371375D01*
X72728750Y-88365000D01*
X72931250Y-88365000D01*
X72963300Y-88371375D01*
X72990470Y-88389530D01*
X73008625Y-88416700D01*
X73015000Y-88448750D01*
X73015000Y-89251250D01*
X73008625Y-89283300D01*
X72990470Y-89310470D01*
X72963300Y-89328625D01*
X72931250Y-89335000D01*
X72926235Y-89335000D01*
X72909349Y-89338358D01*
X72918372Y-89430000D01*
X73241624Y-89430000D01*
X73250649Y-89338359D01*
X73233760Y-89335000D01*
X73228750Y-89335000D01*
X73196700Y-89328625D01*
X73169530Y-89310470D01*
X73151375Y-89283300D01*
X73145000Y-89251250D01*
X73145000Y-88448750D01*
X73151375Y-88416700D01*
X73169530Y-88389530D01*
X73196700Y-88371375D01*
X73228750Y-88365000D01*
X73431250Y-88365000D01*
X73463300Y-88371375D01*
X73490470Y-88389530D01*
X73508625Y-88416700D01*
X73515000Y-88448750D01*
X73515000Y-89251250D01*
X73508625Y-89283300D01*
X73490470Y-89310470D01*
X73463300Y-89328625D01*
X73431250Y-89335000D01*
X73426236Y-89335000D01*
X73409350Y-89338358D01*
X73418373Y-89430000D01*
X73741623Y-89430000D01*
X73750648Y-89338360D01*
X73733756Y-89335000D01*
X73728750Y-89335000D01*
X73696700Y-89328625D01*
X73669530Y-89310470D01*
X73651375Y-89283300D01*
X73645000Y-89251250D01*
X73645000Y-88448750D01*
X73651375Y-88416700D01*
X73669530Y-88389530D01*
X73696700Y-88371375D01*
X73728750Y-88365000D01*
X73931250Y-88365000D01*
X73963300Y-88371375D01*
X73990470Y-88389530D01*
X74008625Y-88416700D01*
X74015000Y-88448750D01*
X74015000Y-89251250D01*
X74008625Y-89283300D01*
X73990470Y-89310470D01*
X73963300Y-89328625D01*
X73931250Y-89335000D01*
X73926236Y-89335000D01*
X73909350Y-89338358D01*
X73918373Y-89430000D01*
X74241623Y-89430000D01*
X74250648Y-89338360D01*
X74233756Y-89335000D01*
X74228750Y-89335000D01*
X74196700Y-89328625D01*
X74169530Y-89310470D01*
X74151375Y-89283300D01*
X74145000Y-89251250D01*
X74145000Y-88448750D01*
X74151375Y-88416700D01*
X74169530Y-88389530D01*
X74196700Y-88371375D01*
X74228750Y-88365000D01*
X74431250Y-88365000D01*
X74463300Y-88371375D01*
X74490470Y-88389530D01*
X74508625Y-88416700D01*
X74515000Y-88448750D01*
X74515000Y-89251250D01*
X74508625Y-89283300D01*
X74490470Y-89310470D01*
X74463300Y-89328625D01*
X74431250Y-89335000D01*
X74426236Y-89335000D01*
X74409350Y-89338358D01*
X74418373Y-89430000D01*
X74741622Y-89430000D01*
X74750647Y-89338360D01*
X74733755Y-89335000D01*
X74728750Y-89335000D01*
X74696700Y-89328625D01*
X74669530Y-89310470D01*
X74651375Y-89283300D01*
X74645000Y-89251250D01*
X74645000Y-88448750D01*
X74651375Y-88416700D01*
X74669530Y-88389530D01*
X74696700Y-88371375D01*
X74728750Y-88365000D01*
X74931250Y-88365000D01*
X74963300Y-88371375D01*
X74990470Y-88389530D01*
X75008625Y-88416700D01*
X75015000Y-88448750D01*
X75015000Y-89251250D01*
X75008625Y-89283300D01*
X74990470Y-89310470D01*
X74963300Y-89328625D01*
X74931250Y-89335000D01*
X74926240Y-89335000D01*
X74909350Y-89338359D01*
X74918375Y-89430000D01*
X75241622Y-89430000D01*
X75250647Y-89338360D01*
X75233755Y-89335000D01*
X75228750Y-89335000D01*
X75196700Y-89328625D01*
X75169530Y-89310470D01*
X75151375Y-89283300D01*
X75145000Y-89251250D01*
X75145000Y-88448750D01*
X75151375Y-88416700D01*
X75169530Y-88389530D01*
X75196700Y-88371375D01*
X75228750Y-88365000D01*
X75431250Y-88365000D01*
X75463300Y-88371375D01*
X75490470Y-88389530D01*
X75508625Y-88416700D01*
X75515000Y-88448750D01*
X75515000Y-89251250D01*
X75508625Y-89283300D01*
X75490470Y-89310470D01*
X75463300Y-89328625D01*
X75431250Y-89335000D01*
X75426240Y-89335000D01*
X75409350Y-89338359D01*
X75418375Y-89430000D01*
X75741620Y-89430000D01*
X75750646Y-89338361D01*
X75733751Y-89335000D01*
X75728750Y-89335000D01*
X75696700Y-89328625D01*
X75669530Y-89310470D01*
X75651375Y-89283300D01*
X75645000Y-89251250D01*
X75645000Y-88448750D01*
X75651375Y-88416700D01*
X75669530Y-88389530D01*
X75696700Y-88371375D01*
X75728750Y-88365000D01*
X75931250Y-88365000D01*
X75963300Y-88371375D01*
X75990470Y-88389530D01*
X76008625Y-88416700D01*
X76015000Y-88448750D01*
X76015000Y-89251250D01*
X76008625Y-89283300D01*
X75990470Y-89310470D01*
X75963300Y-89328625D01*
X75931250Y-89335000D01*
X75867124Y-89335000D01*
X75858097Y-89426638D01*
X75874999Y-89430000D01*
X75880000Y-89430000D01*
X75899134Y-89433806D01*
X75915355Y-89444645D01*
X75926194Y-89460866D01*
X75930000Y-89480000D01*
X75930000Y-89485008D01*
X75933359Y-89501898D01*
X76025000Y-89492873D01*
X76025000Y-89433753D01*
X76025000Y-89433752D01*
X76025000Y-89428750D01*
X76031375Y-89396700D01*
X76049530Y-89369530D01*
X76076700Y-89351375D01*
X76108750Y-89345000D01*
X76911250Y-89345000D01*
X76943300Y-89351375D01*
X76970470Y-89369530D01*
X76988625Y-89396700D01*
X76995000Y-89428750D01*
X76995000Y-89631250D01*
X76988625Y-89663300D01*
X76970470Y-89690470D01*
X76943300Y-89708625D01*
X76911250Y-89715000D01*
X76108750Y-89715000D01*
X76076700Y-89708625D01*
X76049530Y-89690470D01*
X76031375Y-89663300D01*
X76025000Y-89631250D01*
X76025000Y-89626241D01*
X76021640Y-89609346D01*
X75930000Y-89618370D01*
X75930000Y-89941625D01*
X76021638Y-89950651D01*
X76025000Y-89933749D01*
X76025000Y-89928750D01*
X76031375Y-89896700D01*
X76049530Y-89869530D01*
X76076700Y-89851375D01*
X76108750Y-89845000D01*
X76911250Y-89845000D01*
X76943300Y-89851375D01*
X76970470Y-89869530D01*
X76988625Y-89896700D01*
X76995000Y-89928750D01*
X76995000Y-90131250D01*
X76988625Y-90163300D01*
X76970470Y-90190470D01*
X76943300Y-90208625D01*
X76911250Y-90215000D01*
X76108750Y-90215000D01*
X76076700Y-90208625D01*
X76049530Y-90190470D01*
X76031375Y-90163300D01*
X76025000Y-90131250D01*
X76025000Y-90126241D01*
X76021640Y-90109346D01*
X75930000Y-90118370D01*
X75930000Y-90441624D01*
X76021638Y-90450651D01*
X76025000Y-90433749D01*
X76025000Y-90428750D01*
X76031375Y-90396700D01*
X76049530Y-90369530D01*
X76076700Y-90351375D01*
X76108750Y-90345000D01*
X76911250Y-90345000D01*
X76943300Y-90351375D01*
X76970470Y-90369530D01*
X76988625Y-90396700D01*
X76995000Y-90428750D01*
X76995000Y-90631250D01*
X76988625Y-90663300D01*
X76970470Y-90690470D01*
X76943300Y-90708625D01*
X76911250Y-90715000D01*
X76108750Y-90715000D01*
X76076700Y-90708625D01*
X76049530Y-90690470D01*
X76031375Y-90663300D01*
X76025000Y-90631250D01*
X76025000Y-90626245D01*
X76021639Y-90609347D01*
X75930000Y-90618371D01*
X75930000Y-90941624D01*
X76021638Y-90950651D01*
X76025000Y-90933749D01*
X76025000Y-90928750D01*
X76031375Y-90896700D01*
X76049530Y-90869530D01*
X76076700Y-90851375D01*
X76108750Y-90845000D01*
X76911250Y-90845000D01*
X76943300Y-90851375D01*
X76970470Y-90869530D01*
X76988625Y-90896700D01*
X76995000Y-90928750D01*
X76995000Y-91131250D01*
X76988625Y-91163300D01*
X76970470Y-91190470D01*
X76943300Y-91208625D01*
X76911250Y-91215000D01*
X76108750Y-91215000D01*
X76076700Y-91208625D01*
X76049530Y-91190470D01*
X76031375Y-91163300D01*
X76025000Y-91131250D01*
X76025000Y-91126245D01*
X76021639Y-91109347D01*
X75930000Y-91118371D01*
X75930000Y-91441623D01*
X76021637Y-91450650D01*
X76025000Y-91433745D01*
X76025000Y-91428750D01*
X76031375Y-91396700D01*
X76049530Y-91369530D01*
X76076700Y-91351375D01*
X76108750Y-91345000D01*
X76911250Y-91345000D01*
X76943300Y-91351375D01*
X76970470Y-91369530D01*
X76988625Y-91396700D01*
X76995000Y-91428750D01*
X76995000Y-91631250D01*
X76988625Y-91663300D01*
X76970470Y-91690470D01*
X76943300Y-91708625D01*
X76911250Y-91715000D01*
X76108750Y-91715000D01*
X76076700Y-91708625D01*
X76049530Y-91690470D01*
X76031375Y-91663300D01*
X76025000Y-91631250D01*
X76025000Y-91626246D01*
X76021639Y-91609348D01*
X75930000Y-91618372D01*
X75930000Y-91941623D01*
X76021637Y-91950650D01*
X76025000Y-91933745D01*
X76025000Y-91928750D01*
X76031375Y-91896700D01*
X76049530Y-91869530D01*
X76076700Y-91851375D01*
X76108750Y-91845000D01*
X76911250Y-91845000D01*
X76943300Y-91851375D01*
X76970470Y-91869530D01*
X76988625Y-91896700D01*
X76995000Y-91928750D01*
X76995000Y-92131250D01*
X76988625Y-92163300D01*
X76970470Y-92190470D01*
X76943300Y-92208625D01*
X76911250Y-92215000D01*
X76108750Y-92215000D01*
X76076700Y-92208625D01*
X76049530Y-92190470D01*
X76031375Y-92163300D01*
X76025000Y-92131250D01*
X76025000Y-92126246D01*
X76021639Y-92109348D01*
X75930000Y-92118372D01*
X75930000Y-92441623D01*
X76021637Y-92450650D01*
X76025000Y-92433745D01*
X76025000Y-92428750D01*
X76031375Y-92396700D01*
X76049530Y-92369530D01*
X76076700Y-92351375D01*
X76108750Y-92345000D01*
X76911250Y-92345000D01*
X76943300Y-92351375D01*
X76970470Y-92369530D01*
X76988625Y-92396700D01*
X76995000Y-92428750D01*
X76995000Y-92631250D01*
X76988625Y-92663300D01*
X76970470Y-92690470D01*
X76943300Y-92708625D01*
X76911250Y-92715000D01*
X76108750Y-92715000D01*
X76076700Y-92708625D01*
X76049530Y-92690470D01*
X76031375Y-92663300D01*
X76025000Y-92631250D01*
X76025000Y-92626250D01*
X76021638Y-92609349D01*
X75930000Y-92618374D01*
X75930000Y-92941622D01*
X76021637Y-92950649D01*
X76025000Y-92933744D01*
X76025000Y-92928750D01*
X76031375Y-92896700D01*
X76049530Y-92869530D01*
X76076700Y-92851375D01*
X76108750Y-92845000D01*
X76911250Y-92845000D01*
X76943300Y-92851375D01*
X76970470Y-92869530D01*
X76988625Y-92896700D01*
X76995000Y-92928750D01*
X76995000Y-93131250D01*
X76988625Y-93163300D01*
X76970470Y-93190470D01*
X76943300Y-93208625D01*
X76911250Y-93215000D01*
X76108750Y-93215000D01*
X76076700Y-93208625D01*
X76049530Y-93190470D01*
X76031375Y-93163300D01*
X76025000Y-93131250D01*
X76025000Y-93126250D01*
X76021638Y-93109349D01*
X75930000Y-93118374D01*
X75930000Y-93441622D01*
X76021637Y-93450649D01*
X76025000Y-93433744D01*
X76025000Y-93428750D01*
X76031375Y-93396700D01*
X76049530Y-93369530D01*
X76076700Y-93351375D01*
X76108750Y-93345000D01*
X76911250Y-93345000D01*
X76943300Y-93351375D01*
X76970470Y-93369530D01*
X76988625Y-93396700D01*
X76995000Y-93428750D01*
X76995000Y-93631250D01*
X76988625Y-93663300D01*
X76970470Y-93690470D01*
X76943300Y-93708625D01*
X76911250Y-93715000D01*
X76108750Y-93715000D01*
X76076700Y-93708625D01*
X76049530Y-93690470D01*
X76031375Y-93663300D01*
X76025000Y-93631250D01*
X76025000Y-93626250D01*
X76021638Y-93609349D01*
X75930000Y-93618374D01*
X75930000Y-93941620D01*
X76021636Y-93950648D01*
X76025000Y-93933739D01*
X76025000Y-93928750D01*
X76031375Y-93896700D01*
X76049530Y-93869530D01*
X76076700Y-93851375D01*
X76108750Y-93845000D01*
X76911250Y-93845000D01*
X76943300Y-93851375D01*
X76970470Y-93869530D01*
X76988625Y-93896700D01*
X76995000Y-93928750D01*
X76995000Y-94131250D01*
X76988625Y-94163300D01*
X76970470Y-94190470D01*
X76943300Y-94208625D01*
X76911250Y-94215000D01*
X76108750Y-94215000D01*
X76076700Y-94208625D01*
X76049530Y-94190470D01*
X76031375Y-94163300D01*
X76025000Y-94131250D01*
X76025000Y-94126250D01*
X76021638Y-94109349D01*
X75930000Y-94118375D01*
X75930000Y-94441620D01*
X76021636Y-94450648D01*
X76025000Y-94433739D01*
X76025000Y-94428750D01*
X76031375Y-94396700D01*
X76049530Y-94369530D01*
X76076700Y-94351375D01*
X76108750Y-94345000D01*
X76911250Y-94345000D01*
X76943300Y-94351375D01*
X76970470Y-94369530D01*
X76988625Y-94396700D01*
X76995000Y-94428750D01*
X76995000Y-94631250D01*
X76988625Y-94663300D01*
X76970470Y-94690470D01*
X76943300Y-94708625D01*
X76911250Y-94715000D01*
X76108750Y-94715000D01*
X76076700Y-94708625D01*
X76049530Y-94690470D01*
X76031375Y-94663300D01*
X76025000Y-94631250D01*
X76025000Y-94626250D01*
X76021638Y-94609349D01*
X75930000Y-94618375D01*
X75930000Y-94941619D01*
X76021636Y-94950647D01*
X76025000Y-94933738D01*
X76025000Y-94928750D01*
X76031375Y-94896700D01*
X76049530Y-94869530D01*
X76076700Y-94851375D01*
X76108750Y-94845000D01*
X76911250Y-94845000D01*
X76943300Y-94851375D01*
X76970470Y-94869530D01*
X76988625Y-94896700D01*
X76995000Y-94928750D01*
X76995000Y-95131250D01*
X76988625Y-95163300D01*
X76970470Y-95190470D01*
X76943300Y-95208625D01*
X76911250Y-95215000D01*
X76108750Y-95215000D01*
X76076700Y-95208625D01*
X76049530Y-95190470D01*
X76031375Y-95163300D01*
X76025000Y-95131250D01*
X76025000Y-95125272D01*
X76024997Y-95067118D01*
X75933352Y-95058102D01*
X75930000Y-95074966D01*
X75930000Y-95080000D01*
X75926194Y-95099134D01*
X75915355Y-95115355D01*
X75899134Y-95126194D01*
X75880000Y-95130000D01*
X75874983Y-95130000D01*
X75858102Y-95133357D01*
X75867125Y-95225000D01*
X75931250Y-95225000D01*
X75963300Y-95231375D01*
X75990470Y-95249530D01*
X76008625Y-95276700D01*
X76015000Y-95308750D01*
X76015000Y-96111250D01*
X76008625Y-96143300D01*
X75990470Y-96170470D01*
X75963300Y-96188625D01*
X75931250Y-96195000D01*
X75728750Y-96195000D01*
X75696700Y-96188625D01*
X75669530Y-96170470D01*
X75651375Y-96143300D01*
X75645000Y-96111250D01*
X75645000Y-95308750D01*
X75651375Y-95276700D01*
X75669530Y-95249530D01*
X75696700Y-95231375D01*
X75728750Y-95225000D01*
X75733754Y-95225000D01*
X75750653Y-95221639D01*
X75741628Y-95130000D01*
X75418373Y-95130000D01*
X75409348Y-95221639D01*
X75426246Y-95225000D01*
X75431250Y-95225000D01*
X75463300Y-95231375D01*
X75490470Y-95249530D01*
X75508625Y-95276700D01*
X75515000Y-95308750D01*
X75515000Y-96111250D01*
X75508625Y-96143300D01*
X75490470Y-96170470D01*
X75463300Y-96188625D01*
X75431250Y-96195000D01*
X75228750Y-96195000D01*
X75196700Y-96188625D01*
X75169530Y-96170470D01*
X75151375Y-96143300D01*
X75145000Y-96111250D01*
X75145000Y-95308750D01*
X75151375Y-95276700D01*
X75169530Y-95249530D01*
X75196700Y-95231375D01*
X75228750Y-95225000D01*
X75233754Y-95225000D01*
X75250653Y-95221639D01*
X75241628Y-95130000D01*
X74918375Y-95130000D01*
X74909349Y-95221638D01*
X74926250Y-95225000D01*
X74931250Y-95225000D01*
X74963300Y-95231375D01*
X74990470Y-95249530D01*
X75008625Y-95276700D01*
X75015000Y-95308750D01*
X75015000Y-96111250D01*
X75008625Y-96143300D01*
X74990470Y-96170470D01*
X74963300Y-96188625D01*
X74931250Y-96195000D01*
X74728750Y-96195000D01*
X74696700Y-96188625D01*
X74669530Y-96170470D01*
X74651375Y-96143300D01*
X74645000Y-96111250D01*
X74645000Y-95308750D01*
X74651375Y-95276700D01*
X74669530Y-95249530D01*
X74696700Y-95231375D01*
X74728750Y-95225000D01*
X74733753Y-95225000D01*
X74750652Y-95221639D01*
X74741627Y-95130000D01*
X74418375Y-95130000D01*
X74409349Y-95221638D01*
X74426250Y-95225000D01*
X74431250Y-95225000D01*
X74463300Y-95231375D01*
X74490470Y-95249530D01*
X74508625Y-95276700D01*
X74515000Y-95308750D01*
X74515000Y-96111250D01*
X74508625Y-96143300D01*
X74490470Y-96170470D01*
X74463300Y-96188625D01*
X74431250Y-96195000D01*
X74228750Y-96195000D01*
X74196700Y-96188625D01*
X74169530Y-96170470D01*
X74151375Y-96143300D01*
X74145000Y-96111250D01*
X74145000Y-95308750D01*
X74151375Y-95276700D01*
X74169530Y-95249530D01*
X74196700Y-95231375D01*
X74228750Y-95225000D01*
X74233753Y-95225000D01*
X74250652Y-95221639D01*
X74241627Y-95130000D01*
X73918376Y-95130000D01*
X73909349Y-95221638D01*
X73926250Y-95225000D01*
X73931250Y-95225000D01*
X73963300Y-95231375D01*
X73990470Y-95249530D01*
X74008625Y-95276700D01*
X74015000Y-95308750D01*
X74015000Y-96111250D01*
X74008625Y-96143300D01*
X73990470Y-96170470D01*
X73963300Y-96188625D01*
X73931250Y-96195000D01*
X73728750Y-96195000D01*
X73696700Y-96188625D01*
X73669530Y-96170470D01*
X73651375Y-96143300D01*
X73645000Y-96111250D01*
X73645000Y-95308750D01*
X73651375Y-95276700D01*
X73669530Y-95249530D01*
X73696700Y-95231375D01*
X73728750Y-95225000D01*
X73733749Y-95225000D01*
X73750651Y-95221638D01*
X73741625Y-95130000D01*
X73418376Y-95130000D01*
X73409349Y-95221638D01*
X73426250Y-95225000D01*
X73431250Y-95225000D01*
X73463300Y-95231375D01*
X73490470Y-95249530D01*
X73508625Y-95276700D01*
X73515000Y-95308750D01*
X73515000Y-96111250D01*
X73508625Y-96143300D01*
X73490470Y-96170470D01*
X73463300Y-96188625D01*
X73431250Y-96195000D01*
X73228750Y-96195000D01*
X73196700Y-96188625D01*
X73169530Y-96170470D01*
X73151375Y-96143300D01*
X73145000Y-96111250D01*
X73145000Y-95308750D01*
X73151375Y-95276700D01*
X73169530Y-95249530D01*
X73196700Y-95231375D01*
X73228750Y-95225000D01*
X73233749Y-95225000D01*
X73250651Y-95221638D01*
X73241625Y-95130000D01*
X72918376Y-95130000D01*
X72909349Y-95221638D01*
X72926250Y-95225000D01*
X72931250Y-95225000D01*
X72963300Y-95231375D01*
X72990470Y-95249530D01*
X73008625Y-95276700D01*
X73015000Y-95308750D01*
X73015000Y-96111250D01*
X73008625Y-96143300D01*
X72990470Y-96170470D01*
X72963300Y-96188625D01*
X72931250Y-96195000D01*
X72728750Y-96195000D01*
X72696700Y-96188625D01*
X72669530Y-96170470D01*
X72651375Y-96143300D01*
X72645000Y-96111250D01*
X72645000Y-95308750D01*
X72651375Y-95276700D01*
X72669530Y-95249530D01*
X72696700Y-95231375D01*
X72728750Y-95225000D01*
X72733749Y-95225000D01*
X72750651Y-95221638D01*
X72741624Y-95130000D01*
X72418377Y-95130000D01*
X72409350Y-95221637D01*
X72426255Y-95225000D01*
X72431250Y-95225000D01*
X72463300Y-95231375D01*
X72490470Y-95249530D01*
X72508625Y-95276700D01*
X72515000Y-95308750D01*
X72515000Y-96111250D01*
X72508625Y-96143300D01*
X72490470Y-96170470D01*
X72463300Y-96188625D01*
X72431250Y-96195000D01*
X72228750Y-96195000D01*
X72196700Y-96188625D01*
X72169530Y-96170470D01*
X72151375Y-96143300D01*
X72145000Y-96111250D01*
X72145000Y-95308750D01*
X72151375Y-95276700D01*
X72169530Y-95249530D01*
X72196700Y-95231375D01*
X72228750Y-95225000D01*
X72233749Y-95225000D01*
X72250651Y-95221638D01*
X72241624Y-95130000D01*
X71918377Y-95130000D01*
X71909350Y-95221637D01*
X71926255Y-95225000D01*
X71931250Y-95225000D01*
X71963300Y-95231375D01*
X71990470Y-95249530D01*
X72008625Y-95276700D01*
X72015000Y-95308750D01*
X72015000Y-96111250D01*
X72008625Y-96143300D01*
X71990470Y-96170470D01*
X71963300Y-96188625D01*
X71931250Y-96195000D01*
X71728750Y-96195000D01*
X71696700Y-96188625D01*
X71669530Y-96170470D01*
X71651375Y-96143300D01*
X71645000Y-96111250D01*
X71645000Y-95308750D01*
X71651375Y-95276700D01*
X71669530Y-95249530D01*
X71696700Y-95231375D01*
X71728750Y-95225000D01*
X71733749Y-95225000D01*
X71750651Y-95221638D01*
X71741624Y-95130000D01*
X71418378Y-95130000D01*
X71409351Y-95221637D01*
X71426255Y-95225000D01*
X71431250Y-95225000D01*
X71463300Y-95231375D01*
X71490470Y-95249530D01*
X71508625Y-95276700D01*
X71515000Y-95308750D01*
X71515000Y-96111250D01*
X71508625Y-96143300D01*
X71490470Y-96170470D01*
X71463300Y-96188625D01*
X71431250Y-96195000D01*
X71228750Y-96195000D01*
X71196700Y-96188625D01*
X71169530Y-96170470D01*
X71151375Y-96143300D01*
X71145000Y-96111250D01*
X71145000Y-95308750D01*
X71151375Y-95276700D01*
X71169530Y-95249530D01*
X71196700Y-95231375D01*
X71228750Y-95225000D01*
X71233745Y-95225000D01*
X71250650Y-95221637D01*
X71241623Y-95130000D01*
X70918378Y-95130000D01*
X70909351Y-95221637D01*
X70926255Y-95225000D01*
X70931250Y-95225000D01*
X70963300Y-95231375D01*
X70990470Y-95249530D01*
X71008625Y-95276700D01*
X71015000Y-95308750D01*
X71015000Y-96111250D01*
X71008625Y-96143300D01*
X70990470Y-96170470D01*
X70963300Y-96188625D01*
X70931250Y-96195000D01*
X70728750Y-96195000D01*
X70696700Y-96188625D01*
X70669530Y-96170470D01*
X70651375Y-96143300D01*
X70645000Y-96111250D01*
X70645000Y-95308750D01*
X70651375Y-95276700D01*
X70669530Y-95249530D01*
X70696700Y-95231375D01*
X70728750Y-95225000D01*
X70733745Y-95225000D01*
X70750650Y-95221637D01*
X70741623Y-95130000D01*
X70418380Y-95130000D01*
X70409352Y-95221636D01*
X70426260Y-95225000D01*
X70431250Y-95225000D01*
X70463300Y-95231375D01*
X70490470Y-95249530D01*
X70508625Y-95276700D01*
X70515000Y-95308750D01*
X70515000Y-96111250D01*
X70508625Y-96143300D01*
X70490470Y-96170470D01*
X70463300Y-96188625D01*
X70431250Y-96195000D01*
X70228750Y-96195000D01*
X70196700Y-96188625D01*
X70169530Y-96170470D01*
X70151375Y-96143300D01*
X70145000Y-96111250D01*
X70145000Y-95308750D01*
X70151375Y-95276700D01*
X70169530Y-95249530D01*
X70196700Y-95231375D01*
X70228750Y-95225000D01*
X70233754Y-95225000D01*
X70292880Y-95224997D01*
X70301898Y-95133354D01*
X70285026Y-95130000D01*
X70280000Y-95130000D01*
X70260866Y-95126194D01*
X70244645Y-95115355D01*
X70233806Y-95099134D01*
X70230000Y-95080000D01*
X70230000Y-95075017D01*
X70226632Y-95058097D01*
X70135000Y-95067130D01*
X70135000Y-95131250D01*
X70128625Y-95163300D01*
X70110470Y-95190470D01*
X70083300Y-95208625D01*
X70051250Y-95215000D01*
X69248750Y-95215000D01*
X69216700Y-95208625D01*
X69189530Y-95190470D01*
X69171375Y-95163300D01*
X69165000Y-95131250D01*
X69165000Y-94928750D01*
X69171375Y-94896700D01*
X69189530Y-94869530D01*
X69216700Y-94851375D01*
X69248750Y-94845000D01*
X70051250Y-94845000D01*
X70083300Y-94851375D01*
X70110470Y-94869530D01*
X70128625Y-94896700D01*
X70135000Y-94928750D01*
X70135000Y-94933771D01*
X70138357Y-94950652D01*
X70230000Y-94941629D01*
X70230000Y-94618372D01*
X70138358Y-94609349D01*
X70135000Y-94626235D01*
X70135000Y-94631250D01*
X70128625Y-94663300D01*
X70110470Y-94690470D01*
X70083300Y-94708625D01*
X70051250Y-94715000D01*
X69248750Y-94715000D01*
X69216700Y-94708625D01*
X69189530Y-94690470D01*
X69171375Y-94663300D01*
X69165000Y-94631250D01*
X69165000Y-94428750D01*
X69171375Y-94396700D01*
X69189530Y-94369530D01*
X69216700Y-94351375D01*
X69248750Y-94345000D01*
X70051250Y-94345000D01*
X70083300Y-94351375D01*
X70110470Y-94369530D01*
X70128625Y-94396700D01*
X70135000Y-94428750D01*
X70135000Y-94433771D01*
X70138357Y-94450652D01*
X70230000Y-94441629D01*
X70230000Y-94118373D01*
X70138358Y-94109350D01*
X70135000Y-94126235D01*
X70135000Y-94131250D01*
X70128625Y-94163300D01*
X70110470Y-94190470D01*
X70083300Y-94208625D01*
X70051250Y-94215000D01*
X69248750Y-94215000D01*
X69216700Y-94208625D01*
X69189530Y-94190470D01*
X69171375Y-94163300D01*
X69165000Y-94131250D01*
X69165000Y-93928750D01*
X69171375Y-93896700D01*
X69189530Y-93869530D01*
X69216700Y-93851375D01*
X69248750Y-93845000D01*
X70051250Y-93845000D01*
X70083300Y-93851375D01*
X70110470Y-93869530D01*
X70128625Y-93896700D01*
X70135000Y-93928750D01*
X70135000Y-93933764D01*
X70138358Y-93950651D01*
X70230000Y-93941628D01*
X70230000Y-93618373D01*
X70138358Y-93609350D01*
X70135000Y-93626235D01*
X70135000Y-93631250D01*
X70128625Y-93663300D01*
X70110470Y-93690470D01*
X70083300Y-93708625D01*
X70051250Y-93715000D01*
X69248750Y-93715000D01*
X69216700Y-93708625D01*
X69189530Y-93690470D01*
X69171375Y-93663300D01*
X69165000Y-93631250D01*
X69165000Y-93428750D01*
X69171375Y-93396700D01*
X69189530Y-93369530D01*
X69216700Y-93351375D01*
X69248750Y-93345000D01*
X70051250Y-93345000D01*
X70083300Y-93351375D01*
X70110470Y-93369530D01*
X70128625Y-93396700D01*
X70135000Y-93428750D01*
X70135000Y-93433764D01*
X70138358Y-93450651D01*
X70230000Y-93441628D01*
X70230000Y-93118375D01*
X70138359Y-93109350D01*
X70135000Y-93126239D01*
X70135000Y-93131250D01*
X70128625Y-93163300D01*
X70110470Y-93190470D01*
X70083300Y-93208625D01*
X70051250Y-93215000D01*
X69248750Y-93215000D01*
X69216700Y-93208625D01*
X69189530Y-93190470D01*
X69171375Y-93163300D01*
X69165000Y-93131250D01*
X69165000Y-92928750D01*
X69171375Y-92896700D01*
X69189530Y-92869530D01*
X69216700Y-92851375D01*
X69248750Y-92845000D01*
X70051250Y-92845000D01*
X70083300Y-92851375D01*
X70110470Y-92869530D01*
X70128625Y-92896700D01*
X70135000Y-92928750D01*
X70135000Y-92933763D01*
X70138358Y-92950650D01*
X70230000Y-92941627D01*
X70230000Y-92618375D01*
X70138359Y-92609350D01*
X70135000Y-92626239D01*
X70135000Y-92631250D01*
X70128625Y-92663300D01*
X70110470Y-92690470D01*
X70083300Y-92708625D01*
X70051250Y-92715000D01*
X69248750Y-92715000D01*
X69216700Y-92708625D01*
X69189530Y-92690470D01*
X69171375Y-92663300D01*
X69165000Y-92631250D01*
X69165000Y-92428750D01*
X69171375Y-92396700D01*
X69189530Y-92369530D01*
X69216700Y-92351375D01*
X69248750Y-92345000D01*
X70051250Y-92345000D01*
X70083300Y-92351375D01*
X70110470Y-92369530D01*
X70128625Y-92396700D01*
X70135000Y-92428750D01*
X70135000Y-92433763D01*
X70138358Y-92450650D01*
X70230000Y-92441627D01*
X70230000Y-92118375D01*
X70138359Y-92109350D01*
X70135000Y-92126239D01*
X70135000Y-92131250D01*
X70128625Y-92163300D01*
X70110470Y-92190470D01*
X70083300Y-92208625D01*
X70051250Y-92215000D01*
X69248750Y-92215000D01*
X69216700Y-92208625D01*
X69189530Y-92190470D01*
X69171375Y-92163300D01*
X69165000Y-92131250D01*
X69165000Y-91928750D01*
X69171375Y-91896700D01*
X69189530Y-91869530D01*
X69216700Y-91851375D01*
X69248750Y-91845000D01*
X70051250Y-91845000D01*
X70083300Y-91851375D01*
X70110470Y-91869530D01*
X70128625Y-91896700D01*
X70135000Y-91928750D01*
X70135000Y-91933760D01*
X70138359Y-91950650D01*
X70230000Y-91941625D01*
X70230000Y-91618376D01*
X70138359Y-91609351D01*
X70135000Y-91626239D01*
X70135000Y-91631250D01*
X70128625Y-91663300D01*
X70110470Y-91690470D01*
X70083300Y-91708625D01*
X70051250Y-91715000D01*
X69248750Y-91715000D01*
X69216700Y-91708625D01*
X69189530Y-91690470D01*
X69171375Y-91663300D01*
X69165000Y-91631250D01*
X69165000Y-91428750D01*
X69171375Y-91396700D01*
X69189530Y-91369530D01*
X69216700Y-91351375D01*
X69248750Y-91345000D01*
X70051250Y-91345000D01*
X70083300Y-91351375D01*
X70110470Y-91369530D01*
X70128625Y-91396700D01*
X70135000Y-91428750D01*
X70135000Y-91433760D01*
X70138359Y-91450650D01*
X70230000Y-91441625D01*
X70230000Y-91118376D01*
X70138359Y-91109351D01*
X70135000Y-91126239D01*
X70135000Y-91131250D01*
X70128625Y-91163300D01*
X70110470Y-91190470D01*
X70083300Y-91208625D01*
X70051250Y-91215000D01*
X69248750Y-91215000D01*
X69216700Y-91208625D01*
X69189530Y-91190470D01*
X69171375Y-91163300D01*
X69165000Y-91131250D01*
X69165000Y-90928750D01*
X69171375Y-90896700D01*
X69189530Y-90869530D01*
X69216700Y-90851375D01*
X69248750Y-90845000D01*
X70051250Y-90845000D01*
X70083300Y-90851375D01*
X70110470Y-90869530D01*
X70128625Y-90896700D01*
X70135000Y-90928750D01*
X70135000Y-90933760D01*
X70138359Y-90950650D01*
X70230000Y-90941625D01*
X70230000Y-90618377D01*
X70138360Y-90609352D01*
X70135000Y-90626244D01*
X70135000Y-90631250D01*
X70128625Y-90663300D01*
X70110470Y-90690470D01*
X70083300Y-90708625D01*
X70051250Y-90715000D01*
X69248750Y-90715000D01*
X69216700Y-90708625D01*
X69189530Y-90690470D01*
X69171375Y-90663300D01*
X69165000Y-90631250D01*
X69165000Y-90428750D01*
X69171375Y-90396700D01*
X69189530Y-90369530D01*
X69216700Y-90351375D01*
X69248750Y-90345000D01*
X70051250Y-90345000D01*
X70083300Y-90351375D01*
X70110470Y-90369530D01*
X70128625Y-90396700D01*
X70135000Y-90428750D01*
X70135000Y-90433759D01*
X70138359Y-90450649D01*
X70230000Y-90441624D01*
X70230000Y-90118377D01*
X70138360Y-90109352D01*
X70135000Y-90126244D01*
X70135000Y-90131250D01*
X70128625Y-90163300D01*
X70110470Y-90190470D01*
X70083300Y-90208625D01*
X70051250Y-90215000D01*
X69248750Y-90215000D01*
X69216700Y-90208625D01*
X69189530Y-90190470D01*
X69171375Y-90163300D01*
X69165000Y-90131250D01*
X69165000Y-89928750D01*
X69171375Y-89896700D01*
X69189530Y-89869530D01*
X69216700Y-89851375D01*
X69248750Y-89845000D01*
X70051250Y-89845000D01*
X70083300Y-89851375D01*
X70110470Y-89869530D01*
X70128625Y-89896700D01*
X70135000Y-89928750D01*
X70135000Y-89933759D01*
X70138359Y-89950649D01*
X70230000Y-89941624D01*
X70230000Y-89618378D01*
X70138360Y-89609353D01*
X70135000Y-89626244D01*
X70135000Y-89631250D01*
X70128625Y-89663300D01*
X70110470Y-89690470D01*
X70083300Y-89708625D01*
X70051250Y-89715000D01*
X69248750Y-89715000D01*
X69216700Y-89708625D01*
X69189530Y-89690470D01*
X69171375Y-89663300D01*
X69165000Y-89631250D01*
X69165000Y-89428750D01*
X69171375Y-89396700D01*
X69189530Y-89369530D01*
X69216700Y-89351375D01*
X69248750Y-89345000D01*
X70051250Y-89345000D01*
X70083300Y-89351375D01*
X70110470Y-89369530D01*
X70128625Y-89396700D01*
X70135000Y-89428750D01*
X70135000Y-89492874D01*
X70226636Y-89501902D01*
X70230000Y-89484992D01*
X70230000Y-89480000D01*
X70233806Y-89460866D01*
X70244645Y-89444645D01*
X70260866Y-89433806D01*
X70280000Y-89430000D01*
X70284972Y-89430000D01*
X70301902Y-89426630D01*
X70292867Y-89335000D01*
X70228750Y-89335000D01*
X70196700Y-89328625D01*
X70169530Y-89310470D01*
X70151375Y-89283300D01*
X70145000Y-89251250D01*
X70145000Y-88448750D01*
X70151375Y-88416700D01*
X70169530Y-88389530D01*
X70196700Y-88371375D01*
X70228750Y-88365000D01*
X70431250Y-88365000D01*
X70463300Y-88371375D01*
G37*
G36*
X115171663Y-92338595D02*
G01*
X115180419Y-92341496D01*
X115186822Y-92342218D01*
X115262291Y-92368625D01*
X115336964Y-92393369D01*
X115342154Y-92396570D01*
X115345271Y-92397661D01*
X115417372Y-92442965D01*
X115485177Y-92484788D01*
X115487281Y-92486892D01*
X115487419Y-92486979D01*
X115606120Y-92605680D01*
X115606206Y-92605817D01*
X115608312Y-92607923D01*
X115650154Y-92675759D01*
X115695438Y-92747828D01*
X115696528Y-92750943D01*
X115699731Y-92756136D01*
X115724486Y-92830843D01*
X115750881Y-92906277D01*
X115751601Y-92912676D01*
X115754505Y-92921437D01*
X115770000Y-93073100D01*
X115770000Y-95073100D01*
X115754505Y-95224763D01*
X115751601Y-95233524D01*
X115750881Y-95239922D01*
X115724492Y-95315337D01*
X115699731Y-95390064D01*
X115696527Y-95395258D01*
X115695438Y-95398371D01*
X115650187Y-95470385D01*
X115608312Y-95538277D01*
X115606204Y-95540384D01*
X115606120Y-95540519D01*
X115487419Y-95659220D01*
X115487284Y-95659304D01*
X115485177Y-95661412D01*
X115417285Y-95703287D01*
X115345271Y-95748538D01*
X115342158Y-95749627D01*
X115336964Y-95752831D01*
X115262237Y-95777592D01*
X115186822Y-95803981D01*
X115180424Y-95804701D01*
X115171663Y-95807605D01*
X115020000Y-95823100D01*
X114868337Y-95807605D01*
X114859576Y-95804702D01*
X114853177Y-95803981D01*
X114777743Y-95777586D01*
X114703036Y-95752831D01*
X114697843Y-95749628D01*
X114694728Y-95748538D01*
X114622659Y-95703254D01*
X114554823Y-95661412D01*
X114552717Y-95659306D01*
X114552580Y-95659220D01*
X114433879Y-95540519D01*
X114433792Y-95540381D01*
X114431688Y-95538277D01*
X114389865Y-95470472D01*
X114344561Y-95398371D01*
X114343470Y-95395254D01*
X114340269Y-95390064D01*
X114315525Y-95315391D01*
X114289118Y-95239922D01*
X114288396Y-95233519D01*
X114285495Y-95224763D01*
X114270000Y-95073100D01*
X114270000Y-93073100D01*
X114285495Y-92921437D01*
X114288396Y-92912680D01*
X114289118Y-92906277D01*
X114315531Y-92830789D01*
X114340269Y-92756136D01*
X114343469Y-92750946D01*
X114344561Y-92747828D01*
X114389899Y-92675672D01*
X114431688Y-92607923D01*
X114433791Y-92605819D01*
X114433879Y-92605680D01*
X114552580Y-92486979D01*
X114552719Y-92486891D01*
X114554823Y-92484788D01*
X114622572Y-92442999D01*
X114694728Y-92397661D01*
X114697846Y-92396569D01*
X114703036Y-92393369D01*
X114777689Y-92368631D01*
X114853177Y-92342218D01*
X114859580Y-92341496D01*
X114868337Y-92338595D01*
X115020000Y-92323100D01*
X115171663Y-92338595D01*
G37*
G36*
X99509134Y-92848646D02*
G01*
X99525355Y-92859485D01*
X99536194Y-92875706D01*
X99540000Y-92894840D01*
X99540000Y-95434840D01*
X99536194Y-95453974D01*
X99525355Y-95470195D01*
X99509134Y-95481034D01*
X99490000Y-95484840D01*
X96950000Y-95484840D01*
X96930866Y-95481034D01*
X96914645Y-95470195D01*
X96903806Y-95453974D01*
X96900000Y-95434840D01*
X96900000Y-92894840D01*
X96903806Y-92875706D01*
X96914645Y-92859485D01*
X96930866Y-92848646D01*
X96950000Y-92844840D01*
X99490000Y-92844840D01*
X99509134Y-92848646D01*
G37*
G36*
X123198477Y-94051333D02*
G01*
X123203919Y-94053870D01*
X123206612Y-94054263D01*
X123244868Y-94072965D01*
X123303168Y-94100151D01*
X123384849Y-94181832D01*
X123412044Y-94240153D01*
X123430736Y-94278387D01*
X123431128Y-94281078D01*
X123433667Y-94286523D01*
X123445000Y-94372608D01*
X123445000Y-95107392D01*
X123433667Y-95193477D01*
X123431127Y-95198922D01*
X123430736Y-95201612D01*
X123412054Y-95239824D01*
X123384849Y-95298168D01*
X123303168Y-95379849D01*
X123244824Y-95407054D01*
X123206612Y-95425736D01*
X123203922Y-95426127D01*
X123198477Y-95428667D01*
X123112392Y-95440000D01*
X120477608Y-95440000D01*
X120391523Y-95428667D01*
X120386078Y-95426128D01*
X120383387Y-95425736D01*
X120345153Y-95407044D01*
X120286832Y-95379849D01*
X120205151Y-95298168D01*
X120177965Y-95239868D01*
X120159263Y-95201612D01*
X120158870Y-95198919D01*
X120156333Y-95193477D01*
X120145000Y-95107392D01*
X120145000Y-94372608D01*
X120156333Y-94286523D01*
X120158870Y-94281081D01*
X120159263Y-94278387D01*
X120177975Y-94240109D01*
X120205151Y-94181832D01*
X120286832Y-94100151D01*
X120345109Y-94072975D01*
X120383387Y-94054263D01*
X120386081Y-94053870D01*
X120391523Y-94051333D01*
X120477608Y-94040000D01*
X123112392Y-94040000D01*
X123198477Y-94051333D01*
G37*
G36*
X102115796Y-94554082D02*
G01*
X102175815Y-94594185D01*
X102215918Y-94654204D01*
X102230000Y-94725000D01*
X102230000Y-95095000D01*
X102215918Y-95165796D01*
X102175815Y-95225815D01*
X102115796Y-95265918D01*
X102045000Y-95280000D01*
X101775000Y-95280000D01*
X101704204Y-95265918D01*
X101644185Y-95225815D01*
X101604082Y-95165796D01*
X101590000Y-95095000D01*
X101590000Y-94725000D01*
X101604082Y-94654204D01*
X101644185Y-94594185D01*
X101704204Y-94554082D01*
X101775000Y-94540000D01*
X102045000Y-94540000D01*
X102115796Y-94554082D01*
G37*
G36*
X103135796Y-94554082D02*
G01*
X103195815Y-94594185D01*
X103235918Y-94654204D01*
X103250000Y-94725000D01*
X103250000Y-95095000D01*
X103235918Y-95165796D01*
X103195815Y-95225815D01*
X103135796Y-95265918D01*
X103065000Y-95280000D01*
X102795000Y-95280000D01*
X102724204Y-95265918D01*
X102664185Y-95225815D01*
X102624082Y-95165796D01*
X102610000Y-95095000D01*
X102610000Y-94725000D01*
X102624082Y-94654204D01*
X102664185Y-94594185D01*
X102724204Y-94554082D01*
X102795000Y-94540000D01*
X103065000Y-94540000D01*
X103135796Y-94554082D01*
G37*
G36*
X96753234Y-94741647D02*
G01*
X96769455Y-94752486D01*
X96780294Y-94768707D01*
X96784100Y-94787841D01*
X96784100Y-95041841D01*
X96780294Y-95060975D01*
X96769455Y-95077196D01*
X96753234Y-95088035D01*
X96734100Y-95091841D01*
X95921300Y-95091841D01*
X95902166Y-95088035D01*
X95885945Y-95077196D01*
X95875106Y-95060975D01*
X95871300Y-95041841D01*
X95871300Y-94787841D01*
X95875106Y-94768707D01*
X95885945Y-94752486D01*
X95902166Y-94741647D01*
X95921300Y-94737841D01*
X96734100Y-94737841D01*
X96753234Y-94741647D01*
G37*
G36*
X100537834Y-94741647D02*
G01*
X100554055Y-94752486D01*
X100564894Y-94768707D01*
X100568700Y-94787841D01*
X100568700Y-95041841D01*
X100564894Y-95060975D01*
X100554055Y-95077196D01*
X100537834Y-95088035D01*
X100518700Y-95091841D01*
X99705900Y-95091841D01*
X99686766Y-95088035D01*
X99670545Y-95077196D01*
X99659706Y-95060975D01*
X99655900Y-95041841D01*
X99655900Y-94787841D01*
X99659706Y-94768707D01*
X99670545Y-94752486D01*
X99686766Y-94741647D01*
X99705900Y-94737841D01*
X100518700Y-94737841D01*
X100537834Y-94741647D01*
G37*
G36*
X96753234Y-94241646D02*
G01*
X96769455Y-94252485D01*
X96780294Y-94268706D01*
X96784100Y-94287840D01*
X96784100Y-94541840D01*
X96780294Y-94560974D01*
X96769455Y-94577195D01*
X96753234Y-94588034D01*
X96734100Y-94591840D01*
X95921300Y-94591840D01*
X95902166Y-94588034D01*
X95885945Y-94577195D01*
X95875106Y-94560974D01*
X95871300Y-94541840D01*
X95871300Y-94287840D01*
X95875106Y-94268706D01*
X95885945Y-94252485D01*
X95902166Y-94241646D01*
X95921300Y-94237840D01*
X96734100Y-94237840D01*
X96753234Y-94241646D01*
G37*
G36*
X100537834Y-94241646D02*
G01*
X100554055Y-94252485D01*
X100564894Y-94268706D01*
X100568700Y-94287840D01*
X100568700Y-94541840D01*
X100564894Y-94560974D01*
X100554055Y-94577195D01*
X100537834Y-94588034D01*
X100518700Y-94591840D01*
X99705900Y-94591840D01*
X99686766Y-94588034D01*
X99670545Y-94577195D01*
X99659706Y-94560974D01*
X99655900Y-94541840D01*
X99655900Y-94287840D01*
X99659706Y-94268706D01*
X99670545Y-94252485D01*
X99686766Y-94241646D01*
X99705900Y-94237840D01*
X100518700Y-94237840D01*
X100537834Y-94241646D01*
G37*
G36*
X102115796Y-93504082D02*
G01*
X102175815Y-93544185D01*
X102215918Y-93604204D01*
X102230000Y-93675000D01*
X102230000Y-94045000D01*
X102215918Y-94115796D01*
X102175815Y-94175815D01*
X102115796Y-94215918D01*
X102045000Y-94230000D01*
X101775000Y-94230000D01*
X101704204Y-94215918D01*
X101644185Y-94175815D01*
X101604082Y-94115796D01*
X101590000Y-94045000D01*
X101590000Y-93675000D01*
X101604082Y-93604204D01*
X101644185Y-93544185D01*
X101704204Y-93504082D01*
X101775000Y-93490000D01*
X102045000Y-93490000D01*
X102115796Y-93504082D01*
G37*
G36*
X103135796Y-93504082D02*
G01*
X103195815Y-93544185D01*
X103235918Y-93604204D01*
X103250000Y-93675000D01*
X103250000Y-94045000D01*
X103235918Y-94115796D01*
X103195815Y-94175815D01*
X103135796Y-94215918D01*
X103065000Y-94230000D01*
X102795000Y-94230000D01*
X102724204Y-94215918D01*
X102664185Y-94175815D01*
X102624082Y-94115796D01*
X102610000Y-94045000D01*
X102610000Y-93675000D01*
X102624082Y-93604204D01*
X102664185Y-93544185D01*
X102724204Y-93504082D01*
X102795000Y-93490000D01*
X103065000Y-93490000D01*
X103135796Y-93504082D01*
G37*
G36*
X96753234Y-93741646D02*
G01*
X96769455Y-93752485D01*
X96780294Y-93768706D01*
X96784100Y-93787840D01*
X96784100Y-94041840D01*
X96780294Y-94060974D01*
X96769455Y-94077195D01*
X96753234Y-94088034D01*
X96734100Y-94091840D01*
X95921300Y-94091840D01*
X95902166Y-94088034D01*
X95885945Y-94077195D01*
X95875106Y-94060974D01*
X95871300Y-94041840D01*
X95871300Y-93787840D01*
X95875106Y-93768706D01*
X95885945Y-93752485D01*
X95902166Y-93741646D01*
X95921300Y-93737840D01*
X96734100Y-93737840D01*
X96753234Y-93741646D01*
G37*
G36*
X100537834Y-93741646D02*
G01*
X100554055Y-93752485D01*
X100564894Y-93768706D01*
X100568700Y-93787840D01*
X100568700Y-94041840D01*
X100564894Y-94060974D01*
X100554055Y-94077195D01*
X100537834Y-94088034D01*
X100518700Y-94091840D01*
X99705900Y-94091840D01*
X99686766Y-94088034D01*
X99670545Y-94077195D01*
X99659706Y-94060974D01*
X99655900Y-94041840D01*
X99655900Y-93787840D01*
X99659706Y-93768706D01*
X99670545Y-93752485D01*
X99686766Y-93741646D01*
X99705900Y-93737840D01*
X100518700Y-93737840D01*
X100537834Y-93741646D01*
G37*
G36*
X96753234Y-93241645D02*
G01*
X96769455Y-93252484D01*
X96780294Y-93268705D01*
X96784100Y-93287839D01*
X96784100Y-93541839D01*
X96780294Y-93560973D01*
X96769455Y-93577194D01*
X96753234Y-93588033D01*
X96734100Y-93591839D01*
X95921300Y-93591839D01*
X95902166Y-93588033D01*
X95885945Y-93577194D01*
X95875106Y-93560973D01*
X95871300Y-93541839D01*
X95871300Y-93287839D01*
X95875106Y-93268705D01*
X95885945Y-93252484D01*
X95902166Y-93241645D01*
X95921300Y-93237839D01*
X96734100Y-93237839D01*
X96753234Y-93241645D01*
G37*
G36*
X100537834Y-93241645D02*
G01*
X100554055Y-93252484D01*
X100564894Y-93268705D01*
X100568700Y-93287839D01*
X100568700Y-93541839D01*
X100564894Y-93560973D01*
X100554055Y-93577194D01*
X100537834Y-93588033D01*
X100518700Y-93591839D01*
X99705900Y-93591839D01*
X99686766Y-93588033D01*
X99670545Y-93577194D01*
X99659706Y-93560973D01*
X99655900Y-93541839D01*
X99655900Y-93287839D01*
X99659706Y-93268705D01*
X99670545Y-93252484D01*
X99686766Y-93241645D01*
X99705900Y-93237839D01*
X100518700Y-93237839D01*
X100537834Y-93241645D01*
G37*
G36*
X67295796Y-92674082D02*
G01*
X67355815Y-92714185D01*
X67395918Y-92774204D01*
X67410000Y-92845000D01*
X67410000Y-93215000D01*
X67395918Y-93285796D01*
X67355815Y-93345815D01*
X67295796Y-93385918D01*
X67225000Y-93400000D01*
X66955000Y-93400000D01*
X66884204Y-93385918D01*
X66824185Y-93345815D01*
X66784082Y-93285796D01*
X66770000Y-93215000D01*
X66770000Y-92845000D01*
X66784082Y-92774204D01*
X66824185Y-92714185D01*
X66884204Y-92674082D01*
X66955000Y-92660000D01*
X67225000Y-92660000D01*
X67295796Y-92674082D01*
G37*
G36*
X68315796Y-92674082D02*
G01*
X68375815Y-92714185D01*
X68415918Y-92774204D01*
X68430000Y-92845000D01*
X68430000Y-93215000D01*
X68415918Y-93285796D01*
X68375815Y-93345815D01*
X68315796Y-93385918D01*
X68245000Y-93400000D01*
X67975000Y-93400000D01*
X67904204Y-93385918D01*
X67844185Y-93345815D01*
X67804082Y-93285796D01*
X67790000Y-93215000D01*
X67790000Y-92845000D01*
X67804082Y-92774204D01*
X67844185Y-92714185D01*
X67904204Y-92674082D01*
X67975000Y-92660000D01*
X68245000Y-92660000D01*
X68315796Y-92674082D01*
G37*
G36*
X97116134Y-91819946D02*
G01*
X97132355Y-91830785D01*
X97143194Y-91847006D01*
X97147000Y-91866140D01*
X97147000Y-92678940D01*
X97143194Y-92698074D01*
X97132355Y-92714295D01*
X97116134Y-92725134D01*
X97097000Y-92728940D01*
X96843000Y-92728940D01*
X96823866Y-92725134D01*
X96821742Y-92723715D01*
X96816166Y-92722606D01*
X96777765Y-92761007D01*
X96778873Y-92766580D01*
X96780294Y-92768706D01*
X96784100Y-92787840D01*
X96784100Y-93041840D01*
X96780294Y-93060974D01*
X96769455Y-93077195D01*
X96753234Y-93088034D01*
X96734100Y-93091840D01*
X95921300Y-93091840D01*
X95902166Y-93088034D01*
X95885945Y-93077195D01*
X95875106Y-93060974D01*
X95871300Y-93041840D01*
X95871300Y-92787840D01*
X95875106Y-92768706D01*
X95885945Y-92752485D01*
X95902166Y-92741646D01*
X95921300Y-92737840D01*
X96734100Y-92737840D01*
X96753234Y-92741646D01*
X96755350Y-92743060D01*
X96760935Y-92744171D01*
X96799332Y-92705774D01*
X96798221Y-92700193D01*
X96796806Y-92698074D01*
X96793000Y-92678940D01*
X96793000Y-91866140D01*
X96796806Y-91847006D01*
X96807645Y-91830785D01*
X96823866Y-91819946D01*
X96843000Y-91816140D01*
X97097000Y-91816140D01*
X97116134Y-91819946D01*
G37*
G36*
X99616134Y-91819946D02*
G01*
X99632355Y-91830785D01*
X99643194Y-91847006D01*
X99647000Y-91866140D01*
X99647000Y-92678940D01*
X99643194Y-92698074D01*
X99641774Y-92700198D01*
X99640666Y-92705771D01*
X99679063Y-92744172D01*
X99684647Y-92743061D01*
X99686766Y-92741646D01*
X99705900Y-92737840D01*
X100518700Y-92737840D01*
X100537834Y-92741646D01*
X100554055Y-92752485D01*
X100564894Y-92768706D01*
X100568700Y-92787840D01*
X100568700Y-93041840D01*
X100564894Y-93060974D01*
X100554055Y-93077195D01*
X100537834Y-93088034D01*
X100518700Y-93091840D01*
X99705900Y-93091840D01*
X99686766Y-93088034D01*
X99670545Y-93077195D01*
X99659706Y-93060974D01*
X99655900Y-93041840D01*
X99655900Y-92787840D01*
X99659706Y-92768706D01*
X99661119Y-92766589D01*
X99662231Y-92761002D01*
X99623830Y-92722605D01*
X99618260Y-92723713D01*
X99616134Y-92725134D01*
X99597000Y-92728940D01*
X99343000Y-92728940D01*
X99323866Y-92725134D01*
X99307645Y-92714295D01*
X99296806Y-92698074D01*
X99293000Y-92678940D01*
X99293000Y-91866140D01*
X99296806Y-91847006D01*
X99307645Y-91830785D01*
X99323866Y-91819946D01*
X99343000Y-91816140D01*
X99597000Y-91816140D01*
X99616134Y-91819946D01*
G37*
G36*
X97616133Y-91819946D02*
G01*
X97632354Y-91830785D01*
X97643193Y-91847006D01*
X97646999Y-91866140D01*
X97646999Y-92678940D01*
X97643193Y-92698074D01*
X97632354Y-92714295D01*
X97616133Y-92725134D01*
X97596999Y-92728940D01*
X97342999Y-92728940D01*
X97323865Y-92725134D01*
X97307644Y-92714295D01*
X97296805Y-92698074D01*
X97292999Y-92678940D01*
X97292999Y-91866140D01*
X97296805Y-91847006D01*
X97307644Y-91830785D01*
X97323865Y-91819946D01*
X97342999Y-91816140D01*
X97596999Y-91816140D01*
X97616133Y-91819946D01*
G37*
G36*
X98116134Y-91819946D02*
G01*
X98132355Y-91830785D01*
X98143194Y-91847006D01*
X98147000Y-91866140D01*
X98147000Y-92678940D01*
X98143194Y-92698074D01*
X98132355Y-92714295D01*
X98116134Y-92725134D01*
X98097000Y-92728940D01*
X97843000Y-92728940D01*
X97823866Y-92725134D01*
X97807645Y-92714295D01*
X97796806Y-92698074D01*
X97793000Y-92678940D01*
X97793000Y-91866140D01*
X97796806Y-91847006D01*
X97807645Y-91830785D01*
X97823866Y-91819946D01*
X97843000Y-91816140D01*
X98097000Y-91816140D01*
X98116134Y-91819946D01*
G37*
G36*
X98616134Y-91819946D02*
G01*
X98632355Y-91830785D01*
X98643194Y-91847006D01*
X98647000Y-91866140D01*
X98647000Y-92678940D01*
X98643194Y-92698074D01*
X98632355Y-92714295D01*
X98616134Y-92725134D01*
X98597000Y-92728940D01*
X98343000Y-92728940D01*
X98323866Y-92725134D01*
X98307645Y-92714295D01*
X98296806Y-92698074D01*
X98293000Y-92678940D01*
X98293000Y-91866140D01*
X98296806Y-91847006D01*
X98307645Y-91830785D01*
X98323866Y-91819946D01*
X98343000Y-91816140D01*
X98597000Y-91816140D01*
X98616134Y-91819946D01*
G37*
G36*
X99116135Y-91819946D02*
G01*
X99132356Y-91830785D01*
X99143195Y-91847006D01*
X99147001Y-91866140D01*
X99147001Y-92678940D01*
X99143195Y-92698074D01*
X99132356Y-92714295D01*
X99116135Y-92725134D01*
X99097001Y-92728940D01*
X98843001Y-92728940D01*
X98823867Y-92725134D01*
X98807646Y-92714295D01*
X98796807Y-92698074D01*
X98793001Y-92678940D01*
X98793001Y-91866140D01*
X98796807Y-91847006D01*
X98807646Y-91830785D01*
X98823867Y-91819946D01*
X98843001Y-91816140D01*
X99097001Y-91816140D01*
X99116135Y-91819946D01*
G37*
G36*
X130845384Y-89820007D02*
G01*
X130845890Y-89820026D01*
X130845918Y-89820027D01*
X130870868Y-89820987D01*
X130870876Y-89820987D01*
X130871384Y-89821007D01*
X130871767Y-89821029D01*
X130872262Y-89821067D01*
X130872278Y-89821068D01*
X130897272Y-89822990D01*
X130897319Y-89822994D01*
X130897767Y-89823029D01*
X130898146Y-89823066D01*
X130898583Y-89823116D01*
X130898620Y-89823120D01*
X130923209Y-89825957D01*
X130923232Y-89825960D01*
X130924146Y-89826066D01*
X130924888Y-89826180D01*
X130925786Y-89826352D01*
X130925814Y-89826357D01*
X130950312Y-89831069D01*
X130950321Y-89831071D01*
X130950888Y-89831180D01*
X130951334Y-89831276D01*
X130951905Y-89831413D01*
X130951914Y-89831415D01*
X130975993Y-89837194D01*
X130976004Y-89837196D01*
X130976334Y-89837276D01*
X130976600Y-89837344D01*
X130976889Y-89837421D01*
X130976933Y-89837433D01*
X131001412Y-89844024D01*
X131001414Y-89844024D01*
X131002600Y-89844344D01*
X131003511Y-89844637D01*
X131027511Y-89853637D01*
X131027846Y-89853769D01*
X131028273Y-89853947D01*
X131028301Y-89853958D01*
X131051422Y-89863592D01*
X131051438Y-89863599D01*
X131051846Y-89863769D01*
X131052167Y-89863909D01*
X131076167Y-89874909D01*
X131076921Y-89875294D01*
X131099921Y-89888294D01*
X131100369Y-89888563D01*
X131144369Y-89916563D01*
X131145060Y-89917046D01*
X131145902Y-89917687D01*
X131145917Y-89917698D01*
X131165518Y-89932632D01*
X131165542Y-89932651D01*
X131166060Y-89933046D01*
X131166476Y-89933381D01*
X131166958Y-89933790D01*
X131166977Y-89933806D01*
X131176174Y-89941624D01*
X131186476Y-89950381D01*
X131186877Y-89950740D01*
X131205877Y-89968740D01*
X131206260Y-89969123D01*
X131224260Y-89988123D01*
X131224619Y-89988524D01*
X131225055Y-89989037D01*
X131241193Y-90008022D01*
X131241205Y-90008037D01*
X131241619Y-90008524D01*
X131241954Y-90008940D01*
X131242351Y-90009462D01*
X131242367Y-90009481D01*
X131257301Y-90029082D01*
X131257308Y-90029093D01*
X131257954Y-90029940D01*
X131258437Y-90030631D01*
X131286437Y-90074631D01*
X131286706Y-90075079D01*
X131299706Y-90098079D01*
X131300091Y-90098833D01*
X131311091Y-90122833D01*
X131311231Y-90123154D01*
X131321231Y-90147154D01*
X131321363Y-90147489D01*
X131330363Y-90171489D01*
X131330656Y-90172400D01*
X131337656Y-90198400D01*
X131337724Y-90198666D01*
X131343724Y-90223666D01*
X131343820Y-90224112D01*
X131348820Y-90250112D01*
X131348934Y-90250854D01*
X131351934Y-90276854D01*
X131351971Y-90277233D01*
X131353971Y-90303233D01*
X131353993Y-90303616D01*
X131354993Y-90329616D01*
X131355000Y-90330000D01*
X131355000Y-92630000D01*
X131352071Y-92637071D01*
X131345000Y-92640000D01*
X131334895Y-92640000D01*
X130026105Y-92640000D01*
X130016000Y-92640000D01*
X130008929Y-92637071D01*
X130006739Y-92633773D01*
X129973809Y-92552947D01*
X129930976Y-92458315D01*
X129884176Y-92365710D01*
X129833350Y-92275022D01*
X129792507Y-92207705D01*
X129779891Y-92186913D01*
X129779240Y-92185896D01*
X129721801Y-92100728D01*
X129660986Y-92015986D01*
X129597636Y-91934819D01*
X129596863Y-91933876D01*
X129529552Y-91855676D01*
X129529550Y-91855674D01*
X129458806Y-91779948D01*
X129385517Y-91706659D01*
X129384664Y-91705846D01*
X129337864Y-91663300D01*
X129308381Y-91636498D01*
X129230123Y-91569136D01*
X129229181Y-91568363D01*
X129148510Y-91505401D01*
X129147563Y-91504697D01*
X129063343Y-91445248D01*
X128977174Y-91387801D01*
X128976108Y-91387130D01*
X128888019Y-91334673D01*
X128796871Y-91284145D01*
X128795830Y-91283598D01*
X128753922Y-91262870D01*
X128703720Y-91238039D01*
X128609712Y-91195488D01*
X128608523Y-91194985D01*
X128512485Y-91157362D01*
X128414846Y-91122492D01*
X128315200Y-91091601D01*
X128301484Y-91087898D01*
X128215603Y-91064711D01*
X128113989Y-91041796D01*
X128077592Y-91035082D01*
X128012016Y-91022987D01*
X128010829Y-91022797D01*
X127908786Y-91008927D01*
X127867425Y-91004509D01*
X127806752Y-90998030D01*
X127805587Y-90997934D01*
X127752247Y-90994857D01*
X127702631Y-90991995D01*
X127595000Y-90990001D01*
X127487368Y-90991995D01*
X127437751Y-90994857D01*
X127384411Y-90997934D01*
X127383246Y-90998030D01*
X127322573Y-91004509D01*
X127281213Y-91008927D01*
X127179171Y-91022797D01*
X127177984Y-91022987D01*
X127106501Y-91036172D01*
X127076009Y-91041796D01*
X126974396Y-91064711D01*
X126888514Y-91087898D01*
X126874800Y-91091601D01*
X126775153Y-91122492D01*
X126677513Y-91157362D01*
X126581475Y-91194985D01*
X126580287Y-91195488D01*
X126486279Y-91238039D01*
X126436076Y-91262870D01*
X126394168Y-91283598D01*
X126393128Y-91284145D01*
X126301980Y-91334673D01*
X126213891Y-91387130D01*
X126212824Y-91387801D01*
X126126656Y-91445248D01*
X126042435Y-91504697D01*
X126041488Y-91505401D01*
X125960818Y-91568363D01*
X125959876Y-91569136D01*
X125881618Y-91636498D01*
X125860277Y-91655898D01*
X125805336Y-91705847D01*
X125804481Y-91706660D01*
X125731193Y-91779948D01*
X125660449Y-91855674D01*
X125660447Y-91855676D01*
X125593136Y-91933876D01*
X125592363Y-91934819D01*
X125529013Y-92015986D01*
X125468198Y-92100728D01*
X125410759Y-92185896D01*
X125410107Y-92186913D01*
X125397492Y-92207705D01*
X125356649Y-92275022D01*
X125305823Y-92365710D01*
X125259023Y-92458315D01*
X125216190Y-92552947D01*
X125183261Y-92633773D01*
X125177881Y-92639216D01*
X125174000Y-92640000D01*
X125168922Y-92640000D01*
X123855105Y-92640000D01*
X123845000Y-92640000D01*
X123837929Y-92637071D01*
X123835000Y-92630000D01*
X123835000Y-90330000D01*
X123835007Y-90329616D01*
X123835026Y-90329110D01*
X123835027Y-90329081D01*
X123835987Y-90304131D01*
X123835987Y-90304120D01*
X123836007Y-90303616D01*
X123836029Y-90303233D01*
X123836068Y-90302721D01*
X123837990Y-90277727D01*
X123837994Y-90277675D01*
X123838029Y-90277233D01*
X123838066Y-90276854D01*
X123838115Y-90276421D01*
X123838120Y-90276379D01*
X123840957Y-90251790D01*
X123840961Y-90251763D01*
X123841066Y-90250854D01*
X123841180Y-90250112D01*
X123841351Y-90249217D01*
X123841357Y-90249185D01*
X123846069Y-90224687D01*
X123846072Y-90224669D01*
X123846180Y-90224112D01*
X123846276Y-90223666D01*
X123848356Y-90215000D01*
X123852194Y-90199006D01*
X123852201Y-90198977D01*
X123852276Y-90198666D01*
X123852344Y-90198400D01*
X123852417Y-90198127D01*
X123852433Y-90198066D01*
X123859024Y-90173587D01*
X123859026Y-90173578D01*
X123859344Y-90172400D01*
X123859637Y-90171489D01*
X123860061Y-90170358D01*
X123860064Y-90170349D01*
X123868478Y-90147912D01*
X123868485Y-90147893D01*
X123868637Y-90147489D01*
X123868769Y-90147154D01*
X123868939Y-90146744D01*
X123868958Y-90146698D01*
X123878592Y-90123577D01*
X123878608Y-90123540D01*
X123878769Y-90123154D01*
X123878909Y-90122833D01*
X123889909Y-90098833D01*
X123890294Y-90098079D01*
X123903294Y-90075079D01*
X123903563Y-90074631D01*
X123931563Y-90030631D01*
X123932046Y-90029940D01*
X123932679Y-90029108D01*
X123932698Y-90029082D01*
X123947632Y-90009481D01*
X123947666Y-90009438D01*
X123948046Y-90008940D01*
X123948381Y-90008524D01*
X123948775Y-90008059D01*
X123948806Y-90008022D01*
X123964944Y-89989037D01*
X123964962Y-89989016D01*
X123965381Y-89988524D01*
X123965740Y-89988123D01*
X123983740Y-89969123D01*
X123984123Y-89968740D01*
X124003123Y-89950740D01*
X124003524Y-89950381D01*
X124004016Y-89949962D01*
X124004037Y-89949944D01*
X124023022Y-89933806D01*
X124023059Y-89933775D01*
X124023524Y-89933381D01*
X124023940Y-89933046D01*
X124024438Y-89932666D01*
X124024481Y-89932632D01*
X124044082Y-89917698D01*
X124044108Y-89917679D01*
X124044940Y-89917046D01*
X124045631Y-89916563D01*
X124046528Y-89915992D01*
X124046534Y-89915988D01*
X124089057Y-89888928D01*
X124089064Y-89888923D01*
X124089631Y-89888563D01*
X124090079Y-89888294D01*
X124105206Y-89879744D01*
X124112146Y-89875821D01*
X124112152Y-89875817D01*
X124113079Y-89875294D01*
X124113833Y-89874909D01*
X124137833Y-89863909D01*
X124138154Y-89863769D01*
X124138540Y-89863608D01*
X124138577Y-89863592D01*
X124161698Y-89853958D01*
X124161744Y-89853939D01*
X124162154Y-89853769D01*
X124162489Y-89853637D01*
X124162893Y-89853485D01*
X124162912Y-89853478D01*
X124185349Y-89845064D01*
X124185358Y-89845061D01*
X124186489Y-89844637D01*
X124187400Y-89844344D01*
X124188578Y-89844026D01*
X124188587Y-89844024D01*
X124213066Y-89837433D01*
X124213127Y-89837417D01*
X124213400Y-89837344D01*
X124213666Y-89837276D01*
X124213977Y-89837201D01*
X124214006Y-89837194D01*
X124238085Y-89831415D01*
X124238103Y-89831411D01*
X124238666Y-89831276D01*
X124239112Y-89831180D01*
X124239669Y-89831072D01*
X124239687Y-89831069D01*
X124264185Y-89826357D01*
X124264217Y-89826351D01*
X124265112Y-89826180D01*
X124265854Y-89826066D01*
X124266763Y-89825961D01*
X124266790Y-89825957D01*
X124291379Y-89823120D01*
X124291421Y-89823115D01*
X124291854Y-89823066D01*
X124292233Y-89823029D01*
X124292675Y-89822994D01*
X124292727Y-89822990D01*
X124317721Y-89821068D01*
X124317740Y-89821066D01*
X124318233Y-89821029D01*
X124318616Y-89821007D01*
X124319120Y-89820987D01*
X124319131Y-89820987D01*
X124344081Y-89820027D01*
X124344110Y-89820026D01*
X124344616Y-89820007D01*
X124345000Y-89820000D01*
X130845000Y-89820000D01*
X130845384Y-89820007D01*
G37*
G36*
X111721663Y-90338595D02*
G01*
X111730419Y-90341496D01*
X111736822Y-90342218D01*
X111812291Y-90368625D01*
X111886964Y-90393369D01*
X111892154Y-90396570D01*
X111895271Y-90397661D01*
X111967372Y-90442965D01*
X112035177Y-90484788D01*
X112037281Y-90486892D01*
X112037419Y-90486979D01*
X112156120Y-90605680D01*
X112156206Y-90605817D01*
X112158312Y-90607923D01*
X112200154Y-90675759D01*
X112245438Y-90747828D01*
X112246528Y-90750943D01*
X112249731Y-90756136D01*
X112274486Y-90830843D01*
X112300881Y-90906277D01*
X112301601Y-90912676D01*
X112304505Y-90921437D01*
X112320000Y-91073100D01*
X112304505Y-91224763D01*
X112301601Y-91233524D01*
X112300881Y-91239922D01*
X112274492Y-91315337D01*
X112249731Y-91390064D01*
X112246527Y-91395258D01*
X112245438Y-91398371D01*
X112200187Y-91470385D01*
X112158312Y-91538277D01*
X112156204Y-91540384D01*
X112156120Y-91540519D01*
X112037419Y-91659220D01*
X112037284Y-91659304D01*
X112035177Y-91661412D01*
X111967285Y-91703287D01*
X111895271Y-91748538D01*
X111892158Y-91749627D01*
X111886964Y-91752831D01*
X111812237Y-91777592D01*
X111736822Y-91803981D01*
X111730424Y-91804701D01*
X111721663Y-91807605D01*
X111570000Y-91823100D01*
X109070000Y-91823100D01*
X108918337Y-91807605D01*
X108909576Y-91804701D01*
X108903177Y-91803981D01*
X108827743Y-91777586D01*
X108753036Y-91752831D01*
X108747843Y-91749628D01*
X108744728Y-91748538D01*
X108672659Y-91703254D01*
X108604823Y-91661412D01*
X108602717Y-91659306D01*
X108602580Y-91659220D01*
X108483879Y-91540519D01*
X108483792Y-91540381D01*
X108481688Y-91538277D01*
X108439865Y-91470472D01*
X108394561Y-91398371D01*
X108393470Y-91395254D01*
X108390269Y-91390064D01*
X108365525Y-91315391D01*
X108339118Y-91239922D01*
X108338396Y-91233519D01*
X108335495Y-91224763D01*
X108320000Y-91073100D01*
X108335495Y-90921437D01*
X108338396Y-90912680D01*
X108339118Y-90906277D01*
X108365531Y-90830789D01*
X108390269Y-90756136D01*
X108393469Y-90750946D01*
X108394561Y-90747828D01*
X108439899Y-90675672D01*
X108481688Y-90607923D01*
X108483791Y-90605819D01*
X108483879Y-90605680D01*
X108602580Y-90486979D01*
X108602719Y-90486891D01*
X108604823Y-90484788D01*
X108672572Y-90442999D01*
X108744728Y-90397661D01*
X108747846Y-90396569D01*
X108753036Y-90393369D01*
X108827689Y-90368631D01*
X108903177Y-90342218D01*
X108909580Y-90341496D01*
X108918337Y-90338595D01*
X109070000Y-90323100D01*
X111570000Y-90323100D01*
X111721663Y-90338595D01*
G37*
G36*
X61875796Y-90774082D02*
G01*
X61935815Y-90814185D01*
X61975918Y-90874204D01*
X61990000Y-90945000D01*
X61990000Y-91315000D01*
X61975918Y-91385796D01*
X61935815Y-91445815D01*
X61875796Y-91485918D01*
X61805000Y-91500000D01*
X61535000Y-91500000D01*
X61464204Y-91485918D01*
X61404185Y-91445815D01*
X61364082Y-91385796D01*
X61350000Y-91315000D01*
X61350000Y-90945000D01*
X61364082Y-90874204D01*
X61404185Y-90814185D01*
X61464204Y-90774082D01*
X61535000Y-90760000D01*
X61805000Y-90760000D01*
X61875796Y-90774082D01*
G37*
G36*
X62895796Y-90774082D02*
G01*
X62955815Y-90814185D01*
X62995918Y-90874204D01*
X63010000Y-90945000D01*
X63010000Y-91315000D01*
X62995918Y-91385796D01*
X62955815Y-91445815D01*
X62895796Y-91485918D01*
X62825000Y-91500000D01*
X62555000Y-91500000D01*
X62484204Y-91485918D01*
X62424185Y-91445815D01*
X62384082Y-91385796D01*
X62370000Y-91315000D01*
X62370000Y-90945000D01*
X62384082Y-90874204D01*
X62424185Y-90814185D01*
X62484204Y-90774082D01*
X62555000Y-90760000D01*
X62825000Y-90760000D01*
X62895796Y-90774082D01*
G37*
G36*
X123198477Y-89751333D02*
G01*
X123203919Y-89753870D01*
X123206612Y-89754263D01*
X123244868Y-89772965D01*
X123303168Y-89800151D01*
X123384849Y-89881832D01*
X123412044Y-89940153D01*
X123430736Y-89978387D01*
X123431128Y-89981078D01*
X123433667Y-89986523D01*
X123445000Y-90072608D01*
X123445000Y-90807392D01*
X123433667Y-90893477D01*
X123431127Y-90898922D01*
X123430736Y-90901612D01*
X123412054Y-90939824D01*
X123384849Y-90998168D01*
X123303168Y-91079849D01*
X123244824Y-91107054D01*
X123206612Y-91125736D01*
X123203922Y-91126127D01*
X123198477Y-91128667D01*
X123112392Y-91140000D01*
X120477608Y-91140000D01*
X120391523Y-91128667D01*
X120386078Y-91126128D01*
X120383387Y-91125736D01*
X120345153Y-91107044D01*
X120286832Y-91079849D01*
X120205151Y-90998168D01*
X120177965Y-90939868D01*
X120159263Y-90901612D01*
X120158870Y-90898919D01*
X120156333Y-90893477D01*
X120145000Y-90807392D01*
X120145000Y-90072608D01*
X120156333Y-89986523D01*
X120158870Y-89981081D01*
X120159263Y-89978387D01*
X120177975Y-89940109D01*
X120205151Y-89881832D01*
X120286832Y-89800151D01*
X120345109Y-89772975D01*
X120383387Y-89754263D01*
X120386081Y-89753870D01*
X120391523Y-89751333D01*
X120477608Y-89740000D01*
X123112392Y-89740000D01*
X123198477Y-89751333D01*
G37*
G36*
X61942710Y-89754463D02*
G01*
X62004350Y-89795650D01*
X62045537Y-89857290D01*
X62060000Y-89930000D01*
X62060000Y-90270000D01*
X62045537Y-90342710D01*
X62004350Y-90404350D01*
X61942710Y-90445537D01*
X61870000Y-90460000D01*
X61590000Y-90460000D01*
X61517290Y-90445537D01*
X61455650Y-90404350D01*
X61414463Y-90342710D01*
X61400000Y-90270000D01*
X61400000Y-89930000D01*
X61414463Y-89857290D01*
X61455650Y-89795650D01*
X61517290Y-89754463D01*
X61590000Y-89740000D01*
X61870000Y-89740000D01*
X61942710Y-89754463D01*
G37*
G36*
X62902710Y-89754463D02*
G01*
X62964350Y-89795650D01*
X63005537Y-89857290D01*
X63020000Y-89930000D01*
X63020000Y-90270000D01*
X63005537Y-90342710D01*
X62964350Y-90404350D01*
X62902710Y-90445537D01*
X62830000Y-90460000D01*
X62550000Y-90460000D01*
X62477290Y-90445537D01*
X62415650Y-90404350D01*
X62374463Y-90342710D01*
X62360000Y-90270000D01*
X62360000Y-89930000D01*
X62374463Y-89857290D01*
X62415650Y-89795650D01*
X62477290Y-89754463D01*
X62550000Y-89740000D01*
X62830000Y-89740000D01*
X62902710Y-89754463D01*
G37*
G36*
X83635796Y-88944082D02*
G01*
X83695815Y-88984185D01*
X83735918Y-89044204D01*
X83750000Y-89115000D01*
X83750000Y-89385000D01*
X83735918Y-89455796D01*
X83695815Y-89515815D01*
X83635796Y-89555918D01*
X83565000Y-89570000D01*
X83195000Y-89570000D01*
X83124204Y-89555918D01*
X83064185Y-89515815D01*
X83024082Y-89455796D01*
X83010000Y-89385000D01*
X83010000Y-89115000D01*
X83024082Y-89044204D01*
X83064185Y-88984185D01*
X83124204Y-88944082D01*
X83195000Y-88930000D01*
X83565000Y-88930000D01*
X83635796Y-88944082D01*
G37*
G36*
X84695796Y-88934082D02*
G01*
X84755815Y-88974185D01*
X84795918Y-89034204D01*
X84810000Y-89105000D01*
X84810000Y-89375000D01*
X84795918Y-89445796D01*
X84755815Y-89505815D01*
X84695796Y-89545918D01*
X84625000Y-89560000D01*
X84255000Y-89560000D01*
X84184204Y-89545918D01*
X84124185Y-89505815D01*
X84084082Y-89445796D01*
X84070000Y-89375000D01*
X84070000Y-89105000D01*
X84084082Y-89034204D01*
X84124185Y-88974185D01*
X84184204Y-88934082D01*
X84255000Y-88920000D01*
X84625000Y-88920000D01*
X84695796Y-88934082D01*
G37*
G36*
X86155796Y-88924082D02*
G01*
X86215815Y-88964185D01*
X86255918Y-89024204D01*
X86270000Y-89095000D01*
X86270000Y-89365000D01*
X86255918Y-89435796D01*
X86215815Y-89495815D01*
X86155796Y-89535918D01*
X86085000Y-89550000D01*
X85715000Y-89550000D01*
X85644204Y-89535918D01*
X85584185Y-89495815D01*
X85544082Y-89435796D01*
X85530000Y-89365000D01*
X85530000Y-89095000D01*
X85544082Y-89024204D01*
X85584185Y-88964185D01*
X85644204Y-88924082D01*
X85715000Y-88910000D01*
X86085000Y-88910000D01*
X86155796Y-88924082D01*
G37*
G36*
X87195796Y-88894082D02*
G01*
X87255815Y-88934185D01*
X87295918Y-88994204D01*
X87310000Y-89065000D01*
X87310000Y-89335000D01*
X87295918Y-89405796D01*
X87255815Y-89465815D01*
X87195796Y-89505918D01*
X87125000Y-89520000D01*
X86755000Y-89520000D01*
X86684204Y-89505918D01*
X86624185Y-89465815D01*
X86584082Y-89405796D01*
X86570000Y-89335000D01*
X86570000Y-89065000D01*
X86584082Y-88994204D01*
X86624185Y-88934185D01*
X86684204Y-88894082D01*
X86755000Y-88880000D01*
X87125000Y-88880000D01*
X87195796Y-88894082D01*
G37*
G36*
X83635796Y-87924082D02*
G01*
X83695815Y-87964185D01*
X83735918Y-88024204D01*
X83750000Y-88095000D01*
X83750000Y-88365000D01*
X83735918Y-88435796D01*
X83695815Y-88495815D01*
X83635796Y-88535918D01*
X83565000Y-88550000D01*
X83195000Y-88550000D01*
X83124204Y-88535918D01*
X83064185Y-88495815D01*
X83024082Y-88435796D01*
X83010000Y-88365000D01*
X83010000Y-88095000D01*
X83024082Y-88024204D01*
X83064185Y-87964185D01*
X83124204Y-87924082D01*
X83195000Y-87910000D01*
X83565000Y-87910000D01*
X83635796Y-87924082D01*
G37*
G36*
X84695796Y-87914082D02*
G01*
X84755815Y-87954185D01*
X84795918Y-88014204D01*
X84810000Y-88085000D01*
X84810000Y-88355000D01*
X84795918Y-88425796D01*
X84755815Y-88485815D01*
X84695796Y-88525918D01*
X84625000Y-88540000D01*
X84255000Y-88540000D01*
X84184204Y-88525918D01*
X84124185Y-88485815D01*
X84084082Y-88425796D01*
X84070000Y-88355000D01*
X84070000Y-88085000D01*
X84084082Y-88014204D01*
X84124185Y-87954185D01*
X84184204Y-87914082D01*
X84255000Y-87900000D01*
X84625000Y-87900000D01*
X84695796Y-87914082D01*
G37*
G36*
X86155796Y-87904082D02*
G01*
X86215815Y-87944185D01*
X86255918Y-88004204D01*
X86270000Y-88075000D01*
X86270000Y-88345000D01*
X86255918Y-88415796D01*
X86215815Y-88475815D01*
X86155796Y-88515918D01*
X86085000Y-88530000D01*
X85715000Y-88530000D01*
X85644204Y-88515918D01*
X85584185Y-88475815D01*
X85544082Y-88415796D01*
X85530000Y-88345000D01*
X85530000Y-88075000D01*
X85544082Y-88004204D01*
X85584185Y-87944185D01*
X85644204Y-87904082D01*
X85715000Y-87890000D01*
X86085000Y-87890000D01*
X86155796Y-87904082D01*
G37*
G36*
X87195796Y-87874082D02*
G01*
X87255815Y-87914185D01*
X87295918Y-87974204D01*
X87310000Y-88045000D01*
X87310000Y-88315000D01*
X87295918Y-88385796D01*
X87255815Y-88445815D01*
X87195796Y-88485918D01*
X87125000Y-88500000D01*
X86755000Y-88500000D01*
X86684204Y-88485918D01*
X86624185Y-88445815D01*
X86584082Y-88385796D01*
X86570000Y-88315000D01*
X86570000Y-88045000D01*
X86584082Y-87974204D01*
X86624185Y-87914185D01*
X86684204Y-87874082D01*
X86755000Y-87860000D01*
X87125000Y-87860000D01*
X87195796Y-87874082D01*
G37*
G36*
X65446534Y-85180764D02*
G01*
X65479625Y-85202875D01*
X65501736Y-85235966D01*
X65509500Y-85275000D01*
X65509500Y-86805000D01*
X65501736Y-86844034D01*
X65479625Y-86877125D01*
X65446534Y-86899236D01*
X65407500Y-86907000D01*
X63877500Y-86907000D01*
X63838466Y-86899236D01*
X63805375Y-86877125D01*
X63783264Y-86844034D01*
X63775500Y-86805000D01*
X63775500Y-85275000D01*
X63783264Y-85235966D01*
X63805375Y-85202875D01*
X63838466Y-85180764D01*
X63877500Y-85173000D01*
X65407500Y-85173000D01*
X65446534Y-85180764D01*
G37*
G36*
X103783477Y-82921333D02*
G01*
X103788919Y-82923870D01*
X103791612Y-82924263D01*
X103829868Y-82942965D01*
X103888168Y-82970151D01*
X103969849Y-83051832D01*
X103997044Y-83110153D01*
X104015736Y-83148387D01*
X104016128Y-83151078D01*
X104018667Y-83156523D01*
X104030000Y-83242608D01*
X104030000Y-85877392D01*
X104018667Y-85963477D01*
X104016127Y-85968922D01*
X104015736Y-85971612D01*
X103997054Y-86009824D01*
X103969849Y-86068168D01*
X103888168Y-86149849D01*
X103829824Y-86177054D01*
X103791612Y-86195736D01*
X103788922Y-86196127D01*
X103783477Y-86198667D01*
X103697392Y-86210000D01*
X102962608Y-86210000D01*
X102876523Y-86198667D01*
X102871078Y-86196128D01*
X102868387Y-86195736D01*
X102830153Y-86177044D01*
X102771832Y-86149849D01*
X102690151Y-86068168D01*
X102662965Y-86009868D01*
X102644263Y-85971612D01*
X102643870Y-85968919D01*
X102641333Y-85963477D01*
X102630000Y-85877392D01*
X102630000Y-83242608D01*
X102641333Y-83156523D01*
X102643870Y-83151081D01*
X102644263Y-83148387D01*
X102662975Y-83110109D01*
X102690151Y-83051832D01*
X102771832Y-82970151D01*
X102830109Y-82942975D01*
X102868387Y-82924263D01*
X102871081Y-82923870D01*
X102876523Y-82921333D01*
X102962608Y-82910000D01*
X103697392Y-82910000D01*
X103783477Y-82921333D01*
G37*
G36*
X108083477Y-82921333D02*
G01*
X108088919Y-82923870D01*
X108091612Y-82924263D01*
X108129868Y-82942965D01*
X108188168Y-82970151D01*
X108269849Y-83051832D01*
X108297044Y-83110153D01*
X108315736Y-83148387D01*
X108316128Y-83151078D01*
X108318667Y-83156523D01*
X108330000Y-83242608D01*
X108330000Y-85877392D01*
X108318667Y-85963477D01*
X108316127Y-85968922D01*
X108315736Y-85971612D01*
X108297054Y-86009824D01*
X108269849Y-86068168D01*
X108188168Y-86149849D01*
X108129824Y-86177054D01*
X108091612Y-86195736D01*
X108088922Y-86196127D01*
X108083477Y-86198667D01*
X107997392Y-86210000D01*
X107262608Y-86210000D01*
X107176523Y-86198667D01*
X107171078Y-86196128D01*
X107168387Y-86195736D01*
X107130153Y-86177044D01*
X107071832Y-86149849D01*
X106990151Y-86068168D01*
X106962965Y-86009868D01*
X106944263Y-85971612D01*
X106943870Y-85968919D01*
X106941333Y-85963477D01*
X106930000Y-85877392D01*
X106930000Y-83242608D01*
X106941333Y-83156523D01*
X106943870Y-83151081D01*
X106944263Y-83148387D01*
X106962975Y-83110109D01*
X106990151Y-83051832D01*
X107071832Y-82970151D01*
X107130109Y-82942975D01*
X107168387Y-82924263D01*
X107171081Y-82923870D01*
X107176523Y-82921333D01*
X107262608Y-82910000D01*
X107997392Y-82910000D01*
X108083477Y-82921333D01*
G37*
G36*
X81115796Y-85224082D02*
G01*
X81175815Y-85264185D01*
X81215918Y-85324204D01*
X81230000Y-85395000D01*
X81230000Y-85765000D01*
X81215918Y-85835796D01*
X81175815Y-85895815D01*
X81115796Y-85935918D01*
X81045000Y-85950000D01*
X80775000Y-85950000D01*
X80704204Y-85935918D01*
X80644185Y-85895815D01*
X80604082Y-85835796D01*
X80590000Y-85765000D01*
X80590000Y-85395000D01*
X80604082Y-85324204D01*
X80644185Y-85264185D01*
X80704204Y-85224082D01*
X80775000Y-85210000D01*
X81045000Y-85210000D01*
X81115796Y-85224082D01*
G37*
G36*
X82135796Y-85224082D02*
G01*
X82195815Y-85264185D01*
X82235918Y-85324204D01*
X82250000Y-85395000D01*
X82250000Y-85765000D01*
X82235918Y-85835796D01*
X82195815Y-85895815D01*
X82135796Y-85935918D01*
X82065000Y-85950000D01*
X81795000Y-85950000D01*
X81724204Y-85935918D01*
X81664185Y-85895815D01*
X81624082Y-85835796D01*
X81610000Y-85765000D01*
X81610000Y-85395000D01*
X81624082Y-85324204D01*
X81664185Y-85264185D01*
X81724204Y-85224082D01*
X81795000Y-85210000D01*
X82065000Y-85210000D01*
X82135796Y-85224082D01*
G37*
G36*
X78485796Y-85214082D02*
G01*
X78545815Y-85254185D01*
X78585918Y-85314204D01*
X78600000Y-85385000D01*
X78600000Y-85755000D01*
X78585918Y-85825796D01*
X78545815Y-85885815D01*
X78485796Y-85925918D01*
X78415000Y-85940000D01*
X78145000Y-85940000D01*
X78074204Y-85925918D01*
X78014185Y-85885815D01*
X77974082Y-85825796D01*
X77960000Y-85755000D01*
X77960000Y-85385000D01*
X77974082Y-85314204D01*
X78014185Y-85254185D01*
X78074204Y-85214082D01*
X78145000Y-85200000D01*
X78415000Y-85200000D01*
X78485796Y-85214082D01*
G37*
G36*
X79505796Y-85214082D02*
G01*
X79565815Y-85254185D01*
X79605918Y-85314204D01*
X79620000Y-85385000D01*
X79620000Y-85755000D01*
X79605918Y-85825796D01*
X79565815Y-85885815D01*
X79505796Y-85925918D01*
X79435000Y-85940000D01*
X79165000Y-85940000D01*
X79094204Y-85925918D01*
X79034185Y-85885815D01*
X78994082Y-85825796D01*
X78980000Y-85755000D01*
X78980000Y-85385000D01*
X78994082Y-85314204D01*
X79034185Y-85254185D01*
X79094204Y-85214082D01*
X79165000Y-85200000D01*
X79435000Y-85200000D01*
X79505796Y-85214082D01*
G37*
G36*
X117608685Y-83277969D02*
G01*
X117617386Y-83281810D01*
X117624916Y-83282908D01*
X117671981Y-83305917D01*
X117709541Y-83322501D01*
X117713018Y-83325978D01*
X117713915Y-83326417D01*
X117783582Y-83396084D01*
X117784020Y-83396980D01*
X117787499Y-83400459D01*
X117804087Y-83438028D01*
X117827091Y-83485083D01*
X117828187Y-83492610D01*
X117832031Y-83501315D01*
X117840000Y-83570000D01*
X117840000Y-84870000D01*
X117832031Y-84938685D01*
X117828187Y-84947389D01*
X117827091Y-84954916D01*
X117804092Y-85001960D01*
X117787499Y-85039541D01*
X117784019Y-85043020D01*
X117783582Y-85043915D01*
X117713915Y-85113582D01*
X117713020Y-85114019D01*
X117709541Y-85117499D01*
X117671960Y-85134092D01*
X117624916Y-85157091D01*
X117617389Y-85158187D01*
X117608685Y-85162031D01*
X117540000Y-85170000D01*
X116890000Y-85170000D01*
X116821315Y-85162031D01*
X116812610Y-85158187D01*
X116805083Y-85157091D01*
X116758028Y-85134087D01*
X116720459Y-85117499D01*
X116716980Y-85114020D01*
X116716084Y-85113582D01*
X116646417Y-85043915D01*
X116645978Y-85043018D01*
X116642501Y-85039541D01*
X116625917Y-85001981D01*
X116602908Y-84954916D01*
X116601810Y-84947386D01*
X116597969Y-84938685D01*
X116590000Y-84870000D01*
X116590000Y-83570000D01*
X116597969Y-83501315D01*
X116601810Y-83492614D01*
X116602908Y-83485083D01*
X116625921Y-83438007D01*
X116642501Y-83400459D01*
X116645977Y-83396982D01*
X116646417Y-83396084D01*
X116716084Y-83326417D01*
X116716982Y-83325977D01*
X116720459Y-83322501D01*
X116758007Y-83305921D01*
X116805083Y-83282908D01*
X116812614Y-83281810D01*
X116821315Y-83277969D01*
X116890000Y-83270000D01*
X117540000Y-83270000D01*
X117608685Y-83277969D01*
G37*
G36*
X120558685Y-83277969D02*
G01*
X120567386Y-83281810D01*
X120574916Y-83282908D01*
X120621981Y-83305917D01*
X120659541Y-83322501D01*
X120663018Y-83325978D01*
X120663915Y-83326417D01*
X120733582Y-83396084D01*
X120734020Y-83396980D01*
X120737499Y-83400459D01*
X120754087Y-83438028D01*
X120777091Y-83485083D01*
X120778187Y-83492610D01*
X120782031Y-83501315D01*
X120790000Y-83570000D01*
X120790000Y-84870000D01*
X120782031Y-84938685D01*
X120778187Y-84947389D01*
X120777091Y-84954916D01*
X120754092Y-85001960D01*
X120737499Y-85039541D01*
X120734019Y-85043020D01*
X120733582Y-85043915D01*
X120663915Y-85113582D01*
X120663020Y-85114019D01*
X120659541Y-85117499D01*
X120621960Y-85134092D01*
X120574916Y-85157091D01*
X120567389Y-85158187D01*
X120558685Y-85162031D01*
X120490000Y-85170000D01*
X119840000Y-85170000D01*
X119771315Y-85162031D01*
X119762610Y-85158187D01*
X119755083Y-85157091D01*
X119708028Y-85134087D01*
X119670459Y-85117499D01*
X119666980Y-85114020D01*
X119666084Y-85113582D01*
X119596417Y-85043915D01*
X119595978Y-85043018D01*
X119592501Y-85039541D01*
X119575917Y-85001981D01*
X119552908Y-84954916D01*
X119551810Y-84947386D01*
X119547969Y-84938685D01*
X119540000Y-84870000D01*
X119540000Y-83570000D01*
X119547969Y-83501315D01*
X119551810Y-83492614D01*
X119552908Y-83485083D01*
X119575921Y-83438007D01*
X119592501Y-83400459D01*
X119595977Y-83396982D01*
X119596417Y-83396084D01*
X119666084Y-83326417D01*
X119666982Y-83325977D01*
X119670459Y-83322501D01*
X119708007Y-83305921D01*
X119755083Y-83282908D01*
X119762614Y-83281810D01*
X119771315Y-83277969D01*
X119840000Y-83270000D01*
X120490000Y-83270000D01*
X120558685Y-83277969D01*
G37*
G36*
X64894177Y-82670333D02*
G01*
X65051201Y-82735374D01*
X65192519Y-82829800D01*
X65312700Y-82949981D01*
X65407126Y-83091299D01*
X65472167Y-83248323D01*
X65505325Y-83415019D01*
X65505325Y-83584981D01*
X65472167Y-83751677D01*
X65407126Y-83908701D01*
X65312700Y-84050019D01*
X65192519Y-84170200D01*
X65051201Y-84264626D01*
X64894177Y-84329667D01*
X64727481Y-84362825D01*
X64557519Y-84362825D01*
X64390823Y-84329667D01*
X64233799Y-84264626D01*
X64092481Y-84170200D01*
X63972300Y-84050019D01*
X63877874Y-83908701D01*
X63812833Y-83751677D01*
X63779675Y-83584981D01*
X63779675Y-83415019D01*
X63812833Y-83248323D01*
X63877874Y-83091299D01*
X63972300Y-82949981D01*
X64092481Y-82829800D01*
X64233799Y-82735374D01*
X64390823Y-82670333D01*
X64557519Y-82637175D01*
X64727481Y-82637175D01*
X64894177Y-82670333D01*
G37*
G36*
X124989177Y-80750333D02*
G01*
X125146201Y-80815374D01*
X125287519Y-80909800D01*
X125407700Y-81029981D01*
X125502126Y-81171299D01*
X125567167Y-81328323D01*
X125600325Y-81495019D01*
X125600325Y-81664981D01*
X125567167Y-81831677D01*
X125502126Y-81988701D01*
X125407700Y-82130019D01*
X125287519Y-82250200D01*
X125146201Y-82344626D01*
X124989177Y-82409667D01*
X124822481Y-82442825D01*
X124652519Y-82442825D01*
X124485823Y-82409667D01*
X124328799Y-82344626D01*
X124187481Y-82250200D01*
X124067300Y-82130019D01*
X123972874Y-81988701D01*
X123907833Y-81831677D01*
X123874675Y-81664981D01*
X123874675Y-81495019D01*
X123907833Y-81328323D01*
X123972874Y-81171299D01*
X124067300Y-81029981D01*
X124187481Y-80909800D01*
X124328799Y-80815374D01*
X124485823Y-80750333D01*
X124652519Y-80717175D01*
X124822481Y-80717175D01*
X124989177Y-80750333D01*
G37*
G36*
X103783477Y-78791333D02*
G01*
X103788919Y-78793870D01*
X103791612Y-78794263D01*
X103829868Y-78812965D01*
X103888168Y-78840151D01*
X103969849Y-78921832D01*
X103997044Y-78980153D01*
X104015736Y-79018387D01*
X104016128Y-79021078D01*
X104018667Y-79026523D01*
X104030000Y-79112608D01*
X104030000Y-81747392D01*
X104018667Y-81833477D01*
X104016127Y-81838922D01*
X104015736Y-81841612D01*
X103997054Y-81879824D01*
X103969849Y-81938168D01*
X103888168Y-82019849D01*
X103829824Y-82047054D01*
X103791612Y-82065736D01*
X103788922Y-82066127D01*
X103783477Y-82068667D01*
X103697392Y-82080000D01*
X102962608Y-82080000D01*
X102876523Y-82068667D01*
X102871078Y-82066128D01*
X102868387Y-82065736D01*
X102830153Y-82047044D01*
X102771832Y-82019849D01*
X102690151Y-81938168D01*
X102662965Y-81879868D01*
X102644263Y-81841612D01*
X102643870Y-81838919D01*
X102641333Y-81833477D01*
X102630000Y-81747392D01*
X102630000Y-79112608D01*
X102641333Y-79026523D01*
X102643870Y-79021081D01*
X102644263Y-79018387D01*
X102662975Y-78980109D01*
X102690151Y-78921832D01*
X102771832Y-78840151D01*
X102830109Y-78812975D01*
X102868387Y-78794263D01*
X102871081Y-78793870D01*
X102876523Y-78791333D01*
X102962608Y-78780000D01*
X103697392Y-78780000D01*
X103783477Y-78791333D01*
G37*
G36*
X108083477Y-78791333D02*
G01*
X108088919Y-78793870D01*
X108091612Y-78794263D01*
X108129868Y-78812965D01*
X108188168Y-78840151D01*
X108269849Y-78921832D01*
X108297044Y-78980153D01*
X108315736Y-79018387D01*
X108316128Y-79021078D01*
X108318667Y-79026523D01*
X108330000Y-79112608D01*
X108330000Y-81747392D01*
X108318667Y-81833477D01*
X108316127Y-81838922D01*
X108315736Y-81841612D01*
X108297054Y-81879824D01*
X108269849Y-81938168D01*
X108188168Y-82019849D01*
X108129824Y-82047054D01*
X108091612Y-82065736D01*
X108088922Y-82066127D01*
X108083477Y-82068667D01*
X107997392Y-82080000D01*
X107262608Y-82080000D01*
X107176523Y-82068667D01*
X107171078Y-82066128D01*
X107168387Y-82065736D01*
X107130153Y-82047044D01*
X107071832Y-82019849D01*
X106990151Y-81938168D01*
X106962965Y-81879868D01*
X106944263Y-81841612D01*
X106943870Y-81838919D01*
X106941333Y-81833477D01*
X106930000Y-81747392D01*
X106930000Y-79112608D01*
X106941333Y-79026523D01*
X106943870Y-79021081D01*
X106944263Y-79018387D01*
X106962975Y-78980109D01*
X106990151Y-78921832D01*
X107071832Y-78840151D01*
X107130109Y-78812975D01*
X107168387Y-78794263D01*
X107171081Y-78793870D01*
X107176523Y-78791333D01*
X107262608Y-78780000D01*
X107997392Y-78780000D01*
X108083477Y-78791333D01*
G37*
G36*
X115162710Y-81424463D02*
G01*
X115224350Y-81465650D01*
X115265537Y-81527290D01*
X115280000Y-81600000D01*
X115280000Y-81880000D01*
X115265537Y-81952710D01*
X115224350Y-82014350D01*
X115162710Y-82055537D01*
X115090000Y-82070000D01*
X114750000Y-82070000D01*
X114677290Y-82055537D01*
X114615650Y-82014350D01*
X114574463Y-81952710D01*
X114560000Y-81880000D01*
X114560000Y-81600000D01*
X114574463Y-81527290D01*
X114615650Y-81465650D01*
X114677290Y-81424463D01*
X114750000Y-81410000D01*
X115090000Y-81410000D01*
X115162710Y-81424463D01*
G37*
G36*
X119962710Y-81134463D02*
G01*
X120024350Y-81175650D01*
X120065537Y-81237290D01*
X120080000Y-81310000D01*
X120080000Y-81650000D01*
X120065537Y-81722710D01*
X120024350Y-81784350D01*
X119962710Y-81825537D01*
X119890000Y-81840000D01*
X119610000Y-81840000D01*
X119537290Y-81825537D01*
X119475650Y-81784350D01*
X119434463Y-81722710D01*
X119420000Y-81650000D01*
X119420000Y-81310000D01*
X119434463Y-81237290D01*
X119475650Y-81175650D01*
X119537290Y-81134463D01*
X119610000Y-81120000D01*
X119890000Y-81120000D01*
X119962710Y-81134463D01*
G37*
G36*
X120922710Y-81134463D02*
G01*
X120984350Y-81175650D01*
X121025537Y-81237290D01*
X121040000Y-81310000D01*
X121040000Y-81650000D01*
X121025537Y-81722710D01*
X120984350Y-81784350D01*
X120922710Y-81825537D01*
X120850000Y-81840000D01*
X120570000Y-81840000D01*
X120497290Y-81825537D01*
X120435650Y-81784350D01*
X120394463Y-81722710D01*
X120380000Y-81650000D01*
X120380000Y-81310000D01*
X120394463Y-81237290D01*
X120435650Y-81175650D01*
X120497290Y-81134463D01*
X120570000Y-81120000D01*
X120850000Y-81120000D01*
X120922710Y-81134463D01*
G37*
G36*
X115162710Y-80464463D02*
G01*
X115224350Y-80505650D01*
X115265537Y-80567290D01*
X115280000Y-80640000D01*
X115280000Y-80920000D01*
X115265537Y-80992710D01*
X115224350Y-81054350D01*
X115162710Y-81095537D01*
X115090000Y-81110000D01*
X114750000Y-81110000D01*
X114677290Y-81095537D01*
X114615650Y-81054350D01*
X114574463Y-80992710D01*
X114560000Y-80920000D01*
X114560000Y-80640000D01*
X114574463Y-80567290D01*
X114615650Y-80505650D01*
X114677290Y-80464463D01*
X114750000Y-80450000D01*
X115090000Y-80450000D01*
X115162710Y-80464463D01*
G37*
G36*
X116038882Y-78523805D02*
G01*
X116055103Y-78534644D01*
X116065942Y-78550865D01*
X116069748Y-78569999D01*
X116069748Y-80069999D01*
X116065942Y-80089133D01*
X116055103Y-80105354D01*
X116038882Y-80116193D01*
X116019748Y-80119999D01*
X115719748Y-80119999D01*
X115700614Y-80116193D01*
X115684393Y-80105354D01*
X115673554Y-80089133D01*
X115669748Y-80069999D01*
X115669748Y-78569999D01*
X115673554Y-78550865D01*
X115684393Y-78534644D01*
X115700614Y-78523805D01*
X115719748Y-78519999D01*
X116019748Y-78519999D01*
X116038882Y-78523805D01*
G37*
G36*
X116739008Y-78523805D02*
G01*
X116755229Y-78534644D01*
X116766068Y-78550865D01*
X116769874Y-78569999D01*
X116769874Y-80069999D01*
X116766068Y-80089133D01*
X116755229Y-80105354D01*
X116739008Y-80116193D01*
X116719874Y-80119999D01*
X116419874Y-80119999D01*
X116400740Y-80116193D01*
X116384519Y-80105354D01*
X116373680Y-80089133D01*
X116369874Y-80069999D01*
X116369874Y-78569999D01*
X116373680Y-78550865D01*
X116384519Y-78534644D01*
X116400740Y-78523805D01*
X116419874Y-78519999D01*
X116719874Y-78519999D01*
X116739008Y-78523805D01*
G37*
G36*
X117439134Y-78523805D02*
G01*
X117455355Y-78534644D01*
X117466194Y-78550865D01*
X117470000Y-78569999D01*
X117470000Y-80069999D01*
X117466194Y-80089133D01*
X117455355Y-80105354D01*
X117439134Y-80116193D01*
X117420000Y-80119999D01*
X117120000Y-80119999D01*
X117100866Y-80116193D01*
X117084645Y-80105354D01*
X117073806Y-80089133D01*
X117070000Y-80069999D01*
X117070000Y-78569999D01*
X117073806Y-78550865D01*
X117084645Y-78534644D01*
X117100866Y-78523805D01*
X117120000Y-78519999D01*
X117420000Y-78519999D01*
X117439134Y-78523805D01*
G37*
G36*
X118139260Y-78523805D02*
G01*
X118155481Y-78534644D01*
X118166320Y-78550865D01*
X118170126Y-78569999D01*
X118170126Y-80069999D01*
X118166320Y-80089133D01*
X118155481Y-80105354D01*
X118139260Y-80116193D01*
X118120126Y-80119999D01*
X117820126Y-80119999D01*
X117800992Y-80116193D01*
X117784771Y-80105354D01*
X117773932Y-80089133D01*
X117770126Y-80069999D01*
X117770126Y-78569999D01*
X117773932Y-78550865D01*
X117784771Y-78534644D01*
X117800992Y-78523805D01*
X117820126Y-78519999D01*
X118120126Y-78519999D01*
X118139260Y-78523805D01*
G37*
G36*
X118839386Y-78523805D02*
G01*
X118855607Y-78534644D01*
X118866446Y-78550865D01*
X118870252Y-78569999D01*
X118870252Y-80069999D01*
X118866446Y-80089133D01*
X118855607Y-80105354D01*
X118839386Y-80116193D01*
X118820252Y-80119999D01*
X118520252Y-80119999D01*
X118501118Y-80116193D01*
X118484897Y-80105354D01*
X118474058Y-80089133D01*
X118470252Y-80069999D01*
X118470252Y-78569999D01*
X118474058Y-78550865D01*
X118484897Y-78534644D01*
X118501118Y-78523805D01*
X118520252Y-78519999D01*
X118820252Y-78519999D01*
X118839386Y-78523805D01*
G37*
G36*
X124989177Y-78210333D02*
G01*
X125146201Y-78275374D01*
X125287519Y-78369800D01*
X125407700Y-78489981D01*
X125502126Y-78631299D01*
X125567167Y-78788323D01*
X125600325Y-78955019D01*
X125600325Y-79124981D01*
X125567167Y-79291677D01*
X125502126Y-79448701D01*
X125407700Y-79590019D01*
X125287519Y-79710200D01*
X125146201Y-79804626D01*
X124989177Y-79869667D01*
X124822481Y-79902825D01*
X124652519Y-79902825D01*
X124485823Y-79869667D01*
X124328799Y-79804626D01*
X124187481Y-79710200D01*
X124067300Y-79590019D01*
X123972874Y-79448701D01*
X123907833Y-79291677D01*
X123874675Y-79124981D01*
X123874675Y-78955019D01*
X123907833Y-78788323D01*
X123972874Y-78631299D01*
X124067300Y-78489981D01*
X124187481Y-78369800D01*
X124328799Y-78275374D01*
X124485823Y-78210333D01*
X124652519Y-78177175D01*
X124822481Y-78177175D01*
X124989177Y-78210333D01*
G37*
G36*
X73638754Y-78587024D02*
G01*
X73762079Y-78658226D01*
X73862774Y-78758921D01*
X73933976Y-78882246D01*
X73970833Y-79019798D01*
X73970833Y-79162202D01*
X73933976Y-79299754D01*
X73862774Y-79423079D01*
X73762079Y-79523774D01*
X73638754Y-79594976D01*
X73501202Y-79631833D01*
X73358798Y-79631833D01*
X73221246Y-79594976D01*
X73097921Y-79523774D01*
X72997226Y-79423079D01*
X72926024Y-79299754D01*
X72889167Y-79162202D01*
X72889167Y-79019798D01*
X72926024Y-78882246D01*
X72997226Y-78758921D01*
X73097921Y-78658226D01*
X73221246Y-78587024D01*
X73358798Y-78550167D01*
X73501202Y-78550167D01*
X73638754Y-78587024D01*
G37*
G36*
X115389134Y-79124184D02*
G01*
X115405355Y-79135023D01*
X115416194Y-79151244D01*
X115420000Y-79170378D01*
X115420000Y-79470378D01*
X115416194Y-79489512D01*
X115405355Y-79505733D01*
X115389134Y-79516572D01*
X115370000Y-79520378D01*
X114470000Y-79520378D01*
X114450866Y-79516572D01*
X114434645Y-79505733D01*
X114423806Y-79489512D01*
X114420000Y-79470378D01*
X114420000Y-79170378D01*
X114423806Y-79151244D01*
X114434645Y-79135023D01*
X114450866Y-79124184D01*
X114470000Y-79120378D01*
X115370000Y-79120378D01*
X115389134Y-79124184D01*
G37*
G36*
X120089134Y-79124184D02*
G01*
X120105355Y-79135023D01*
X120116194Y-79151244D01*
X120120000Y-79170378D01*
X120120000Y-79470378D01*
X120116194Y-79489512D01*
X120105355Y-79505733D01*
X120089134Y-79516572D01*
X120070000Y-79520378D01*
X119170000Y-79520378D01*
X119150866Y-79516572D01*
X119134645Y-79505733D01*
X119123806Y-79489512D01*
X119120000Y-79470378D01*
X119120000Y-79170378D01*
X119123806Y-79151244D01*
X119134645Y-79135023D01*
X119150866Y-79124184D01*
X119170000Y-79120378D01*
X120070000Y-79120378D01*
X120089134Y-79124184D01*
G37*
G36*
X112842710Y-78424463D02*
G01*
X112904350Y-78465650D01*
X112945537Y-78527290D01*
X112960000Y-78600000D01*
X112960000Y-78940000D01*
X112945537Y-79012710D01*
X112904350Y-79074350D01*
X112842710Y-79115537D01*
X112770000Y-79130000D01*
X112490000Y-79130000D01*
X112417290Y-79115537D01*
X112355650Y-79074350D01*
X112314463Y-79012710D01*
X112300000Y-78940000D01*
X112300000Y-78600000D01*
X112314463Y-78527290D01*
X112355650Y-78465650D01*
X112417290Y-78424463D01*
X112490000Y-78410000D01*
X112770000Y-78410000D01*
X112842710Y-78424463D01*
G37*
G36*
X113802710Y-78424463D02*
G01*
X113864350Y-78465650D01*
X113905537Y-78527290D01*
X113920000Y-78600000D01*
X113920000Y-78940000D01*
X113905537Y-79012710D01*
X113864350Y-79074350D01*
X113802710Y-79115537D01*
X113730000Y-79130000D01*
X113450000Y-79130000D01*
X113377290Y-79115537D01*
X113315650Y-79074350D01*
X113274463Y-79012710D01*
X113260000Y-78940000D01*
X113260000Y-78600000D01*
X113274463Y-78527290D01*
X113315650Y-78465650D01*
X113377290Y-78424463D01*
X113450000Y-78410000D01*
X113730000Y-78410000D01*
X113802710Y-78424463D01*
G37*
G36*
X115389134Y-78599058D02*
G01*
X115405355Y-78609897D01*
X115416194Y-78626118D01*
X115420000Y-78645252D01*
X115420000Y-78895252D01*
X115416194Y-78914386D01*
X115405355Y-78930607D01*
X115389134Y-78941446D01*
X115370000Y-78945252D01*
X114470000Y-78945252D01*
X114450866Y-78941446D01*
X114434645Y-78930607D01*
X114423806Y-78914386D01*
X114420000Y-78895252D01*
X114420000Y-78645252D01*
X114423806Y-78626118D01*
X114434645Y-78609897D01*
X114450866Y-78599058D01*
X114470000Y-78595252D01*
X115370000Y-78595252D01*
X115389134Y-78599058D01*
G37*
G36*
X120089134Y-78599058D02*
G01*
X120105355Y-78609897D01*
X120116194Y-78626118D01*
X120120000Y-78645252D01*
X120120000Y-78895252D01*
X120116194Y-78914386D01*
X120105355Y-78930607D01*
X120089134Y-78941446D01*
X120070000Y-78945252D01*
X119170000Y-78945252D01*
X119150866Y-78941446D01*
X119134645Y-78930607D01*
X119123806Y-78914386D01*
X119120000Y-78895252D01*
X119120000Y-78645252D01*
X119123806Y-78626118D01*
X119134645Y-78609897D01*
X119150866Y-78599058D01*
X119170000Y-78595252D01*
X120070000Y-78595252D01*
X120089134Y-78599058D01*
G37*
G36*
X68558754Y-77571024D02*
G01*
X68682079Y-77642226D01*
X68782774Y-77742921D01*
X68853976Y-77866246D01*
X68890833Y-78003798D01*
X68890833Y-78146202D01*
X68853976Y-78283754D01*
X68782774Y-78407079D01*
X68682079Y-78507774D01*
X68558754Y-78578976D01*
X68421202Y-78615833D01*
X68278798Y-78615833D01*
X68141246Y-78578976D01*
X68017921Y-78507774D01*
X67917226Y-78407079D01*
X67846024Y-78283754D01*
X67809167Y-78146202D01*
X67809167Y-78003798D01*
X67846024Y-77866246D01*
X67917226Y-77742921D01*
X68017921Y-77642226D01*
X68141246Y-77571024D01*
X68278798Y-77534167D01*
X68421202Y-77534167D01*
X68558754Y-77571024D01*
G37*
G36*
X115389134Y-78098932D02*
G01*
X115405355Y-78109771D01*
X115416194Y-78125992D01*
X115420000Y-78145126D01*
X115420000Y-78395126D01*
X115416194Y-78414260D01*
X115405355Y-78430481D01*
X115389134Y-78441320D01*
X115370000Y-78445126D01*
X114470000Y-78445126D01*
X114450866Y-78441320D01*
X114434645Y-78430481D01*
X114423806Y-78414260D01*
X114420000Y-78395126D01*
X114420000Y-78145126D01*
X114423806Y-78125992D01*
X114434645Y-78109771D01*
X114450866Y-78098932D01*
X114470000Y-78095126D01*
X115370000Y-78095126D01*
X115389134Y-78098932D01*
G37*
G36*
X120089134Y-78098932D02*
G01*
X120105355Y-78109771D01*
X120116194Y-78125992D01*
X120120000Y-78145126D01*
X120120000Y-78395126D01*
X120116194Y-78414260D01*
X120105355Y-78430481D01*
X120089134Y-78441320D01*
X120070000Y-78445126D01*
X119170000Y-78445126D01*
X119150866Y-78441320D01*
X119134645Y-78430481D01*
X119123806Y-78414260D01*
X119120000Y-78395126D01*
X119120000Y-78145126D01*
X119123806Y-78125992D01*
X119134645Y-78109771D01*
X119150866Y-78098932D01*
X119170000Y-78095126D01*
X120070000Y-78095126D01*
X120089134Y-78098932D01*
G37*
G36*
X118839134Y-77273806D02*
G01*
X118855355Y-77284645D01*
X118866194Y-77300866D01*
X118870000Y-77320000D01*
X118870000Y-78220000D01*
X118866194Y-78239134D01*
X118855355Y-78255355D01*
X118839134Y-78266194D01*
X118820000Y-78270000D01*
X115720000Y-78270000D01*
X115700866Y-78266194D01*
X115684645Y-78255355D01*
X115673806Y-78239134D01*
X115670000Y-78220000D01*
X115670000Y-77320000D01*
X115673806Y-77300866D01*
X115684645Y-77284645D01*
X115700866Y-77273806D01*
X115720000Y-77270000D01*
X118820000Y-77270000D01*
X118839134Y-77273806D01*
G37*
G36*
X122202710Y-77414463D02*
G01*
X122264350Y-77455650D01*
X122305537Y-77517290D01*
X122320000Y-77590000D01*
X122320000Y-77930000D01*
X122305537Y-78002710D01*
X122264350Y-78064350D01*
X122202710Y-78105537D01*
X122130000Y-78120000D01*
X121850000Y-78120000D01*
X121777290Y-78105537D01*
X121715650Y-78064350D01*
X121674463Y-78002710D01*
X121660000Y-77930000D01*
X121660000Y-77590000D01*
X121674463Y-77517290D01*
X121715650Y-77455650D01*
X121777290Y-77414463D01*
X121850000Y-77400000D01*
X122130000Y-77400000D01*
X122202710Y-77414463D01*
G37*
G36*
X123162710Y-77414463D02*
G01*
X123224350Y-77455650D01*
X123265537Y-77517290D01*
X123280000Y-77590000D01*
X123280000Y-77930000D01*
X123265537Y-78002710D01*
X123224350Y-78064350D01*
X123162710Y-78105537D01*
X123090000Y-78120000D01*
X122810000Y-78120000D01*
X122737290Y-78105537D01*
X122675650Y-78064350D01*
X122634463Y-78002710D01*
X122620000Y-77930000D01*
X122620000Y-77590000D01*
X122634463Y-77517290D01*
X122675650Y-77455650D01*
X122737290Y-77414463D01*
X122810000Y-77400000D01*
X123090000Y-77400000D01*
X123162710Y-77414463D01*
G37*
G36*
X115389134Y-77598806D02*
G01*
X115405355Y-77609645D01*
X115416194Y-77625866D01*
X115420000Y-77645000D01*
X115420000Y-77895000D01*
X115416194Y-77914134D01*
X115405355Y-77930355D01*
X115389134Y-77941194D01*
X115370000Y-77945000D01*
X114470000Y-77945000D01*
X114450866Y-77941194D01*
X114434645Y-77930355D01*
X114423806Y-77914134D01*
X114420000Y-77895000D01*
X114420000Y-77645000D01*
X114423806Y-77625866D01*
X114434645Y-77609645D01*
X114450866Y-77598806D01*
X114470000Y-77595000D01*
X115370000Y-77595000D01*
X115389134Y-77598806D01*
G37*
G36*
X120089134Y-77598806D02*
G01*
X120105355Y-77609645D01*
X120116194Y-77625866D01*
X120120000Y-77645000D01*
X120120000Y-77895000D01*
X120116194Y-77914134D01*
X120105355Y-77930355D01*
X120089134Y-77941194D01*
X120070000Y-77945000D01*
X119170000Y-77945000D01*
X119150866Y-77941194D01*
X119134645Y-77930355D01*
X119123806Y-77914134D01*
X119120000Y-77895000D01*
X119120000Y-77645000D01*
X119123806Y-77625866D01*
X119134645Y-77609645D01*
X119150866Y-77598806D01*
X119170000Y-77595000D01*
X120070000Y-77595000D01*
X120089134Y-77598806D01*
G37*
G36*
X103763477Y-74611333D02*
G01*
X103768919Y-74613870D01*
X103771612Y-74614263D01*
X103809868Y-74632965D01*
X103868168Y-74660151D01*
X103949849Y-74741832D01*
X103977044Y-74800153D01*
X103995736Y-74838387D01*
X103996128Y-74841078D01*
X103998667Y-74846523D01*
X104010000Y-74932608D01*
X104010000Y-77567392D01*
X103998667Y-77653477D01*
X103996127Y-77658922D01*
X103995736Y-77661612D01*
X103977054Y-77699824D01*
X103949849Y-77758168D01*
X103868168Y-77839849D01*
X103809824Y-77867054D01*
X103771612Y-77885736D01*
X103768922Y-77886127D01*
X103763477Y-77888667D01*
X103677392Y-77900000D01*
X102942608Y-77900000D01*
X102856523Y-77888667D01*
X102851078Y-77886128D01*
X102848387Y-77885736D01*
X102810153Y-77867044D01*
X102751832Y-77839849D01*
X102670151Y-77758168D01*
X102642965Y-77699868D01*
X102624263Y-77661612D01*
X102623870Y-77658919D01*
X102621333Y-77653477D01*
X102610000Y-77567392D01*
X102610000Y-74932608D01*
X102621333Y-74846523D01*
X102623870Y-74841081D01*
X102624263Y-74838387D01*
X102642975Y-74800109D01*
X102670151Y-74741832D01*
X102751832Y-74660151D01*
X102810109Y-74632975D01*
X102848387Y-74614263D01*
X102851081Y-74613870D01*
X102856523Y-74611333D01*
X102942608Y-74600000D01*
X103677392Y-74600000D01*
X103763477Y-74611333D01*
G37*
G36*
X108063477Y-74611333D02*
G01*
X108068919Y-74613870D01*
X108071612Y-74614263D01*
X108109868Y-74632965D01*
X108168168Y-74660151D01*
X108249849Y-74741832D01*
X108277044Y-74800153D01*
X108295736Y-74838387D01*
X108296128Y-74841078D01*
X108298667Y-74846523D01*
X108310000Y-74932608D01*
X108310000Y-77567392D01*
X108298667Y-77653477D01*
X108296127Y-77658922D01*
X108295736Y-77661612D01*
X108277054Y-77699824D01*
X108249849Y-77758168D01*
X108168168Y-77839849D01*
X108109824Y-77867054D01*
X108071612Y-77885736D01*
X108068922Y-77886127D01*
X108063477Y-77888667D01*
X107977392Y-77900000D01*
X107242608Y-77900000D01*
X107156523Y-77888667D01*
X107151078Y-77886128D01*
X107148387Y-77885736D01*
X107110153Y-77867044D01*
X107051832Y-77839849D01*
X106970151Y-77758168D01*
X106942965Y-77699868D01*
X106924263Y-77661612D01*
X106923870Y-77658919D01*
X106921333Y-77653477D01*
X106910000Y-77567392D01*
X106910000Y-74932608D01*
X106921333Y-74846523D01*
X106923870Y-74841081D01*
X106924263Y-74838387D01*
X106942975Y-74800109D01*
X106970151Y-74741832D01*
X107051832Y-74660151D01*
X107110109Y-74632975D01*
X107148387Y-74614263D01*
X107151081Y-74613870D01*
X107156523Y-74611333D01*
X107242608Y-74600000D01*
X107977392Y-74600000D01*
X108063477Y-74611333D01*
G37*
G36*
X73638754Y-76555024D02*
G01*
X73762079Y-76626226D01*
X73862774Y-76726921D01*
X73933976Y-76850246D01*
X73970833Y-76987798D01*
X73970833Y-77130202D01*
X73933976Y-77267754D01*
X73862774Y-77391079D01*
X73762079Y-77491774D01*
X73638754Y-77562976D01*
X73501202Y-77599833D01*
X73358798Y-77599833D01*
X73221246Y-77562976D01*
X73097921Y-77491774D01*
X72997226Y-77391079D01*
X72926024Y-77267754D01*
X72889167Y-77130202D01*
X72889167Y-76987798D01*
X72926024Y-76850246D01*
X72997226Y-76726921D01*
X73097921Y-76626226D01*
X73221246Y-76555024D01*
X73358798Y-76518167D01*
X73501202Y-76518167D01*
X73638754Y-76555024D01*
G37*
G36*
X115389134Y-77098680D02*
G01*
X115405355Y-77109519D01*
X115416194Y-77125740D01*
X115420000Y-77144874D01*
X115420000Y-77394874D01*
X115416194Y-77414008D01*
X115405355Y-77430229D01*
X115389134Y-77441068D01*
X115370000Y-77444874D01*
X114470000Y-77444874D01*
X114450866Y-77441068D01*
X114434645Y-77430229D01*
X114423806Y-77414008D01*
X114420000Y-77394874D01*
X114420000Y-77144874D01*
X114423806Y-77125740D01*
X114434645Y-77109519D01*
X114450866Y-77098680D01*
X114470000Y-77094874D01*
X115370000Y-77094874D01*
X115389134Y-77098680D01*
G37*
G36*
X120089134Y-77098680D02*
G01*
X120105355Y-77109519D01*
X120116194Y-77125740D01*
X120120000Y-77144874D01*
X120120000Y-77394874D01*
X120116194Y-77414008D01*
X120105355Y-77430229D01*
X120089134Y-77441068D01*
X120070000Y-77444874D01*
X119170000Y-77444874D01*
X119150866Y-77441068D01*
X119134645Y-77430229D01*
X119123806Y-77414008D01*
X119120000Y-77394874D01*
X119120000Y-77144874D01*
X119123806Y-77125740D01*
X119134645Y-77109519D01*
X119150866Y-77098680D01*
X119170000Y-77094874D01*
X120070000Y-77094874D01*
X120089134Y-77098680D01*
G37*
G36*
X124989177Y-75670333D02*
G01*
X125146201Y-75735374D01*
X125287519Y-75829800D01*
X125407700Y-75949981D01*
X125502126Y-76091299D01*
X125567167Y-76248323D01*
X125600325Y-76415019D01*
X125600325Y-76584981D01*
X125567167Y-76751677D01*
X125502126Y-76908701D01*
X125407700Y-77050019D01*
X125287519Y-77170200D01*
X125146201Y-77264626D01*
X124989177Y-77329667D01*
X124822481Y-77362825D01*
X124652519Y-77362825D01*
X124485823Y-77329667D01*
X124328799Y-77264626D01*
X124187481Y-77170200D01*
X124067300Y-77050019D01*
X123972874Y-76908701D01*
X123907833Y-76751677D01*
X123874675Y-76584981D01*
X123874675Y-76415019D01*
X123907833Y-76248323D01*
X123972874Y-76091299D01*
X124067300Y-75949981D01*
X124187481Y-75829800D01*
X124328799Y-75735374D01*
X124485823Y-75670333D01*
X124652519Y-75637175D01*
X124822481Y-75637175D01*
X124989177Y-75670333D01*
G37*
G36*
X116038882Y-75423807D02*
G01*
X116055103Y-75434646D01*
X116065942Y-75450867D01*
X116069748Y-75470001D01*
X116069748Y-76970001D01*
X116065942Y-76989135D01*
X116055103Y-77005356D01*
X116038882Y-77016195D01*
X116019748Y-77020001D01*
X115719748Y-77020001D01*
X115700614Y-77016195D01*
X115684393Y-77005356D01*
X115673554Y-76989135D01*
X115669748Y-76970001D01*
X115669748Y-75470001D01*
X115673554Y-75450867D01*
X115684393Y-75434646D01*
X115700614Y-75423807D01*
X115719748Y-75420001D01*
X116019748Y-75420001D01*
X116038882Y-75423807D01*
G37*
G36*
X116739008Y-75423807D02*
G01*
X116755229Y-75434646D01*
X116766068Y-75450867D01*
X116769874Y-75470001D01*
X116769874Y-76970001D01*
X116766068Y-76989135D01*
X116755229Y-77005356D01*
X116739008Y-77016195D01*
X116719874Y-77020001D01*
X116419874Y-77020001D01*
X116400740Y-77016195D01*
X116384519Y-77005356D01*
X116373680Y-76989135D01*
X116369874Y-76970001D01*
X116369874Y-75470001D01*
X116373680Y-75450867D01*
X116384519Y-75434646D01*
X116400740Y-75423807D01*
X116419874Y-75420001D01*
X116719874Y-75420001D01*
X116739008Y-75423807D01*
G37*
G36*
X117439134Y-75423807D02*
G01*
X117455355Y-75434646D01*
X117466194Y-75450867D01*
X117470000Y-75470001D01*
X117470000Y-76970001D01*
X117466194Y-76989135D01*
X117455355Y-77005356D01*
X117439134Y-77016195D01*
X117420000Y-77020001D01*
X117120000Y-77020001D01*
X117100866Y-77016195D01*
X117084645Y-77005356D01*
X117073806Y-76989135D01*
X117070000Y-76970001D01*
X117070000Y-75470001D01*
X117073806Y-75450867D01*
X117084645Y-75434646D01*
X117100866Y-75423807D01*
X117120000Y-75420001D01*
X117420000Y-75420001D01*
X117439134Y-75423807D01*
G37*
G36*
X118139260Y-75423807D02*
G01*
X118155481Y-75434646D01*
X118166320Y-75450867D01*
X118170126Y-75470001D01*
X118170126Y-76970001D01*
X118166320Y-76989135D01*
X118155481Y-77005356D01*
X118139260Y-77016195D01*
X118120126Y-77020001D01*
X117820126Y-77020001D01*
X117800992Y-77016195D01*
X117784771Y-77005356D01*
X117773932Y-76989135D01*
X117770126Y-76970001D01*
X117770126Y-75470001D01*
X117773932Y-75450867D01*
X117784771Y-75434646D01*
X117800992Y-75423807D01*
X117820126Y-75420001D01*
X118120126Y-75420001D01*
X118139260Y-75423807D01*
G37*
G36*
X118839386Y-75423807D02*
G01*
X118855607Y-75434646D01*
X118866446Y-75450867D01*
X118870252Y-75470001D01*
X118870252Y-76970001D01*
X118866446Y-76989135D01*
X118855607Y-77005356D01*
X118839386Y-77016195D01*
X118820252Y-77020001D01*
X118520252Y-77020001D01*
X118501118Y-77016195D01*
X118484897Y-77005356D01*
X118474058Y-76989135D01*
X118470252Y-76970001D01*
X118470252Y-75470001D01*
X118474058Y-75450867D01*
X118484897Y-75434646D01*
X118501118Y-75423807D01*
X118520252Y-75420001D01*
X118820252Y-75420001D01*
X118839386Y-75423807D01*
G37*
G36*
X115389134Y-76598554D02*
G01*
X115405355Y-76609393D01*
X115416194Y-76625614D01*
X115420000Y-76644748D01*
X115420000Y-76894748D01*
X115416194Y-76913882D01*
X115405355Y-76930103D01*
X115389134Y-76940942D01*
X115370000Y-76944748D01*
X114470000Y-76944748D01*
X114450866Y-76940942D01*
X114434645Y-76930103D01*
X114423806Y-76913882D01*
X114420000Y-76894748D01*
X114420000Y-76644748D01*
X114423806Y-76625614D01*
X114434645Y-76609393D01*
X114450866Y-76598554D01*
X114470000Y-76594748D01*
X115370000Y-76594748D01*
X115389134Y-76598554D01*
G37*
G36*
X120089134Y-76598554D02*
G01*
X120105355Y-76609393D01*
X120116194Y-76625614D01*
X120120000Y-76644748D01*
X120120000Y-76894748D01*
X120116194Y-76913882D01*
X120105355Y-76930103D01*
X120089134Y-76940942D01*
X120070000Y-76944748D01*
X119170000Y-76944748D01*
X119150866Y-76940942D01*
X119134645Y-76930103D01*
X119123806Y-76913882D01*
X119120000Y-76894748D01*
X119120000Y-76644748D01*
X119123806Y-76625614D01*
X119134645Y-76609393D01*
X119150866Y-76598554D01*
X119170000Y-76594748D01*
X120070000Y-76594748D01*
X120089134Y-76598554D01*
G37*
G36*
X115389134Y-76023428D02*
G01*
X115405355Y-76034267D01*
X115416194Y-76050488D01*
X115420000Y-76069622D01*
X115420000Y-76369622D01*
X115416194Y-76388756D01*
X115405355Y-76404977D01*
X115389134Y-76415816D01*
X115370000Y-76419622D01*
X114470000Y-76419622D01*
X114450866Y-76415816D01*
X114434645Y-76404977D01*
X114423806Y-76388756D01*
X114420000Y-76369622D01*
X114420000Y-76069622D01*
X114423806Y-76050488D01*
X114434645Y-76034267D01*
X114450866Y-76023428D01*
X114470000Y-76019622D01*
X115370000Y-76019622D01*
X115389134Y-76023428D01*
G37*
G36*
X120089134Y-76023428D02*
G01*
X120105355Y-76034267D01*
X120116194Y-76050488D01*
X120120000Y-76069622D01*
X120120000Y-76369622D01*
X120116194Y-76388756D01*
X120105355Y-76404977D01*
X120089134Y-76415816D01*
X120070000Y-76419622D01*
X119170000Y-76419622D01*
X119150866Y-76415816D01*
X119134645Y-76404977D01*
X119123806Y-76388756D01*
X119120000Y-76369622D01*
X119120000Y-76069622D01*
X119123806Y-76050488D01*
X119134645Y-76034267D01*
X119150866Y-76023428D01*
X119170000Y-76019622D01*
X120070000Y-76019622D01*
X120089134Y-76023428D01*
G37*
G36*
X59580168Y-73261445D02*
G01*
X59804025Y-73334181D01*
X60013748Y-73441040D01*
X60204172Y-73579391D01*
X60370609Y-73745828D01*
X60508960Y-73936252D01*
X60615819Y-74145975D01*
X60688555Y-74369832D01*
X60725376Y-74602311D01*
X60725376Y-74837689D01*
X60688555Y-75070168D01*
X60615819Y-75294025D01*
X60508960Y-75503748D01*
X60370609Y-75694172D01*
X60204172Y-75860609D01*
X60013748Y-75998960D01*
X59804025Y-76105819D01*
X59580168Y-76178555D01*
X59347689Y-76215376D01*
X59112311Y-76215376D01*
X58879832Y-76178555D01*
X58655975Y-76105819D01*
X58446252Y-75998960D01*
X58255828Y-75860609D01*
X58089391Y-75694172D01*
X57951040Y-75503748D01*
X57844181Y-75294025D01*
X57771445Y-75070168D01*
X57734624Y-74837689D01*
X57734624Y-74602311D01*
X57771445Y-74369832D01*
X57844181Y-74145975D01*
X57951040Y-73936252D01*
X58089391Y-73745828D01*
X58255828Y-73579391D01*
X58446252Y-73441040D01*
X58655975Y-73334181D01*
X58879832Y-73261445D01*
X59112311Y-73224624D01*
X59347689Y-73224624D01*
X59580168Y-73261445D01*
G37*
G36*
X112033477Y-74011333D02*
G01*
X112038919Y-74013870D01*
X112041612Y-74014263D01*
X112079868Y-74032965D01*
X112138168Y-74060151D01*
X112219849Y-74141832D01*
X112247044Y-74200153D01*
X112265736Y-74238387D01*
X112266128Y-74241078D01*
X112268667Y-74246523D01*
X112280000Y-74332608D01*
X112280000Y-75067392D01*
X112268667Y-75153477D01*
X112266127Y-75158922D01*
X112265736Y-75161612D01*
X112247054Y-75199824D01*
X112219849Y-75258168D01*
X112138168Y-75339849D01*
X112079824Y-75367054D01*
X112041612Y-75385736D01*
X112038922Y-75386127D01*
X112033477Y-75388667D01*
X111947392Y-75400000D01*
X109312608Y-75400000D01*
X109226523Y-75388667D01*
X109221078Y-75386128D01*
X109218387Y-75385736D01*
X109180153Y-75367044D01*
X109121832Y-75339849D01*
X109040151Y-75258168D01*
X109012965Y-75199868D01*
X108994263Y-75161612D01*
X108993870Y-75158919D01*
X108991333Y-75153477D01*
X108980000Y-75067392D01*
X108980000Y-74332608D01*
X108991333Y-74246523D01*
X108993870Y-74241081D01*
X108994263Y-74238387D01*
X109012975Y-74200109D01*
X109040151Y-74141832D01*
X109121832Y-74060151D01*
X109180109Y-74032975D01*
X109218387Y-74014263D01*
X109221081Y-74013870D01*
X109226523Y-74011333D01*
X109312608Y-74000000D01*
X111947392Y-74000000D01*
X112033477Y-74011333D01*
G37*
G36*
X125541534Y-73100764D02*
G01*
X125574625Y-73122875D01*
X125596736Y-73155966D01*
X125604500Y-73195000D01*
X125604500Y-74725000D01*
X125596736Y-74764034D01*
X125574625Y-74797125D01*
X125541534Y-74819236D01*
X125502500Y-74827000D01*
X123972500Y-74827000D01*
X123933466Y-74819236D01*
X123900375Y-74797125D01*
X123878264Y-74764034D01*
X123870500Y-74725000D01*
X123870500Y-73195000D01*
X123878264Y-73155966D01*
X123900375Y-73122875D01*
X123933466Y-73100764D01*
X123972500Y-73093000D01*
X125502500Y-73093000D01*
X125541534Y-73100764D01*
G37*
G36*
X119962710Y-73724463D02*
G01*
X120024350Y-73765650D01*
X120065537Y-73827290D01*
X120080000Y-73900000D01*
X120080000Y-74240000D01*
X120065537Y-74312710D01*
X120024350Y-74374350D01*
X119962710Y-74415537D01*
X119890000Y-74430000D01*
X119610000Y-74430000D01*
X119537290Y-74415537D01*
X119475650Y-74374350D01*
X119434463Y-74312710D01*
X119420000Y-74240000D01*
X119420000Y-73900000D01*
X119434463Y-73827290D01*
X119475650Y-73765650D01*
X119537290Y-73724463D01*
X119610000Y-73710000D01*
X119890000Y-73710000D01*
X119962710Y-73724463D01*
G37*
G36*
X120922710Y-73724463D02*
G01*
X120984350Y-73765650D01*
X121025537Y-73827290D01*
X121040000Y-73900000D01*
X121040000Y-74240000D01*
X121025537Y-74312710D01*
X120984350Y-74374350D01*
X120922710Y-74415537D01*
X120850000Y-74430000D01*
X120570000Y-74430000D01*
X120497290Y-74415537D01*
X120435650Y-74374350D01*
X120394463Y-74312710D01*
X120380000Y-74240000D01*
X120380000Y-73900000D01*
X120394463Y-73827290D01*
X120435650Y-73765650D01*
X120497290Y-73724463D01*
X120570000Y-73710000D01*
X120850000Y-73710000D01*
X120922710Y-73724463D01*
G37*
G36*
X115823477Y-70491333D02*
G01*
X115828919Y-70493870D01*
X115831612Y-70494263D01*
X115869868Y-70512965D01*
X115928168Y-70540151D01*
X116009849Y-70621832D01*
X116037044Y-70680153D01*
X116055736Y-70718387D01*
X116056128Y-70721078D01*
X116058667Y-70726523D01*
X116070000Y-70812608D01*
X116070000Y-71547392D01*
X116058667Y-71633477D01*
X116056127Y-71638922D01*
X116055736Y-71641612D01*
X116037054Y-71679824D01*
X116009849Y-71738168D01*
X115928168Y-71819849D01*
X115869824Y-71847054D01*
X115831612Y-71865736D01*
X115828922Y-71866127D01*
X115823477Y-71868667D01*
X115737392Y-71880000D01*
X113102608Y-71880000D01*
X113016523Y-71868667D01*
X113011078Y-71866128D01*
X113008387Y-71865736D01*
X112970153Y-71847044D01*
X112911832Y-71819849D01*
X112830151Y-71738168D01*
X112802965Y-71679868D01*
X112784263Y-71641612D01*
X112783870Y-71638919D01*
X112781333Y-71633477D01*
X112770000Y-71547392D01*
X112770000Y-70812608D01*
X112781333Y-70726523D01*
X112783870Y-70721081D01*
X112784263Y-70718387D01*
X112802975Y-70680109D01*
X112830151Y-70621832D01*
X112911832Y-70540151D01*
X112970109Y-70512975D01*
X113008387Y-70494263D01*
X113011081Y-70493870D01*
X113016523Y-70491333D01*
X113102608Y-70480000D01*
X115737392Y-70480000D01*
X115823477Y-70491333D01*
G37*
G36*
X117568685Y-69697969D02*
G01*
X117577386Y-69701810D01*
X117584916Y-69702908D01*
X117631981Y-69725917D01*
X117669541Y-69742501D01*
X117673018Y-69745978D01*
X117673915Y-69746417D01*
X117743582Y-69816084D01*
X117744020Y-69816980D01*
X117747499Y-69820459D01*
X117764087Y-69858028D01*
X117787091Y-69905083D01*
X117788187Y-69912610D01*
X117792031Y-69921315D01*
X117800000Y-69990000D01*
X117800000Y-71290000D01*
X117792031Y-71358685D01*
X117788187Y-71367389D01*
X117787091Y-71374916D01*
X117764092Y-71421960D01*
X117747499Y-71459541D01*
X117744019Y-71463020D01*
X117743582Y-71463915D01*
X117673915Y-71533582D01*
X117673020Y-71534019D01*
X117669541Y-71537499D01*
X117631960Y-71554092D01*
X117584916Y-71577091D01*
X117577389Y-71578187D01*
X117568685Y-71582031D01*
X117500000Y-71590000D01*
X116850000Y-71590000D01*
X116781315Y-71582031D01*
X116772610Y-71578187D01*
X116765083Y-71577091D01*
X116718028Y-71554087D01*
X116680459Y-71537499D01*
X116676980Y-71534020D01*
X116676084Y-71533582D01*
X116606417Y-71463915D01*
X116605978Y-71463018D01*
X116602501Y-71459541D01*
X116585917Y-71421981D01*
X116562908Y-71374916D01*
X116561810Y-71367386D01*
X116557969Y-71358685D01*
X116550000Y-71290000D01*
X116550000Y-69990000D01*
X116557969Y-69921315D01*
X116561810Y-69912614D01*
X116562908Y-69905083D01*
X116585921Y-69858007D01*
X116602501Y-69820459D01*
X116605977Y-69816982D01*
X116606417Y-69816084D01*
X116676084Y-69746417D01*
X116676982Y-69745977D01*
X116680459Y-69742501D01*
X116718007Y-69725921D01*
X116765083Y-69702908D01*
X116772614Y-69701810D01*
X116781315Y-69697969D01*
X116850000Y-69690000D01*
X117500000Y-69690000D01*
X117568685Y-69697969D01*
G37*
G36*
X120518685Y-69697969D02*
G01*
X120527386Y-69701810D01*
X120534916Y-69702908D01*
X120581981Y-69725917D01*
X120619541Y-69742501D01*
X120623018Y-69745978D01*
X120623915Y-69746417D01*
X120693582Y-69816084D01*
X120694020Y-69816980D01*
X120697499Y-69820459D01*
X120714087Y-69858028D01*
X120737091Y-69905083D01*
X120738187Y-69912610D01*
X120742031Y-69921315D01*
X120750000Y-69990000D01*
X120750000Y-71290000D01*
X120742031Y-71358685D01*
X120738187Y-71367389D01*
X120737091Y-71374916D01*
X120714092Y-71421960D01*
X120697499Y-71459541D01*
X120694019Y-71463020D01*
X120693582Y-71463915D01*
X120623915Y-71533582D01*
X120623020Y-71534019D01*
X120619541Y-71537499D01*
X120581960Y-71554092D01*
X120534916Y-71577091D01*
X120527389Y-71578187D01*
X120518685Y-71582031D01*
X120450000Y-71590000D01*
X119800000Y-71590000D01*
X119731315Y-71582031D01*
X119722610Y-71578187D01*
X119715083Y-71577091D01*
X119668028Y-71554087D01*
X119630459Y-71537499D01*
X119626980Y-71534020D01*
X119626084Y-71533582D01*
X119556417Y-71463915D01*
X119555978Y-71463018D01*
X119552501Y-71459541D01*
X119535917Y-71421981D01*
X119512908Y-71374916D01*
X119511810Y-71367386D01*
X119507969Y-71358685D01*
X119500000Y-71290000D01*
X119500000Y-69990000D01*
X119507969Y-69921315D01*
X119511810Y-69912614D01*
X119512908Y-69905083D01*
X119535921Y-69858007D01*
X119552501Y-69820459D01*
X119555977Y-69816982D01*
X119556417Y-69816084D01*
X119626084Y-69746417D01*
X119626982Y-69745977D01*
X119630459Y-69742501D01*
X119668007Y-69725921D01*
X119715083Y-69702908D01*
X119722614Y-69701810D01*
X119731315Y-69697969D01*
X119800000Y-69690000D01*
X120450000Y-69690000D01*
X120518685Y-69697969D01*
G37*
G36*
X112033477Y-69711333D02*
G01*
X112038919Y-69713870D01*
X112041612Y-69714263D01*
X112079868Y-69732965D01*
X112138168Y-69760151D01*
X112219849Y-69841832D01*
X112247044Y-69900153D01*
X112265736Y-69938387D01*
X112266128Y-69941078D01*
X112268667Y-69946523D01*
X112280000Y-70032608D01*
X112280000Y-70767392D01*
X112268667Y-70853477D01*
X112266127Y-70858922D01*
X112265736Y-70861612D01*
X112247054Y-70899824D01*
X112219849Y-70958168D01*
X112138168Y-71039849D01*
X112079824Y-71067054D01*
X112041612Y-71085736D01*
X112038922Y-71086127D01*
X112033477Y-71088667D01*
X111947392Y-71100000D01*
X109312608Y-71100000D01*
X109226523Y-71088667D01*
X109221078Y-71086128D01*
X109218387Y-71085736D01*
X109180153Y-71067044D01*
X109121832Y-71039849D01*
X109040151Y-70958168D01*
X109012965Y-70899868D01*
X108994263Y-70861612D01*
X108993870Y-70858919D01*
X108991333Y-70853477D01*
X108980000Y-70767392D01*
X108980000Y-70032608D01*
X108991333Y-69946523D01*
X108993870Y-69941081D01*
X108994263Y-69938387D01*
X109012975Y-69900109D01*
X109040151Y-69841832D01*
X109121832Y-69760151D01*
X109180109Y-69732975D01*
X109218387Y-69714263D01*
X109221081Y-69713870D01*
X109226523Y-69711333D01*
X109312608Y-69700000D01*
X111947392Y-69700000D01*
X112033477Y-69711333D01*
G37*
G36*
X67305853Y-70202023D02*
G01*
X67386110Y-70248360D01*
X67451640Y-70313890D01*
X67497977Y-70394147D01*
X67521963Y-70483663D01*
X67521963Y-70576337D01*
X67497977Y-70665853D01*
X67451640Y-70746110D01*
X67386110Y-70811640D01*
X67305853Y-70857977D01*
X67216337Y-70881963D01*
X67123663Y-70881963D01*
X67034147Y-70857977D01*
X66953890Y-70811640D01*
X66888360Y-70746110D01*
X66842023Y-70665853D01*
X66818037Y-70576337D01*
X66818037Y-70483663D01*
X66842023Y-70394147D01*
X66888360Y-70313890D01*
X66953890Y-70248360D01*
X67034147Y-70202023D01*
X67123663Y-70178037D01*
X67216337Y-70178037D01*
X67305853Y-70202023D01*
G37*
G36*
X77815853Y-70192023D02*
G01*
X77896110Y-70238360D01*
X77961640Y-70303890D01*
X78007977Y-70384147D01*
X78031963Y-70473663D01*
X78031963Y-70566337D01*
X78007977Y-70655853D01*
X77961640Y-70736110D01*
X77896110Y-70801640D01*
X77815853Y-70847977D01*
X77726337Y-70871963D01*
X77633663Y-70871963D01*
X77544147Y-70847977D01*
X77463890Y-70801640D01*
X77398360Y-70736110D01*
X77352023Y-70655853D01*
X77328037Y-70566337D01*
X77328037Y-70473663D01*
X77352023Y-70384147D01*
X77398360Y-70303890D01*
X77463890Y-70238360D01*
X77544147Y-70192023D01*
X77633663Y-70168037D01*
X77726337Y-70168037D01*
X77815853Y-70192023D01*
G37*
G36*
X87815853Y-70192023D02*
G01*
X87896110Y-70238360D01*
X87961640Y-70303890D01*
X88007977Y-70384147D01*
X88031963Y-70473663D01*
X88031963Y-70566337D01*
X88007977Y-70655853D01*
X87961640Y-70736110D01*
X87896110Y-70801640D01*
X87815853Y-70847977D01*
X87726337Y-70871963D01*
X87633663Y-70871963D01*
X87544147Y-70847977D01*
X87463890Y-70801640D01*
X87398360Y-70736110D01*
X87352023Y-70655853D01*
X87328037Y-70566337D01*
X87328037Y-70473663D01*
X87352023Y-70384147D01*
X87398360Y-70303890D01*
X87463890Y-70238360D01*
X87544147Y-70192023D01*
X87633663Y-70168037D01*
X87726337Y-70168037D01*
X87815853Y-70192023D01*
G37*
G36*
X97815853Y-70192023D02*
G01*
X97896110Y-70238360D01*
X97961640Y-70303890D01*
X98007977Y-70384147D01*
X98031963Y-70473663D01*
X98031963Y-70566337D01*
X98007977Y-70655853D01*
X97961640Y-70736110D01*
X97896110Y-70801640D01*
X97815853Y-70847977D01*
X97726337Y-70871963D01*
X97633663Y-70871963D01*
X97544147Y-70847977D01*
X97463890Y-70801640D01*
X97398360Y-70736110D01*
X97352023Y-70655853D01*
X97328037Y-70566337D01*
X97328037Y-70473663D01*
X97352023Y-70384147D01*
X97398360Y-70303890D01*
X97463890Y-70238360D01*
X97544147Y-70192023D01*
X97633663Y-70168037D01*
X97726337Y-70168037D01*
X97815853Y-70192023D01*
G37*
G36*
X107815853Y-70192023D02*
G01*
X107896110Y-70238360D01*
X107961640Y-70303890D01*
X108007977Y-70384147D01*
X108031963Y-70473663D01*
X108031963Y-70566337D01*
X108007977Y-70655853D01*
X107961640Y-70736110D01*
X107896110Y-70801640D01*
X107815853Y-70847977D01*
X107726337Y-70871963D01*
X107633663Y-70871963D01*
X107544147Y-70847977D01*
X107463890Y-70801640D01*
X107398360Y-70736110D01*
X107352023Y-70655853D01*
X107328037Y-70566337D01*
X107328037Y-70473663D01*
X107352023Y-70384147D01*
X107398360Y-70303890D01*
X107463890Y-70238360D01*
X107544147Y-70192023D01*
X107633663Y-70168037D01*
X107726337Y-70168037D01*
X107815853Y-70192023D01*
G37*
G36*
X58226285Y-66179106D02*
G01*
X58450555Y-66239199D01*
X58665062Y-66328051D01*
X58866137Y-66444141D01*
X59050339Y-66585484D01*
X59214516Y-66749661D01*
X59355859Y-66933863D01*
X59471949Y-67134938D01*
X59560801Y-67349445D01*
X59620894Y-67573715D01*
X59651200Y-67803909D01*
X59651200Y-68036091D01*
X59620894Y-68266285D01*
X59560801Y-68490555D01*
X59471949Y-68705062D01*
X59355859Y-68906137D01*
X59214516Y-69090339D01*
X59050339Y-69254516D01*
X58866137Y-69395859D01*
X58665062Y-69511949D01*
X58450555Y-69600801D01*
X58226285Y-69660894D01*
X57996091Y-69691200D01*
X57763909Y-69691200D01*
X57533715Y-69660894D01*
X57309445Y-69600801D01*
X57094938Y-69511949D01*
X56893863Y-69395859D01*
X56709661Y-69254516D01*
X56545484Y-69090339D01*
X56404141Y-68906137D01*
X56288051Y-68705062D01*
X56199199Y-68490555D01*
X56139106Y-68266285D01*
X56108800Y-68036091D01*
X56108800Y-67803909D01*
X56139106Y-67573715D01*
X56199199Y-67349445D01*
X56288051Y-67134938D01*
X56404141Y-66933863D01*
X56545484Y-66749661D01*
X56709661Y-66585484D01*
X56893863Y-66444141D01*
X57094938Y-66328051D01*
X57309445Y-66239199D01*
X57533715Y-66179106D01*
X57763909Y-66148800D01*
X57996091Y-66148800D01*
X58226285Y-66179106D01*
G37*
G36*
X131926285Y-66179106D02*
G01*
X132150555Y-66239199D01*
X132365062Y-66328051D01*
X132566137Y-66444141D01*
X132750339Y-66585484D01*
X132914516Y-66749661D01*
X133055859Y-66933863D01*
X133171949Y-67134938D01*
X133260801Y-67349445D01*
X133320894Y-67573715D01*
X133351200Y-67803909D01*
X133351200Y-68036091D01*
X133320894Y-68266285D01*
X133260801Y-68490555D01*
X133171949Y-68705062D01*
X133055859Y-68906137D01*
X132914516Y-69090339D01*
X132750339Y-69254516D01*
X132566137Y-69395859D01*
X132365062Y-69511949D01*
X132150555Y-69600801D01*
X131926285Y-69660894D01*
X131696091Y-69691200D01*
X131463909Y-69691200D01*
X131233715Y-69660894D01*
X131009445Y-69600801D01*
X130794938Y-69511949D01*
X130593863Y-69395859D01*
X130409661Y-69254516D01*
X130245484Y-69090339D01*
X130104141Y-68906137D01*
X129988051Y-68705062D01*
X129899199Y-68490555D01*
X129839106Y-68266285D01*
X129808800Y-68036091D01*
X129808800Y-67803909D01*
X129839106Y-67573715D01*
X129899199Y-67349445D01*
X129988051Y-67134938D01*
X130104141Y-66933863D01*
X130245484Y-66749661D01*
X130409661Y-66585484D01*
X130593863Y-66444141D01*
X130794938Y-66328051D01*
X131009445Y-66239199D01*
X131233715Y-66179106D01*
X131463909Y-66148800D01*
X131696091Y-66148800D01*
X131926285Y-66179106D01*
G37*
G36*
X115823477Y-66191333D02*
G01*
X115828919Y-66193870D01*
X115831612Y-66194263D01*
X115869868Y-66212965D01*
X115928168Y-66240151D01*
X116009849Y-66321832D01*
X116037044Y-66380153D01*
X116055736Y-66418387D01*
X116056128Y-66421078D01*
X116058667Y-66426523D01*
X116070000Y-66512608D01*
X116070000Y-67247392D01*
X116058667Y-67333477D01*
X116056127Y-67338922D01*
X116055736Y-67341612D01*
X116037054Y-67379824D01*
X116009849Y-67438168D01*
X115928168Y-67519849D01*
X115869824Y-67547054D01*
X115831612Y-67565736D01*
X115828922Y-67566127D01*
X115823477Y-67568667D01*
X115737392Y-67580000D01*
X113102608Y-67580000D01*
X113016523Y-67568667D01*
X113011078Y-67566128D01*
X113008387Y-67565736D01*
X112970153Y-67547044D01*
X112911832Y-67519849D01*
X112830151Y-67438168D01*
X112802965Y-67379868D01*
X112784263Y-67341612D01*
X112783870Y-67338919D01*
X112781333Y-67333477D01*
X112770000Y-67247392D01*
X112770000Y-66512608D01*
X112781333Y-66426523D01*
X112783870Y-66421081D01*
X112784263Y-66418387D01*
X112802975Y-66380109D01*
X112830151Y-66321832D01*
X112911832Y-66240151D01*
X112970109Y-66212975D01*
X113008387Y-66194263D01*
X113011081Y-66193870D01*
X113016523Y-66191333D01*
X113102608Y-66180000D01*
X115737392Y-66180000D01*
X115823477Y-66191333D01*
G37*
G36*
X71405853Y-66102023D02*
G01*
X71486110Y-66148360D01*
X71551640Y-66213890D01*
X71597977Y-66294147D01*
X71621963Y-66383663D01*
X71621963Y-66476337D01*
X71597977Y-66565853D01*
X71551640Y-66646110D01*
X71486110Y-66711640D01*
X71405853Y-66757977D01*
X71316337Y-66781963D01*
X71223663Y-66781963D01*
X71134147Y-66757977D01*
X71053890Y-66711640D01*
X70988360Y-66646110D01*
X70942023Y-66565853D01*
X70918037Y-66476337D01*
X70918037Y-66383663D01*
X70942023Y-66294147D01*
X70988360Y-66213890D01*
X71053890Y-66148360D01*
X71134147Y-66102023D01*
X71223663Y-66078037D01*
X71316337Y-66078037D01*
X71405853Y-66102023D01*
G37*
G36*
X81915853Y-66092023D02*
G01*
X81996110Y-66138360D01*
X82061640Y-66203890D01*
X82107977Y-66284147D01*
X82131963Y-66373663D01*
X82131963Y-66466337D01*
X82107977Y-66555853D01*
X82061640Y-66636110D01*
X81996110Y-66701640D01*
X81915853Y-66747977D01*
X81826337Y-66771963D01*
X81733663Y-66771963D01*
X81644147Y-66747977D01*
X81563890Y-66701640D01*
X81498360Y-66636110D01*
X81452023Y-66555853D01*
X81428037Y-66466337D01*
X81428037Y-66373663D01*
X81452023Y-66284147D01*
X81498360Y-66203890D01*
X81563890Y-66138360D01*
X81644147Y-66092023D01*
X81733663Y-66068037D01*
X81826337Y-66068037D01*
X81915853Y-66092023D01*
G37*
G36*
X91915853Y-66092023D02*
G01*
X91996110Y-66138360D01*
X92061640Y-66203890D01*
X92107977Y-66284147D01*
X92131963Y-66373663D01*
X92131963Y-66466337D01*
X92107977Y-66555853D01*
X92061640Y-66636110D01*
X91996110Y-66701640D01*
X91915853Y-66747977D01*
X91826337Y-66771963D01*
X91733663Y-66771963D01*
X91644147Y-66747977D01*
X91563890Y-66701640D01*
X91498360Y-66636110D01*
X91452023Y-66555853D01*
X91428037Y-66466337D01*
X91428037Y-66373663D01*
X91452023Y-66284147D01*
X91498360Y-66203890D01*
X91563890Y-66138360D01*
X91644147Y-66092023D01*
X91733663Y-66068037D01*
X91826337Y-66068037D01*
X91915853Y-66092023D01*
G37*
G36*
X101915853Y-66092023D02*
G01*
X101996110Y-66138360D01*
X102061640Y-66203890D01*
X102107977Y-66284147D01*
X102131963Y-66373663D01*
X102131963Y-66466337D01*
X102107977Y-66555853D01*
X102061640Y-66636110D01*
X101996110Y-66701640D01*
X101915853Y-66747977D01*
X101826337Y-66771963D01*
X101733663Y-66771963D01*
X101644147Y-66747977D01*
X101563890Y-66701640D01*
X101498360Y-66636110D01*
X101452023Y-66555853D01*
X101428037Y-66466337D01*
X101428037Y-66373663D01*
X101452023Y-66284147D01*
X101498360Y-66203890D01*
X101563890Y-66138360D01*
X101644147Y-66092023D01*
X101733663Y-66068037D01*
X101826337Y-66068037D01*
X101915853Y-66092023D01*
G37*
G36*
X111915853Y-66092023D02*
G01*
X111996110Y-66138360D01*
X112061640Y-66203890D01*
X112107977Y-66284147D01*
X112131963Y-66373663D01*
X112131963Y-66466337D01*
X112107977Y-66555853D01*
X112061640Y-66636110D01*
X111996110Y-66701640D01*
X111915853Y-66747977D01*
X111826337Y-66771963D01*
X111733663Y-66771963D01*
X111644147Y-66747977D01*
X111563890Y-66701640D01*
X111498360Y-66636110D01*
X111452023Y-66555853D01*
X111428037Y-66466337D01*
X111428037Y-66373663D01*
X111452023Y-66284147D01*
X111498360Y-66203890D01*
X111563890Y-66138360D01*
X111644147Y-66092023D01*
X111733663Y-66068037D01*
X111826337Y-66068037D01*
X111915853Y-66092023D01*
G37*
M02*
