%TF.GenerationSoftware,KiCad,Pcbnew,10.0.3*%
%TF.CreationDate,2026-09-20T11:28:41-06:00*%
%TF.ProjectId,filter_actuator_rev1,66696c74-6572-45f6-9163-747561746f72,1.0*%
%TF.SameCoordinates,Original*%
%TF.FileFunction,Paste,Bot*%
%TF.FilePolarity,Positive*%
%FSLAX46Y46*%
G04 Gerber Fmt 4.6, Leading zero omitted, Abs format (unit mm)*
G04 Created by KiCad (PCBNEW 10.0.3) date 2026-09-20 11:28:41*
%MOMM*%
%LPD*%
G01*
G04 APERTURE LIST*
G04 Aperture macros list*
%AMRoundRect*
0 Rectangle with rounded corners*
0 $1 Rounding radius*
0 $2 $3 $4 $5 $6 $7 $8 $9 X,Y pos of 4 corners*
0 Add a 4 corners polygon primitive as box body*
4,1,4,$2,$3,$4,$5,$6,$7,$8,$9,$2,$3,0*
0 Add four circle primitives for the rounded corners*
1,1,$1+$1,$2,$3*
1,1,$1+$1,$4,$5*
1,1,$1+$1,$6,$7*
1,1,$1+$1,$8,$9*
0 Add four rect primitives between the rounded corners*
20,1,$1+$1,$2,$3,$4,$5,0*
20,1,$1+$1,$4,$5,$6,$7,0*
20,1,$1+$1,$6,$7,$8,$9,0*
20,1,$1+$1,$8,$9,$2,$3,0*%
G04 Aperture macros list end*
%ADD10RoundRect,0.135000X0.135000X0.185000X-0.135000X0.185000X-0.135000X-0.185000X0.135000X-0.185000X0*%
%ADD11R,1.400000X1.600000*%
%ADD12RoundRect,0.140000X0.140000X0.170000X-0.140000X0.170000X-0.140000X-0.170000X0.140000X-0.170000X0*%
%ADD13RoundRect,0.120000X-0.280000X-0.280000X0.280000X-0.280000X0.280000X0.280000X-0.280000X0.280000X0*%
%ADD14C,1.000000*%
%ADD15RoundRect,0.140000X-0.170000X0.140000X-0.170000X-0.140000X0.170000X-0.140000X0.170000X0.140000X0*%
%ADD16RoundRect,0.140000X-0.140000X-0.170000X0.140000X-0.170000X0.140000X0.170000X-0.140000X0.170000X0*%
%ADD17RoundRect,0.105000X0.395000X0.245000X-0.395000X0.245000X-0.395000X-0.245000X0.395000X-0.245000X0*%
%ADD18RoundRect,0.135000X-0.135000X-0.185000X0.135000X-0.185000X0.135000X0.185000X-0.135000X0.185000X0*%
%ADD19RoundRect,0.135000X0.185000X-0.135000X0.185000X0.135000X-0.185000X0.135000X-0.185000X-0.135000X0*%
%ADD20RoundRect,0.140000X0.170000X-0.140000X0.170000X0.140000X-0.170000X0.140000X-0.170000X-0.140000X0*%
%ADD21C,0.787000*%
%ADD22RoundRect,0.135000X-0.185000X0.135000X-0.185000X-0.135000X0.185000X-0.135000X0.185000X0.135000X0*%
G04 APERTURE END LIST*
D10*
%TO.C,R27*%
X112970000Y-83460000D03*
X111950000Y-83460000D03*
%TD*%
D11*
%TO.C,B4*%
X97480000Y-72770000D03*
X97480000Y-80770000D03*
X101980000Y-72770000D03*
X101980000Y-80770000D03*
%TD*%
D12*
%TO.C,C8*%
X68990000Y-87990000D03*
X68030000Y-87990000D03*
%TD*%
D13*
%TO.C,D3*%
X88980000Y-68470000D03*
X90480000Y-68470000D03*
%TD*%
%TO.C,D2*%
X78980000Y-68470000D03*
X80480000Y-68470000D03*
%TD*%
D11*
%TO.C,B5*%
X107480000Y-72770000D03*
X107480000Y-80770000D03*
X111980000Y-72770000D03*
X111980000Y-80770000D03*
%TD*%
D14*
%TO.C,F3*%
X124730000Y-102320000D03*
%TD*%
%TO.C,F4*%
X62230000Y-68820000D03*
%TD*%
D11*
%TO.C,B3*%
X87480000Y-72770000D03*
X87480000Y-80770000D03*
X91980000Y-72770000D03*
X91980000Y-80770000D03*
%TD*%
D15*
%TO.C,C15*%
X99480000Y-97690000D03*
X99480000Y-98650000D03*
%TD*%
D16*
%TO.C,C27*%
X82670000Y-82370000D03*
X83630000Y-82370000D03*
%TD*%
D17*
%TO.C,B1*%
X73109142Y-74315000D03*
X73109142Y-72165000D03*
X69109142Y-72165000D03*
X69109142Y-74315000D03*
%TD*%
D16*
%TO.C,C30*%
X111980000Y-82460000D03*
X112940000Y-82460000D03*
%TD*%
D13*
%TO.C,D5*%
X108980000Y-68470000D03*
X110480000Y-68470000D03*
%TD*%
%TO.C,D1*%
X68470000Y-68480000D03*
X69970000Y-68480000D03*
%TD*%
D11*
%TO.C,B2*%
X77480000Y-72770000D03*
X77480000Y-80770000D03*
X81980000Y-72770000D03*
X81980000Y-80770000D03*
%TD*%
D16*
%TO.C,C14*%
X100210000Y-96700000D03*
X101170000Y-96700000D03*
%TD*%
D18*
%TO.C,R25*%
X90280000Y-82350000D03*
X91300000Y-82350000D03*
%TD*%
D19*
%TO.C,R9*%
X106300000Y-69500000D03*
X106300000Y-68480000D03*
%TD*%
D12*
%TO.C,C29*%
X99830000Y-82380000D03*
X98870000Y-82380000D03*
%TD*%
D13*
%TO.C,D4*%
X98980000Y-68470000D03*
X100480000Y-68470000D03*
%TD*%
D19*
%TO.C,R8*%
X96180000Y-69480000D03*
X96180000Y-68460000D03*
%TD*%
%TO.C,R6*%
X76330000Y-69510000D03*
X76330000Y-68490000D03*
%TD*%
D10*
%TO.C,R26*%
X102140000Y-82370000D03*
X101120000Y-82370000D03*
%TD*%
D12*
%TO.C,C7*%
X77280000Y-89510000D03*
X76320000Y-89510000D03*
%TD*%
D15*
%TO.C,C10*%
X69610000Y-96810000D03*
X69610000Y-97770000D03*
%TD*%
D19*
%TO.C,R5*%
X65890000Y-69440000D03*
X65890000Y-68420000D03*
%TD*%
D16*
%TO.C,C28*%
X92670000Y-82350000D03*
X93630000Y-82350000D03*
%TD*%
D19*
%TO.C,R7*%
X86360000Y-69470000D03*
X86360000Y-68450000D03*
%TD*%
D18*
%TO.C,R24*%
X80280000Y-82370000D03*
X81300000Y-82370000D03*
%TD*%
D20*
%TO.C,C1*%
X67530000Y-74300000D03*
X67530000Y-73340000D03*
%TD*%
D21*
%TO.C,J2*%
X70890000Y-78710000D03*
%TD*%
D22*
%TO.C,R1*%
X66480000Y-73310000D03*
X66480000Y-74330000D03*
%TD*%
D16*
%TO.C,C9*%
X75360000Y-96710000D03*
X76320000Y-96710000D03*
%TD*%
M02*
